<svg width="32" height="32" viewBox="0 0 32 32" fill="none" xmlns="http://www.w3.org/2000/svg"><path d="M29.08 23.821c.003.017.33 1.674.33 2.483 0 1.286-.206 2.357-.613 3.181a1.599 1.599 0 01-1.428.878h-4.45c-.486 0-.938-.214-1.242-.585-.88-1.08-1.427-2.41-1.427-3.474v-1.57a.32.32 0 01.232-.306c1.862-.544 4.57-.826 8.279-.865.159 0 .291.109.32.258h-.001zm-13.144.689c-1.701-.595-4.42-.906-8.314-.947a.324.324 0 00-.318.26c-.012.068-.315 1.674-.315 2.481 0 1.263.182 2.313.54 3.123.25.569.822.936 1.455.936h4.474c.475 0 .915-.199 1.206-.545.917-1.09 1.488-2.438 1.488-3.514v-1.492a.322.322 0 00-.216-.302zM32 22.75v.668a.834.834 0 01-.839.828h-.274l.026.15c.1.564.15 1.188.15 1.908 0 1.539-.264 2.851-.782 3.9A3.261 3.261 0 0127.369 32h-4.45a3.245 3.245 0 01-2.526-1.193 8.787 8.787 0 01-.672-.944l-.24-.39v1.384c0 .176-.144.32-.323.32h-3.524l-.037.032a3.248 3.248 0 01-2.14.792H8.985a3.262 3.262 0 01-2.137-.794l-.036-.031H1.16A1.157 1.157 0 010 30.026V1.034C0 .464.468 0 1.043 0H5.88c.234 0 .456.076.641.22l.08.063.079-.062C6.864.077 7.087 0 7.319 0h4.836A1.04 1.04 0 0113.2 1.034v1.59l.165-.049c.105-.03.214-.046.321-.046h4.661c.624 0 1.131.502 1.131 1.12v19.375l.17-.055c2.172-.702 5.428-1.046 9.953-1.047h.398l-2.956-2.119a1.13 1.13 0 00-.665-.212c-.287 0-.56.104-.768.296l-.802.732a.324.324 0 01-.457-.02.316.316 0 01.02-.452l.801-.732c.329-.3.756-.465 1.208-.465.377 0 .738.115 1.042.333l3.68 2.637h.058c.462 0 .838.372.838.828l.003.002zm-16.304-1.17c0 .178.145.321.323.321a.322.322 0 00.324-.32L16.34 9.05a.322.322 0 00-.323-.321.322.322 0 00-.323.32v12.532l.001-.001zm-9.536.342h.559c2.193 0 4.109.081 5.695.243l.142.014V1.034a.396.396 0 00-.398-.395h-2.095v6.878c0 .176-.145.32-.324.32a.322.322 0 01-.323-.32L9.418.639H7.322a.397.397 0 00-.398.395v19.55l1.814-1.3a1.776 1.776 0 011.042-.332c.45 0 .879.165 1.208.465l.8.731c.132.12.14.323.019.453a.328.328 0 01-.457.02l-.801-.732a1.139 1.139 0 00-1.434-.084L6.16 21.922l.001-.001zM3.14.639v6.878c0 .177.145.32.323.32a.322.322 0 00.324-.32L3.785.639H3.14h.001zm.645 29.897v-6.878a.322.322 0 00-.323-.32.322.322 0 00-.323.32v6.878h.646zm27.569-7.786a.19.19 0 00-.193-.188h-1.52c-7.283 0-9.572.904-10.67 1.338-.388.153-.667.263-.979.263-.317 0-.568-.111-.914-.266-.97-.433-2.988-1.335-10.358-1.335H5.156a.19.19 0 00-.184.188v.668a.19.19 0 00.192.188h.746c.1 0 .192.044.255.123a.315.315 0 01.058.274c-.159.632-.238 1.407-.238 2.301 0 1.401.21 2.587.624 3.524a2.592 2.592 0 002.377 1.532h4.473c.775 0 1.496-.33 1.98-.903 1.076-1.28 1.72-2.834 1.72-4.153 0-.177.145-.32.323-.32h1.44c.18 0 .324.143.324.32 0 .473.08.981.242 1.509l.028.09c.28.873.755 1.736 1.38 2.502a2.599 2.599 0 002.024.955h4.45c.987 0 1.902-.563 2.333-1.436.475-.962.716-2.18.716-3.619 0-.892-.084-1.665-.248-2.298a.321.321 0 01.312-.4h.68a.19.19 0 00.192-.188v-.668l-.001-.001z" fill="#427E66"/></svg>