<svg width="42" height="32" viewBox="0 0 42 32" fill="none" xmlns="http://www.w3.org/2000/svg"><path fill-rule="evenodd" clip-rule="evenodd" d="M35.995 20.795a.11.11 0 01-.035.02c-1.105.689-2.215 1.352-3.287 1.805.6.326 1.01.854 1.114 1.712a1 1 0 01.008.133c0 .61-.493 1.043-1.192 1.344-.633.272-1.442.438-2.174.526-.46.055-.89.08-1.227.08-.633 0-1.122.012-1.571.023-2.265.053-3.579.082-8.322-1.297a.258.258 0 11.144-.495C24.12 26 25.405 25.972 27.62 25.92a63.353 63.353 0 011.582-.024c.322 0 .73-.023 1.165-.076.693-.082 1.452-.238 2.03-.485.513-.221.874-.508.874-.87a.893.893 0 00-.004-.074c-.105-.863-.613-1.299-1.328-1.518-.776-.237-1.805-.24-2.848-.24-2.978 0-5.3-.84-7.485-1.63-2.25-.813-4.353-1.573-6.863-1.263l-.025.004a8.943 8.943 0 00-.594.094c-1.342.254-2.377.747-3.883 1.466C8.243 22.257 5.428 23.6 0 25.306A728.856 728.856 0 003.609 32c2.84-1.925 5.533-2.697 7.971-2.867 2.5-.174 4.72.285 6.55.78l.159.043c1.938.526 7.088 1.927 10.138.02.33-.206 4.584-3.567 8.238-6.498 2.733-2.193 5.119-4.137 5.249-4.315a.376.376 0 00.084-.258.448.448 0 00-.156-.268l-.01-.01a1.202 1.202 0 00-.428-.23 1.863 1.863 0 00-1.258.055c-1.152.471-2.408 1.256-3.677 2.05-.156.099-.315.197-.472.295l-.002-.002zm.105-.678v-3.18c.075-.066.149-.129.225-.19.107-.09.213-.172.316-.25a1.87 1.87 0 011.202-.377c.188.01.355.051.487.119a.46.46 0 01.22.217.373.373 0 01-.014.272c-.023.061-.247.393-.62.926-.417.592-1.015 1.425-1.733 2.412l-.08.052H36.1zM26.775 2.139l.623 3.47h7.97L33.2 2.138h-6.424zm-3.308 3.47l.635-3.47h-6.756l-2.17 3.47h8.29zm3.972.518h8.138v14.317c-1.234.766-2.467 1.491-3.618 1.9-.829-.222-1.843-.224-2.868-.224-2.892 0-5.166-.824-7.307-1.598-2.232-.807-4.323-1.563-6.826-1.323V6.126h8.463v7.977a.261.261 0 00.378.233l1.639-.702 1.642.75c.13.059.284.001.344-.128a.248.248 0 00.023-.114l-.006-8.014-.002-.002zm-10.375 3.32a.261.261 0 00-.262.26v3.102c0 .144.117.26.262.26h3.782a.261.261 0 00.262-.26V9.706a.261.261 0 00-.262-.26h-3.782zm12.51.518h3.782a.261.261 0 00.261-.26.261.261 0 00-.261-.26h-3.783a.261.261 0 00-.262.26c0 .143.118.26.262.26zm0 1.46h1.89a.261.261 0 00.262-.26.261.261 0 00-.261-.26h-1.892a.261.261 0 00-.262.26c0 .143.118.26.262.26zM11.49 4.338a.096.096 0 00-.095-.095H3.43V1.46h7.967a.096.096 0 00.095-.094V0l4.972 2.85-4.972 2.852V4.336v.002z" fill="#427E66"/></svg>