<svg width="41" height="32" viewBox="0 0 41 32" fill="none" xmlns="http://www.w3.org/2000/svg"><path fill-rule="evenodd" clip-rule="evenodd" d="M36.849 9.506l-17.69 4.82v-4.82l18.746-4.418c-1.188 1.205-1.585 2.945-1.056 4.418zm1.98 11.113l-3.037-.937 1.056-.402c2.64-1.339 2.905-6.56.529-8.435l.924-.134c-1.584-2.142-.793-5.355 1.716-6.159L25.89 0 3.317 3.08C.81 4.418.677 9.238 2.525 11.246l-2.244.803c2.376.937 3.3 4.017 1.716 6.16l2.376.669-2.244.267c-2.904 1.473-2.772 7.23 0 8.703L17.442 32l19.538-5.222c-1.584-2.142-.66-5.221 1.849-6.159zM18.63 14.46L3.845 10.443c-1.716-1.07-1.452-5.221 0-5.757l14.786 4.686v5.088zM3.449 17.138l17.69 4.686v-4.82L2.393 12.586c1.188 1.205 1.452 2.945 1.056 4.552zm18.218 4.82l14.785-4.017c1.717-1.07 1.453-5.221 0-5.757l-14.785 4.82v4.954zm13.993 3.75l-17.69 4.82v-4.955l18.614-4.418a4.711 4.711 0 00-.924 4.552zm-18.35 4.82L2.658 26.51c-1.848-1.072-1.584-5.222 0-5.758l14.654 4.82v4.954z" fill="#427E66"/></svg>