<svg width="39" height="35" viewBox="0 0 39 35" fill="none" xmlns="http://www.w3.org/2000/svg"><path d="M16.905 30.332c.46 2.574 2.666 4.596 5.423 4.596 2.758 0 4.964-2.022 5.423-4.596H16.905zm7.997-28.494A2.677 2.677 0 0022.328 0a2.677 2.677 0 00-2.573 1.838h5.147zm11.582 22.887c-.919-4.963-2.206-13.787-2.206-13.787a9.245 9.245 0 00-9.191-8.18h-5.515c-1.746 0-3.31.46-4.688 1.287.184.183.276.367.368.367h1.839c.735 0 1.837.092 2.665.92 1.103 1.102 1.01 2.481.919 3.584 0 .368-.092.827 0 1.011.092.092.46.368.643.644.827.735 1.93 1.654 1.93 3.217 0 1.562-1.103 2.573-1.93 3.217-.276.183-.643.551-.643.643v.92c.092 1.102.184 2.573-.92 3.584-.826.827-1.93.919-2.665.919h-1.93c-.092.092-.368.46-.643.643-.644.92-1.655 2.023-3.217 2.023-1.38 0-2.298-.92-3.034-1.655 0 .276-.092.46-.092.735-.551 2.758-2.39 4.596-2.39 4.596h33.09s-1.838-1.838-2.39-4.688z" fill="#427E66"/><path d="M19.677 10.42c-.51-1.223.408-3.466-.51-4.384-.917-.917-3.16 0-4.384-.51-1.223-.611-2.14-2.854-3.568-2.854-1.427 0-2.345 2.243-3.466 2.753-1.224.51-3.467-.408-4.384.51-.918.917 0 3.16-.51 4.384C2.243 11.542 0 12.459 0 13.886s2.243 2.345 2.753 3.466c.51 1.224-.408 3.467.51 4.384.917.918 3.16 0 4.384.51C8.87 22.757 9.787 25 11.113 25c1.325 0 2.345-2.243 3.466-2.753 1.224-.51 3.467.408 4.385-.51.917-.917 0-3.16.51-4.384.51-1.223 2.752-2.14 2.752-3.466 0-1.325-2.039-2.345-2.549-3.467zm-12.132-.407c.306-.51.713-.918 1.223-1.326.51-.408 1.02-.51 1.53-.51.203 0 .305 0 .407.102l.306.306c.204 0 .306.102.408.306.102.102.102.306.102.612 0 .51-.102 1.02-.408 1.631-.306.612-.612 1.122-1.121 1.53-.51.407-.918.611-1.428.611-.408 0-.713-.102-1.02-.408-.305-.306-.407-.713-.407-1.223-.102-.612.102-1.122.408-1.631zm7.034 7.238c-.305.51-.713 1.02-1.223 1.326-.408.306-.816.51-1.02.51-.305 0-.51-.204-.815-.51-.306-.408-.408-.816-.408-1.326 0-.407.102-.917.408-1.325.306-.408.612-.918 1.121-1.223.51-.306.918-.51 1.326-.51.204 0 .51.102.611.408.204.102.306.204.408.305.102.102.102.408.102.714 0 .612-.102 1.122-.51 1.631zm1.224-7.442c-.204.306-.714.815-1.427 1.427a21.206 21.206 0 00-2.141 2.141c-.714.714-1.53 1.631-2.447 2.651l-1.224 1.53c-.408.51-.713.917-.917 1.325-.306.408-.408.611-.51.713-.102.102-.204.204-.306.204-.102 0-.204-.102-.408-.408-.204-.305-.204-.611-.204-.815 0-.306.204-.714.612-1.224.408-.51 1.325-1.427 2.549-2.752.612-.612 1.121-1.224 1.733-1.734a9.66 9.66 0 011.325-1.121c.306-.204.816-.612 1.428-1.122.612-.51 1.02-.815 1.121-.917.408-.408.714-.612.918-.714.204-.102.306 0 .306.306-.102-.102-.204.204-.408.51z" fill="#427E66"/><path d="M13.872 14.706c-.092 0-.368.092-.736.276-.367.184-.643.46-.919.827a1.766 1.766 0 00-.367 1.103c0 .276.091.46.183.643.092.092.276.092.46 0 .184-.091.46-.275.643-.643.276-.368.46-.643.644-1.011.184-.368.276-.643.276-.827.092-.184 0-.368-.184-.368zM8.91 12.132c.367 0 .643-.092 1.01-.367.368-.276.552-.552.736-.92.183-.367.275-.643.275-.919 0-.275-.091-.46-.275-.46 0 0-.092 0-.276.093h-.552c-.091 0-.275.092-.46.367-.275.184-.459.46-.643.828-.183.367-.275.643-.275 1.01 0 .184.092.276.184.46.091-.092.183-.092.275-.092z" fill="#427E66"/></svg>