<svg width="36" height="36" viewBox="0 0 36 36" fill="none" xmlns="http://www.w3.org/2000/svg"><g clip-path="url(#clip0_2421_1759)"><path fill-rule="evenodd" clip-rule="evenodd" d="M24.3 10.463a63.836 63.836 0 01-.215 4.008c-.167 2.211-.936 3.973-2.541 4.934-1.558.933-3.632.939-6.01.333l-.061-.016-.06-.023c-2.387-.946-3.421-3.216-3.433-6.223-.057-1.062.176-2.03.815-2.826.628-.784 1.556-1.286 2.657-1.614 1.65-.492 3.93-.658 6.828-.625-.072-1.721-.295-3.047-.673-4.037-.352-.921-.817-1.492-1.375-1.843-.566-.357-1.333-.553-2.403-.53l-.013.001h-.013c-1.473-.007-2.47.51-3.11 1.408-.677.947-1.063 2.465-.944 4.638a1 1 0 11-1.997.109c-.131-2.408.27-4.448 1.313-5.91C14.14.74 15.794-.003 17.799.002c1.32-.027 2.505.211 3.499.836 1.005.633 1.709 1.596 2.177 2.822.482 1.26.735 2.858.808 4.801.294.01.592.023.896.036h.013l.013.002c1.3.091 2.447.279 3.338.698.951.447 1.63 1.172 1.87 2.243l.014.068.006.07.095 1.178a36955.314 36955.314 0 011.457 18.077v.01l.001.009c.097 1.568-.319 2.933-1.456 3.842-1.077.86-2.609 1.148-4.387 1.08l-3.879.056-11.717.17h-.037c-1.953-.042-3.707-.286-4.914-1.234-1.304-1.024-1.717-2.637-1.566-4.717v-.014l1.125-16.678c.12-1.522.423-2.807 1.27-3.672.876-.896 2.108-1.123 3.49-1.12a1 1 0 11-.005 2c-1.233-.003-1.763.22-2.055.518-.321.328-.59.98-.705 2.426L6.025 30.185l-.998-.066.998.067v.006c-.13 1.79.262 2.574.806 3.001.64.502 1.774.764 3.705.807l11.7-.17 3.901-.056h.059c1.6.065 2.557-.22 3.086-.643.471-.376.777-1.007.709-2.147a53525.317 53525.317 0 00-1.456-18.067l-.09-1.1c-.09-.344-.295-.595-.753-.81-.542-.255-1.38-.425-2.615-.512a108.13 108.13 0 00-.778-.032zm-2-.05a61.714 61.714 0 01-.209 3.899v.006c-.14 1.869-.745 2.875-1.574 3.371-.87.52-2.276.665-4.424.127-1.29-.538-2.109-1.813-2.113-4.372v-.028l-.002-.028c-.041-.705.113-1.158.378-1.488.28-.35.784-.684 1.667-.948 1.384-.412 3.435-.574 6.276-.54z" fill="#a80d08"/></g><defs><clipPath id="clip0_2421_1759"><path fill="#fff" d="M0 0h36v36H0z"/></clipPath></defs></svg>