<svg width="36" height="36" viewBox="0 0 36 36" fill="none" xmlns="http://www.w3.org/2000/svg"><path fill-rule="evenodd" clip-rule="evenodd" d="M2 6.36C2 3.78 3.997 1.8 6.423 2.015c3.302.286 8.199 2.025 10.998 3.883l.378.242c.004.002.02.01.05.017a.602.602 0 00.351-.017l.247-.17c2.8-1.878 7.72-3.637 11.022-3.939a1.05 1.05 0 01.096-.004h.045C32.005 1.843 34 3.786 34 6.375v19.15c0 2.113-1.572 4.055-3.568 4.321h-.004l-.484.063c-3.104.442-7.962 2.152-10.698 3.76a2.44 2.44 0 01-1.255.331c-.392 0-.84-.085-1.237-.314l-.042-.022a.994.994 0 01-.036-.02c-2.738-1.596-7.593-3.295-10.686-3.736h-.005l-.425-.063c-1.992-.27-3.56-2.21-3.56-4.32V6.358zm4.238-1.972c-1.116-.1-2.005.775-2.005 1.971v19.165c0 .932.75 1.846 1.612 1.96l.014.003.427.063h.002c3.36.479 8.461 2.263 11.44 3.995l.042.022.041.023s.014.008.046.015a.579.579 0 00.291-.008l.012-.007c2.979-1.753 8.113-3.561 11.496-4.04l.013-.003.486-.062h.002c.861-.116 1.61-1.03 1.61-1.96V6.374c0-1.2-.893-2.072-2.02-1.971a1.044 1.044 0 01-.093.004h-.04c-2.948.282-7.485 1.907-9.972 3.573l-.264.183A2.512 2.512 0 0118 8.556c-.437 0-.937-.104-1.37-.387l-.382-.245c-2.5-1.661-7.061-3.282-10.007-3.536h-.003z" fill="#427E66"/><path fill-rule="evenodd" clip-rule="evenodd" d="M18 6.486c.616 0 1.116.533 1.116 1.19v23.797c0 .658-.5 1.19-1.116 1.19-.616 0-1.116-.532-1.116-1.19V7.677c0-.657.5-1.19 1.116-1.19zM7.21 12.435c0-.657.5-1.19 1.116-1.19h3.348c.617 0 1.117.533 1.117 1.19 0 .658-.5 1.19-1.117 1.19H8.326c-.617 0-1.117-.532-1.117-1.19zm0 4.76c0-.657.5-1.19 1.116-1.19h4.465c.616 0 1.116.533 1.116 1.19 0 .657-.5 1.19-1.116 1.19H8.326c-.617 0-1.117-.533-1.117-1.19z" fill="#427E66"/></svg>