<svg width="36" height="36" viewBox="0 0 36 36" fill="none" xmlns="http://www.w3.org/2000/svg"><g clip-path="url(#clip0_2424_1598)"><path fill-rule="evenodd" clip-rule="evenodd" d="M18.584 26.016a1 1 0 01-.85-.47l-.599-.957c-2.17-3.471-3.519-5.63-5.17-7.383-1.764-1.872-3.905-3.308-7.892-5.286a.998.998 0 11.89-1.79c4.07 2.019 6.457 3.58 8.46 5.707 1.733 1.84 3.153 4.08 5.158 7.29 2-3.212 3.415-5.456 5.138-7.298 1.992-2.128 4.363-3.694 8.403-5.72a.998.998 0 11.898 1.786c-3.957 1.984-6.083 3.423-7.838 5.299-1.642 1.754-2.986 3.914-5.147 7.383l-.603.968a1 1 0 01-.848.471z" fill="#242a33"/></g><defs><clipPath id="clip0_2424_1598"><path fill="#fff" d="M0 0h36v36H0z"/></clipPath></defs></svg>