<svg width="36" height="36" viewBox="0 0 36 36" fill="none" xmlns="http://www.w3.org/2000/svg"><g clip-path="url(#clip0_2424_1595)"><path fill-rule="evenodd" clip-rule="evenodd" d="M27.993 18c0 .345-.178.666-.47.85l-.958.597c-3.474 2.167-5.634 3.514-7.388 5.164-1.873 1.762-3.311 3.903-5.292 7.888a.998.998 0 11-1.79-.892c2.023-4.067 3.587-6.454 5.714-8.455 1.841-1.732 4.084-3.15 7.295-5.152-3.211-2.002-5.453-3.42-7.294-5.144-2.127-1.994-3.69-4.366-5.713-8.408a.998.998 0 111.787-.897c1.98 3.96 3.418 6.087 5.292 7.843 1.753 1.643 3.911 2.99 7.38 5.153l.966.604a1 1 0 01.47.849z" fill="#427E66"/></g><defs><clipPath id="clip0_2424_1595"><path fill="#fff" d="M0 0h36v36H0z"/></clipPath></defs></svg>