<svg width="36" height="36" viewBox="0 0 36 36" fill="none" xmlns="http://www.w3.org/2000/svg"><g clip-path="url(#clip0_2421_1768)"><path fill-rule="evenodd" clip-rule="evenodd" d="M8 18c0 .345.179.666.471.85l.958.597c3.473 2.167 5.633 3.514 7.387 5.164 1.874 1.762 3.312 3.903 5.293 7.888a.998.998 0 101.789-.892c-2.022-4.067-3.586-6.454-5.714-8.455-1.84-1.732-4.083-3.15-7.294-5.152 3.21-2.002 5.453-3.42 7.293-5.144 2.127-1.994 3.691-4.366 5.714-8.408a.998.998 0 10-1.787-.897c-1.98 3.96-3.418 6.087-5.292 7.843-1.753 1.643-3.912 2.99-7.38 5.153l-.967.604c-.292.183-.47.504-.47.849z" fill="#427E66"/></g><defs><clipPath id="clip0_2421_1768"><path fill="#fff" d="M0 0h36v36H0z"/></clipPath></defs></svg>