<svg width="36" height="36" viewBox="0 0 36 36" fill="none" xmlns="http://www.w3.org/2000/svg"><path fill-rule="evenodd" clip-rule="evenodd" d="M19.417 18.063a1.008 1.008 0 000-.126c3.157-1.969 5.371-3.374 7.193-5.081 2.127-1.994 3.69-4.366 5.713-8.408a.998.998 0 10-1.786-.897c-1.981 3.96-3.419 6.087-5.293 7.843-1.743 1.634-3.887 2.975-7.32 5.117-3.434-2.142-5.578-3.483-7.322-5.117C8.73 9.638 7.291 7.51 5.31 3.552a.998.998 0 10-1.787.896c2.023 4.042 3.587 6.414 5.714 8.408 1.821 1.707 4.035 3.112 7.192 5.081a1.008 1.008 0 000 .126c-3.157 1.97-5.372 3.376-7.193 5.09-2.128 2-3.692 4.387-5.714 8.454a.998.998 0 101.789.892c1.981-3.985 3.42-6.126 5.293-7.888 1.742-1.64 3.886-2.98 7.32-5.122 3.433 2.142 5.576 3.483 7.319 5.122 1.873 1.762 3.311 3.903 5.292 7.888a.998.998 0 101.79-.892c-2.023-4.067-3.587-6.454-5.714-8.455-1.822-1.713-4.037-3.12-7.194-5.09z" fill="#242A33"/></svg>