<svg width="68" height="96" viewBox="0 0 68 96" fill="none" xmlns="http://www.w3.org/2000/svg"><g clip-path="url(#clip0_8563_68525)"><path fill="#FBF7F1" d="M0 0h68v96H0z"/><path d="M.5.5h51.293L67.5 16.207V95.5H.5V.5z" stroke="#B7B9BC"/><path d="M52 0h16v16L52 0z" fill="#fff"/><path d="M9.078 86v-8.4h2.856c.752 0 1.344.208 1.776.624.432.408.648.972.648 1.692s-.216 1.288-.648 1.704c-.432.408-1.024.612-1.776.612H9.87V86h-.792zm.792-4.512h2.076c.528 0 .924-.136 1.188-.408.264-.28.396-.668.396-1.164 0-.496-.132-.88-.396-1.152-.264-.28-.66-.42-1.188-.42H9.87v3.144zM15.969 86v-8.4h2.208c1.112 0 2.024.384 2.736 1.152.72.76 1.08 1.776 1.08 3.048s-.36 2.292-1.08 3.06c-.712.76-1.624 1.14-2.736 1.14h-2.208zm.792-.744h1.428c.856 0 1.564-.296 2.124-.888.568-.592.852-1.448.852-2.568s-.284-1.976-.852-2.568c-.56-.592-1.268-.888-2.124-.888H16.76v6.912zm6.93.744v-8.4h4.824v.744h-4.032v2.904h3.312v.744h-3.312V86h-.792z" fill="#427E66"/></g><defs><clipPath id="clip0_8563_68525"><path fill="#fff" d="M0 0h68v96H0z"/></clipPath></defs></svg>