<svg width="24" height="24" viewBox="0 0 24 24" fill="none" xmlns="http://www.w3.org/2000/svg"><path fill-rule="evenodd" clip-rule="evenodd" d="M14.314 14.314C12.43 16.26 12.3 18.686 12.13 24c4.954 0 8.374-.017 10.14-1.731C23.983 20.503 24 16.92 24 12.129c-5.314.171-7.74.3-9.686 2.185zM11.871 24c-4.954 0-8.374-.017-10.14-1.731C.017 20.503 0 16.92 0 12.129c5.314.171 7.74.3 9.686 2.185C11.57 16.26 11.7 18.686 11.87 24zM9.686 9.686C7.74 11.57 5.314 11.7 0 11.87 0 7.08.017 3.497 1.731 1.731 3.497.017 6.926 0 11.871 0c-.171 5.314-.3 7.74-2.185 9.686zM12.129 0c.162 5.314.3 7.74 2.185 9.686C16.26 11.57 18.686 11.7 24 11.87c0-4.791-.017-8.374-1.731-10.14C20.503.017 17.083 0 12.129 0z" fill="#fff"/></svg>