<svg width="20" height="20" viewBox="0 0 20 20" fill="none" xmlns="http://www.w3.org/2000/svg"><path fill-rule="evenodd" clip-rule="evenodd" d="M16.072 3.5A2.5 2.5 0 0118.5 6v8a2.5 2.5 0 01-2.5 2.5H4A2.5 2.5 0 011.5 14V6a2.5 2.5 0 012.428-2.5h12.144zM2.748 5.174c-.157.237-.248.52-.248.826v8A1.5 1.5 0 004 15.5h12a1.5 1.5 0 001.5-1.5V6a1.49 1.49 0 00-.248-.826 1.25 1.25 0 01-.335.497l-4.552 4.173a3.5 3.5 0 01-4.73 0L3.083 5.67a1.25 1.25 0 01-.335-.497zM16 4.5c.042 0 .083.002.123.005a.25.25 0 01.118.43l-4.552 4.172a2.5 2.5 0 01-3.378 0L3.759 4.934a.25.25 0 01.118-.429c.04-.003.081-.005.123-.005h12z" fill="#D9E5E0"/></svg>