<svg xmlns="http://www.w3.org/2000/svg" width="25" height="24" viewBox="0 0 25 24" fill="none"><path fill-rule="evenodd" clip-rule="evenodd" d="M20.286 4c.084 0 .165.006.243.017 1.576.163 2.804 1.47 2.804 3.06v9.846c0 1.7-1.404 3.077-3.137 3.077H5.137C3.405 20 2 18.622 2 16.923V7.077c0-1.59 1.228-2.897 2.805-3.06.078-.011.159-.017.242-.017h15.24zM3.566 6.06a1.81 1.81 0 00-.311 1.017v9.846c0 1.02.843 1.846 1.882 1.846h15.06c1.039 0 1.881-.826 1.881-1.846V7.077c0-.376-.114-.725-.31-1.017-.082.221-.22.431-.422.613l-5.712 5.135a4.456 4.456 0 01-5.935 0L3.987 6.673a1.536 1.536 0 01-.421-.613zm16.63-.83c.052 0 .104.003.155.007.24.047.341.354.147.528L14.786 10.9a3.183 3.183 0 01-4.24 0l-5.71-5.135a.306.306 0 01.147-.528c.051-.004.103-.006.155-.006h15.059z" fill="#427E66"/></svg>