<svg width="36" height="36" viewBox="0 0 36 36" fill="none" xmlns="http://www.w3.org/2000/svg"><g clip-path="url(#clip0_2421_1760)"><path fill-rule="evenodd" clip-rule="evenodd" d="M7.006 4.28C4.553 5.323 3.086 7.36 2.42 9.824c-.68 2.513-.507 5.425.319 7.981M7.006 4.28c2.503-.53 4.16-.273 5.5.47 1.363.756 2.526 2.083 3.895 4.018-1.025 1.745-1.704 3.61-1.778 5.16-.038.817.087 1.658.542 2.337.487.726 1.255 1.125 2.184 1.184 1.054.067 1.886-.402 2.376-1.219.442-.736.563-1.675.522-2.585-.067-1.518-.599-3.31-1.473-4.874.948-1.361 2.137-2.602 3.439-3.456 1.535-1.008 3.147-1.43 4.714-1.017l.01.002.009.002c2.669.648 4.71 2.248 5.763 4.516 1.035 2.228 1.174 5.227-.177 8.824l-.087.223c-2.193 5.589-6.779 10.628-15.012 14.982C9.375 27.704 4.304 22.649 2.739 17.805m14.819-6.96c-.573 1.195-.896 2.315-.937 3.177-.028.587.08.942.205 1.13.095.14.255.276.65.3.305.02.427-.073.534-.25.154-.258.272-.743.24-1.469-.039-.863-.28-1.888-.692-2.888zM17.592 7c-1.248-1.699-2.523-3.116-4.117-4-1.894-1.05-4.103-1.28-6.982-.655l-.087.018-.082.034C3.134 3.713 1.29 6.341.489 9.302c-.795 2.94-.58 6.25.346 9.118 1.83 5.66 7.623 11.144 16.017 16.426l.483.305.508-.262c8.555-4.416 13.649-9.651 16.204-15.658h.015l.248-.637c1.592-4.083 1.549-7.742.213-10.618-1.336-2.878-3.906-4.838-7.096-5.615-2.277-.596-4.468.073-6.311 1.281-1.34.879-2.537 2.067-3.524 3.357z" fill="#fff"/></g><defs><clipPath id="clip0_2421_1760"><path fill="#fff" d="M0 0h36v36H0z"/></clipPath></defs></svg>