<svg width="36" height="36" viewBox="0 0 36 36" fill="none" xmlns="http://www.w3.org/2000/svg"><path fill-rule="evenodd" clip-rule="evenodd" d="M17.445 1.143c.345-.19.765-.19 1.11 0L28.82 6.821c2.5 1.25 3.845 2.87 4.527 4.567.653 1.627.653 3.234.653 4.354v14.844c0 1.281-.562 2.192-1.332 2.744-.712.51-1.533.67-2.097.67h-5.714c-1.287 0-2.201-.56-2.756-1.327a3.667 3.667 0 01-.672-2.087v-5.69c0-.539-.2-.766-.382-.897a1.42 1.42 0 00-.761-.24h-4.572c-.198 0-.52.068-.76.24-.182.13-.383.358-.383.898v5.69c0 .56-.16 1.377-.672 2.086-.555.768-1.47 1.327-2.756 1.327H5.429c-.564 0-1.385-.16-2.097-.67C2.562 32.778 2 31.867 2 30.586V15.742c0-1.12 0-2.727.653-4.354C3.335 9.69 4.681 8.07 7.181 6.82l10.264-5.678zM18 3.44L8.27 8.822l-.045.023c-2.057 1.024-2.99 2.246-3.45 3.388-.479 1.193-.49 2.406-.49 3.56v14.793c0 .54.2.767.383.897.24.173.563.241.76.241h5.715c.542 0 .77-.2.901-.38.173-.24.242-.56.242-.758v-5.69c0-1.28.562-2.191 1.332-2.744a3.706 3.706 0 012.096-.67h4.572c.564 0 1.384.16 2.096.67.77.553 1.332 1.463 1.332 2.745v5.69c0 .196.07.518.242.757.131.18.36.38.901.38h5.714c.198 0 .521-.068.761-.24.182-.131.382-.358.382-.898V15.793c0-1.154-.01-2.367-.49-3.56-.458-1.142-1.392-2.364-3.45-3.388a1.176 1.176 0 01-.043-.023L18 3.44z" fill="#fff"/></svg>