<svg width="36" height="36" viewBox="0 0 36 36" fill="none" xmlns="http://www.w3.org/2000/svg"><path fill-rule="evenodd" clip-rule="evenodd" d="M17.956 3.063c-5.41.227-7.887 3.807-7.854 7.147.017 1.696.678 3.332 1.94 4.501 1.25 1.159 3.17 1.934 5.852 1.77 1.33-.08 2.287-.434 2.965-.975.672-.537 1.166-1.336 1.43-2.49.591-2.607-1.536-4.93-4.318-4.802h-.05c-1.196 0-1.855.353-2.25.76-.42.437-.667 1.067-.772 1.815-.105.741-.06 1.507.02 2.107a9.513 9.513 0 00.165.9l.012.044.002.008a1.03 1.03 0 01-.746 1.262 1.053 1.053 0 01-1.286-.732l1.016-.265-1.016.264v-.003l-.002-.007-.006-.021-.018-.071a11.606 11.606 0 01-.204-1.111c-.094-.701-.16-1.668-.02-2.66.14-.984.497-2.087 1.331-2.95.857-.886 2.1-1.398 3.75-1.402 4.016-.17 7.365 3.255 6.443 7.314v.002c-.345 1.506-1.044 2.751-2.155 3.638-1.105.883-2.52 1.334-4.16 1.434h-.001c-3.183.194-5.697-.727-7.425-2.329-1.716-1.59-2.577-3.778-2.599-5.98-.044-4.453 3.325-8.965 9.89-9.23L17.933 1C24.31.99 29.018 5.547 29 11.44c.004 1.157-.406 3.112-1.022 5.294a72.119 72.119 0 01-2.505 7.27c-.996 2.456-2.128 4.83-3.273 6.622-.57.892-1.17 1.68-1.784 2.262-.59.56-1.33 1.061-2.187 1.108-1.192.067-2.253-.724-3.08-1.581-.88-.914-1.756-2.178-2.583-3.597-1.66-2.848-3.224-6.497-4.303-9.702a1.028 1.028 0 01.668-1.303 1.055 1.055 0 011.328.656c1.046 3.108 2.557 6.624 4.131 9.324.79 1.355 1.57 2.46 2.286 3.204.77.799 1.247.95 1.433.94h.003c.098-.006.377-.09.844-.533.443-.42.938-1.052 1.464-1.875 1.049-1.64 2.126-3.886 3.1-6.288a70.05 70.05 0 002.432-7.058c.62-2.193.95-3.9.946-4.738v-.008c.016-4.683-3.673-8.373-8.942-8.374zm.273 30.933h-.001l-.058-1.03.061 1.03h-.002z" fill="#427E66"/></svg>