<svg width="36" height="36" viewBox="0 0 36 36" fill="none" xmlns="http://www.w3.org/2000/svg"><path fill-rule="evenodd" clip-rule="evenodd" d="M12.317 2.819a.9.9 0 01.85-.024l10.041 5.021 8.745-4.997A.9.9 0 0133.3 3.6v23.564a.9.9 0 01-.453.781l-9.164 5.236a.9.9 0 01-.85.024l-10.041-5.021-8.745 4.997A.9.9 0 012.7 32.4V8.836a.9.9 0 01.453-.781l9.164-5.236zm1.347 23.788l8.672 4.337V9.393l-8.672-4.337v21.551zm-1.8-21.456L4.5 9.359v21.49l7.364-4.208V5.151zm12.272 4.208v21.49l7.364-4.208V5.151l-7.364 4.208z" fill="#427E66"/></svg>