<svg width="36" height="36" viewBox="0 0 36 36" fill="none" xmlns="http://www.w3.org/2000/svg"><path fill-rule="evenodd" clip-rule="evenodd" d="M2.006 6.891a1 1 0 011.103-.885L3 7l-.109.994a1 1 0 01-.885-1.103zM33 7l.109.994h-.007l-.02.003-.08.009a125.934 125.934 0 01-1.423.145c-.952.095-2.283.22-3.798.346C24.759 8.747 20.975 9 18 9c-2.975 0-6.759-.253-9.78-.503a243.25 243.25 0 01-5.222-.491l-.08-.009-.02-.002h-.006L3 7l.109-.994h.006l.02.003.076.008a122.01 122.01 0 001.407.144 240.3 240.3 0 003.766.342C11.396 6.753 15.112 7 18 7s6.604-.247 9.616-.497a241.361 241.361 0 005.173-.486l.077-.008.02-.002h.004v-.001h.001L33 7zm0 0l-.109-.994a1 1 0 01.218 1.988L33 7zM8 18a1 1 0 011-1h18a1 1 0 110 2H9a1 1 0 01-1-1zM3 29l.109.994h.006l.02-.003.076-.008.297-.031a239.985 239.985 0 014.876-.455C11.396 29.247 15.112 29 18 29s6.604.247 9.616.497a239.91 239.91 0 015.173.486l.077.008.02.002h.004v.001h.001L33 29l-.109.994a1 1 0 00.218-1.988l-.108.986.108-.986h-.007l-.02-.003-.08-.009a243.566 243.566 0 00-5.222-.491C24.76 27.253 20.975 27 18 27c-2.975 0-6.759.253-9.78.503a243.478 243.478 0 00-5.222.491l-.08.009-.02.002h-.006L3 29l-.109-.994a1 1 0 00.218 1.988L3 29z" fill="#427E66"/></svg>