<svg width="21" height="20" viewBox="0 0 21 20" fill="none" xmlns="http://www.w3.org/2000/svg"><path fill-rule="evenodd" clip-rule="evenodd" d="M10.5 3.5a3.389 3.389 0 100 6.778 3.389 3.389 0 000-6.778zM6.111 6.889a4.389 4.389 0 118.778 0 4.389 4.389 0 01-8.778 0zm4.39 6.611c-1.884 0-3.663.418-4.874.792-.8.247-1.365.963-1.504 1.842l-.128.934a.5.5 0 01-.99-.136l.13-.947c.187-1.205.98-2.273 2.197-2.649 1.264-.39 3.148-.836 5.168-.836s3.904.446 5.168.836c1.216.376 2.01 1.444 2.197 2.649l.002.009.128.938a.5.5 0 01-.99.136l-.128-.934c-.139-.88-.705-1.595-1.504-1.842-1.211-.374-2.99-.792-4.873-.792z" fill="#D9E5E0"/></svg>