<svg width="16" height="16" viewBox="0 0 16 16" fill="none" xmlns="http://www.w3.org/2000/svg"><g id="Icon"><path id="Vector" fill-rule="evenodd" clip-rule="evenodd" d="M13.5 5.072h-.834v-2.88a.467.467 0 00-.466-.467H6.59L3.5 4.827v.245h-.833V4.48L6.244.889H12.2c.717 0 1.3.585 1.3 1.304v2.879zM12.25 15.11H3.916c-.689 0-1.25-.563-1.25-1.255H3.5c0 .23.186.418.416.418h8.334a.417.417 0 00.416-.418h.834c0 .692-.561 1.255-1.25 1.255zM2.61 9.944v1.82h-.833v-5.02h1.9c.574 0 1.026.148 1.356.442.33.295.494.681.494 1.162 0 .48-.165.867-.494 1.158-.33.293-.782.438-1.356.438H2.61zm0-.69h1.16c.28 0 .49-.076.635-.228a.85.85 0 00.166-.28.89.89 0 00.05-.328.88.88 0 00-.05-.323.84.84 0 00-.164-.277c-.144-.158-.355-.237-.637-.237H2.611v1.674zm4.167 2.51v-5.02h1.667c.612 0 1.166.196 1.562.59.396.39.521.893.521 1.507v.83c0 .616-.125 1.119-.521 1.508-.396.39-.95.585-1.562.585H6.777zm.834-4.243v3.468h.832c.36 0 .642-.122.845-.364.204-.244.306-.562.306-.954v-.837c0-.388-.102-.704-.306-.947-.204-.245-.486-.366-.845-.366h-.832zm6.666 2.57h-1.666v1.673h-.834v-5.02h3.334v.777h-2.5v1.795h1.666v.775z" fill="#fff"/></g></svg>