<svg width="12" height="12" viewBox="0 0 12 12" fill="none" xmlns="http://www.w3.org/2000/svg"><path fill-rule="evenodd" clip-rule="evenodd" d="M8.078 2.12l-.806.807 1.8 1.8.806-.807.02-.065c.023-.086.047-.21.05-.354.003-.283-.075-.656-.435-1.015-.36-.36-.732-.438-1.015-.434a1.443 1.443 0 00-.42.069zm2.108 2l.327.148.002-.003.002-.005.006-.014.018-.047a2.162 2.162 0 00.124-.689c.006-.441-.125-1.012-.644-1.532-.52-.52-1.091-.65-1.533-.644a2.162 2.162 0 00-.735.142l-.014.006-.005.002-.002.001H7.73l.148.327-.149-.326a.359.359 0 00-.105.073L1.752 7.432a.359.359 0 00-.103.211l-.314 2.622a.359.359 0 00.399.4l2.622-.315a.359.359 0 00.21-.103l5.874-5.873a.358.358 0 00.073-.105l-.327-.15zM8.564 5.234l-1.8-1.8-4.417 4.418-.245 2.045 2.045-.245 4.417-4.418z" fill="#fff"/></svg>