<svg width="36" height="36" viewBox="0 0 36 36" fill="none" xmlns="http://www.w3.org/2000/svg"><path fill-rule="evenodd" clip-rule="evenodd" d="M9.108 2.14C11.05.921 13.505.535 15.567 1.698l.004.002c2.97 1.694 4.173 4.104 3.82 6.565-.338 2.348-2.055 4.456-4.282 5.778-1.609.964-3.51 1.498-5.393 1.824-.686.12-1.38.212-2.067.288 1.215 4.481 4.284 8.827 9.455 13.03l.002.002a8.96 8.96 0 001.115.78c.412-3.175 2.409-6.23 4.873-8.064 1.353-1.007 2.92-1.703 4.534-1.801 1.647-.101 3.272.429 4.635 1.747 1.508 1.457 2.002 3.189 1.606 4.888-.38 1.63-1.54 3.077-3.026 4.181-2.53 1.88-6.32 2.998-10.038 2.305.165.363.372.7.617 1.01a1.085 1.085 0 01-.194 1.535 1.116 1.116 0 01-1.553-.19 7.074 7.074 0 01-1.413-3.133 10.92 10.92 0 01-2.566-1.572c-5.582-4.536-8.996-9.39-10.284-14.52-.42.031-.832.058-1.23.085a1.103 1.103 0 01-1.18-1.018 1.098 1.098 0 011.031-1.165c.318-.02.64-.042.965-.065a20.147 20.147 0 01.12-6.023m2.09 5.835a32.075 32.075 0 002.125-.29c1.755-.303 3.354-.775 4.63-1.54l.004-.002c1.83-1.087 3.012-2.692 3.23-4.213.203-1.407-.383-3.022-2.73-4.361-1.155-.65-2.712-.526-4.173.39-1.447.907-2.653 2.52-2.99 4.537a17.96 17.96 0 00-.096 5.479zm13.155 16.872c3.291.93 6.858-.002 9.15-1.704 1.222-.91 1.972-1.956 2.198-2.924.21-.898.005-1.866-.996-2.832l-.001-.001c-.907-.878-1.915-1.191-2.95-1.128-1.067.065-2.23.54-3.337 1.365-2.234 1.663-3.951 4.52-4.064 7.224zM9.108 2.139a8.863 8.863 0 00-3.99 6.028l3.99-6.028z" fill="#427E66"/></svg>