<svg width="24" height="24" viewBox="0 0 24 24" fill="none" xmlns="http://www.w3.org/2000/svg"><path d="M1.471 10.643s10.615-4.357 14.296-5.89c1.412-.614 6.197-2.578 6.197-2.578s2.21-.859 2.025 1.227c-.061.86-.552 3.866-1.043 7.118-.736 4.602-1.534 9.633-1.534 9.633s-.123 1.411-1.166 1.657c-1.043.245-2.76-.86-3.067-1.105-.246-.184-4.602-2.945-6.197-4.295-.43-.368-.92-1.104.06-1.963 2.21-2.025 4.848-4.54 6.443-6.136.737-.736 1.473-2.454-1.595-.368-4.356 3.006-8.651 5.829-8.651 5.829s-.982.613-2.823.061c-1.84-.552-3.988-1.289-3.988-1.289s-1.472-.92 1.043-1.902z" fill="#fff"/></svg>