<svg width="24" height="24" viewBox="0 0 24 24" fill="none" xmlns="http://www.w3.org/2000/svg"><g id="Icon"><path id="Vector" fill-rule="evenodd" clip-rule="evenodd" d="M11.773 14.231a.6.6 0 00.843 0l4.371-4.32a.6.6 0 00-.844-.854l-3.349 3.31V3a.6.6 0 00-1.2 0v9.368l-3.349-3.31a.6.6 0 10-.843.853l4.37 4.32zM3.6 12.081a.6.6 0 01.6.6v4.16c0 1.955 1.617 3.559 3.635 3.559h8.33c2.018 0 3.635-1.604 3.635-3.56v-4.158a.6.6 0 011.2 0v4.159c0 2.638-2.175 4.759-4.835 4.759h-8.33C5.175 21.6 3 19.48 3 16.84v-4.158a.6.6 0 01.6-.6z" fill="#427E66"/></g></svg>