<svg width="16" height="16" viewBox="0 0 16 16" fill="none" xmlns="http://www.w3.org/2000/svg"><g id="Icon" fill-rule="evenodd" clip-rule="evenodd"><path id="path2" d="M5.547 0h4.906C14.933 0 16 1.067 16 5.547v4.906C16 14.933 14.933 16 10.453 16H5.547C1.067 16 0 14.933 0 10.453V5.547C0 1.067 1.067 0 5.547 0z" fill="#2787F5"/><path id="path4" d="M13.103 5.512c.074-.247 0-.429-.353-.429h-1.166a.504.504 0 00-.508.33s-.593 1.446-1.434 2.385c-.272.272-.395.359-.544.359-.074 0-.181-.087-.181-.334V5.512c0-.297-.086-.429-.333-.429H6.75c-.185 0-.297.138-.297.268 0 .281.42.346.464 1.137v1.718c0 .377-.068.445-.216.445-.396 0-1.358-1.452-1.929-3.114-.111-.323-.224-.454-.522-.454H3.084c-.334 0-.4.157-.4.33 0 .309.395 1.842 1.841 3.869.964 1.384 2.323 2.134 3.559 2.134.741 0 .833-.166.833-.453V9.916c0-.333.07-.4.305-.4.173 0 .47.087 1.162.754.79.792.921 1.146 1.366 1.146h1.167c.333 0 .5-.166.404-.495-.105-.328-.483-.804-.984-1.367-.272-.322-.68-.668-.804-.84-.173-.223-.123-.322 0-.52 0 0 1.422-2.002 1.57-2.682z" fill="#fff"/></g></svg>