<svg width="24" height="24" viewBox="0 0 24 24" fill="none" xmlns="http://www.w3.org/2000/svg"><path fill-rule="evenodd" clip-rule="evenodd" d="M8.32 0h7.36C22.4 0 24 1.6 24 8.32v7.36C24 22.4 22.4 24 15.68 24H8.32C1.6 24 0 22.4 0 15.68V8.32C0 1.6 1.6 0 8.32 0z" fill="#fff"/><path fill-rule="evenodd" clip-rule="evenodd" d="M19.655 8.268c.11-.37 0-.643-.53-.643h-1.75c-.445 0-.65.235-.761.495 0 0-.89 2.17-2.15 3.578-.409.408-.594.538-.816.538-.112 0-.273-.13-.273-.5V8.267c0-.445-.129-.643-.5-.643h-2.75c-.278 0-.445.207-.445.402 0 .422.63.52.695 1.706v2.577c0 .565-.102.667-.324.667-.593 0-2.036-2.178-2.892-4.672-.168-.484-.336-.68-.784-.68h-1.75c-.5 0-.6.235-.6.495 0 .463.594 2.762 2.763 5.803 1.446 2.076 3.483 3.202 5.337 3.202 1.113 0 1.25-.25 1.25-.68v-1.57c0-.5.106-.6.458-.6.26 0 .705.13 1.743 1.131 1.186 1.187 1.382 1.719 2.05 1.719h1.75c.5 0 .75-.25.605-.743-.158-.492-.724-1.206-1.476-2.051-.408-.482-1.02-1.001-1.205-1.26-.26-.335-.185-.483 0-.78 0 0 2.132-3.003 2.355-4.023z" fill="#427E66"/></svg>