<svg width="18" height="18" viewBox="0 0 18 18" fill="none" xmlns="http://www.w3.org/2000/svg"><path d="M1.104 7.982s7.96-3.267 10.721-4.418c1.059-.46 4.648-1.933 4.648-1.933s1.657-.644 1.519.92c-.046.645-.414 2.9-.783 5.339-.552 3.451-1.15 7.225-1.15 7.225s-.092 1.058-.874 1.242c-.783.184-2.071-.644-2.301-.828-.184-.138-3.451-2.21-4.648-3.222-.322-.276-.69-.828.046-1.472a175.895 175.895 0 004.832-4.602c.552-.552 1.104-1.84-1.197-.276C8.65 8.212 5.43 10.329 5.43 10.329s-.736.46-2.117.046c-1.38-.414-2.99-.967-2.99-.967s-1.105-.69.782-1.426z" fill="#575B62"/></svg>