<svg width="18" height="18" viewBox="0 0 18 18" fill="none" xmlns="http://www.w3.org/2000/svg"><path fill-rule="evenodd" clip-rule="evenodd" d="M11.76 0H6.24C1.2 0 0 1.2 0 6.24v5.52C0 16.8 1.2 18 6.24 18h5.52C16.8 18 18 16.8 18 11.76V6.24C18 1.2 16.8 0 11.76 0zm2.584 5.719c.397 0 .48.204.397.482-.167.765-1.766 3.018-1.766 3.018-.14.222-.195.333 0 .584.068.096.215.239.382.403.172.168.367.359.522.542.563.634.988 1.17 1.107 1.538.108.37-.08.558-.455.558H13.22c-.352 0-.529-.197-.911-.623-.162-.18-.361-.402-.626-.666-.78-.751-1.113-.849-1.308-.849-.264 0-.343.075-.343.45v1.177c0 .323-.103.51-.937.51-1.39 0-2.919-.843-4.003-2.4C3.464 8.161 3.019 6.437 3.019 6.09c0-.195.075-.371.45-.371H4.78c.336 0 .462.147.588.51.642 1.87 1.724 3.504 2.169 3.504.167 0 .243-.077.243-.5V7.3c-.03-.55-.222-.788-.364-.965-.088-.108-.157-.194-.157-.315 0-.146.125-.301.334-.301h2.062c.278 0 .375.148.375.482v2.6c0 .279.121.376.204.376.167 0 .306-.097.612-.403.946-1.057 1.613-2.684 1.613-2.684.084-.195.237-.371.571-.371h1.313z" fill="#575B62"/></svg>