<svg width="18" height="18" viewBox="0 0 18 18" fill="none" xmlns="http://www.w3.org/2000/svg"><path fill-rule="evenodd" clip-rule="evenodd" d="M10.736 10.736C9.32 12.195 9.225 14.014 9.096 18c3.716 0 6.281-.013 7.605-1.299C17.987 15.377 18 12.69 18 9.096c-3.986.129-5.805.225-7.264 1.64zM8.904 18c-3.716 0-6.281-.013-7.605-1.299C.013 15.377 0 12.69 0 9.096c3.986.129 5.805.225 7.264 1.64C8.68 12.195 8.775 14.014 8.904 18zM7.264 7.264C5.805 8.68 3.986 8.775 0 8.904 0 5.31.013 2.623 1.299 1.299 2.623.013 5.194 0 8.904 0c-.129 3.986-.225 5.805-1.64 7.264zM9.096 0c.123 3.986.225 5.805 1.64 7.264C12.195 8.68 14.014 8.775 18 8.904c0-3.594-.013-6.281-1.299-7.605C15.377.013 12.812 0 9.096 0z" fill="#575B62"/></svg>