<svg width="16" height="16" viewBox="0 0 16 16" fill="none" xmlns="http://www.w3.org/2000/svg">
<g id="Icon" clip-path="url(#clip0_7893_39787)">
<path id="Vector" fill-rule="evenodd" clip-rule="evenodd" d="M8.00174 0.888916C8.2472 0.888916 8.44618 1.0879 8.44618 1.33336V7.55558H14.6684C14.9139 7.55558 15.1128 7.75457 15.1128 8.00003C15.1128 8.24549 14.9139 8.44447 14.6684 8.44447H8.44618V14.6667C8.44618 14.9122 8.2472 15.1111 8.00174 15.1111C7.75628 15.1111 7.55729 14.9122 7.55729 14.6667V8.44447H1.33507C1.08961 8.44447 0.890625 8.24549 0.890625 8.00003C0.890625 7.75457 1.08961 7.55558 1.33507 7.55558H7.55729V1.33336C7.55729 1.0879 7.75628 0.888916 8.00174 0.888916Z" fill="#242A33"/>
</g>
<defs>
<clipPath id="clip0_7893_39787">
<rect width="16" height="16" fill="white"/>
</clipPath>
</defs>
</svg>
