<svg width="72" height="72" viewBox="0 0 72 72" fill="none" xmlns="http://www.w3.org/2000/svg"><g id="Pay-system"><path id="Page 1 Copy" fill-rule="evenodd" clip-rule="evenodd" d="M36 19.863c-.203.16-.402.323-.596.492-3.321 2.879-5.424 7.117-5.424 11.847 0 4.73 2.103 8.969 5.424 11.847.194.17.393.333.596.492.203-.159.402-.323.596-.492 3.322-2.878 5.424-7.117 5.424-11.847 0-4.73-2.103-8.968-5.424-11.847a15.761 15.761 0 00-.596-.492zm9.74-3.363a15.73 15.73 0 00-8.725 2.624c.128.104.258.207.381.315a16.888 16.888 0 015.843 12.763 16.89 16.89 0 01-5.842 12.764c-.123.107-.254.21-.382.314a15.726 15.726 0 008.725 2.624c8.704 0 15.76-7.03 15.76-15.702S54.444 16.5 45.74 16.5zM34.604 44.966c.123.107.253.21.38.314a15.725 15.725 0 01-8.724 2.624c-8.704 0-15.76-7.03-15.76-15.702S17.556 16.5 26.26 16.5c3.226 0 6.226.967 8.725 2.624-.128.104-.257.207-.381.314a16.889 16.889 0 00-5.842 12.764c0 4.893 2.128 9.546 5.842 12.764zm26.403-3.033v-.61h-.16l-.184.419-.183-.42h-.16v.61h.113v-.46l.172.397h.117l.172-.397v.46h.113zm-1.012 0v-.506h.204v-.103h-.52v.103h.204v.506h.112zm.493 13.556v.103h.094a.097.097 0 00.053-.013c.012-.009.018-.022.018-.04a.045.045 0 00-.018-.038.1.1 0 00-.053-.012h-.094zm.095-.072c.05 0 .088.01.115.033a.11.11 0 01.04.09.107.107 0 01-.032.079.158.158 0 01-.09.038l.125.145h-.099l-.117-.145h-.037v.145h-.083v-.385h.178zm-.024.517a.317.317 0 00.296-.197.313.313 0 00.025-.126.315.315 0 00-.094-.229.315.315 0 00-.227-.093.327.327 0 00-.232.093.323.323 0 00.232.552zm0-.738a.42.42 0 01.423.415.398.398 0 01-.124.292.437.437 0 01-.299.122.424.424 0 01-.426-.414.4.4 0 01.123-.293.414.414 0 01.303-.122zm-39.04-1.48c0-.733.482-1.335 1.27-1.335.753 0 1.26.576 1.26 1.335s-.507 1.334-1.26 1.334c-.788 0-1.27-.602-1.27-1.334zm3.389 0V51.63h-.91v.506c-.29-.375-.727-.61-1.323-.61-1.173 0-2.092.915-2.092 2.189 0 1.273.92 2.19 2.093 2.19.595 0 1.033-.236 1.321-.611v.506h.91v-2.085zm30.745 0c0-.733.482-1.335 1.27-1.335.753 0 1.26.576 1.26 1.335s-.507 1.334-1.26 1.334c-.788 0-1.27-.602-1.27-1.334zm3.388 0v-3.76h-.91v2.181c-.29-.375-.727-.61-1.322-.61-1.173 0-2.092.915-2.092 2.189 0 1.273.919 2.19 2.092 2.19.595 0 1.033-.236 1.322-.611v.506h.91v-2.085zm-22.84-1.378c.587 0 .963.366 1.06 1.011h-2.172c.096-.601.464-1.011 1.112-1.011zm.018-.811c-1.226 0-2.084.89-2.084 2.189 0 1.325.893 2.19 2.145 2.19.63 0 1.208-.158 1.716-.585l-.447-.672a1.99 1.99 0 01-1.216.436c-.587 0-1.121-.27-1.253-1.02h3.108c.009-.114.018-.227.018-.35-.009-1.299-.815-2.188-1.987-2.188zm10.986 2.189c0-.733.482-1.335 1.27-1.335.753 0 1.26.576 1.26 1.335s-.507 1.334-1.26 1.334c-.788 0-1.27-.602-1.27-1.334zm3.388 0V51.63h-.91v.506c-.289-.375-.727-.61-1.322-.61-1.173 0-2.093.915-2.093 2.189 0 1.273.92 2.19 2.093 2.19.595 0 1.033-.236 1.322-.611v.506h.91v-2.085zm-8.527 0c0 1.265.885 2.19 2.233 2.19.63 0 1.05-.14 1.506-.498l-.438-.732c-.341.243-.7.374-1.094.374-.727-.008-1.26-.532-1.26-1.334 0-.803.533-1.326 1.26-1.335.393 0 .752.131 1.094.375l.438-.732c-.456-.358-.876-.497-1.506-.497-1.348 0-2.233.924-2.233 2.189zm11.731-2.19c-.525 0-.866.245-1.102.611v-.506h-.903v4.17h.91v-2.338c0-.69.299-1.073.894-1.073.184 0 .376.026.569.105l.28-.855a1.953 1.953 0 00-.648-.113zm-24.39.437c-.438-.288-1.041-.436-1.707-.436-1.06 0-1.742.505-1.742 1.334 0 .68.508 1.1 1.445 1.23l.429.06c.498.07.735.201.735.437 0 .323-.333.506-.954.506-.63 0-1.086-.2-1.392-.436l-.429.707c.499.365 1.13.54 1.812.54 1.208 0 1.909-.567 1.909-1.36 0-.733-.552-1.117-1.462-1.248l-.43-.06c-.393-.053-.709-.132-.709-.41 0-.306.298-.49.798-.49.533 0 1.05.201 1.304.358l.393-.732zm11.74-.436c-.525 0-.867.244-1.103.61v-.506h-.901v4.17h.91v-2.338c0-.69.298-1.073.893-1.073.184 0 .376.026.569.105l.28-.855a1.95 1.95 0 00-.648-.113zm-7.765.104h-1.488v-1.264h-.92v1.264h-.849v.829h.85v1.901c0 .969.376 1.544 1.453 1.544.394 0 .849-.122 1.138-.322l-.263-.777c-.27.158-.57.236-.805.236-.455 0-.604-.28-.604-.698V52.46h1.488v-.829zm-13.605 4.17v-2.617c0-.986-.63-1.649-1.645-1.657-.534-.01-1.085.156-1.471.74-.289-.462-.744-.74-1.383-.74-.446 0-.884.13-1.226.62v-.516h-.91v4.17h.92v-2.312c0-.724.402-1.108 1.023-1.108.604 0 .91.393.91 1.099v2.32h.92v-2.31c0-.725.42-1.109 1.024-1.109.622 0 .92.393.92 1.099v2.32h.918z" fill="#427E66"/></g></svg>