<svg width="72" height="72" viewBox="0 0 72 72" fill="none" xmlns="http://www.w3.org/2000/svg"><g id="Pay-system"><path id="Combined Shape" fill-rule="evenodd" clip-rule="evenodd" d="M24.28 47.627l3.52-21.738h5.632l-3.521 21.738h-5.63zm31.733-3.23l-1.175 3.23h-5.867l8.397-20.118s.508-1.62 2.599-1.62h4.527L69 47.627h-5.17l-.66-3.23h-7.157zm-21.795-2.506c2.306 1.861 9.293 2.39 9.293-.56s-7.789-3.02-7.789-8.636c0-5.966 6.636-7.195 9.43-7.195 2.583 0 5.063.947 5.063.947l-.803 4.669c-2.411-1.334-7.894-1.65-7.894.808 0 2.457 7.858 2.983 7.858 8.635 0 5.44-5.798 7.441-9.64 7.441-3.841 0-6.355-1.228-6.355-1.228l.837-4.88zm-22.57-14.044l1.894 9.776.635 3.22 5.369-14.952h6.06l-8.96 21.738h-5.865L5.894 28.767c-.11-.065-.221-.142-.33-.205a21.589 21.589 0 00-1.346-.724c-.153-.077-.312-.158-.46-.228a22.82 22.82 0 00-.93-.409c-.115-.047-.227-.095-.334-.137-.3-.117-.584-.225-.84-.313a54.374 54.374 0 00-.803-.261c-.092-.03-.18-.054-.258-.076a9.705 9.705 0 00-.313-.086l-.137-.036C.072 26.274 0 26.258 0 26.258l.103-.369h8.874c2.442 0 2.67 1.958 2.67 1.958zm48.946 3.955l-2.96 8.134h4.623l-1.663-8.134z" fill="#427E66"/></g></svg>