<svg width="16" height="16" viewBox="0 0 16 16" fill="none" xmlns="http://www.w3.org/2000/svg"><g id="Icon"><path id="Vector" fill-rule="evenodd" clip-rule="evenodd" d="M15 15c1-1 1-3 1-7s0-6-1-7-3-1-7-1-6 0-7 1-1 3-1 7 0 6 1 7 3 1 7 1 6 0 7-1zm-3.948-5.025a5.795 5.795 0 01-1.799.745l1.731 1.732a.906.906 0 11-1.282 1.282L8 12.033l-1.702 1.701a.91.91 0 01-1.282 0 .906.906 0 010-1.282l1.73-1.732a5.794 5.794 0 01-1.8-.745.908.908 0 01.968-1.537 3.933 3.933 0 004.17 0 .908.908 0 01.967 1.537zm-1.77-4.877a1.284 1.284 0 00-2.565 0 1.283 1.283 0 002.566 0zm1.815 0A3.1 3.1 0 018 8.194a3.1 3.1 0 01-3.097-3.097A3.1 3.1 0 018 2a3.1 3.1 0 013.097 3.098z" fill="#427E66"/></g></svg>