<svg width="16" height="16" viewBox="0 0 16 16" fill="none" xmlns="http://www.w3.org/2000/svg"><g id="Icon"><path id="Vector" fill-rule="evenodd" clip-rule="evenodd" d="M1.777 3.111c0-1.22.975-2.222 2.193-2.222h3.495c1.218 0 2.193 1.002 2.193 2.222v.296a.444.444 0 11-.89 0v-.296c0-.743-.59-1.333-1.303-1.333H3.97c-.713 0-1.304.59-1.304 1.333v4.74c0 .744.59 1.334 1.304 1.334h.25a.444.444 0 010 .89h-.25c-1.218 0-2.193-1.003-2.193-2.223v-4.74zM6.341 8.05c0-1.22.975-2.222 2.193-2.222h3.495c1.218 0 2.193 1.002 2.193 2.222v4.84c0 1.22-.975 2.222-2.193 2.222H8.534c-1.218 0-2.193-1.002-2.193-2.222V8.05zm2.193-1.333c-.713 0-1.304.59-1.304 1.333v4.84c0 .743.59 1.333 1.304 1.333h3.495c.713 0 1.304-.59 1.304-1.333V8.05c0-.743-.59-1.333-1.304-1.333H8.534z" fill="#427E66"/></g></svg>