<svg width="16" height="16" viewBox="0 0 16 16" fill="none" xmlns="http://www.w3.org/2000/svg"><path d="M.98 7.095s7.077-2.904 9.532-3.927c.94-.409 4.13-1.718 4.13-1.718s1.474-.573 1.35.818c-.04.573-.367 2.577-.695 4.745-.49 3.068-1.022 6.422-1.022 6.422s-.082.941-.777 1.105c-.696.163-1.841-.573-2.046-.737-.163-.122-3.067-1.963-4.13-2.863-.287-.245-.614-.736.04-1.309a156.235 156.235 0 004.295-4.09c.49-.491.982-1.637-1.064-.246C7.69 7.3 4.826 9.181 4.826 9.181s-.655.41-1.882.041a85.036 85.036 0 01-2.658-.859s-.982-.614.695-1.268z" fill="#427E66"/></svg>