<svg width="16" height="16" viewBox="0 0 16 16" fill="none" xmlns="http://www.w3.org/2000/svg"><g id="Icon"><path id="Vector" fill-rule="evenodd" clip-rule="evenodd" d="M10.453 0H5.547C1.067 0 0 1.067 0 5.547v4.906C0 14.933 1.067 16 5.547 16h4.906C14.933 16 16 14.933 16 10.453V5.547C16 1.067 14.933 0 10.453 0zm2.297 5.083c.353 0 .427.182.353.43-.149.679-1.57 2.681-1.57 2.681-.123.198-.173.297 0 .52.061.085.191.212.34.358.153.15.326.319.463.482.502.564.88 1.04.984 1.367.097.329-.07.496-.403.496H11.75c-.313 0-.47-.175-.81-.554-.144-.16-.32-.357-.556-.592-.693-.668-.99-.754-1.162-.754-.235 0-.305.066-.305.4v1.046c0 .287-.092.454-.834.454-1.236 0-2.594-.75-3.558-2.135-1.446-2.027-1.842-3.56-1.842-3.869 0-.173.067-.33.4-.33H4.25c.298 0 .41.13.522.454.57 1.662 1.533 3.115 1.928 3.115.149 0 .217-.069.217-.445V6.489c-.027-.49-.198-.7-.324-.858-.079-.096-.14-.172-.14-.28 0-.13.112-.268.297-.268h1.833c.248 0 .334.133.334.43v2.31c0 .248.107.334.181.334.148 0 .272-.086.544-.358.84-.94 1.434-2.386 1.434-2.386a.504.504 0 01.507-.33h1.167z" fill="#427E66"/></g></svg>