<svg width="1046" height="451" viewBox="0 0 1046 451" fill="none" xmlns="http://www.w3.org/2000/svg"><path d="M969 198v250H51L3 400V186h367.5v73h260v-90h164l2.5-2.5v-89l-2.5-2.5H792V2.5h251V198h-74z" fill="#E3ECE8"/><path xmlns="http://www.w3.org/2000/svg" fill-rule="evenodd" clip-rule="evenodd" d="M332 242H4v13h2v47H4v57h2v43l43 43h9v-8h33v8h1v2h64v-2h5v-8h9v-15h24v23h5v2h57v-2h43v2h33V242z" id="zone_k" class="zone"/><path xmlns="http://www.w3.org/2000/svg" fill-rule="evenodd" clip-rule="evenodd" d="M332 447h33v-2.5h31v2.5h49v-2h45v2h52v-2h45v2h49v-2h25V244h-28v27h-15v-11h-49v2h-22v-2h-50v2h-22v-2h-50v2h-57.5v-20H332v205z" class="zone" id="zone_l"/><path xmlns="http://www.w3.org/2000/svg" d="M795 198h179c1-1 2.5-2 4-2h47c2 0 3 1 4 2h11V6H795v15.5h-2v32h2v21c1 .167 3 2 3 4.5v85.5c0 3.2-2 4.667-3 5V198z" class="zone" id="zone_game"/><path fill="#fff" d="M223 189h145v53H223zm409-15h157v70H632z"/><path d="M782.5 245.669H661c-.42 0-1.061-.13-1.583-.506-.496-.357-.917-.957-.917-1.994v-1.5h2v1c0 .242.139.42.258.525.127.111.291.195.478.26.375.13.937.215 1.764.215h120v2h-.5z" fill="#fff" stroke="#427E66"/><path fill-rule="evenodd" clip-rule="evenodd" d="M865 229h-20v30h20v-30z" fill="#fff"/><path fill-rule="evenodd" clip-rule="evenodd" d="M864 230h-18v5h18v-5zm-18 22v-16h18v16h-18zm0 1h18v5h-18v-5zm-1-18v24h20v-30h-20v6zm9 13v-8h-5v-2h12v2h-5v8h5v2h-12v-2h5z" fill="#427E66"/><path fill-rule="evenodd" clip-rule="evenodd" d="M916 229h-20v30h20v-30z" fill="#fff"/><path fill-rule="evenodd" clip-rule="evenodd" d="M915 230h-18v5h18v-5zm-18 22v-16h18v16h-18zm0 1h18v5h-18v-5zm-1-18v24h20v-30h-20v6zm9 13v-8h-5v-2h12v2h-5v8h5v2h-12v-2h5z" fill="#427E66"/><path d="M792 235.5V171H630v85.5m162-235V3h251v198h-15m-53 0h-6v247h-12m-5-206h17m-99 206h38m-97 0h35m-118 0h29m-121 0h43m-137 0h45m-142 0h45m-234 0h43m-143 0h43m-150 0h43m273 0h31M3 404v-45m0-57v-47m422 4h-54.5v-73H3v11" stroke="#427E66" stroke-width="6"/><path fill="#fff" stroke="#427E66" d="M407.5 287.5v9h-18v-9zm-30-10h-9v-15h9zm12 11v8h-9v-8zm-13-3h-8v-8h8z"/><path d="M368.5 284.5h8.157l3.843 3.843v8.157h-3.429l-8.571-8.571V284.5z" fill="#fff" stroke="#427E66"/><path fill="#427E66" d="M390 291v1h-10v-1zm-16-6h-1v-7h1z"/><path d="M475 259h22m50 0h22" stroke="#427E66" stroke-width="6"/><path d="M622.5 259h-204" stroke="#427E66" stroke-width="2"/><path d="M933 32a8 8 0 018 8v3a8 8 0 01-8 8h-8a8 8 0 01-8-8v-3a8 8 0 018-8h8z" fill="#fff"/><path fill-rule="evenodd" clip-rule="evenodd" d="M940 40v3a7 7 0 01-7 7h-8a7 7 0 01-7-7v-3a7 7 0 017-7h8a7 7 0 017 7zm-7-8a8 8 0 018 8v3a8 8 0 01-8 8h-8a8 8 0 01-8-8v-3a8 8 0 018-8h8zm4 7v5a3 3 0 01-3 3h-10a3 3 0 01-3-3v-5a3 3 0 013-3h10a3 3 0 013 3zm-3-4a4 4 0 014 4v5a4 4 0 01-4 4h-10a4 4 0 01-4-4v-5a4 4 0 014-4h10zm2 6v3a2 2 0 01-2 2h-10a2 2 0 01-2-2v-5a2 2 0 012-2h10a2 2 0 012 2v2zm-13 0v-2a1 1 0 011-1h10a1 1 0 011 1v2h-12zm0 1v2a1 1 0 001 1h10a1 1 0 001-1v-2h-12z" fill="#427E66"/><path d="M698 292a8 8 0 018 8v3a8 8 0 01-8 8h-8a8 8 0 01-8-8v-3a8 8 0 018-8h8z" fill="#fff"/><path fill-rule="evenodd" clip-rule="evenodd" d="M705 300v3a7 7 0 01-7 7h-8a7 7 0 01-7-7v-3a7 7 0 017-7h8a7 7 0 017 7zm-7-8a8 8 0 018 8v3a8 8 0 01-8 8h-8a8 8 0 01-8-8v-3a8 8 0 018-8h8zm4 7v5a3 3 0 01-3 3h-10a3 3 0 01-3-3v-5a3 3 0 013-3h10a3 3 0 013 3zm-3-4a4 4 0 014 4v5a4 4 0 01-4 4h-10a4 4 0 01-4-4v-5a4 4 0 014-4h10zm2 6v3a2 2 0 01-2 2h-10a2 2 0 01-2-2v-5a2 2 0 012-2h10a2 2 0 012 2v2zm-13 0v-2a1 1 0 011-1h10a1 1 0 011 1v2h-12zm0 1v2a1 1 0 001 1h10a1 1 0 001-1v-2h-12z" fill="#427E66"/><path d="M742 292a8 8 0 018 8v3a8 8 0 01-8 8h-8a8 8 0 01-8-8v-3a8 8 0 018-8h8z" fill="#fff"/><path fill-rule="evenodd" clip-rule="evenodd" d="M749 300v3a7 7 0 01-7 7h-8a7 7 0 01-7-7v-3a7 7 0 017-7h8a7 7 0 017 7zm-7-8a8 8 0 018 8v3a8 8 0 01-8 8h-8a8 8 0 01-8-8v-3a8 8 0 018-8h8zm4 7v5a3 3 0 01-3 3h-10a3 3 0 01-3-3v-5a3 3 0 013-3h10a3 3 0 013 3zm-3-4a4 4 0 014 4v5a4 4 0 01-4 4h-10a4 4 0 01-4-4v-5a4 4 0 014-4h10zm2 6v3a2 2 0 01-2 2h-10a2 2 0 01-2-2v-5a2 2 0 012-2h10a2 2 0 012 2v2zm-13 0v-2a1 1 0 011-1h10a1 1 0 011 1v2h-12zm0 1v2a1 1 0 001 1h10a1 1 0 001-1v-2h-12z" fill="#427E66"/><path d="M786 292a8 8 0 018 8v3a8 8 0 01-8 8h-8a8 8 0 01-8-8v-3a8 8 0 018-8h8z" fill="#fff"/><path fill-rule="evenodd" clip-rule="evenodd" d="M793 300v3a7 7 0 01-7 7h-8a7 7 0 01-7-7v-3a7 7 0 017-7h8a7 7 0 017 7zm-7-8a8 8 0 018 8v3a8 8 0 01-8 8h-8a8 8 0 01-8-8v-3a8 8 0 018-8h8zm4 7v5a3 3 0 01-3 3h-10a3 3 0 01-3-3v-5a3 3 0 013-3h10a3 3 0 013 3zm-3-4a4 4 0 014 4v5a4 4 0 01-4 4h-10a4 4 0 01-4-4v-5a4 4 0 014-4h10zm2 6v3a2 2 0 01-2 2h-10a2 2 0 01-2-2v-5a2 2 0 012-2h10a2 2 0 012 2v2zm-13 0v-2a1 1 0 011-1h10a1 1 0 011 1v2h-12zm0 1v2a1 1 0 001 1h10a1 1 0 001-1v-2h-12z" fill="#427E66"/><path d="M340 379a8 8 0 018-8h3a8 8 0 018 8v8a8 8 0 01-8 8h-3a8 8 0 01-8-8v-8z" fill="#fff"/><path fill-rule="evenodd" clip-rule="evenodd" d="M348 372h3a7 7 0 017 7v8a7 7 0 01-7 7h-3a7 7 0 01-7-7v-8a7 7 0 017-7zm-8 7a8 8 0 018-8h3a8 8 0 018 8v8a8 8 0 01-8 8h-3a8 8 0 01-8-8v-8zm7-4h5a3 3 0 013 3v10a3 3 0 01-3 3h-5a3 3 0 01-3-3v-10a3 3 0 013-3zm-4 3a4 4 0 014-4h5a4 4 0 014 4v10a4 4 0 01-4 4h-5a4 4 0 01-4-4v-10zm6-2h3a2 2 0 012 2v10a2 2 0 01-2 2h-5a2 2 0 01-2-2v-10a2 2 0 012-2h2zm0 13h-2a1 1 0 01-1-1v-10a1 1 0 011-1h2v12zm1 0h2a1 1 0 001-1v-10a1 1 0 00-1-1h-2v12z" fill="#427E66"/><path d="M502 289a8 8 0 018 8v3a8 8 0 01-8 8h-8a8 8 0 01-8-8v-3a8 8 0 018-8h8z" fill="#fff"/><path fill-rule="evenodd" clip-rule="evenodd" d="M509 297v3a7 7 0 01-7 7h-8a7 7 0 01-7-7v-3a7 7 0 017-7h8a7 7 0 017 7zm-7-8a8 8 0 018 8v3a8 8 0 01-8 8h-8a8 8 0 01-8-8v-3a8 8 0 018-8h8zm4 7v5a3 3 0 01-3 3h-10a3 3 0 01-3-3v-5a3 3 0 013-3h10a3 3 0 013 3zm-3-4a4 4 0 014 4v5a4 4 0 01-4 4h-10a4 4 0 01-4-4v-5a4 4 0 014-4h10zm2 6v3a2 2 0 01-2 2h-10a2 2 0 01-2-2v-5a2 2 0 012-2h10a2 2 0 012 2v2zm-13 0v-2a1 1 0 011-1h10a1 1 0 011 1v2h-12zm0 1v2a1 1 0 001 1h10a1 1 0 001-1v-2h-12z" fill="#427E66"/><path d="M39.657 278.092a8 8 0 010-11.314l2.121-2.121a8 8 0 0111.314 0l17.678 17.678a8 8 0 010 11.313l-2.122 2.122a8 8 0 01-11.313 0l-17.678-17.678z" fill="#fff"/><path fill-rule="evenodd" clip-rule="evenodd" d="M42.485 265.364l-2.121 2.121a7 7 0 000 9.9l17.678 17.677a7 7 0 009.9 0l2.12-2.121a7 7 0 000-9.899l-17.677-17.678a7 7 0 00-9.9 0zm-2.828 1.414a8 8 0 000 11.314l17.678 17.678a8 8 0 0011.313 0l2.122-2.122a8 8 0 000-11.313l-17.678-17.678a8 8 0 00-11.314 0l-2.121 2.121zm4.243 1.414l-.708.708a5 5 0 000 7.071l16.264 16.263a5 5 0 007.07 0l.708-.707a5 5 0 000-7.071l-16.263-16.264a5.001 5.001 0 00-7.071 0zm-1.415 0a6 6 0 000 8.486l16.264 16.263a6 6 0 008.485 0l.707-.707a6 6 0 000-8.485l-16.263-16.264a6 6 0 00-8.486 0l-.707.707zm4.95.708a1 1 0 011.414 0l8.486 8.485-2.122 2.121-9.192-9.192 1.414-1.414zm7.071 11.313l-9.192-9.192-1.414 1.414a1 1 0 000 1.414l8.485 8.486 2.121-2.122zm-1.414 2.829l2.121-2.122 9.193 9.193-1.415 1.414a1 1 0 01-1.414 0l-8.485-8.485zm-.707.707l-.707-.707-8.486-8.486a2 2 0 010-2.828l3.536-3.536a2 2 0 012.828 0l8.486 8.486.707.707 8.485 8.485a2 2 0 010 2.829l-1.414 1.414-.707.707-1.414 1.414a2 2 0 01-2.829 0l-8.485-8.485zm5.657-5.657l8.485 8.485a1 1 0 010 1.414l-1.414 1.415-9.193-9.193 2.122-2.121z" fill="#427E66"/><path d="M966 448H51L3 400V194" stroke="#427E66" stroke-width="2"/><path stroke="#427E66" d="M230.5 196.5h90v38h-90z"/><mask id="path-57-outside-1_10806_72516" maskUnits="userSpaceOnUse" x="232" y="196" width="96" height="3" fill="#000"><path fill="#fff" d="M232 196h96v3h-96z"/><path d="M233 197h94v1h-94v-1z"/></mask><path d="M233 197h94v1h-94v-1z" fill="#fff"/><path d="M233 197v-1h-1v1h1zm94 0h1v-1h-1v1zm0 1v1h1v-1h-1zm-94 0h-1v1h1v-1zm0 0h94v-2h-94v2zm93-1v1h2v-1h-2zm1 0h-94v2h94v-2zm-93 1v-1h-2v1h2z" fill="#427E66" mask="url(#path-57-outside-1_10806_72516)"/><mask id="path-59-outside-2_10806_72516" maskUnits="userSpaceOnUse" x="232" y="232" width="96" height="3" fill="#000"><path fill="#fff" d="M232 232h96v3h-96z"/><path d="M327 234h-94v-1h94v1z"/></mask><path d="M327 234h-94v-1h94v1z" fill="#fff"/><path d="M327 234v1h1v-1h-1zm-94 0h-1v1h1v-1zm0-1v-1h-1v1h1zm94 0h1v-1h-1v1zm0 0h-94v2h94v-2zm-93 1v-1h-2v1h2zm-1 0h94v-2h-94v2zm93-1v1h2v-1h-2z" fill="#427E66" mask="url(#path-59-outside-2_10806_72516)"/><path fill="#427E66" d="M240 199h1v33h-1zm10 0h1v33h-1zm10 0h1v33h-1zm10 0h1v33h-1zm10 0h1v33h-1zm10 0h1v33h-1zm10 0h1v33h-1zm10 0h1v33h-1z"/><path d="M148 205c0 12.15 9.85 22 22 22m-.5-22.5v-2h-22v2z" stroke="#427E66"/><path fill="#fff" stroke="#427E66" d="M920.5 72.5h19v56h-19zm-204 195v-12h42v12zm-472-9v-14h67v14zm768-200h28v123h-28zm-43 58h25v54h-25z"/><path d="M668 340.5a5.5 5.5 0 11-11 0 5.5 5.5 0 1111 0z" fill="#fff"/><path fill-rule="evenodd" clip-rule="evenodd" d="M662.5 345a4.5 4.5 0 100-9 4.5 4.5 0 000 9zm0 1a5.5 5.5 0 100-11 5.5 5.5 0 100 11z" fill="#427E66"/><path d="M647 338a2 2 0 012-2h5a2 2 0 012 2v5a2 2 0 01-2 2h-5a2 2 0 01-2-2v-5z" fill="#fff"/><path fill-rule="evenodd" clip-rule="evenodd" d="M654 337h-5a1 1 0 00-1 1v5a1 1 0 001 1h5a1 1 0 001-1v-5a1 1 0 00-1-1zm-5-1a2 2 0 00-2 2v5a2 2 0 002 2h5a2 2 0 002-2v-5a2 2 0 00-2-2h-5z" fill="#427E66"/><path d="M647 337.5a1.5 1.5 0 013 0v6a1.5 1.5 0 01-3 0v-6z" fill="#fff"/><path fill-rule="evenodd" clip-rule="evenodd" d="M649 343.5v-6a.5.5 0 00-1 0v6a.5.5 0 001 0zm-.5-7.5a1.5 1.5 0 00-1.5 1.5v6a1.5 1.5 0 003 0v-6a1.5 1.5 0 00-1.5-1.5z" fill="#427E66"/><path d="M675.314 330.95a2 2 0 010 2.828l-3.536 3.536a2 2 0 01-2.828 0l-3.536-3.536a2 2 0 010-2.828l3.536-3.536a2 2 0 012.828 0l3.536 3.536z" fill="#fff"/><path fill-rule="evenodd" clip-rule="evenodd" d="M671.071 336.607l3.536-3.536a1 1 0 000-1.414l-3.536-3.536a1 1 0 00-1.414 0l-3.536 3.536a1 1 0 000 1.414l3.536 3.536a1 1 0 001.414 0zm4.243-2.829a2 2 0 000-2.828l-3.536-3.536a2 2 0 00-2.828 0l-3.536 3.536a2 2 0 000 2.828l3.536 3.536a2 2 0 002.828 0l3.536-3.536z" fill="#427E66"/><path d="M675.667 331.303a1.5 1.5 0 01-2.121 2.122l-4.243-4.243a1.501 1.501 0 012.122-2.121l4.242 4.242z" fill="#fff"/><path fill-rule="evenodd" clip-rule="evenodd" d="M670.011 328.475l4.242 4.243a.5.5 0 00.707-.708l-4.242-4.242a.5.5 0 00-.707.707zm5.656 4.95a1.5 1.5 0 000-2.122l-4.242-4.242a1.5 1.5 0 00-2.122 2.121l4.243 4.243a1.501 1.501 0 002.121 0z" fill="#427E66"/><path d="M675.314 349.778a2 2 0 000-2.828l-3.536-3.536a2 2 0 00-2.828 0l-3.536 3.536a2 2 0 000 2.828l3.536 3.536a2 2 0 002.828 0l3.536-3.536z" fill="#fff"/><path fill-rule="evenodd" clip-rule="evenodd" d="M671.071 344.121l3.536 3.536a1 1 0 010 1.414l-3.536 3.536a1 1 0 01-1.414 0l-3.536-3.536a1 1 0 010-1.414l3.536-3.536a1 1 0 011.414 0zm4.243 2.829a2 2 0 010 2.828l-3.536 3.536a2 2 0 01-2.828 0l-3.536-3.536a2 2 0 010-2.828l3.536-3.536a2 2 0 012.828 0l3.536 3.536z" fill="#427E66"/><path d="M675.667 349.425a1.5 1.5 0 00-2.121-2.122l-4.243 4.243a1.501 1.501 0 002.122 2.121l4.242-4.242z" fill="#fff"/><path fill-rule="evenodd" clip-rule="evenodd" d="M670.011 352.253l4.242-4.243a.5.5 0 01.707.708l-4.242 4.242a.5.5 0 01-.707-.707zm5.656-4.95a1.5 1.5 0 010 2.122l-4.242 4.242a1.5 1.5 0 01-2.122-2.121l4.243-4.243a1.501 1.501 0 012.121 0z" fill="#427E66"/><path stroke="#427E66" d="M673.5 174.5h100v23h-100z"/><mask id="path-91-outside-3_10806_72516" maskUnits="userSpaceOnUse" x="675" y="174" width="56" height="3" fill="#000"><path fill="#fff" d="M675 174h56v3h-56z"/><path d="M676 175h54v1h-54v-1z"/></mask><path d="M676 175h54v1h-54v-1z" fill="#fff"/><path d="M676 175v-1h-1v1h1zm54 0h1v-1h-1v1zm0 1v1h1v-1h-1zm-54 0h-1v1h1v-1zm0 0h54v-2h-54v2zm53-1v1h2v-1h-2zm1 0h-54v2h54v-2zm-53 1v-1h-2v1h2z" fill="#427E66" mask="url(#path-91-outside-3_10806_72516)"/><path fill="#427E66" d="M683 177h1v20h-1zm10 0h1v20h-1zm10 0h1v20h-1zm10 0h1v20h-1zm10 0h1v20h-1zm10-2h1v22h-1zm10 0h1v22h-1zm10 0h1v22h-1zm10 0h1v22h-1z"/><path stroke="#427E66" d="M773.5 234.5h-100v-23h100z"/><mask id="path-103-outside-4_10806_72516" maskUnits="userSpaceOnUse" x="716" y="232" width="56" height="3" fill="#000"><path fill="#fff" d="M716 232h56v3h-56z"/><path d="M771 234h-54v-1h54v1z"/></mask><path d="M771 234h-54v-1h54v1z" fill="#fff"/><path d="M771 234v1h1v-1h-1zm-54 0h-1v1h1v-1zm0-1v-1h-1v1h1zm54 0h1v-1h-1v1zm0 0h-54v2h54v-2zm-53 1v-1h-2v1h2zm-1 0h54v-2h-54v2zm53-1v1h2v-1h-2z" fill="#427E66" mask="url(#path-103-outside-4_10806_72516)"/><path fill="#427E66" d="M764 232h-1v-20h1zm-10 0h-1v-20h1zm-10 0h-1v-20h1zm-10 0h-1v-20h1zm-10 0h-1v-20h1zm-10 2h-1v-22h1zm-10 0h-1v-22h1zm-10 0h-1v-22h1zm-10 0h-1v-22h1z"/><mask id="path-114-outside-5_10806_72516" maskUnits="userSpaceOnUse" x="665" y="196" width="116" height="16" fill="#000"><path fill="#fff" d="M665 196h116v16H665z"/><path fill-rule="evenodd" clip-rule="evenodd" d="M671 197a5 5 0 00-5 5v4a5 5 0 005 5h104a5 5 0 005-5v-4a5 5 0 00-5-5H671zm0 1a4 4 0 00-4 4v4a4 4 0 004 4h104a4 4 0 004-4v-4a4 4 0 00-4-4H671z"/></mask><path fill-rule="evenodd" clip-rule="evenodd" d="M671 197a5 5 0 00-5 5v4a5 5 0 005 5h104a5 5 0 005-5v-4a5 5 0 00-5-5H671zm0 1a4 4 0 00-4 4v4a4 4 0 004 4h104a4 4 0 004-4v-4a4 4 0 00-4-4H671z" fill="#fff"/><path d="M667 202a4 4 0 014-4v-2a6 6 0 00-6 6h2zm0 4v-4h-2v4h2zm4 4a4 4 0 01-4-4h-2a6 6 0 006 6v-2zm104 0H671v2h104v-2zm4-4a4 4 0 01-4 4v2a6 6 0 006-6h-2zm0-4v4h2v-4h-2zm-4-4a4 4 0 014 4h2a6 6 0 00-6-6v2zm-104 0h104v-2H671v2zm-3 4a3 3 0 013-3v-2a5 5 0 00-5 5h2zm0 4v-4h-2v4h2zm3 3a3 3 0 01-3-3h-2a5 5 0 005 5v-2zm104 0H671v2h104v-2zm3-3a3 3 0 01-3 3v2a5 5 0 005-5h-2zm0-4v4h2v-4h-2zm-3-3a3 3 0 013 3h2a5 5 0 00-5-5v2zm-104 0h104v-2H671v2z" fill="#427E66" mask="url(#path-114-outside-5_10806_72516)"/><path d="M958 121.71c0-.944.895-1.71 2-1.71h5c1.105 0 2 .766 2 1.71v4.275c0 .944-.895 1.71-2 1.71h-5c-1.105 0-2-.766-2-1.71v-4.275z" fill="#fff"/><path fill-rule="evenodd" clip-rule="evenodd" d="M965 120.855h-5c-.552 0-1 .383-1 .855v4.275c0 .472.448.855 1 .855h5c.552 0 1-.383 1-.855v-4.275c0-.472-.448-.855-1-.855zm-5-.855c-1.105 0-2 .766-2 1.71v4.275c0 .944.895 1.71 2 1.71h5c1.105 0 2-.766 2-1.71v-4.275c0-.944-.895-1.71-2-1.71h-5z" fill="#427E66"/><path d="M958 121.283c0-.709.672-1.283 1.5-1.283s1.5.574 1.5 1.283v5.13c0 .708-.672 1.282-1.5 1.282s-1.5-.574-1.5-1.282v-5.13z" fill="#fff"/><path fill-rule="evenodd" clip-rule="evenodd" d="M960 126.413v-5.13c0-.237-.224-.428-.5-.428s-.5.191-.5.428v5.13c0 .236.224.427.5.427s.5-.191.5-.427zm-.5-6.413c-.828 0-1.5.574-1.5 1.283v5.13c0 .708.672 1.282 1.5 1.282s1.5-.574 1.5-1.282v-5.13c0-.709-.672-1.283-1.5-1.283z" fill="#427E66"/><path d="M958 131.115c0-.944.895-1.71 2-1.71h5c1.105 0 2 .766 2 1.71v4.275c0 .944-.895 1.71-2 1.71h-5c-1.105 0-2-.766-2-1.71v-4.275z" fill="#fff"/><path fill-rule="evenodd" clip-rule="evenodd" d="M965 130.26h-5c-.552 0-1 .383-1 .855v4.275c0 .472.448.855 1 .855h5c.552 0 1-.383 1-.855v-4.275c0-.472-.448-.855-1-.855zm-5-.855c-1.105 0-2 .766-2 1.71v4.275c0 .944.895 1.71 2 1.71h5c1.105 0 2-.766 2-1.71v-4.275c0-.944-.895-1.71-2-1.71h-5z" fill="#427E66"/><path d="M958 130.688c0-.709.672-1.283 1.5-1.283s1.5.574 1.5 1.283v5.13c0 .708-.672 1.282-1.5 1.282s-1.5-.574-1.5-1.282v-5.13z" fill="#fff"/><path fill-rule="evenodd" clip-rule="evenodd" d="M960 135.818v-5.13c0-.237-.224-.428-.5-.428s-.5.191-.5.428v5.13c0 .236.224.427.5.427s.5-.191.5-.427zm-.5-6.413c-.828 0-1.5.574-1.5 1.283v5.13c0 .708.672 1.282 1.5 1.282s1.5-.574 1.5-1.282v-5.13c0-.709-.672-1.283-1.5-1.283z" fill="#427E66"/><path d="M958 140.52c0-.944.895-1.71 2-1.71h5c1.105 0 2 .766 2 1.71v4.275c0 .944-.895 1.71-2 1.71h-5c-1.105 0-2-.766-2-1.71v-4.275z" fill="#fff"/><path fill-rule="evenodd" clip-rule="evenodd" d="M965 139.665h-5c-.552 0-1 .383-1 .855v4.275c0 .472.448.855 1 .855h5c.552 0 1-.383 1-.855v-4.275c0-.472-.448-.855-1-.855zm-5-.855c-1.105 0-2 .766-2 1.71v4.275c0 .944.895 1.71 2 1.71h5c1.105 0 2-.766 2-1.71v-4.275c0-.944-.895-1.71-2-1.71h-5z" fill="#427E66"/><path d="M958 140.093c0-.709.672-1.283 1.5-1.283s1.5.574 1.5 1.283v5.13c0 .708-.672 1.282-1.5 1.282s-1.5-.574-1.5-1.282v-5.13z" fill="#fff"/><path fill-rule="evenodd" clip-rule="evenodd" d="M960 145.223v-5.13c0-.237-.224-.428-.5-.428s-.5.191-.5.428v5.13c0 .236.224.427.5.427s.5-.191.5-.427zm-.5-6.413c-.828 0-1.5.574-1.5 1.283v5.13c0 .708.672 1.282 1.5 1.282s1.5-.574 1.5-1.282v-5.13c0-.709-.672-1.283-1.5-1.283z" fill="#427E66"/><path d="M958 149.925c0-.945.895-1.71 2-1.71h5c1.105 0 2 .765 2 1.71v4.275c0 .944-.895 1.71-2 1.71h-5c-1.105 0-2-.766-2-1.71v-4.275z" fill="#fff"/><path fill-rule="evenodd" clip-rule="evenodd" d="M965 149.07h-5c-.552 0-1 .383-1 .855v4.275c0 .472.448.855 1 .855h5c.552 0 1-.383 1-.855v-4.275c0-.472-.448-.855-1-.855zm-5-.855c-1.105 0-2 .765-2 1.71v4.275c0 .944.895 1.71 2 1.71h5c1.105 0 2-.766 2-1.71v-4.275c0-.945-.895-1.71-2-1.71h-5z" fill="#427E66"/><path d="M958 149.497c0-.708.672-1.282 1.5-1.282s1.5.574 1.5 1.282v5.13c0 .709-.672 1.283-1.5 1.283s-1.5-.574-1.5-1.283v-5.13z" fill="#fff"/><path fill-rule="evenodd" clip-rule="evenodd" d="M960 154.627v-5.13c0-.236-.224-.427-.5-.427s-.5.191-.5.427v5.13c0 .236.224.428.5.428s.5-.192.5-.428zm-.5-6.412c-.828 0-1.5.574-1.5 1.282v5.13c0 .709.672 1.283 1.5 1.283s1.5-.574 1.5-1.283v-5.13c0-.708-.672-1.282-1.5-1.282z" fill="#427E66"/><path d="M958 159.33c0-.944.895-1.71 2-1.71h5c1.105 0 2 .766 2 1.71v4.275c0 .945-.895 1.71-2 1.71h-5c-1.105 0-2-.765-2-1.71v-4.275z" fill="#fff"/><path fill-rule="evenodd" clip-rule="evenodd" d="M965 158.475h-5c-.552 0-1 .383-1 .855v4.275c0 .472.448.855 1 .855h5c.552 0 1-.383 1-.855v-4.275c0-.472-.448-.855-1-.855zm-5-.855c-1.105 0-2 .766-2 1.71v4.275c0 .945.895 1.71 2 1.71h5c1.105 0 2-.765 2-1.71v-4.275c0-.944-.895-1.71-2-1.71h-5z" fill="#427E66"/><path d="M958 158.903c0-.709.672-1.283 1.5-1.283s1.5.574 1.5 1.283v5.13c0 .708-.672 1.282-1.5 1.282s-1.5-.574-1.5-1.282v-5.13z" fill="#fff"/><path fill-rule="evenodd" clip-rule="evenodd" d="M960 164.033v-5.13c0-.236-.224-.428-.5-.428s-.5.192-.5.428v5.13c0 .236.224.427.5.427s.5-.191.5-.427zm-.5-6.413c-.828 0-1.5.574-1.5 1.283v5.13c0 .708.672 1.282 1.5 1.282s1.5-.574 1.5-1.282v-5.13c0-.709-.672-1.283-1.5-1.283z" fill="#427E66"/><path d="M1006 121.71c0-.944-.9-1.71-2-1.71h-5c-1.105 0-2 .766-2 1.71v4.275c0 .944.895 1.71 2 1.71h5c1.1 0 2-.766 2-1.71v-4.275z" fill="#fff"/><path fill-rule="evenodd" clip-rule="evenodd" d="M999 120.855h5c.55 0 1 .383 1 .855v4.275c0 .472-.45.855-1 .855h-5c-.552 0-1-.383-1-.855v-4.275c0-.472.448-.855 1-.855zm5-.855c1.1 0 2 .766 2 1.71v4.275c0 .944-.9 1.71-2 1.71h-5c-1.105 0-2-.766-2-1.71v-4.275c0-.944.895-1.71 2-1.71h5z" fill="#427E66"/><path d="M1006 121.283c0-.709-.67-1.283-1.5-1.283s-1.5.574-1.5 1.283v5.13c0 .708.67 1.282 1.5 1.282s1.5-.574 1.5-1.282v-5.13z" fill="#fff"/><path fill-rule="evenodd" clip-rule="evenodd" d="M1004 126.413v-5.13c0-.237.22-.428.5-.428s.5.191.5.428v5.13c0 .236-.22.427-.5.427s-.5-.191-.5-.427zm.5-6.413c.83 0 1.5.574 1.5 1.283v5.13c0 .708-.67 1.282-1.5 1.282s-1.5-.574-1.5-1.282v-5.13c0-.709.67-1.283 1.5-1.283z" fill="#427E66"/><path d="M1006 131.115c0-.944-.9-1.71-2-1.71h-5c-1.105 0-2 .766-2 1.71v4.275c0 .944.895 1.71 2 1.71h5c1.1 0 2-.766 2-1.71v-4.275z" fill="#fff"/><path fill-rule="evenodd" clip-rule="evenodd" d="M999 130.26h5c.55 0 1 .383 1 .855v4.275c0 .472-.45.855-1 .855h-5c-.552 0-1-.383-1-.855v-4.275c0-.472.448-.855 1-.855zm5-.855c1.1 0 2 .766 2 1.71v4.275c0 .944-.9 1.71-2 1.71h-5c-1.105 0-2-.766-2-1.71v-4.275c0-.944.895-1.71 2-1.71h5z" fill="#427E66"/><path d="M1006 130.688c0-.709-.67-1.283-1.5-1.283s-1.5.574-1.5 1.283v5.13c0 .708.67 1.282 1.5 1.282s1.5-.574 1.5-1.282v-5.13z" fill="#fff"/><path fill-rule="evenodd" clip-rule="evenodd" d="M1004 135.818v-5.13c0-.237.22-.428.5-.428s.5.191.5.428v5.13c0 .236-.22.427-.5.427s-.5-.191-.5-.427zm.5-6.413c.83 0 1.5.574 1.5 1.283v5.13c0 .708-.67 1.282-1.5 1.282s-1.5-.574-1.5-1.282v-5.13c0-.709.67-1.283 1.5-1.283z" fill="#427E66"/><path d="M1006 140.52c0-.944-.9-1.71-2-1.71h-5c-1.105 0-2 .766-2 1.71v4.275c0 .944.895 1.71 2 1.71h5c1.1 0 2-.766 2-1.71v-4.275z" fill="#fff"/><path fill-rule="evenodd" clip-rule="evenodd" d="M999 139.665h5c.55 0 1 .383 1 .855v4.275c0 .472-.45.855-1 .855h-5c-.552 0-1-.383-1-.855v-4.275c0-.472.448-.855 1-.855zm5-.855c1.1 0 2 .766 2 1.71v4.275c0 .944-.9 1.71-2 1.71h-5c-1.105 0-2-.766-2-1.71v-4.275c0-.944.895-1.71 2-1.71h5z" fill="#427E66"/><path d="M1006 140.093c0-.709-.67-1.283-1.5-1.283s-1.5.574-1.5 1.283v5.13c0 .708.67 1.282 1.5 1.282s1.5-.574 1.5-1.282v-5.13z" fill="#fff"/><path fill-rule="evenodd" clip-rule="evenodd" d="M1004 145.223v-5.13c0-.237.22-.428.5-.428s.5.191.5.428v5.13c0 .236-.22.427-.5.427s-.5-.191-.5-.427zm.5-6.413c.83 0 1.5.574 1.5 1.283v5.13c0 .708-.67 1.282-1.5 1.282s-1.5-.574-1.5-1.282v-5.13c0-.709.67-1.283 1.5-1.283z" fill="#427E66"/><path d="M1006 149.925c0-.945-.9-1.71-2-1.71h-5c-1.105 0-2 .765-2 1.71v4.275c0 .944.895 1.71 2 1.71h5c1.1 0 2-.766 2-1.71v-4.275z" fill="#fff"/><path fill-rule="evenodd" clip-rule="evenodd" d="M999 149.07h5c.55 0 1 .383 1 .855v4.275c0 .472-.45.855-1 .855h-5c-.552 0-1-.383-1-.855v-4.275c0-.472.448-.855 1-.855zm5-.855c1.1 0 2 .765 2 1.71v4.275c0 .944-.9 1.71-2 1.71h-5c-1.105 0-2-.766-2-1.71v-4.275c0-.945.895-1.71 2-1.71h5z" fill="#427E66"/><path d="M1006 149.497c0-.708-.67-1.282-1.5-1.282s-1.5.574-1.5 1.282v5.13c0 .709.67 1.283 1.5 1.283s1.5-.574 1.5-1.283v-5.13z" fill="#fff"/><path fill-rule="evenodd" clip-rule="evenodd" d="M1004 154.627v-5.13c0-.236.22-.427.5-.427s.5.191.5.427v5.13c0 .236-.22.428-.5.428s-.5-.192-.5-.428zm.5-6.412c.83 0 1.5.574 1.5 1.282v5.13c0 .709-.67 1.283-1.5 1.283s-1.5-.574-1.5-1.283v-5.13c0-.708.67-1.282 1.5-1.282z" fill="#427E66"/><path d="M1006 159.33c0-.944-.9-1.71-2-1.71h-5c-1.105 0-2 .766-2 1.71v4.275c0 .945.895 1.71 2 1.71h5c1.1 0 2-.765 2-1.71v-4.275z" fill="#fff"/><path fill-rule="evenodd" clip-rule="evenodd" d="M999 158.475h5c.55 0 1 .383 1 .855v4.275c0 .472-.45.855-1 .855h-5c-.552 0-1-.383-1-.855v-4.275c0-.472.448-.855 1-.855zm5-.855c1.1 0 2 .766 2 1.71v4.275c0 .945-.9 1.71-2 1.71h-5c-1.105 0-2-.765-2-1.71v-4.275c0-.944.895-1.71 2-1.71h5z" fill="#427E66"/><path d="M1006 158.903c0-.709-.67-1.283-1.5-1.283s-1.5.574-1.5 1.283v5.13c0 .708.67 1.282 1.5 1.282s1.5-.574 1.5-1.282v-5.13z" fill="#fff"/><path fill-rule="evenodd" clip-rule="evenodd" d="M1004 164.033v-5.13c0-.236.22-.428.5-.428s.5.192.5.428v5.13c0 .236-.22.427-.5.427s-.5-.191-.5-.427zm.5-6.413c.83 0 1.5.574 1.5 1.283v5.13c0 .708-.67 1.282-1.5 1.282s-1.5-.574-1.5-1.282v-5.13c0-.709.67-1.283 1.5-1.283z" fill="#427E66"/><path d="M792 53.5V76" stroke="#427E66" stroke-width="6"/><path d="M974 201v0a4 4 0 014-4h47a4 4 0 014 4v0M793 75v0a4 4 0 014 4v86a4 4 0 01-4 4v0m-1-112.5V18" stroke="#427E66" stroke-width="2"/><path fill="#427E66" d="M618 256h15v15h-15z"/><path fill="#fff" stroke="#427E66" d="M589.5 287.5v9h18v-9zm31-3h8v-14h-8zm-13 4v8h9v-8zm21-4h-8.157l-3.843 3.843v8.157h3.429l8.571-8.571V284.5z"/><path fill="#427E66" d="M607 291v1h10v-1zM58 437h33v13H58z"/><path fill-rule="evenodd" clip-rule="evenodd" d="M194 422h-24v15h-9v13h33v-28z" fill="#427E66"/><path d="M172 204v-18.5m0 59.5v-19m17 26h31.5v-66" stroke="#427E66" stroke-width="6"/><path fill-rule="evenodd" clip-rule="evenodd" d="M174 240h-5v34h20v-21h5v-13h-20z" fill="#427E66"/><path d="M928 437.5a5.5 5.5 0 11-11 0 5.5 5.5 0 1111 0z" fill="#fff"/><path fill-rule="evenodd" clip-rule="evenodd" d="M922.5 442a4.5 4.5 0 100-9 4.5 4.5 0 000 9zm0 1a5.5 5.5 0 100-11 5.5 5.5 0 100 11z" fill="#427E66"/><path d="M907 435a2 2 0 012-2h5a2 2 0 012 2v5a2 2 0 01-2 2h-5a2 2 0 01-2-2v-5z" fill="#fff"/><path fill-rule="evenodd" clip-rule="evenodd" d="M914 434h-5a1 1 0 00-1 1v5a1 1 0 001 1h5a1 1 0 001-1v-5a1 1 0 00-1-1zm-5-1a2 2 0 00-2 2v5a2 2 0 002 2h5a2 2 0 002-2v-5a2 2 0 00-2-2h-5z" fill="#427E66"/><path d="M907 434.5a1.5 1.5 0 013 0v6a1.5 1.5 0 01-3 0v-6z" fill="#fff"/><path fill-rule="evenodd" clip-rule="evenodd" d="M909 440.5v-6a.5.5 0 00-1 0v6a.5.5 0 001 0zm-.5-7.5a1.5 1.5 0 00-1.5 1.5v6a1.5 1.5 0 003 0v-6a1.5 1.5 0 00-1.5-1.5z" fill="#427E66"/><path d="M938 440a2 2 0 01-2 2h-5a2 2 0 01-2-2v-5a2 2 0 012-2h5a2 2 0 012 2v5z" fill="#fff"/><path fill-rule="evenodd" clip-rule="evenodd" d="M931 441h5a1 1 0 001-1v-5a1 1 0 00-1-1h-5a1 1 0 00-1 1v5a1 1 0 001 1zm5 1a2 2 0 002-2v-5a2 2 0 00-2-2h-5a2 2 0 00-2 2v5a2 2 0 002 2h5z" fill="#427E66"/><path d="M938 440.5a1.5 1.5 0 01-3 0v-6a1.5 1.5 0 013 0v6z" fill="#fff"/><path fill-rule="evenodd" clip-rule="evenodd" d="M936 434.5v6a.5.5 0 001 0v-6a.5.5 0 00-1 0zm.5 7.5a1.5 1.5 0 001.5-1.5v-6a1.5 1.5 0 00-3 0v6a1.5 1.5 0 001.5 1.5z" fill="#427E66"/><path d="M778 437.5a5.5 5.5 0 11-11 0 5.5 5.5 0 1111 0z" fill="#fff"/><path fill-rule="evenodd" clip-rule="evenodd" d="M772.5 442a4.5 4.5 0 100-9 4.5 4.5 0 000 9zm0 1a5.5 5.5 0 100-11 5.5 5.5 0 100 11z" fill="#427E66"/><path d="M757 435a2 2 0 012-2h5a2 2 0 012 2v5a2 2 0 01-2 2h-5a2 2 0 01-2-2v-5z" fill="#fff"/><path fill-rule="evenodd" clip-rule="evenodd" d="M764 434h-5a1 1 0 00-1 1v5a1 1 0 001 1h5a1 1 0 001-1v-5a1 1 0 00-1-1zm-5-1a2 2 0 00-2 2v5a2 2 0 002 2h5a2 2 0 002-2v-5a2 2 0 00-2-2h-5z" fill="#427E66"/><path d="M757 434.5a1.5 1.5 0 013 0v6a1.5 1.5 0 01-3 0v-6z" fill="#fff"/><path fill-rule="evenodd" clip-rule="evenodd" d="M759 440.5v-6a.5.5 0 00-1 0v6a.5.5 0 001 0zm-.5-7.5a1.5 1.5 0 00-1.5 1.5v6a1.5 1.5 0 003 0v-6a1.5 1.5 0 00-1.5-1.5z" fill="#427E66"/><path d="M788 440a2 2 0 01-2 2h-5a2 2 0 01-2-2v-5a2 2 0 012-2h5a2 2 0 012 2v5z" fill="#fff"/><path fill-rule="evenodd" clip-rule="evenodd" d="M781 441h5a1 1 0 001-1v-5a1 1 0 00-1-1h-5a1 1 0 00-1 1v5a1 1 0 001 1zm5 1a2 2 0 002-2v-5a2 2 0 00-2-2h-5a2 2 0 00-2 2v5a2 2 0 002 2h5z" fill="#427E66"/><path d="M788 440.5a1.5 1.5 0 01-3 0v-6a1.5 1.5 0 013 0v6z" fill="#fff"/><path fill-rule="evenodd" clip-rule="evenodd" d="M786 434.5v6a.5.5 0 001 0v-6a.5.5 0 00-1 0zm.5 7.5a1.5 1.5 0 001.5-1.5v-6a1.5 1.5 0 00-3 0v6a1.5 1.5 0 001.5 1.5z" fill="#427E66"/><path d="M688 437.5a5.5 5.5 0 11-11 0 5.5 5.5 0 1111 0z" fill="#fff"/><path fill-rule="evenodd" clip-rule="evenodd" d="M682.5 442a4.5 4.5 0 100-9 4.5 4.5 0 000 9zm0 1a5.5 5.5 0 100-11 5.5 5.5 0 100 11z" fill="#427E66"/><path d="M667 435a2 2 0 012-2h5a2 2 0 012 2v5a2 2 0 01-2 2h-5a2 2 0 01-2-2v-5z" fill="#fff"/><path fill-rule="evenodd" clip-rule="evenodd" d="M674 434h-5a1 1 0 00-1 1v5a1 1 0 001 1h5a1 1 0 001-1v-5a1 1 0 00-1-1zm-5-1a2 2 0 00-2 2v5a2 2 0 002 2h5a2 2 0 002-2v-5a2 2 0 00-2-2h-5z" fill="#427E66"/><path d="M667 434.5a1.5 1.5 0 013 0v6a1.5 1.5 0 01-3 0v-6z" fill="#fff"/><path fill-rule="evenodd" clip-rule="evenodd" d="M669 440.5v-6a.5.5 0 00-1 0v6a.5.5 0 001 0zm-.5-7.5a1.5 1.5 0 00-1.5 1.5v6a1.5 1.5 0 003 0v-6a1.5 1.5 0 00-1.5-1.5z" fill="#427E66"/><path d="M698 440a2 2 0 01-2 2h-5a2 2 0 01-2-2v-5a2 2 0 012-2h5a2 2 0 012 2v5z" fill="#fff"/><path fill-rule="evenodd" clip-rule="evenodd" d="M691 441h5a1 1 0 001-1v-5a1 1 0 00-1-1h-5a1 1 0 00-1 1v5a1 1 0 001 1zm5 1a2 2 0 002-2v-5a2 2 0 00-2-2h-5a2 2 0 00-2 2v5a2 2 0 002 2h5z" fill="#427E66"/><path d="M698 440.5a1.5 1.5 0 01-3 0v-6a1.5 1.5 0 013 0v6z" fill="#fff"/><path fill-rule="evenodd" clip-rule="evenodd" d="M696 434.5v6a.5.5 0 001 0v-6a.5.5 0 00-1 0zm.5 7.5a1.5 1.5 0 001.5-1.5v-6a1.5 1.5 0 00-3 0v6a1.5 1.5 0 001.5 1.5z" fill="#427E66"/><path d="M506 437.5a5.5 5.5 0 11-11 0 5.5 5.5 0 1111 0z" fill="#fff"/><path fill-rule="evenodd" clip-rule="evenodd" d="M500.5 442a4.5 4.5 0 100-9 4.5 4.5 0 000 9zm0 1a5.5 5.5 0 100-11 5.5 5.5 0 100 11z" fill="#427E66"/><path d="M485 435a2 2 0 012-2h5a2 2 0 012 2v5a2 2 0 01-2 2h-5a2 2 0 01-2-2v-5z" fill="#fff"/><path fill-rule="evenodd" clip-rule="evenodd" d="M492 434h-5a1 1 0 00-1 1v5a1 1 0 001 1h5a1 1 0 001-1v-5a1 1 0 00-1-1zm-5-1a2 2 0 00-2 2v5a2 2 0 002 2h5a2 2 0 002-2v-5a2 2 0 00-2-2h-5z" fill="#427E66"/><path d="M485 434.5a1.5 1.5 0 013 0v6a1.5 1.5 0 01-3 0v-6z" fill="#fff"/><path fill-rule="evenodd" clip-rule="evenodd" d="M487 440.5v-6a.5.5 0 00-1 0v6a.5.5 0 001 0zm-.5-7.5a1.5 1.5 0 00-1.5 1.5v6a1.5 1.5 0 003 0v-6a1.5 1.5 0 00-1.5-1.5z" fill="#427E66"/><path d="M516 440a2 2 0 01-2 2h-5a2 2 0 01-2-2v-5a2 2 0 012-2h5a2 2 0 012 2v5z" fill="#fff"/><path fill-rule="evenodd" clip-rule="evenodd" d="M509 441h5a1 1 0 001-1v-5a1 1 0 00-1-1h-5a1 1 0 00-1 1v5a1 1 0 001 1zm5 1a2 2 0 002-2v-5a2 2 0 00-2-2h-5a2 2 0 00-2 2v5a2 2 0 002 2h5z" fill="#427E66"/><path d="M516 440.5a1.5 1.5 0 01-3 0v-6a1.5 1.5 0 013 0v6z" fill="#fff"/><path fill-rule="evenodd" clip-rule="evenodd" d="M514 434.5v6a.5.5 0 001 0v-6a.5.5 0 00-1 0zm.5 7.5a1.5 1.5 0 001.5-1.5v-6a1.5 1.5 0 00-3 0v6a1.5 1.5 0 001.5 1.5z" fill="#427E66"/><path d="M318 437.5a5.5 5.5 0 11-11 0 5.5 5.5 0 1111 0z" fill="#fff"/><path fill-rule="evenodd" clip-rule="evenodd" d="M312.5 442a4.5 4.5 0 100-9 4.5 4.5 0 000 9zm0 1a5.5 5.5 0 100-11 5.5 5.5 0 100 11z" fill="#427E66"/><path d="M297 435a2 2 0 012-2h5a2 2 0 012 2v5a2 2 0 01-2 2h-5a2 2 0 01-2-2v-5z" fill="#fff"/><path fill-rule="evenodd" clip-rule="evenodd" d="M304 434h-5a1 1 0 00-1 1v5a1 1 0 001 1h5a1 1 0 001-1v-5a1 1 0 00-1-1zm-5-1a2 2 0 00-2 2v5a2 2 0 002 2h5a2 2 0 002-2v-5a2 2 0 00-2-2h-5z" fill="#427E66"/><path d="M297 434.5a1.5 1.5 0 013 0v6a1.5 1.5 0 01-3 0v-6z" fill="#fff"/><path fill-rule="evenodd" clip-rule="evenodd" d="M299 440.5v-6a.5.5 0 00-1 0v6a.5.5 0 001 0zm-.5-7.5a1.5 1.5 0 00-1.5 1.5v6a1.5 1.5 0 003 0v-6a1.5 1.5 0 00-1.5-1.5z" fill="#427E66"/><path d="M328 440a2 2 0 01-2 2h-5a2 2 0 01-2-2v-5a2 2 0 012-2h5a2 2 0 012 2v5z" fill="#fff"/><path fill-rule="evenodd" clip-rule="evenodd" d="M321 441h5a1 1 0 001-1v-5a1 1 0 00-1-1h-5a1 1 0 00-1 1v5a1 1 0 001 1zm5 1a2 2 0 002-2v-5a2 2 0 00-2-2h-5a2 2 0 00-2 2v5a2 2 0 002 2h5z" fill="#427E66"/><path d="M328 440.5a1.5 1.5 0 01-3 0v-6a1.5 1.5 0 013 0v6z" fill="#fff"/><path fill-rule="evenodd" clip-rule="evenodd" d="M326 434.5v6a.5.5 0 001 0v-6a.5.5 0 00-1 0zm.5 7.5a1.5 1.5 0 001.5-1.5v-6a1.5 1.5 0 00-3 0v6a1.5 1.5 0 001.5 1.5z" fill="#427E66"/><path d="M720 437.5a5.5 5.5 0 11-11 0 5.5 5.5 0 1111 0z" fill="#fff"/><path fill-rule="evenodd" clip-rule="evenodd" d="M714.5 442a4.5 4.5 0 100-9 4.5 4.5 0 000 9zm0 1a5.5 5.5 0 100-11 5.5 5.5 0 100 11z" fill="#427E66"/><path d="M699 435a2 2 0 012-2h5a2 2 0 012 2v5a2 2 0 01-2 2h-5a2 2 0 01-2-2v-5z" fill="#fff"/><path fill-rule="evenodd" clip-rule="evenodd" d="M706 434h-5a1 1 0 00-1 1v5a1 1 0 001 1h5a1 1 0 001-1v-5a1 1 0 00-1-1zm-5-1a2 2 0 00-2 2v5a2 2 0 002 2h5a2 2 0 002-2v-5a2 2 0 00-2-2h-5z" fill="#427E66"/><path d="M699 434.5a1.5 1.5 0 013 0v6a1.5 1.5 0 01-3 0v-6z" fill="#fff"/><path fill-rule="evenodd" clip-rule="evenodd" d="M701 440.5v-6a.5.5 0 00-1 0v6a.5.5 0 001 0zm-.5-7.5a1.5 1.5 0 00-1.5 1.5v6a1.5 1.5 0 003 0v-6a1.5 1.5 0 00-1.5-1.5z" fill="#427E66"/><path d="M730 440a2 2 0 01-2 2h-5a2 2 0 01-2-2v-5a2 2 0 012-2h5a2 2 0 012 2v5z" fill="#fff"/><path fill-rule="evenodd" clip-rule="evenodd" d="M723 441h5a1 1 0 001-1v-5a1 1 0 00-1-1h-5a1 1 0 00-1 1v5a1 1 0 001 1zm5 1a2 2 0 002-2v-5a2 2 0 00-2-2h-5a2 2 0 00-2 2v5a2 2 0 002 2h5z" fill="#427E66"/><path d="M730 440.5a1.5 1.5 0 01-3 0v-6a1.5 1.5 0 013 0v6z" fill="#fff"/><path fill-rule="evenodd" clip-rule="evenodd" d="M728 434.5v6a.5.5 0 001 0v-6a.5.5 0 00-1 0zm.5 7.5a1.5 1.5 0 001.5-1.5v-6a1.5 1.5 0 00-3 0v6a1.5 1.5 0 001.5 1.5z" fill="#427E66"/><path d="M607 437.5a5.5 5.5 0 11-11 0 5.5 5.5 0 1111 0z" fill="#fff"/><path fill-rule="evenodd" clip-rule="evenodd" d="M601.5 442a4.5 4.5 0 100-9 4.5 4.5 0 000 9zm0 1a5.5 5.5 0 100-11 5.5 5.5 0 100 11z" fill="#427E66"/><path d="M586 435a2 2 0 012-2h5a2 2 0 012 2v5a2 2 0 01-2 2h-5a2 2 0 01-2-2v-5z" fill="#fff"/><path fill-rule="evenodd" clip-rule="evenodd" d="M593 434h-5a1 1 0 00-1 1v5a1 1 0 001 1h5a1 1 0 001-1v-5a1 1 0 00-1-1zm-5-1a2 2 0 00-2 2v5a2 2 0 002 2h5a2 2 0 002-2v-5a2 2 0 00-2-2h-5z" fill="#427E66"/><path d="M586 434.5a1.5 1.5 0 013 0v6a1.5 1.5 0 01-3 0v-6z" fill="#fff"/><path fill-rule="evenodd" clip-rule="evenodd" d="M588 440.5v-6a.5.5 0 00-1 0v6a.5.5 0 001 0zm-.5-7.5a1.5 1.5 0 00-1.5 1.5v6a1.5 1.5 0 003 0v-6a1.5 1.5 0 00-1.5-1.5z" fill="#427E66"/><path d="M617 440a2 2 0 01-2 2h-5a2 2 0 01-2-2v-5a2 2 0 012-2h5a2 2 0 012 2v5z" fill="#fff"/><path fill-rule="evenodd" clip-rule="evenodd" d="M610 441h5a1 1 0 001-1v-5a1 1 0 00-1-1h-5a1 1 0 00-1 1v5a1 1 0 001 1zm5 1a2 2 0 002-2v-5a2 2 0 00-2-2h-5a2 2 0 00-2 2v5a2 2 0 002 2h5z" fill="#427E66"/><path d="M617 440.5a1.5 1.5 0 01-3 0v-6a1.5 1.5 0 013 0v6z" fill="#fff"/><path fill-rule="evenodd" clip-rule="evenodd" d="M615 434.5v6a.5.5 0 001 0v-6a.5.5 0 00-1 0zm.5 7.5a1.5 1.5 0 001.5-1.5v-6a1.5 1.5 0 00-3 0v6a1.5 1.5 0 001.5 1.5z" fill="#427E66"/><path d="M422 437.5a5.5 5.5 0 11-11 0 5.5 5.5 0 1111 0z" fill="#fff"/><path fill-rule="evenodd" clip-rule="evenodd" d="M416.5 442a4.5 4.5 0 100-9 4.5 4.5 0 000 9zm0 1a5.5 5.5 0 100-11 5.5 5.5 0 100 11z" fill="#427E66"/><path d="M401 435a2 2 0 012-2h5a2 2 0 012 2v5a2 2 0 01-2 2h-5a2 2 0 01-2-2v-5z" fill="#fff"/><path fill-rule="evenodd" clip-rule="evenodd" d="M408 434h-5a1 1 0 00-1 1v5a1 1 0 001 1h5a1 1 0 001-1v-5a1 1 0 00-1-1zm-5-1a2 2 0 00-2 2v5a2 2 0 002 2h5a2 2 0 002-2v-5a2 2 0 00-2-2h-5z" fill="#427E66"/><path d="M401 434.5a1.5 1.5 0 013 0v6a1.5 1.5 0 01-3 0v-6z" fill="#fff"/><path fill-rule="evenodd" clip-rule="evenodd" d="M403 440.5v-6a.5.5 0 00-1 0v6a.5.5 0 001 0zm-.5-7.5a1.5 1.5 0 00-1.5 1.5v6a1.5 1.5 0 003 0v-6a1.5 1.5 0 00-1.5-1.5z" fill="#427E66"/><path d="M432 440a2 2 0 01-2 2h-5a2 2 0 01-2-2v-5a2 2 0 012-2h5a2 2 0 012 2v5z" fill="#fff"/><path fill-rule="evenodd" clip-rule="evenodd" d="M425 441h5a1 1 0 001-1v-5a1 1 0 00-1-1h-5a1 1 0 00-1 1v5a1 1 0 001 1zm5 1a2 2 0 002-2v-5a2 2 0 00-2-2h-5a2 2 0 00-2 2v5a2 2 0 002 2h5z" fill="#427E66"/><path d="M432 440.5a1.5 1.5 0 01-3 0v-6a1.5 1.5 0 013 0v6z" fill="#fff"/><path fill-rule="evenodd" clip-rule="evenodd" d="M430 434.5v6a.5.5 0 001 0v-6a.5.5 0 00-1 0zm.5 7.5a1.5 1.5 0 001.5-1.5v-6a1.5 1.5 0 00-3 0v6a1.5 1.5 0 001.5 1.5z" fill="#427E66"/><path d="M538 437.5a5.5 5.5 0 11-11 0 5.5 5.5 0 1111 0z" fill="#fff"/><path fill-rule="evenodd" clip-rule="evenodd" d="M532.5 442a4.5 4.5 0 100-9 4.5 4.5 0 000 9zm0 1a5.5 5.5 0 100-11 5.5 5.5 0 100 11z" fill="#427E66"/><path d="M517 435a2 2 0 012-2h5a2 2 0 012 2v5a2 2 0 01-2 2h-5a2 2 0 01-2-2v-5z" fill="#fff"/><path fill-rule="evenodd" clip-rule="evenodd" d="M524 434h-5a1 1 0 00-1 1v5a1 1 0 001 1h5a1 1 0 001-1v-5a1 1 0 00-1-1zm-5-1a2 2 0 00-2 2v5a2 2 0 002 2h5a2 2 0 002-2v-5a2 2 0 00-2-2h-5z" fill="#427E66"/><path d="M517 434.5a1.5 1.5 0 013 0v6a1.5 1.5 0 01-3 0v-6z" fill="#fff"/><path fill-rule="evenodd" clip-rule="evenodd" d="M519 440.5v-6a.5.5 0 00-1 0v6a.5.5 0 001 0zm-.5-7.5a1.5 1.5 0 00-1.5 1.5v6a1.5 1.5 0 003 0v-6a1.5 1.5 0 00-1.5-1.5z" fill="#427E66"/><path d="M548 440a2 2 0 01-2 2h-5a2 2 0 01-2-2v-5a2 2 0 012-2h5a2 2 0 012 2v5z" fill="#fff"/><path fill-rule="evenodd" clip-rule="evenodd" d="M541 441h5a1 1 0 001-1v-5a1 1 0 00-1-1h-5a1 1 0 00-1 1v5a1 1 0 001 1zm5 1a2 2 0 002-2v-5a2 2 0 00-2-2h-5a2 2 0 00-2 2v5a2 2 0 002 2h5z" fill="#427E66"/><path d="M548 440.5a1.5 1.5 0 01-3 0v-6a1.5 1.5 0 013 0v6z" fill="#fff"/><path fill-rule="evenodd" clip-rule="evenodd" d="M546 434.5v6a.5.5 0 001 0v-6a.5.5 0 00-1 0zm.5 7.5a1.5 1.5 0 001.5-1.5v-6a1.5 1.5 0 00-3 0v6a1.5 1.5 0 001.5 1.5z" fill="#427E66"/><path d="M350 437.5a5.5 5.5 0 11-11 0 5.5 5.5 0 1111 0z" fill="#fff"/><path fill-rule="evenodd" clip-rule="evenodd" d="M344.5 442a4.5 4.5 0 100-9 4.5 4.5 0 000 9zm0 1a5.5 5.5 0 100-11 5.5 5.5 0 100 11z" fill="#427E66"/><path d="M329 435a2 2 0 012-2h5a2 2 0 012 2v5a2 2 0 01-2 2h-5a2 2 0 01-2-2v-5z" fill="#fff"/><path fill-rule="evenodd" clip-rule="evenodd" d="M336 434h-5a1 1 0 00-1 1v5a1 1 0 001 1h5a1 1 0 001-1v-5a1 1 0 00-1-1zm-5-1a2 2 0 00-2 2v5a2 2 0 002 2h5a2 2 0 002-2v-5a2 2 0 00-2-2h-5z" fill="#427E66"/><path d="M329 434.5a1.5 1.5 0 013 0v6a1.5 1.5 0 01-3 0v-6z" fill="#fff"/><path fill-rule="evenodd" clip-rule="evenodd" d="M331 440.5v-6a.5.5 0 00-1 0v6a.5.5 0 001 0zm-.5-7.5a1.5 1.5 0 00-1.5 1.5v6a1.5 1.5 0 003 0v-6a1.5 1.5 0 00-1.5-1.5z" fill="#427E66"/><path d="M360 440a2 2 0 01-2 2h-5a2 2 0 01-2-2v-5a2 2 0 012-2h5a2 2 0 012 2v5z" fill="#fff"/><path fill-rule="evenodd" clip-rule="evenodd" d="M353 441h5a1 1 0 001-1v-5a1 1 0 00-1-1h-5a1 1 0 00-1 1v5a1 1 0 001 1zm5 1a2 2 0 002-2v-5a2 2 0 00-2-2h-5a2 2 0 00-2 2v5a2 2 0 002 2h5z" fill="#427E66"/><path d="M360 440.5a1.5 1.5 0 01-3 0v-6a1.5 1.5 0 013 0v6z" fill="#fff"/><path fill-rule="evenodd" clip-rule="evenodd" d="M358 434.5v6a.5.5 0 001 0v-6a.5.5 0 00-1 0zm.5 7.5a1.5 1.5 0 001.5-1.5v-6a1.5 1.5 0 00-3 0v6a1.5 1.5 0 001.5 1.5z" fill="#427E66"/><path d="M239 437.5a5.5 5.5 0 11-11 0 5.5 5.5 0 1111 0z" fill="#fff"/><path fill-rule="evenodd" clip-rule="evenodd" d="M233.5 442a4.5 4.5 0 100-9 4.5 4.5 0 000 9zm0 1a5.5 5.5 0 100-11 5.5 5.5 0 100 11z" fill="#427E66"/><path d="M218 435a2 2 0 012-2h5a2 2 0 012 2v5a2 2 0 01-2 2h-5a2 2 0 01-2-2v-5z" fill="#fff"/><path fill-rule="evenodd" clip-rule="evenodd" d="M225 434h-5a1 1 0 00-1 1v5a1 1 0 001 1h5a1 1 0 001-1v-5a1 1 0 00-1-1zm-5-1a2 2 0 00-2 2v5a2 2 0 002 2h5a2 2 0 002-2v-5a2 2 0 00-2-2h-5z" fill="#427E66"/><path d="M218 434.5a1.5 1.5 0 013 0v6a1.5 1.5 0 01-3 0v-6z" fill="#fff"/><path fill-rule="evenodd" clip-rule="evenodd" d="M220 440.5v-6a.5.5 0 00-1 0v6a.5.5 0 001 0zm-.5-7.5a1.5 1.5 0 00-1.5 1.5v6a1.5 1.5 0 003 0v-6a1.5 1.5 0 00-1.5-1.5z" fill="#427E66"/><path d="M249 440a2 2 0 01-2 2h-5a2 2 0 01-2-2v-5a2 2 0 012-2h5a2 2 0 012 2v5z" fill="#fff"/><path fill-rule="evenodd" clip-rule="evenodd" d="M242 441h5a1 1 0 001-1v-5a1 1 0 00-1-1h-5a1 1 0 00-1 1v5a1 1 0 001 1zm5 1a2 2 0 002-2v-5a2 2 0 00-2-2h-5a2 2 0 00-2 2v5a2 2 0 002 2h5z" fill="#427E66"/><path d="M249 440.5a1.5 1.5 0 01-3 0v-6a1.5 1.5 0 013 0v6z" fill="#fff"/><path fill-rule="evenodd" clip-rule="evenodd" d="M247 434.5v6a.5.5 0 001 0v-6a.5.5 0 00-1 0zm.5 7.5a1.5 1.5 0 001.5-1.5v-6a1.5 1.5 0 00-3 0v6a1.5 1.5 0 001.5 1.5z" fill="#427E66"/><path d="M126 437.5a5.5 5.5 0 11-11 0 5.5 5.5 0 1111 0z" fill="#fff"/><path fill-rule="evenodd" clip-rule="evenodd" d="M120.5 442a4.5 4.5 0 100-9 4.5 4.5 0 000 9zm0 1a5.5 5.5 0 100-11 5.5 5.5 0 100 11z" fill="#427E66"/><path d="M105 435a2 2 0 012-2h5a2 2 0 012 2v5a2 2 0 01-2 2h-5a2 2 0 01-2-2v-5z" fill="#fff"/><path fill-rule="evenodd" clip-rule="evenodd" d="M112 434h-5a1 1 0 00-1 1v5a1 1 0 001 1h5a1 1 0 001-1v-5a1 1 0 00-1-1zm-5-1a2 2 0 00-2 2v5a2 2 0 002 2h5a2 2 0 002-2v-5a2 2 0 00-2-2h-5z" fill="#427E66"/><path d="M105 434.5a1.5 1.5 0 013 0v6a1.5 1.5 0 01-3 0v-6z" fill="#fff"/><path fill-rule="evenodd" clip-rule="evenodd" d="M107 440.5v-6a.5.5 0 00-1 0v6a.5.5 0 001 0zm-.5-7.5a1.5 1.5 0 00-1.5 1.5v6a1.5 1.5 0 003 0v-6a1.5 1.5 0 00-1.5-1.5z" fill="#427E66"/><path d="M136 440a2 2 0 01-2 2h-5a2 2 0 01-2-2v-5a2 2 0 012-2h5a2 2 0 012 2v5z" fill="#fff"/><path fill-rule="evenodd" clip-rule="evenodd" d="M129 441h5a1 1 0 001-1v-5a1 1 0 00-1-1h-5a1 1 0 00-1 1v5a1 1 0 001 1zm5 1a2 2 0 002-2v-5a2 2 0 00-2-2h-5a2 2 0 00-2 2v5a2 2 0 002 2h5z" fill="#427E66"/><path d="M136 440.5a1.5 1.5 0 01-3 0v-6a1.5 1.5 0 013 0v6z" fill="#fff"/><path fill-rule="evenodd" clip-rule="evenodd" d="M134 434.5v6a.5.5 0 001 0v-6a.5.5 0 00-1 0zm.5 7.5a1.5 1.5 0 001.5-1.5v-6a1.5 1.5 0 00-3 0v6a1.5 1.5 0 001.5 1.5z" fill="#427E66"/><path d="M15.5 241a5.5 5.5 0 110-11 5.5 5.5 0 010 11z" fill="#fff"/><path fill-rule="evenodd" clip-rule="evenodd" d="M11 235.5a4.5 4.5 0 109 0 4.5 4.5 0 00-9 0zm-1 0a5.5 5.5 0 1011 0 5.5 5.5 0 00-11 0z" fill="#427E66"/><path d="M18 220a2 2 0 012 2v5a2 2 0 01-2 2h-5a2 2 0 01-2-2v-5a2 2 0 012-2h5z" fill="#fff"/><path fill-rule="evenodd" clip-rule="evenodd" d="M19 227v-5a1 1 0 00-1-1h-5a1 1 0 00-1 1v5a1 1 0 001 1h5a1 1 0 001-1zm1-5a2 2 0 00-2-2h-5a2 2 0 00-2 2v5a2 2 0 002 2h5a2 2 0 002-2v-5z" fill="#427E66"/><path d="M18.5 220a1.5 1.5 0 010 3h-6a1.5 1.5 0 010-3h6z" fill="#fff"/><path fill-rule="evenodd" clip-rule="evenodd" d="M12.5 222h6a.5.5 0 000-1h-6a.5.5 0 000 1zm7.5-.5a1.5 1.5 0 00-1.5-1.5h-6a1.5 1.5 0 000 3h6a1.5 1.5 0 001.5-1.5z" fill="#427E66"/><path d="M13 251a2 2 0 01-2-2v-5a2 2 0 012-2h5a2 2 0 012 2v5a2 2 0 01-2 2h-5z" fill="#fff"/><path fill-rule="evenodd" clip-rule="evenodd" d="M12 244v5a1 1 0 001 1h5a1 1 0 001-1v-5a1 1 0 00-1-1h-5a1 1 0 00-1 1zm-1 5a2 2 0 002 2h5a2 2 0 002-2v-5a2 2 0 00-2-2h-5a2 2 0 00-2 2v5z" fill="#427E66"/><path d="M12.5 251a1.5 1.5 0 010-3h6a1.5 1.5 0 010 3h-6z" fill="#fff"/><path fill-rule="evenodd" clip-rule="evenodd" d="M18.5 249h-6a.5.5 0 000 1h6a.5.5 0 000-1zm-7.5.5a1.5 1.5 0 001.5 1.5h6a1.5 1.5 0 000-3h-6a1.5 1.5 0 00-1.5 1.5z" fill="#427E66"/><path d="M44.688 420.395a5.5 5.5 0 11-7.778-7.778 5.5 5.5 0 017.778 7.778z" fill="#fff"/><path fill-rule="evenodd" clip-rule="evenodd" d="M37.617 419.688a4.5 4.5 0 106.364-6.364 4.5 4.5 0 00-6.364 6.364zm-.707.707a5.5 5.5 0 107.778-7.778 5.5 5.5 0 00-7.778 7.778z" fill="#427E66"/><path d="M31.607 403.778a2 2 0 012.828 0l3.536 3.536a2 2 0 010 2.828l-3.536 3.536a2 2 0 01-2.828 0l-3.536-3.536a2 2 0 010-2.828l3.536-3.536z" fill="#fff"/><path fill-rule="evenodd" clip-rule="evenodd" d="M37.264 408.021l-3.536-3.536a1 1 0 00-1.414 0l-3.536 3.536a1 1 0 000 1.414l3.536 3.536a1 1 0 001.414 0l3.536-3.536a1 1 0 000-1.414zm-2.829-4.243a2 2 0 00-2.828 0l-3.536 3.536a2 2 0 000 2.828l3.536 3.536a2 2 0 002.828 0l3.536-3.536a2 2 0 000-2.828l-3.536-3.536z" fill="#427E66"/><path d="M31.96 403.425a1.5 1.5 0 112.122 2.121l-4.243 4.243a1.501 1.501 0 01-2.121-2.122l4.242-4.242z" fill="#fff"/><path fill-rule="evenodd" clip-rule="evenodd" d="M29.132 409.082l4.242-4.243a.5.5 0 10-.707-.707l-4.242 4.242a.501.501 0 00.707.708zm4.95-5.657a1.5 1.5 0 00-2.122 0l-4.242 4.242a1.5 1.5 0 002.121 2.122l4.243-4.243a1.5 1.5 0 000-2.121z" fill="#427E66"/><path d="M49.991 429.234a2 2 0 01-2.828 0l-3.536-3.536a2 2 0 010-2.828l3.536-3.536a2 2 0 012.828 0l3.536 3.536a2 2 0 010 2.828l-3.536 3.536z" fill="#fff"/><path fill-rule="evenodd" clip-rule="evenodd" d="M44.334 424.991l3.536 3.536a1 1 0 001.414 0l3.536-3.536a1 1 0 000-1.414l-3.536-3.535a1 1 0 00-1.414 0l-3.535 3.535a1 1 0 000 1.414zm2.829 4.243a2 2 0 002.828 0l3.536-3.536a2 2 0 000-2.828l-3.536-3.536a2 2 0 00-2.828 0l-3.536 3.536a2 2 0 000 2.828l3.536 3.536z" fill="#427E66"/><path d="M49.638 429.588a1.501 1.501 0 01-2.121-2.122l4.242-4.242a1.5 1.5 0 112.121 2.121l-4.242 4.243z" fill="#fff"/><path fill-rule="evenodd" clip-rule="evenodd" d="M52.466 423.931l-4.242 4.242a.5.5 0 10.707.707l4.242-4.242a.5.5 0 10-.707-.707zm-4.95 5.657a1.501 1.501 0 002.122 0l4.242-4.243a1.5 1.5 0 10-2.12-2.121l-4.243 4.242a1.5 1.5 0 000 2.122z" fill="#427E66"/><path d="M13.5 349a5.5 5.5 0 110-11 5.5 5.5 0 010 11z" fill="#fff"/><path fill-rule="evenodd" clip-rule="evenodd" d="M9 343.5a4.5 4.5 0 109 0 4.5 4.5 0 00-9 0zm-1 0a5.5 5.5 0 1011 0 5.5 5.5 0 00-11 0z" fill="#427E66"/><path d="M16 328a2 2 0 012 2v5a2 2 0 01-2 2h-5a2 2 0 01-2-2v-5a2 2 0 012-2h5z" fill="#fff"/><path fill-rule="evenodd" clip-rule="evenodd" d="M17 335v-5a1 1 0 00-1-1h-5a1 1 0 00-1 1v5a1 1 0 001 1h5a1 1 0 001-1zm1-5a2 2 0 00-2-2h-5a2 2 0 00-2 2v5a2 2 0 002 2h5a2 2 0 002-2v-5z" fill="#427E66"/><path d="M16.5 328a1.5 1.5 0 010 3h-6a1.5 1.5 0 010-3h6z" fill="#fff"/><path fill-rule="evenodd" clip-rule="evenodd" d="M10.5 330h6a.5.5 0 000-1h-6a.5.5 0 000 1zm7.5-.5a1.5 1.5 0 00-1.5-1.5h-6a1.5 1.5 0 000 3h6a1.5 1.5 0 001.5-1.5z" fill="#427E66"/><path d="M11 359a2 2 0 01-2-2v-5a2 2 0 012-2h5a2 2 0 012 2v5a2 2 0 01-2 2h-5z" fill="#fff"/><path fill-rule="evenodd" clip-rule="evenodd" d="M10 352v5a1 1 0 001 1h5a1 1 0 001-1v-5a1 1 0 00-1-1h-5a1 1 0 00-1 1zm-1 5a2 2 0 002 2h5a2 2 0 002-2v-5a2 2 0 00-2-2h-5a2 2 0 00-2 2v5z" fill="#427E66"/><path d="M10.5 359a1.5 1.5 0 010-3h6a1.5 1.5 0 010 3h-6z" fill="#fff"/><path fill-rule="evenodd" clip-rule="evenodd" d="M16.5 357h-6a.5.5 0 000 1h6a.5.5 0 000-1zm-7.5.5a1.5 1.5 0 001.5 1.5h6a1.5 1.5 0 000-3h-6a1.5 1.5 0 00-1.5 1.5z" fill="#427E66"/><path d="M13.5 317a5.5 5.5 0 110-11 5.5 5.5 0 010 11z" fill="#fff"/><path fill-rule="evenodd" clip-rule="evenodd" d="M9 311.5a4.5 4.5 0 109 0 4.5 4.5 0 00-9 0zm-1 0a5.5 5.5 0 1011 0 5.5 5.5 0 00-11 0z" fill="#427E66"/><path d="M16 296a2 2 0 012 2v5a2 2 0 01-2 2h-5a2 2 0 01-2-2v-5a2 2 0 012-2h5z" fill="#fff"/><path fill-rule="evenodd" clip-rule="evenodd" d="M17 303v-5a1 1 0 00-1-1h-5a1 1 0 00-1 1v5a1 1 0 001 1h5a1 1 0 001-1zm1-5a2 2 0 00-2-2h-5a2 2 0 00-2 2v5a2 2 0 002 2h5a2 2 0 002-2v-5z" fill="#427E66"/><path d="M16.5 296a1.5 1.5 0 010 3h-6a1.5 1.5 0 010-3h6z" fill="#fff"/><path fill-rule="evenodd" clip-rule="evenodd" d="M10.5 298h6a.5.5 0 000-1h-6a.5.5 0 000 1zm7.5-.5a1.5 1.5 0 00-1.5-1.5h-6a1.5 1.5 0 000 3h6a1.5 1.5 0 001.5-1.5z" fill="#427E66"/><path d="M11 327a2 2 0 01-2-2v-5a2 2 0 012-2h5a2 2 0 012 2v5a2 2 0 01-2 2h-5z" fill="#fff"/><path fill-rule="evenodd" clip-rule="evenodd" d="M10 320v5a1 1 0 001 1h5a1 1 0 001-1v-5a1 1 0 00-1-1h-5a1 1 0 00-1 1zm-1 5a2 2 0 002 2h5a2 2 0 002-2v-5a2 2 0 00-2-2h-5a2 2 0 00-2 2v5z" fill="#427E66"/><path d="M10.5 327a1.5 1.5 0 010-3h6a1.5 1.5 0 010 3h-6z" fill="#fff"/><path fill-rule="evenodd" clip-rule="evenodd" d="M16.5 325h-6a.5.5 0 000 1h6a.5.5 0 000-1zm-7.5.5a1.5 1.5 0 001.5 1.5h6a1.5 1.5 0 000-3h-6a1.5 1.5 0 00-1.5 1.5z" fill="#427E66"/><path d="M75.5 215.5h61v14H62v-41h106.5v11H75v16h.5z" fill="#fff" stroke="#427E66"/><path fill="#427E66" d="M223 242v-1h145v1z"/><path d="M163 321v-22l7-7h23.5l7 7v22l-7 7H170l-7-7z" fill="#fff"/><path fill-rule="evenodd" clip-rule="evenodd" d="M169.793 291.5h23.914l7.293 7.293v22.414l-7.293 7.293h-23.914l-7.293-7.293v-22.414l7.293-7.293zm.414 1l-6.707 6.707v21.586l6.707 6.707h23.086l6.707-6.707v-21.586l-6.707-6.707h-23.086zm21.793 8h-22v19h22v-19zm-23-1v21h24v-21h-24zm11 15v-9h-7v-2h16v2h-7v9h7v2h-16v-2h7z" fill="#427E66"/><path d="M163 393v-22l7-7h23.5l7 7v22l-7 7H170l-7-7z" fill="#fff"/><path fill-rule="evenodd" clip-rule="evenodd" d="M169.793 363.5h23.914l7.293 7.293v22.414l-7.293 7.293h-23.914l-7.293-7.293v-22.414l7.293-7.293zm.414 1l-6.707 6.707v21.586l6.707 6.707h23.086l6.707-6.707v-21.586l-6.707-6.707h-23.086zm21.793 8h-22v19h22v-19zm-23-1v21h24v-21h-24zm11 15v-9h-7v-2h16v2h-7v9h7v2h-16v-2h7z" fill="#427E66"/><path d="M564 289a8 8 0 018 8v3a8 8 0 01-8 8h-41a8 8 0 01-8-8v-3a8 8 0 018-8h41z" fill="#fff"/><path fill-rule="evenodd" clip-rule="evenodd" d="M571 300v-3a7 7 0 00-7-7h-41a7 7 0 00-7 7v3a7 7 0 007 7h41a7 7 0 007-7zm1-3a8 8 0 00-8-8h-41a8 8 0 00-8 8v3a8 8 0 008 8h41a8 8 0 008-8v-3zm-4 2v-1a5 5 0 00-5-5h-39a5 5 0 00-5 5v1a5 5 0 005 5h39a5 5 0 005-5zm1-1a6 6 0 00-6-6h-39a6 6 0 00-6 6v1a6 6 0 006 6h39a6 6 0 006-6v-1zm-4 3a1 1 0 01-1 1h-9v-3h10v2zm-10-3h10v-2a1 1 0 00-1-1h-9v3zm-1-3v3h-10v-3h10zm-11 0v3h-10v-3h10zm-11-1h32a2 2 0 012 2v5a2 2 0 01-2 2h-41a2 2 0 01-2-2v-5a2 2 0 012-2h9zm1 8h10v-3h-10v3zm-1-3v3h-9a1 1 0 01-1-1v-2h10zm0-1h-10v-2a1 1 0 011-1h9v3zm12 1v3h10v-3h-10z" fill="#427E66"/><path d="M473 289a8 8 0 018 8v3a8 8 0 01-8 8h-41a8 8 0 01-8-8v-3a8 8 0 018-8h41z" fill="#fff"/><path fill-rule="evenodd" clip-rule="evenodd" d="M480 300v-3a7 7 0 00-7-7h-41a7 7 0 00-7 7v3a7 7 0 007 7h41a7 7 0 007-7zm1-3a8 8 0 00-8-8h-41a8 8 0 00-8 8v3a8 8 0 008 8h41a8 8 0 008-8v-3zm-4 2v-1a5 5 0 00-5-5h-39a5 5 0 00-5 5v1a5 5 0 005 5h39a5 5 0 005-5zm1-1a6 6 0 00-6-6h-39a6 6 0 00-6 6v1a6 6 0 006 6h39a6 6 0 006-6v-1zm-4 3a1 1 0 01-1 1h-9v-3h10v2zm-10-3h10v-2a1 1 0 00-1-1h-9v3zm-1-3v3h-10v-3h10zm-11 0v3h-10v-3h10zm-11-1h32a2 2 0 012 2v5a2 2 0 01-2 2h-41a2 2 0 01-2-2v-5a2 2 0 012-2h9zm1 8h10v-3h-10v3zm-1-3v3h-9a1 1 0 01-1-1v-2h10zm0-1h-10v-2a1 1 0 011-1h9v3zm12 1v3h10v-3h-10z" fill="#427E66"/><path d="M95.188 212l-3-4.006h-1.074V212h-1.057v-8.727h1.057v3.784h.46l3.494-3.784h1.261l-3.528 3.835L96.45 212h-1.261zm4.416.153c-.414 0-.79-.078-1.129-.234a1.94 1.94 0 01-.805-.686c-.2-.301-.299-.665-.299-1.091 0-.375.074-.679.222-.912.148-.236.345-.42.592-.554.248-.133.52-.233.819-.298.3-.068.603-.122.907-.162.398-.051.72-.09.968-.115.25-.029.431-.075.545-.141.116-.065.175-.179.175-.341v-.034c0-.42-.115-.747-.345-.98-.228-.233-.573-.349-1.036-.349-.48 0-.856.105-1.13.315-.272.21-.464.435-.575.673l-.954-.341c.17-.397.398-.707.682-.929.287-.224.6-.38.937-.468a3.89 3.89 0 011.006-.137c.21 0 .452.026.724.077.276.048.542.149.797.303.259.153.473.385.644.694.17.31.255.725.255 1.245V212h-1.005v-.886h-.051a1.794 1.794 0 01-.341.456 1.973 1.973 0 01-.635.413c-.264.114-.587.17-.968.17zm.154-.903c.398 0 .733-.078 1.005-.234.276-.157.483-.358.623-.605.142-.248.213-.508.213-.78v-.921c-.043.051-.137.098-.282.141-.142.04-.306.075-.494.106a21.302 21.302 0 01-.963.128 3.89 3.89 0 00-.733.166 1.261 1.261 0 00-.545.337c-.137.148-.205.349-.205.605 0 .35.13.614.388.793.261.176.592.264.993.264zm7.341 2.983v-10.96h1.006v10.96h-1.006zm0-2.097c-.443 0-.847-.079-1.21-.238a2.718 2.718 0 01-.938-.686 3.162 3.162 0 01-.605-1.07 4.244 4.244 0 01-.213-1.381c0-.511.071-.974.213-1.389.142-.417.344-.775.605-1.074.262-.298.574-.527.938-.686a2.939 2.939 0 011.21-.243h.307v6.767h-.307zm0-.903h.171v-4.96h-.171c-.335 0-.626.068-.874.204a1.758 1.758 0 00-.613.55c-.159.23-.279.494-.358.793a3.75 3.75 0 00-.115.941c0 .438.069.844.209 1.219.139.375.353.678.643.908.29.23.659.345 1.108.345zm1.006.903h-.307v-6.767h.307c.443 0 .846.081 1.21.243.364.159.676.388.937.686.262.299.464.657.606 1.074.142.415.213.878.213 1.389 0 .506-.071.966-.213 1.381a3.148 3.148 0 01-.606 1.07 2.705 2.705 0 01-.937.686 2.99 2.99 0 01-1.21.238zm0-.903c.338 0 .629-.065.873-.196a1.73 1.73 0 00.61-.546c.162-.232.281-.497.358-.792.079-.298.119-.611.119-.938 0-.437-.07-.845-.209-1.223a2.07 2.07 0 00-.643-.916c-.29-.233-.659-.349-1.108-.349h-.171v4.96h.171zm7.247.903c-.63 0-1.174-.139-1.632-.417a2.808 2.808 0 01-1.052-1.176c-.245-.506-.367-1.094-.367-1.765 0-.67.122-1.261.367-1.772a2.888 2.888 0 011.031-1.202c.443-.29.96-.435 1.551-.435.341 0 .678.057 1.01.171.332.113.635.298.908.554.272.253.49.588.652 1.005.162.418.242.932.242 1.543v.426h-5.045v-.869h4.023c0-.369-.074-.699-.222-.989a1.67 1.67 0 00-.622-.686 1.746 1.746 0 00-.946-.251c-.401 0-.747.099-1.04.298a1.96 1.96 0 00-.669.767 2.254 2.254 0 00-.234 1.014v.58c0 .494.085.913.255 1.257.174.341.414.601.721.78.306.176.663.264 1.069.264.264 0 .503-.037.716-.111.216-.077.402-.19.558-.341a1.55 1.55 0 00.363-.571l.971.273a2.158 2.158 0 01-.515.869 2.52 2.52 0 01-.895.58 3.33 3.33 0 01-1.198.204zM391.188 279l-3-4.006h-1.074V279h-1.057v-8.727h1.057v3.784h.46l3.494-3.784h1.262l-3.529 3.835 3.648 4.892h-1.261zm4.416.153c-.414 0-.791-.078-1.129-.234a1.94 1.94 0 01-.805-.686c-.199-.301-.299-.665-.299-1.091 0-.375.074-.679.222-.912.148-.236.345-.42.592-.554.248-.133.52-.233.819-.298.301-.068.603-.122.907-.162.398-.051.72-.09.968-.115.25-.029.431-.075.545-.141.116-.065.175-.179.175-.341v-.034c0-.42-.115-.747-.345-.98-.228-.233-.573-.349-1.036-.349-.48 0-.856.105-1.129.315-.273.21-.465.435-.576.673l-.954-.341c.17-.397.398-.707.682-.929.287-.224.599-.38.937-.468a3.89 3.89 0 011.006-.137c.21 0 .452.026.724.077.276.048.542.149.797.303.259.153.473.385.644.694.17.31.255.725.255 1.245V279h-1.005v-.886h-.051a1.794 1.794 0 01-.341.456 1.973 1.973 0 01-.635.413c-.264.114-.587.17-.968.17zm.154-.903c.398 0 .733-.078 1.005-.234.276-.157.483-.358.623-.605.142-.248.213-.508.213-.78v-.921c-.043.051-.137.098-.282.141-.142.04-.306.075-.494.106a21.302 21.302 0 01-.963.128c-.261.034-.506.09-.733.166a1.261 1.261 0 00-.545.337c-.137.148-.205.349-.205.605 0 .35.129.614.388.793.261.176.592.264.993.264zm7.341.886c-.614 0-1.142-.145-1.585-.434a2.837 2.837 0 01-1.023-1.198c-.239-.508-.358-1.089-.358-1.743 0-.664.122-1.251.367-1.76.247-.511.591-.91 1.031-1.197.443-.29.96-.435 1.551-.435.46 0 .875.086 1.244.256.37.17.672.409.908.716s.382.665.439 1.074h-1.006a1.553 1.553 0 00-.511-.793c-.261-.233-.614-.349-1.057-.349-.392 0-.736.102-1.031.307a1.993 1.993 0 00-.686.856c-.162.367-.243.797-.243 1.291 0 .506.079.946.238 1.321.162.375.39.666.682.874.296.207.642.311 1.04.311.261 0 .499-.045.712-.136.213-.091.393-.222.541-.392.148-.171.253-.375.315-.614h1.006a2.34 2.34 0 01-.422 1.044 2.364 2.364 0 01-.882.733c-.364.179-.787.268-1.27.268zm6.703 0c-.613 0-1.142-.145-1.585-.434a2.837 2.837 0 01-1.023-1.198c-.238-.508-.358-1.089-.358-1.743 0-.664.122-1.251.367-1.76.247-.511.591-.91 1.031-1.197.443-.29.96-.435 1.551-.435.46 0 .875.086 1.244.256.37.17.672.409.908.716s.382.665.439 1.074h-1.006a1.553 1.553 0 00-.511-.793c-.261-.233-.614-.349-1.057-.349-.392 0-.736.102-1.031.307a1.993 1.993 0 00-.686.856c-.162.367-.243.797-.243 1.291 0 .506.08.946.239 1.321.162.375.389.666.681.874.296.207.642.311 1.04.311.262 0 .499-.045.712-.136.213-.091.393-.222.541-.392.148-.171.253-.375.315-.614h1.006a2.329 2.329 0 01-1.304 1.777c-.364.179-.787.268-1.27.268zm5.97.017c-.414 0-.791-.078-1.129-.234a1.94 1.94 0 01-.805-.686c-.199-.301-.299-.665-.299-1.091 0-.375.074-.679.222-.912.148-.236.345-.42.592-.554.247-.133.52-.233.819-.298.301-.068.603-.122.907-.162.398-.051.72-.09.968-.115.25-.029.431-.075.545-.141.116-.065.175-.179.175-.341v-.034c0-.42-.115-.747-.345-.98-.228-.233-.573-.349-1.036-.349-.48 0-.857.105-1.129.315-.273.21-.465.435-.576.673l-.954-.341c.17-.397.398-.707.682-.929.287-.224.599-.38.937-.468a3.89 3.89 0 011.006-.137c.21 0 .452.026.724.077.276.048.542.149.797.303.259.153.473.385.644.694.17.31.255.725.255 1.245V279h-1.005v-.886h-.051a1.794 1.794 0 01-.341.456 1.973 1.973 0 01-.635.413c-.265.114-.587.17-.968.17zm.154-.903c.398 0 .733-.078 1.005-.234.276-.157.483-.358.623-.605.142-.248.213-.508.213-.78v-.921c-.043.051-.137.098-.282.141-.142.04-.306.075-.494.106a21.302 21.302 0 01-.963.128c-.261.034-.506.09-.733.166a1.261 1.261 0 00-.545.337c-.137.148-.205.349-.205.605 0 .35.129.614.388.793.261.176.592.264.993.264zm168.262.75l-3-4.006h-1.074V279h-1.057v-8.727h1.057v3.784h.46l3.494-3.784h1.262l-3.529 3.835 3.648 4.892h-1.261zm4.416.153c-.414 0-.791-.078-1.129-.234a1.94 1.94 0 01-.805-.686c-.199-.301-.299-.665-.299-1.091 0-.375.074-.679.222-.912.148-.236.345-.42.592-.554.248-.133.52-.233.819-.298.301-.068.603-.122.907-.162.398-.051.72-.09.968-.115.25-.029.431-.075.545-.141.116-.065.175-.179.175-.341v-.034c0-.42-.115-.747-.345-.98-.228-.233-.573-.349-1.036-.349-.48 0-.856.105-1.129.315-.273.21-.465.435-.576.673l-.954-.341c.17-.397.398-.707.682-.929.287-.224.599-.38.937-.468a3.89 3.89 0 011.006-.137c.21 0 .452.026.724.077.276.048.542.149.797.303.259.153.473.385.644.694.17.31.255.725.255 1.245V279h-1.005v-.886h-.051a1.794 1.794 0 01-.341.456 1.973 1.973 0 01-.635.413c-.264.114-.587.17-.968.17zm.154-.903c.398 0 .733-.078 1.005-.234.276-.157.483-.358.623-.605.142-.248.213-.508.213-.78v-.921c-.043.051-.137.098-.282.141-.142.04-.306.075-.494.106a21.302 21.302 0 01-.963.128c-.261.034-.506.09-.733.166a1.261 1.261 0 00-.545.337c-.137.148-.205.349-.205.605 0 .35.129.614.388.793.261.176.592.264.993.264zm7.341.886c-.614 0-1.142-.145-1.585-.434a2.837 2.837 0 01-1.023-1.198c-.239-.508-.358-1.089-.358-1.743 0-.664.122-1.251.367-1.76.247-.511.591-.91 1.031-1.197.443-.29.96-.435 1.551-.435.46 0 .875.086 1.244.256.37.17.672.409.908.716s.382.665.439 1.074h-1.006a1.553 1.553 0 00-.511-.793c-.261-.233-.614-.349-1.057-.349-.392 0-.736.102-1.031.307a1.993 1.993 0 00-.686.856c-.162.367-.243.797-.243 1.291 0 .506.079.946.238 1.321.162.375.39.666.682.874.296.207.642.311 1.04.311.261 0 .499-.045.712-.136.213-.091.393-.222.541-.392.148-.171.253-.375.315-.614h1.006a2.34 2.34 0 01-.422 1.044 2.364 2.364 0 01-.882.733c-.364.179-.787.268-1.27.268zm6.703 0c-.613 0-1.142-.145-1.585-.434a2.837 2.837 0 01-1.023-1.198c-.238-.508-.358-1.089-.358-1.743 0-.664.122-1.251.367-1.76.247-.511.591-.91 1.031-1.197.443-.29.96-.435 1.551-.435.46 0 .875.086 1.244.256.37.17.672.409.908.716s.382.665.439 1.074h-1.006a1.553 1.553 0 00-.511-.793c-.261-.233-.614-.349-1.057-.349-.392 0-.736.102-1.031.307a1.993 1.993 0 00-.686.856c-.162.367-.243.797-.243 1.291 0 .506.08.946.239 1.321.162.375.389.666.681.874.296.207.642.311 1.04.311.262 0 .499-.045.712-.136.213-.091.393-.222.541-.392.148-.171.253-.375.315-.614h1.006a2.329 2.329 0 01-1.304 1.777c-.364.179-.787.268-1.27.268zm5.97.017c-.414 0-.791-.078-1.129-.234a1.94 1.94 0 01-.805-.686c-.199-.301-.299-.665-.299-1.091 0-.375.074-.679.222-.912.148-.236.345-.42.592-.554.247-.133.52-.233.819-.298.301-.068.603-.122.907-.162.398-.051.72-.09.968-.115.25-.029.431-.075.545-.141.116-.065.175-.179.175-.341v-.034c0-.42-.115-.747-.345-.98-.228-.233-.573-.349-1.036-.349-.48 0-.857.105-1.129.315-.273.21-.465.435-.576.673l-.954-.341c.17-.397.398-.707.682-.929.287-.224.599-.38.937-.468a3.89 3.89 0 011.006-.137c.21 0 .452.026.724.077.276.048.542.149.797.303.259.153.473.385.644.694.17.31.255.725.255 1.245V279h-1.005v-.886h-.051a1.794 1.794 0 01-.341.456 1.973 1.973 0 01-.635.413c-.265.114-.587.17-.968.17zm.154-.903c.398 0 .733-.078 1.005-.234.276-.157.483-.358.623-.605.142-.248.213-.508.213-.78v-.921c-.043.051-.137.098-.282.141-.142.04-.306.075-.494.106a21.302 21.302 0 01-.963.128c-.261.034-.506.09-.733.166a1.261 1.261 0 00-.545.337c-.137.148-.205.349-.205.605 0 .35.129.614.388.793.261.176.592.264.993.264zM633 243h26v1h-26z" fill="#427E66"/><path d="M675 239h12v12h-12v-12z" fill="#fff"/><path fill-rule="evenodd" clip-rule="evenodd" d="M676 240h10v10h-10v-10zm-1 11v-12h12v12h-12zm5-4v-4h-3v-2h8v2h-3v4h3v2h-8v-2h3z" fill="#427E66"/><path d="M966 245v18h-15v-18h15z" fill="#fff"/><path fill-rule="evenodd" clip-rule="evenodd" d="M965 262v-16h-13v16h13zm1-17h-15v18h15v-18zm-6 8v2h-6v-2h6zm3 2v-2h-2v2h2z" fill="#427E66"/></svg>