<svg xmlns="http://www.w3.org/2000/svg" width="972" height="444" viewBox="0 0 972 444" fill="none"><path d="M818 256v5h-95v38h-28v-40h-10.5v-24h1.5v-4h6V6H382v94h-10v23h-6v26.5h6V174h10v56h63v29H188v51h-37V182H6v43H4v27.5h2v87H4V369h2v25h2l44 44h35v2h31v-2h19v-25h14v-28h37v53h22v2h31v-2h95v2h29v-2h95v2h29.5v-2H561v2h29v-2h72v2h30.5v-2h2.5v-53h29v53h12v2h30v-2h72v2h29v-2h99V261H851v-5h-33z" fill="#E3ECE8"/><path d="M142 385h9v-9h36v-57h-36V182H6v43H4v27.5h2v87H4V369h2v24l46 45h35v2h31v-2h19v-25h5v-28z" id="zone_a" class="zone"/><path d="M188 385h-1v-75h1v-51h109.5v17c2.167.167 7.9-.4 13.5-4s7-10.167 7-13h127v-22h45v22h56v-22h45v22h56v-22h34v22h14v179h-2.5v2H662v-2h-72v2h-29v-2h-71.5v2H460v-2h-95v2h-29v-2h-95v2h-31v-2h-22v-53z" id="zone_b" class="zone"/><path d="M681 235v2h-34v-8h-56v8h-45v-8h-56v8h-45v-7h-63v-55.5h-10.5V100H382V6h310v224h-6v5h-5z" id="zone_d" class="zone"/><path d="M675.5 106.322l10-4.545v32.946l-10-4.545v-23.856z" fill="#fff" stroke="#427E66"/><path d="M507.268 122v-8.727h3.051c.608 0 1.109.105 1.504.315.395.207.689.487.882.84.193.349.29.737.29 1.163 0 .375-.067.685-.2.929a1.56 1.56 0 01-.52.579 2.365 2.365 0 01-.695.316v.085c.267.017.536.111.806.281.27.171.495.415.677.733.182.318.273.708.273 1.168 0 .437-.099.831-.298 1.18-.199.35-.513.627-.942.831-.429.205-.987.307-1.675.307h-3.153zm1.057-.938h2.096c.691 0 1.181-.133 1.47-.4.293-.27.439-.597.439-.98a1.55 1.55 0 00-.226-.818 1.627 1.627 0 00-.643-.605c-.278-.154-.608-.231-.989-.231h-2.147v3.034zm0-3.954h1.96c.318 0 .605-.063.861-.188.258-.125.463-.301.613-.528.154-.227.23-.494.23-.801 0-.384-.133-.709-.4-.976-.267-.27-.691-.405-1.27-.405h-1.994v2.898zm7.48.716h1.875c.767 0 1.354.194 1.76.584.407.389.61.882.61 1.478 0 .392-.091.749-.273 1.07a1.988 1.988 0 01-.801.763c-.352.187-.784.281-1.296.281h-2.744v-6.545h1.006v5.607h1.738c.398 0 .725-.105.981-.315.255-.21.383-.48.383-.809 0-.347-.128-.63-.383-.849-.256-.218-.583-.328-.981-.328h-1.875v-.937zm5.284 4.176v-6.545h1.006V122h-1.006zm2.148 1.875v-2.813h.546c.133-.139.248-.289.345-.451.096-.162.18-.354.251-.575.074-.225.137-.498.188-.819.051-.324.096-.714.136-1.172l.222-2.59h4.159v5.607h1.005v2.813h-1.005V122h-4.841v1.875h-1.006zm1.688-2.813h3.153v-4.67h-2.216l-.17 1.653a18.509 18.509 0 01-.264 1.794c-.106.512-.273.92-.503 1.223zm8.425 1.091c-.414 0-.791-.078-1.129-.234a1.94 1.94 0 01-.805-.686c-.199-.301-.298-.665-.298-1.091 0-.375.073-.679.221-.912.148-.236.345-.42.592-.554.248-.133.52-.233.819-.298.301-.068.603-.122.907-.162.398-.051.72-.09.968-.115.25-.029.431-.075.545-.141.117-.065.175-.179.175-.341v-.034c0-.42-.115-.747-.345-.98-.228-.233-.573-.349-1.036-.349-.48 0-.856.105-1.129.315-.273.21-.465.435-.575.673l-.955-.341c.17-.397.398-.707.682-.929.287-.224.599-.38.937-.468a3.89 3.89 0 011.006-.137c.21 0 .452.026.724.077.276.048.542.149.797.303.259.153.473.385.644.694.17.31.255.725.255 1.245V122h-1.005v-.886h-.051a1.794 1.794 0 01-.341.456 1.973 1.973 0 01-.635.413c-.264.114-.587.17-.968.17zm.154-.903c.398 0 .733-.078 1.006-.234.275-.157.483-.358.622-.605.142-.248.213-.508.213-.78v-.921c-.043.051-.137.098-.281.141-.142.04-.307.075-.495.106a20.68 20.68 0 01-.963.128c-.261.034-.506.09-.733.166a1.261 1.261 0 00-.545.337c-.137.148-.205.349-.205.605 0 .35.129.614.388.793.261.176.592.264.993.264zm9.728-5.795V122h-1.006v-6.545h1.006zm-.393 3.119v.937a8.954 8.954 0 01-.677.226c-.224.063-.46.112-.707.149a6.002 6.002 0 01-.814.052c-.742 0-1.337-.201-1.786-.601-.446-.401-.669-1.002-.669-1.803v-2.096h1.006v2.096c0 .335.064.611.192.827.127.216.301.376.519.481.219.105.465.158.738.158.426 0 .811-.038 1.154-.115.347-.08.695-.183 1.044-.311zm4.164 3.579c-.415 0-.791-.078-1.129-.234a1.942 1.942 0 01-.806-.686c-.199-.301-.298-.665-.298-1.091 0-.375.074-.679.221-.912.148-.236.346-.42.593-.554a3.12 3.12 0 01.818-.298 10.1 10.1 0 01.908-.162c.397-.051.72-.09.967-.115.25-.029.432-.075.545-.141.117-.065.175-.179.175-.341v-.034c0-.42-.115-.747-.345-.98-.227-.233-.572-.349-1.036-.349-.48 0-.856.105-1.129.315-.273.21-.464.435-.575.673l-.955-.341c.171-.397.398-.707.682-.929.287-.224.6-.38.938-.468a3.888 3.888 0 011.005-.137c.211 0 .452.026.725.077.275.048.541.149.797.303.258.153.473.385.643.694.171.31.256.725.256 1.245V122h-1.006v-.886h-.051a1.77 1.77 0 01-.341.456 1.973 1.973 0 01-.635.413c-.264.114-.586.17-.967.17zm.153-.903c.398 0 .733-.078 1.006-.234a1.597 1.597 0 00.835-1.385v-.921c-.042.051-.136.098-.281.141a4.65 4.65 0 01-.494.106 20.745 20.745 0 01-.963.128c-.262.034-.506.09-.733.166a1.259 1.259 0 00-.546.337c-.136.148-.204.349-.204.605 0 .35.129.614.387.793.262.176.593.264.993.264zm9.063-.733l3.154-5.062h1.159V122h-1.006v-5.062L556.39 122h-1.177v-6.545h1.006v5.062zm10.535-2.25v.938h-3.613v-.938h3.613zm-3.375-2.812V122h-1.005v-6.545h1.005zm4.142 0V122h-1.005v-6.545h1.005zm.946.937v-.937h5.319v.937h-2.148V122h-1.006v-5.608h-2.165zm9.19 5.744c-.631 0-1.175-.139-1.632-.417a2.803 2.803 0 01-1.053-1.176c-.244-.506-.366-1.094-.366-1.765 0-.67.122-1.261.366-1.772a2.883 2.883 0 011.032-1.202c.443-.29.96-.435 1.551-.435.341 0 .677.057 1.01.171.332.113.635.298.907.554.273.253.49.588.652 1.005.162.418.243.932.243 1.543v.426h-5.045v-.869h4.022c0-.369-.073-.699-.221-.989a1.67 1.67 0 00-.622-.686 1.749 1.749 0 00-.946-.251c-.401 0-.747.099-1.04.298a1.96 1.96 0 00-.669.767 2.254 2.254 0 00-.234 1.014v.58c0 .494.085.913.255 1.257.173.341.414.601.72.78.307.176.664.264 1.07.264.264 0 .503-.037.716-.111.216-.077.402-.19.558-.341.156-.153.277-.344.362-.571l.972.273a2.149 2.149 0 01-.516.869 2.502 2.502 0 01-.895.58 3.325 3.325 0 01-1.197.204zm4.24 2.319v-9h.972v1.039h.119a9.15 9.15 0 01.307-.434c.133-.179.324-.338.571-.478.25-.142.588-.213 1.014-.213.551 0 1.037.138 1.457.414.421.275.749.666.985 1.172.236.505.353 1.102.353 1.789 0 .694-.117 1.294-.353 1.803-.236.506-.563.898-.98 1.176-.418.276-.9.413-1.445.413-.42 0-.757-.069-1.01-.208a1.878 1.878 0 01-.584-.482 6.475 6.475 0 01-.315-.452h-.085v3.461h-1.006zm.989-5.728c0 .495.072.931.217 1.309.145.375.357.669.635.882.278.21.619.315 1.023.315.42 0 .771-.111 1.052-.332.284-.225.497-.526.639-.904.145-.381.218-.804.218-1.27 0-.46-.071-.875-.213-1.244a1.93 1.93 0 00-.635-.882c-.282-.219-.635-.328-1.061-.328-.409 0-.753.103-1.032.311a1.862 1.862 0 00-.63.861c-.142.366-.213.794-.213 1.282zm10.704-.46v.938h-3.613v-.938h3.613zm-3.375-2.812V122h-1.005v-6.545h1.005zm4.142 0V122h-1.005v-6.545h1.005zm4.581 6.681c-.63 0-1.175-.139-1.632-.417a2.808 2.808 0 01-1.052-1.176c-.245-.506-.367-1.094-.367-1.765 0-.67.122-1.261.367-1.772.247-.515.59-.915 1.031-1.202.443-.29.96-.435 1.551-.435.341 0 .677.057 1.01.171.332.113.635.298.908.554.272.253.49.588.652 1.005.161.418.242.932.242 1.543v.426h-5.045v-.869h4.023c0-.369-.074-.699-.222-.989a1.67 1.67 0 00-.622-.686 1.746 1.746 0 00-.946-.251c-.401 0-.747.099-1.04.298a1.96 1.96 0 00-.669.767 2.254 2.254 0 00-.234 1.014v.58c0 .494.085.913.255 1.257.174.341.414.601.721.78.306.176.663.264 1.069.264.264 0 .503-.037.716-.111.216-.077.402-.19.558-.341a1.55 1.55 0 00.363-.571l.971.273a2.158 2.158 0 01-.515.869 2.52 2.52 0 01-.895.58 3.33 3.33 0 01-1.198.204zm3.631-5.744v-.937h5.318v.937h-2.148V122h-1.005v-5.608h-2.165zm10.195 1.398v.937h-3.818v-.937h3.818zm1.361 2.54h1.074a.826.826 0 00.4.673c.247.153.568.23.963.23.404 0 .749-.082 1.036-.247.287-.168.43-.438.43-.81 0-.219-.054-.409-.162-.571a1.057 1.057 0 00-.456-.383 1.634 1.634 0 00-.694-.137h-1.125v-.903h1.125c.4 0 .696-.091.886-.273a.899.899 0 00.29-.682.878.878 0 00-.311-.703c-.208-.179-.502-.268-.882-.268-.384 0-.704.086-.959.26-.256.17-.391.39-.405.66h-1.057c.011-.352.119-.663.324-.933.204-.273.483-.486.835-.639a2.945 2.945 0 011.21-.235c.461 0 .86.081 1.198.243.341.159.604.377.788.652.188.273.281.583.281.929 0 .369-.103.668-.311.895a1.725 1.725 0 01-.779.486v.068c.247.017.461.097.643.239.185.139.328.322.43.549.103.225.154.473.154.746 0 .398-.107.744-.32 1.04-.213.293-.506.52-.878.682a3.216 3.216 0 01-1.274.238c-.463 0-.878-.075-1.244-.225a2.171 2.171 0 01-.874-.635 1.576 1.576 0 01-.336-.946zm8.265 1.823c-.415 0-.792-.078-1.13-.234a1.94 1.94 0 01-.805-.686c-.199-.301-.298-.665-.298-1.091 0-.375.073-.679.221-.912.148-.236.345-.42.593-.554.247-.133.519-.233.818-.298.301-.068.603-.122.907-.162.398-.051.721-.09.968-.115.25-.029.432-.075.545-.141.117-.065.175-.179.175-.341v-.034c0-.42-.115-.747-.345-.98-.228-.233-.573-.349-1.036-.349-.48 0-.856.105-1.129.315-.273.21-.465.435-.575.673l-.955-.341c.171-.397.398-.707.682-.929.287-.224.599-.38.937-.468a3.896 3.896 0 011.006-.137c.21 0 .452.026.725.077.275.048.541.149.796.303.259.153.473.385.644.694.17.31.256.725.256 1.245V122h-1.006v-.886h-.051a1.77 1.77 0 01-.341.456 1.973 1.973 0 01-.635.413c-.264.114-.587.17-.967.17zm.153-.903c.398 0 .733-.078 1.006-.234.275-.157.483-.358.622-.605.142-.248.213-.508.213-.78v-.921c-.043.051-.136.098-.281.141-.142.04-.307.075-.495.106a20.68 20.68 0 01-.963.128 3.91 3.91 0 00-.733.166 1.261 1.261 0 00-.545.337c-.137.148-.205.349-.205.605 0 .35.13.614.388.793.261.176.592.264.993.264zm4.682.75v-6.545h1.006v2.846h.665l2.352-2.846h1.295l-2.642 3.153 2.676 3.392h-1.295l-2.148-2.761h-.903V122h-1.006zm8.372.153c-.415 0-.792-.078-1.13-.234a1.94 1.94 0 01-.805-.686c-.199-.301-.298-.665-.298-1.091 0-.375.074-.679.221-.912.148-.236.345-.42.593-.554.247-.133.519-.233.818-.298.301-.068.603-.122.907-.162.398-.051.721-.09.968-.115.25-.029.432-.075.545-.141.117-.065.175-.179.175-.341v-.034c0-.42-.115-.747-.345-.98-.228-.233-.573-.349-1.036-.349-.48 0-.856.105-1.129.315-.273.21-.465.435-.575.673l-.955-.341c.171-.397.398-.707.682-.929.287-.224.599-.38.937-.468a3.896 3.896 0 011.006-.137c.21 0 .452.026.725.077.275.048.541.149.796.303.259.153.473.385.644.694.17.31.256.725.256 1.245V122h-1.006v-.886h-.051a1.77 1.77 0 01-.341.456 1.973 1.973 0 01-.635.413c-.264.114-.587.17-.967.17zm.153-.903c.398 0 .733-.078 1.006-.234.275-.157.483-.358.622-.605.142-.248.213-.508.213-.78v-.921c-.043.051-.136.098-.281.141-.142.04-.307.075-.495.106a20.68 20.68 0 01-.963.128 3.91 3.91 0 00-.733.166 1.261 1.261 0 00-.545.337c-.136.148-.205.349-.205.605 0 .35.13.614.388.793.261.176.592.264.993.264zm4.273-.92h1.074a.827.827 0 00.401.673c.247.153.568.23.963.23.403 0 .748-.082 1.035-.247.287-.168.43-.438.43-.81a1.004 1.004 0 00-.617-.954 1.638 1.638 0 00-.695-.137h-1.125v-.903h1.125c.401 0 .696-.091.886-.273a.895.895 0 00.29-.682.878.878 0 00-.311-.703c-.207-.179-.501-.268-.882-.268-.384 0-.703.086-.959.26-.256.17-.39.39-.405.66h-1.057a1.6 1.6 0 01.324-.933c.205-.273.483-.486.836-.639a2.942 2.942 0 011.21-.235c.46 0 .859.081 1.197.243.341.159.604.377.789.652.187.273.281.583.281.929 0 .369-.104.668-.311.895a1.733 1.733 0 01-.78.486v.068c.247.017.462.097.643.239.185.139.329.322.431.549.102.225.153.473.153.746 0 .398-.106.744-.319 1.04-.213.293-.506.52-.878.682a3.216 3.216 0 01-1.274.238c-.463 0-.878-.075-1.245-.225a2.174 2.174 0 01-.873-.635 1.577 1.577 0 01-.337-.946zm8.998 1.806c-.591 0-1.109-.14-1.555-.422a2.856 2.856 0 01-1.04-1.18c-.247-.506-.371-1.097-.371-1.773 0-.681.124-1.277.371-1.785.25-.509.596-.904 1.04-1.185.446-.281.964-.422 1.555-.422s1.108.141 1.551.422c.446.281.793.676 1.04 1.185.25.508.375 1.104.375 1.785 0 .676-.125 1.267-.375 1.773a2.822 2.822 0 01-1.04 1.18c-.443.282-.96.422-1.551.422zm0-.903c.449 0 .818-.115 1.108-.345.29-.23.504-.533.643-.908.14-.375.209-.781.209-1.219 0-.437-.069-.845-.209-1.223a2.061 2.061 0 00-.643-.916c-.29-.233-.659-.349-1.108-.349-.449 0-.818.116-1.108.349-.29.233-.504.539-.643.916-.14.378-.209.786-.209 1.223 0 .438.069.844.209 1.219.139.375.353.678.643.908.29.23.659.345 1.108.345zm4.501.767v-6.545h2.676c.705 0 1.264.159 1.679.477.415.318.622.738.622 1.261 0 .398-.118.706-.353.925-.236.216-.539.362-.908.439.241.034.476.119.703.255.23.137.421.324.571.563.151.236.226.526.226.869 0 .336-.085.635-.256.899a1.75 1.75 0 01-.733.627c-.318.153-.699.23-1.142.23h-3.085zm.955-.92h2.13c.347 0 .618-.083.814-.248.196-.164.294-.389.294-.673 0-.338-.098-.604-.294-.797-.196-.196-.467-.294-.814-.294h-2.13v2.012zm0-2.881h1.721c.27 0 .502-.037.695-.111a.985.985 0 00.443-.324.822.822 0 00.158-.503.74.74 0 00-.346-.647c-.23-.159-.546-.239-.95-.239h-1.721v1.824zM665.792 122l-.657-.648 2.702-2.701h-6.997v-.938h6.997l-2.702-2.693.657-.656 3.818 3.818-3.818 3.818z" fill="#427E66"/><path d="M724 385h-29v-87h28v-37h95v-5h33v5h115v177h-99v2h-29v-2h-72v2h-30v-2h-12v-53z" id="zone_c" class="zone"/><path d="M766 441h72m-145.5 0H736m-146 0h72m-172.5 0H561m-320 0h95m-218 0h92m155 0h95M3 339.5v-87m366-129V4" stroke="#427E66" stroke-width="6"/><path d="M966 441H51L3 393V211.5" stroke="#427E66" stroke-width="2"/><path d="M851 253v-79H698v59.126h7.433v10.931h24.778V253H851z" fill="#fff"/><path stroke="#427E66" d="M710.5 181.5h100v23h-100z"/><mask id="path-20-outside-1_10809_2501" maskUnits="userSpaceOnUse" x="712" y="181" width="56" height="3" fill="#000"><path fill="#fff" d="M712 181h56v3h-56z"/><path d="M713 182h54v1h-54v-1z"/></mask><path d="M713 182h54v1h-54v-1z" fill="#fff"/><path d="M713 182v-1h-1v1h1zm54 0h1v-1h-1v1zm0 1v1h1v-1h-1zm-54 0h-1v1h1v-1zm0 0h54v-2h-54v2zm53-1v1h2v-1h-2zm1 0h-54v2h54v-2zm-53 1v-1h-2v1h2z" fill="#427E66" mask="url(#path-20-outside-1_10809_2501)"/><path fill="#427E66" d="M720 184h1v20h-1zm10 0h1v20h-1zm10 0h1v20h-1zm10 0h1v20h-1zm10 0h1v20h-1zm10-2h1v22h-1zm10 0h1v22h-1zm10 0h1v22h-1zm10 0h1v22h-1z"/><path stroke="#427E66" d="M808.5 241.5h-100v-23h100z"/><mask id="path-32-outside-2_10809_2501" maskUnits="userSpaceOnUse" x="751" y="239" width="56" height="3" fill="#000"><path fill="#fff" d="M751 239h56v3h-56z"/><path d="M806 241h-54v-1h54v1z"/></mask><path d="M806 241h-54v-1h54v1z" fill="#fff"/><path d="M806 241v1h1v-1h-1zm-54 0h-1v1h1v-1zm0-1v-1h-1v1h1zm54 0h1v-1h-1v1zm0 0h-54v2h54v-2zm-53 1v-1h-2v1h2zm-1 0h54v-2h-54v2zm53-1v1h2v-1h-2z" fill="#427E66" mask="url(#path-32-outside-2_10809_2501)"/><path fill="#427E66" d="M799 239h-1v-20h1zm-10 0h-1v-20h1zm-10 0h-1v-20h1zm-10 0h-1v-20h1zm-10 0h-1v-20h1zm-10 2h-1v-22h1zm-10 0h-1v-22h1zm-10 0h-1v-22h1zm-10 0h-1v-22h1z"/><mask id="path-43-outside-3_10809_2501" maskUnits="userSpaceOnUse" x="702" y="203" width="116" height="16" fill="#000"><path fill="#fff" d="M702 203h116v16H702z"/><path fill-rule="evenodd" clip-rule="evenodd" d="M708 204a5 5 0 00-5 5v4a5 5 0 005 5h104a5 5 0 005-5v-4a5 5 0 00-5-5H708zm0 1a4 4 0 00-4 4v4a4 4 0 004 4h104a4 4 0 004-4v-4a4 4 0 00-4-4H708z"/></mask><path fill-rule="evenodd" clip-rule="evenodd" d="M708 204a5 5 0 00-5 5v4a5 5 0 005 5h104a5 5 0 005-5v-4a5 5 0 00-5-5H708zm0 1a4 4 0 00-4 4v4a4 4 0 004 4h104a4 4 0 004-4v-4a4 4 0 00-4-4H708z" fill="#fff"/><path d="M704 209a4 4 0 014-4v-2a6 6 0 00-6 6h2zm0 4v-4h-2v4h2zm4 4a4 4 0 01-4-4h-2a6 6 0 006 6v-2zm104 0H708v2h104v-2zm4-4a4 4 0 01-4 4v2a6 6 0 006-6h-2zm0-4v4h2v-4h-2zm-4-4a4 4 0 014 4h2a6 6 0 00-6-6v2zm-104 0h104v-2H708v2zm-3 4a3 3 0 013-3v-2a5 5 0 00-5 5h2zm0 4v-4h-2v4h2zm3 3a3 3 0 01-3-3h-2a5 5 0 005 5v-2zm104 0H708v2h104v-2zm3-3a3 3 0 01-3 3v2a5 5 0 005-5h-2zm0-4v4h2v-4h-2zm-3-3a3 3 0 013 3h2a5 5 0 00-5-5v2zm-104 0h104v-2H708v2z" fill="#427E66" mask="url(#path-43-outside-3_10809_2501)"/><path fill="#427E66" d="M817 256v-1h36v1z"/><path fill-rule="evenodd" clip-rule="evenodd" d="M681 235h23v24h-23v-24zM170 439h18v-54h-37v28h-14v26h33zm-19-183h37v54h-37v-54zm573 129h-29v54h29v-54z" fill="#427E66"/><path fill="#427E66" d="M695 246h29v52h-29z"/><path d="M463.5 154a5.5 5.5 0 110-11 5.5 5.5 0 110 11z" fill="#fff"/><path fill-rule="evenodd" clip-rule="evenodd" d="M459 148.5a4.5 4.5 0 109 0 4.5 4.5 0 00-9 0zm-1 0a5.5 5.5 0 1011 0 5.5 5.5 0 10-11 0z" fill="#427E66"/><path d="M466 133a2 2 0 012 2v5a2 2 0 01-2 2h-5a2 2 0 01-2-2v-5a2 2 0 012-2h5z" fill="#fff"/><path fill-rule="evenodd" clip-rule="evenodd" d="M467 140v-5a1 1 0 00-1-1h-5a1 1 0 00-1 1v5a1 1 0 001 1h5a1 1 0 001-1zm1-5a2 2 0 00-2-2h-5a2 2 0 00-2 2v5a2 2 0 002 2h5a2 2 0 002-2v-5z" fill="#427E66"/><path d="M466.5 133a1.5 1.5 0 010 3h-6a1.5 1.5 0 010-3h6z" fill="#fff"/><path fill-rule="evenodd" clip-rule="evenodd" d="M460.5 135h6a.5.5 0 000-1h-6a.5.5 0 000 1zm7.5-.5a1.5 1.5 0 00-1.5-1.5h-6a1.5 1.5 0 000 3h6a1.5 1.5 0 001.5-1.5z" fill="#427E66"/><path d="M461 164a2 2 0 01-2-2v-5a2 2 0 012-2h5a2 2 0 012 2v5a2 2 0 01-2 2h-5z" fill="#fff"/><path fill-rule="evenodd" clip-rule="evenodd" d="M460 157v5a1 1 0 001 1h5a1 1 0 001-1v-5a1 1 0 00-1-1h-5a1 1 0 00-1 1zm-1 5a2 2 0 002 2h5a2 2 0 002-2v-5a2 2 0 00-2-2h-5a2 2 0 00-2 2v5z" fill="#427E66"/><path d="M460.5 164a1.5 1.5 0 010-3h6a1.5 1.5 0 010 3h-6z" fill="#fff"/><path fill-rule="evenodd" clip-rule="evenodd" d="M466.5 162h-6a.5.5 0 000 1h6a.5.5 0 000-1zm-7.5.5a1.5 1.5 0 001.5 1.5h6a1.5 1.5 0 000-3h-6a1.5 1.5 0 00-1.5 1.5z" fill="#427E66"/><path d="M567.5 154a5.5 5.5 0 110-11 5.5 5.5 0 110 11z" fill="#fff"/><path fill-rule="evenodd" clip-rule="evenodd" d="M563 148.5a4.5 4.5 0 109 0 4.5 4.5 0 00-9 0zm-1 0a5.5 5.5 0 1011 0 5.5 5.5 0 10-11 0z" fill="#427E66"/><path d="M570 133a2 2 0 012 2v5a2 2 0 01-2 2h-5a2 2 0 01-2-2v-5a2 2 0 012-2h5z" fill="#fff"/><path fill-rule="evenodd" clip-rule="evenodd" d="M571 140v-5a1 1 0 00-1-1h-5a1 1 0 00-1 1v5a1 1 0 001 1h5a1 1 0 001-1zm1-5a2 2 0 00-2-2h-5a2 2 0 00-2 2v5a2 2 0 002 2h5a2 2 0 002-2v-5z" fill="#427E66"/><path d="M570.5 133a1.5 1.5 0 010 3h-6a1.5 1.5 0 010-3h6z" fill="#fff"/><path fill-rule="evenodd" clip-rule="evenodd" d="M564.5 135h6a.5.5 0 000-1h-6a.5.5 0 000 1zm7.5-.5a1.5 1.5 0 00-1.5-1.5h-6a1.5 1.5 0 000 3h6a1.5 1.5 0 001.5-1.5z" fill="#427E66"/><path d="M565 164a2 2 0 01-2-2v-5a2 2 0 012-2h5a2 2 0 012 2v5a2 2 0 01-2 2h-5z" fill="#fff"/><path fill-rule="evenodd" clip-rule="evenodd" d="M564 157v5a1 1 0 001 1h5a1 1 0 001-1v-5a1 1 0 00-1-1h-5a1 1 0 00-1 1zm-1 5a2 2 0 002 2h5a2 2 0 002-2v-5a2 2 0 00-2-2h-5a2 2 0 00-2 2v5z" fill="#427E66"/><path d="M564.5 164a1.5 1.5 0 010-3h6a1.5 1.5 0 010 3h-6z" fill="#fff"/><path fill-rule="evenodd" clip-rule="evenodd" d="M570.5 162h-6a.5.5 0 000 1h6a.5.5 0 000-1zm-7.5.5a1.5 1.5 0 001.5 1.5h6a1.5 1.5 0 000-3h-6a1.5 1.5 0 00-1.5 1.5z" fill="#427E66"/><path d="M463.5 86a5.5 5.5 0 110-11 5.5 5.5 0 010 11z" fill="#fff"/><path fill-rule="evenodd" clip-rule="evenodd" d="M459 80.5a4.5 4.5 0 109 0 4.5 4.5 0 00-9 0zm-1 0a5.5 5.5 0 1011 0 5.5 5.5 0 00-11 0z" fill="#427E66"/><path d="M466 65a2 2 0 012 2v5a2 2 0 01-2 2h-5a2 2 0 01-2-2v-5a2 2 0 012-2h5z" fill="#fff"/><path fill-rule="evenodd" clip-rule="evenodd" d="M467 72v-5a1 1 0 00-1-1h-5a1 1 0 00-1 1v5a1 1 0 001 1h5a1 1 0 001-1zm1-5a2 2 0 00-2-2h-5a2 2 0 00-2 2v5a2 2 0 002 2h5a2 2 0 002-2v-5z" fill="#427E66"/><path d="M466.5 65a1.5 1.5 0 010 3h-6a1.5 1.5 0 010-3h6z" fill="#fff"/><path fill-rule="evenodd" clip-rule="evenodd" d="M460.5 67h6a.5.5 0 000-1h-6a.5.5 0 000 1zm7.5-.5a1.5 1.5 0 00-1.5-1.5h-6a1.5 1.5 0 000 3h6a1.5 1.5 0 001.5-1.5z" fill="#427E66"/><path d="M461 96a2 2 0 01-2-2v-5a2 2 0 012-2h5a2 2 0 012 2v5a2 2 0 01-2 2h-5z" fill="#fff"/><path fill-rule="evenodd" clip-rule="evenodd" d="M460 89v5a1 1 0 001 1h5a1 1 0 001-1v-5a1 1 0 00-1-1h-5a1 1 0 00-1 1zm-1 5a2 2 0 002 2h5a2 2 0 002-2v-5a2 2 0 00-2-2h-5a2 2 0 00-2 2v5z" fill="#427E66"/><path d="M460.5 96a1.5 1.5 0 010-3h6a1.5 1.5 0 010 3h-6z" fill="#fff"/><path fill-rule="evenodd" clip-rule="evenodd" d="M466.5 94h-6a.5.5 0 000 1h6a.5.5 0 000-1zm-7.5.5a1.5 1.5 0 001.5 1.5h6a1.5 1.5 0 000-3h-6a1.5 1.5 0 00-1.5 1.5z" fill="#427E66"/><path d="M567.5 86a5.5 5.5 0 110-11 5.5 5.5 0 010 11z" fill="#fff"/><path fill-rule="evenodd" clip-rule="evenodd" d="M563 80.5a4.5 4.5 0 109 0 4.5 4.5 0 00-9 0zm-1 0a5.5 5.5 0 1011 0 5.5 5.5 0 00-11 0z" fill="#427E66"/><path d="M570 65a2 2 0 012 2v5a2 2 0 01-2 2h-5a2 2 0 01-2-2v-5a2 2 0 012-2h5z" fill="#fff"/><path fill-rule="evenodd" clip-rule="evenodd" d="M571 72v-5a1 1 0 00-1-1h-5a1 1 0 00-1 1v5a1 1 0 001 1h5a1 1 0 001-1zm1-5a2 2 0 00-2-2h-5a2 2 0 00-2 2v5a2 2 0 002 2h5a2 2 0 002-2v-5z" fill="#427E66"/><path d="M570.5 65a1.5 1.5 0 010 3h-6a1.5 1.5 0 010-3h6z" fill="#fff"/><path fill-rule="evenodd" clip-rule="evenodd" d="M564.5 67h6a.5.5 0 000-1h-6a.5.5 0 000 1zm7.5-.5a1.5 1.5 0 00-1.5-1.5h-6a1.5 1.5 0 000 3h6a1.5 1.5 0 001.5-1.5z" fill="#427E66"/><path d="M565 96a2 2 0 01-2-2v-5a2 2 0 012-2h5a2 2 0 012 2v5a2 2 0 01-2 2h-5z" fill="#fff"/><path fill-rule="evenodd" clip-rule="evenodd" d="M564 89v5a1 1 0 001 1h5a1 1 0 001-1v-5a1 1 0 00-1-1h-5a1 1 0 00-1 1zm-1 5a2 2 0 002 2h5a2 2 0 002-2v-5a2 2 0 00-2-2h-5a2 2 0 00-2 2v5z" fill="#427E66"/><path d="M564.5 96a1.5 1.5 0 010-3h6a1.5 1.5 0 010 3h-6z" fill="#fff"/><path fill-rule="evenodd" clip-rule="evenodd" d="M570.5 94h-6a.5.5 0 000 1h6a.5.5 0 000-1zm-7.5.5a1.5 1.5 0 001.5 1.5h6a1.5 1.5 0 000-3h-6a1.5 1.5 0 00-1.5 1.5z" fill="#427E66"/><path d="M533 306a8 8 0 018 8v3a8 8 0 01-8 8h-41a8 8 0 01-8-8v-3a8 8 0 018-8h41z" fill="#fff"/><path fill-rule="evenodd" clip-rule="evenodd" d="M540 317v-3a7 7 0 00-7-7h-41a7 7 0 00-7 7v3a7 7 0 007 7h41a7 7 0 007-7zm1-3a8 8 0 00-8-8h-41a8 8 0 00-8 8v3a8 8 0 008 8h41a8 8 0 008-8v-3zm-4 2v-1a5 5 0 00-5-5h-39a5 5 0 00-5 5v1a5 5 0 005 5h39a5 5 0 005-5zm1-1a6 6 0 00-6-6h-39a6 6 0 00-6 6v1a6 6 0 006 6h39a6 6 0 006-6v-1zm-4 3a1 1 0 01-1 1h-9v-3h10v2zm-10-3h10v-2a1 1 0 00-1-1h-9v3zm-1-3v3h-10v-3h10zm-11 0v3h-10v-3h10zm-11-1h32a2 2 0 012 2v5a2 2 0 01-2 2h-41a2 2 0 01-2-2v-5a2 2 0 012-2h9zm1 8h10v-3h-10v3zm-1-3v3h-9a1 1 0 01-1-1v-2h10zm0-1h-10v-2a1 1 0 011-1h9v3zm12 1v3h10v-3h-10z" fill="#427E66"/><path d="M385 306a8 8 0 018 8v3a8 8 0 01-8 8h-41a8 8 0 01-8-8v-3a8 8 0 018-8h41z" fill="#fff"/><path fill-rule="evenodd" clip-rule="evenodd" d="M392 317v-3a7 7 0 00-7-7h-41a7 7 0 00-7 7v3a7 7 0 007 7h41a7 7 0 007-7zm1-3a8 8 0 00-8-8h-41a8 8 0 00-8 8v3a8 8 0 008 8h41a8 8 0 008-8v-3zm-4 2v-1a5 5 0 00-5-5h-39a5 5 0 00-5 5v1a5 5 0 005 5h39a5 5 0 005-5zm1-1a6 6 0 00-6-6h-39a6 6 0 00-6 6v1a6 6 0 006 6h39a6 6 0 006-6v-1zm-4 3a1 1 0 01-1 1h-9v-3h10v2zm-10-3h10v-2a1 1 0 00-1-1h-9v3zm-1-3v3h-10v-3h10zm-11 0v3h-10v-3h10zm-11-1h32a2 2 0 012 2v5a2 2 0 01-2 2h-41a2 2 0 01-2-2v-5a2 2 0 012-2h9zm1 8h10v-3h-10v3zm-1-3v3h-9a1 1 0 01-1-1v-2h10zm0-1h-10v-2a1 1 0 011-1h9v3zm12 1v3h10v-3h-10z" fill="#427E66"/><path d="M200.188 283l-3-4.006h-1.074V283h-1.057v-8.727h1.057v3.784h.46l3.494-3.784h1.262l-3.529 3.835 3.648 4.892h-1.261zm4.416.153c-.414 0-.791-.078-1.129-.234a1.94 1.94 0 01-.805-.686c-.199-.301-.299-.665-.299-1.091 0-.375.074-.679.222-.912.148-.236.345-.42.592-.554.248-.133.52-.233.819-.298.301-.068.603-.122.907-.162.398-.051.72-.09.968-.115.25-.029.431-.075.545-.141.116-.065.175-.179.175-.341v-.034c0-.42-.115-.747-.345-.98-.228-.233-.573-.349-1.036-.349-.48 0-.856.105-1.129.315-.273.21-.465.435-.576.673l-.954-.341c.17-.397.398-.707.682-.929.287-.224.599-.38.937-.468a3.89 3.89 0 011.006-.137c.21 0 .452.026.724.077.276.048.542.149.797.303.259.153.473.385.644.694.17.31.255.725.255 1.245V283h-1.005v-.886h-.051a1.794 1.794 0 01-.341.456 1.973 1.973 0 01-.635.413c-.264.114-.587.17-.968.17zm.154-.903c.398 0 .733-.078 1.005-.234.276-.157.483-.358.623-.605.142-.248.213-.508.213-.78v-.921c-.043.051-.137.098-.282.141-.142.04-.306.075-.494.106a21.302 21.302 0 01-.963.128c-.261.034-.506.09-.733.166a1.261 1.261 0 00-.545.337c-.137.148-.205.349-.205.605 0 .35.129.614.388.793.261.176.592.264.993.264zm7.341.886c-.614 0-1.142-.145-1.585-.434a2.837 2.837 0 01-1.023-1.198c-.239-.508-.358-1.089-.358-1.743 0-.664.122-1.251.367-1.76.247-.511.591-.91 1.031-1.197.443-.29.96-.435 1.551-.435.46 0 .875.086 1.244.256.37.17.672.409.908.716s.382.665.439 1.074h-1.006a1.553 1.553 0 00-.511-.793c-.261-.233-.614-.349-1.057-.349-.392 0-.736.102-1.031.307a1.993 1.993 0 00-.686.856c-.162.367-.243.797-.243 1.291 0 .506.079.946.238 1.321.162.375.39.666.682.874.296.207.642.311 1.04.311.261 0 .499-.045.712-.136.213-.091.393-.222.541-.392.148-.171.253-.375.315-.614h1.006a2.34 2.34 0 01-.422 1.044 2.364 2.364 0 01-.882.733c-.364.179-.787.268-1.27.268zm6.703 0c-.613 0-1.142-.145-1.585-.434a2.837 2.837 0 01-1.023-1.198c-.238-.508-.358-1.089-.358-1.743 0-.664.122-1.251.367-1.76.247-.511.591-.91 1.031-1.197.443-.29.96-.435 1.551-.435.46 0 .875.086 1.244.256.37.17.672.409.908.716s.382.665.439 1.074h-1.006a1.553 1.553 0 00-.511-.793c-.261-.233-.614-.349-1.057-.349-.392 0-.736.102-1.031.307a1.993 1.993 0 00-.686.856c-.162.367-.243.797-.243 1.291 0 .506.08.946.239 1.321.162.375.389.666.681.874.296.207.642.311 1.04.311.262 0 .499-.045.712-.136.213-.091.393-.222.541-.392.148-.171.253-.375.315-.614h1.006a2.329 2.329 0 01-1.304 1.777c-.364.179-.787.268-1.27.268zm5.97.017c-.414 0-.791-.078-1.129-.234a1.94 1.94 0 01-.805-.686c-.199-.301-.299-.665-.299-1.091 0-.375.074-.679.222-.912.148-.236.345-.42.592-.554.247-.133.52-.233.819-.298.301-.068.603-.122.907-.162.398-.051.72-.09.968-.115.25-.029.431-.075.545-.141.116-.065.175-.179.175-.341v-.034c0-.42-.115-.747-.345-.98-.228-.233-.573-.349-1.036-.349-.48 0-.857.105-1.129.315-.273.21-.465.435-.576.673l-.954-.341c.17-.397.398-.707.682-.929.287-.224.599-.38.937-.468a3.89 3.89 0 011.006-.137c.21 0 .452.026.724.077.276.048.542.149.797.303.259.153.473.385.644.694.17.31.255.725.255 1.245V283h-1.005v-.886h-.051a1.794 1.794 0 01-.341.456 1.973 1.973 0 01-.635.413c-.265.114-.587.17-.968.17zm.154-.903c.398 0 .733-.078 1.005-.234.276-.157.483-.358.623-.605.142-.248.213-.508.213-.78v-.921c-.043.051-.137.098-.282.141-.142.04-.306.075-.494.106a21.302 21.302 0 01-.963.128c-.261.034-.506.09-.733.166a1.261 1.261 0 00-.545.337c-.137.148-.205.349-.205.605 0 .35.129.614.388.793.261.176.592.264.993.264zM734.188 390l-3-4.006h-1.074V390h-1.057v-8.727h1.057v3.784h.46l3.494-3.784h1.262l-3.529 3.835 3.648 4.892h-1.261zm4.416.153c-.414 0-.791-.078-1.129-.234a1.94 1.94 0 01-.805-.686c-.199-.301-.299-.665-.299-1.091 0-.375.074-.679.222-.912.148-.236.345-.42.592-.554.248-.133.52-.233.819-.298.301-.068.603-.122.907-.162.398-.051.72-.09.968-.115.25-.029.431-.075.545-.141.116-.065.175-.179.175-.341v-.034c0-.42-.115-.747-.345-.98-.228-.233-.573-.349-1.036-.349-.48 0-.856.105-1.129.315-.273.21-.465.435-.576.673l-.954-.341c.17-.397.398-.707.682-.929.287-.224.599-.38.937-.468a3.89 3.89 0 011.006-.137c.21 0 .452.026.724.077.276.048.542.149.797.303.259.153.473.385.644.694.17.31.255.725.255 1.245V390h-1.005v-.886h-.051a1.794 1.794 0 01-.341.456 1.973 1.973 0 01-.635.413c-.264.114-.587.17-.968.17zm.154-.903c.398 0 .733-.078 1.005-.234.276-.157.483-.358.623-.605.142-.248.213-.508.213-.78v-.921c-.043.051-.137.098-.282.141-.142.04-.306.075-.494.106a21.302 21.302 0 01-.963.128c-.261.034-.506.09-.733.166a1.261 1.261 0 00-.545.337c-.137.148-.205.349-.205.605 0 .35.129.614.388.793.261.176.592.264.993.264zm7.341.886c-.614 0-1.142-.145-1.585-.434a2.837 2.837 0 01-1.023-1.198c-.239-.508-.358-1.089-.358-1.743 0-.664.122-1.251.367-1.76.247-.511.591-.91 1.031-1.197.443-.29.96-.435 1.551-.435.46 0 .875.086 1.244.256.37.17.672.409.908.716s.382.665.439 1.074h-1.006a1.553 1.553 0 00-.511-.793c-.261-.233-.614-.349-1.057-.349-.392 0-.736.102-1.031.307a1.993 1.993 0 00-.686.856c-.162.367-.243.797-.243 1.291 0 .506.079.946.238 1.321.162.375.39.666.682.874.296.207.642.311 1.04.311.261 0 .499-.045.712-.136.213-.091.393-.222.541-.392.148-.171.253-.375.315-.614h1.006a2.34 2.34 0 01-.422 1.044 2.364 2.364 0 01-.882.733c-.364.179-.787.268-1.27.268zm6.703 0c-.613 0-1.142-.145-1.585-.434a2.837 2.837 0 01-1.023-1.198c-.238-.508-.358-1.089-.358-1.743 0-.664.122-1.251.367-1.76.247-.511.591-.91 1.031-1.197.443-.29.96-.435 1.551-.435.46 0 .875.086 1.244.256.37.17.672.409.908.716s.382.665.439 1.074h-1.006a1.553 1.553 0 00-.511-.793c-.261-.233-.614-.349-1.057-.349-.392 0-.736.102-1.031.307a1.993 1.993 0 00-.686.856c-.162.367-.243.797-.243 1.291 0 .506.08.946.239 1.321.162.375.389.666.681.874.296.207.642.311 1.04.311.262 0 .499-.045.712-.136.213-.091.393-.222.541-.392.148-.171.253-.375.315-.614h1.006a2.329 2.329 0 01-1.304 1.777c-.364.179-.787.268-1.27.268zm5.97.017c-.414 0-.791-.078-1.129-.234a1.94 1.94 0 01-.805-.686c-.199-.301-.299-.665-.299-1.091 0-.375.074-.679.222-.912.148-.236.345-.42.592-.554.247-.133.52-.233.819-.298.301-.068.603-.122.907-.162.398-.051.72-.09.968-.115.25-.029.431-.075.545-.141.116-.065.175-.179.175-.341v-.034c0-.42-.115-.747-.345-.98-.228-.233-.573-.349-1.036-.349-.48 0-.857.105-1.129.315-.273.21-.465.435-.576.673l-.954-.341c.17-.397.398-.707.682-.929.287-.224.599-.38.937-.468a3.89 3.89 0 011.006-.137c.21 0 .452.026.724.077.276.048.542.149.797.303.259.153.473.385.644.694.17.31.255.725.255 1.245V390h-1.005v-.886h-.051a1.794 1.794 0 01-.341.456 1.973 1.973 0 01-.635.413c-.265.114-.587.17-.968.17zm.154-.903c.398 0 .733-.078 1.005-.234.276-.157.483-.358.623-.605.142-.248.213-.508.213-.78v-.921c-.043.051-.137.098-.282.141-.142.04-.306.075-.494.106a21.302 21.302 0 01-.963.128c-.261.034-.506.09-.733.166a1.261 1.261 0 00-.545.337c-.137.148-.205.349-.205.605 0 .35.129.614.388.793.261.176.592.264.993.264z" fill="#427E66"/><path fill="#fff" stroke="#427E66" d="M735.5 437.5v-6h32v6zm-75 0v-6h32v6zm18-202h6v23h-6zm-32 0h6v23h-6zm-101 0h6v23h-6zm40 0h6v23h-6zm-101 0h6v23h-6zm75 202v-6h32v6zm-101 0v-6h32v6zm-124 0v-6h32v6zm-124 0v-6h32v6zm-125 0v-6h32v6zm-79-214h6v32h-6zm830 214v-6h32v6z"/><path d="M870 316a8 8 0 01-8-8v-3a8 8 0 018-8h25a8 8 0 018 8v3a8 8 0 01-8 8h-25z" fill="#fff"/><path fill-rule="evenodd" clip-rule="evenodd" d="M863 305v3a7 7 0 007 7h25a7 7 0 007-7v-3a7 7 0 00-7-7h-25a7 7 0 00-7 7zm-1 3a8 8 0 008 8h25a8 8 0 008-8v-3a8 8 0 00-8-8h-25a8 8 0 00-8 8v3zm4-2v1a5 5 0 005 5h23a5 5 0 005-5v-1a5 5 0 00-5-5h-23a5 5 0 00-5 5zm-1 1a6 6 0 006 6h23a6 6 0 006-6v-1a6 6 0 00-6-6h-23a6 6 0 00-6 6v1zm4-3a1 1 0 011-1h12v3h-13v-2zm13 3h-13v2a1 1 0 001 1h12v-3zm1 3v-3h13v2a1 1 0 01-1 1h-12zm0 1h-13a2 2 0 01-2-2v-5a2 2 0 012-2h25a2 2 0 012 2v5a2 2 0 01-2 2h-12zm0-8h12a1 1 0 011 1v2h-13v-3z" fill="#427E66"/><path d="M780 316a8 8 0 01-8-8v-3a8 8 0 018-8h25a8 8 0 018 8v3a8 8 0 01-8 8h-25z" fill="#fff"/><path fill-rule="evenodd" clip-rule="evenodd" d="M773 305v3a7 7 0 007 7h25a7 7 0 007-7v-3a7 7 0 00-7-7h-25a7 7 0 00-7 7zm-1 3a8 8 0 008 8h25a8 8 0 008-8v-3a8 8 0 00-8-8h-25a8 8 0 00-8 8v3zm4-2v1a5 5 0 005 5h23a5 5 0 005-5v-1a5 5 0 00-5-5h-23a5 5 0 00-5 5zm-1 1a6 6 0 006 6h23a6 6 0 006-6v-1a6 6 0 00-6-6h-23a6 6 0 00-6 6v1zm4-3a1 1 0 011-1h12v3h-13v-2zm13 3h-13v2a1 1 0 001 1h12v-3zm1 3v-3h13v2a1 1 0 01-1 1h-12zm0 1h-13a2 2 0 01-2-2v-5a2 2 0 012-2h25a2 2 0 012 2v5a2 2 0 01-2 2h-12zm0-8h12a1 1 0 011 1v2h-13v-3z" fill="#427E66"/><path d="M426 325a8 8 0 01-8-8v-3a8 8 0 018-8h25a8 8 0 018 8v3a8 8 0 01-8 8h-25z" fill="#fff"/><path fill-rule="evenodd" clip-rule="evenodd" d="M419 314v3a7 7 0 007 7h25a7 7 0 007-7v-3a7 7 0 00-7-7h-25a7 7 0 00-7 7zm-1 3a8 8 0 008 8h25a8 8 0 008-8v-3a8 8 0 00-8-8h-25a8 8 0 00-8 8v3zm4-2v1a5 5 0 005 5h23a5 5 0 005-5v-1a5 5 0 00-5-5h-23a5 5 0 00-5 5zm-1 1a6 6 0 006 6h23a6 6 0 006-6v-1a6 6 0 00-6-6h-23a6 6 0 00-6 6v1zm4-3a1 1 0 011-1h12v3h-13v-2zm13 3h-13v2a1 1 0 001 1h12v-3zm1 3v-3h13v2a1 1 0 01-1 1h-12zm0 1h-13a2 2 0 01-2-2v-5a2 2 0 012-2h25a2 2 0 012 2v5a2 2 0 01-2 2h-12zm0-8h12a1 1 0 011 1v2h-13v-3z" fill="#427E66"/><path fill-rule="evenodd" clip-rule="evenodd" d="M366 0h332v169.5h129.5V207H857v48h115v189H867v-2h-29v2h-72v-2h-30v2h-43.5v-2H662v2h-72v-2h-29v2h-71.5v-2H460v2h-95v-2h-29v2h-95v-2h-31v2h-92v-2H87v2H49.757l-.878-.879-48-48-.879-.878V369h2v-29.5H0v-87h2V225H0v-49h278v77h88V0zm-46 259H188v51h-37v-57h121v-71H6v43H4v27.5h2v87H4V369h2v22.757L52.243 438H87v2h31v-2h19v-25h14v-28h37v53h22v2h31v-2h95v2h29v-2h95v2h29.5v-2H561v2h29v-2h72v2h30.5v-2h2.5v-53h29v53h12v2h30v-2h72v2h29v-2h99V261H851v-48h-29.5v-37.5H698V235h6v11h20v9h94v6h-94v37h-29v-39h-14v-24h5v-5.5h6V6H382v94h-10v74h10v56h63v29H320zm226 0v-29h-56v29h56zm101-29v29h-56v-29h56z" fill="#427E66"/><path d="M695 136v96.5h-9m9-128V18" stroke="#427E66" stroke-width="6"/><path fill="#427E66" d="M368 4h14v96h-14zm0 170h14v56h-14zm178 56v29h-56v-29zm101 0v29h-56v-29z"/><path d="M297.5 256H275v-77m10 77H151m218-106.5V186M87 441H51L3 393v-24" stroke="#427E66" stroke-width="6"/><path d="M655 368.5a5.5 5.5 0 11-11 0 5.5 5.5 0 1111 0z" fill="#fff"/><path fill-rule="evenodd" clip-rule="evenodd" d="M649.5 373a4.5 4.5 0 100-9 4.5 4.5 0 000 9zm0 1a5.5 5.5 0 100-11 5.5 5.5 0 100 11z" fill="#427E66"/><path d="M636.414 377.778a2 2 0 010-2.828l3.536-3.535a1.998 1.998 0 012.828 0l3.536 3.535a2 2 0 010 2.828l-3.536 3.536a2 2 0 01-2.828 0l-3.536-3.536z" fill="#fff"/><path fill-rule="evenodd" clip-rule="evenodd" d="M640.657 372.122l-3.536 3.535a1 1 0 000 1.414l3.536 3.536a1 1 0 001.414 0l3.536-3.536a1 1 0 000-1.414l-3.536-3.535a.999.999 0 00-1.414 0zm-4.243 2.828a2 2 0 000 2.828l3.536 3.536a2 2 0 002.828 0l3.536-3.536a2 2 0 000-2.828l-3.536-3.535a1.998 1.998 0 00-2.828 0l-3.536 3.535z" fill="#427E66"/><path d="M636.061 377.425a1.5 1.5 0 112.121-2.121l4.243 4.242a1.502 1.502 0 010 2.122 1.502 1.502 0 01-2.122 0l-4.242-4.243z" fill="#fff"/><path fill-rule="evenodd" clip-rule="evenodd" d="M641.718 380.253l-4.243-4.242a.5.5 0 00-.707.707l4.242 4.242a.5.5 0 10.708-.707zm-5.657-4.949a1.5 1.5 0 000 2.121l4.242 4.243a1.502 1.502 0 002.122 0 1.502 1.502 0 000-2.122l-4.243-4.242a1.5 1.5 0 00-2.121 0z" fill="#427E66"/><path d="M662.314 358.95a2 2 0 010 2.828l-3.536 3.536a2 2 0 01-2.828 0l-3.536-3.536a2 2 0 010-2.828l3.536-3.535a1.998 1.998 0 012.828 0l3.536 3.535z" fill="#fff"/><path fill-rule="evenodd" clip-rule="evenodd" d="M658.071 364.607l3.536-3.536a1 1 0 000-1.414l-3.536-3.535a.999.999 0 00-1.414 0l-3.536 3.535a1 1 0 000 1.414l3.536 3.536a1 1 0 001.414 0zm4.243-2.829a2 2 0 000-2.828l-3.536-3.535a1.998 1.998 0 00-2.828 0l-3.536 3.535a2 2 0 000 2.828l3.536 3.536a2 2 0 002.828 0l3.536-3.536z" fill="#427E66"/><path d="M662.667 359.304a1.5 1.5 0 11-2.121 2.121l-4.243-4.243a1.501 1.501 0 012.122-2.121l4.242 4.243z" fill="#fff"/><path fill-rule="evenodd" clip-rule="evenodd" d="M657.011 356.475l4.242 4.243a.5.5 0 00.707-.707l-4.242-4.243a.5.5 0 00-.707.707zm5.656 4.95a1.5 1.5 0 000-2.121l-4.242-4.243a1.5 1.5 0 00-2.122 2.121l4.243 4.243a1.5 1.5 0 002.121 0z" fill="#427E66"/><path d="M662.314 377.778a2 2 0 000-2.828l-3.536-3.535a1.998 1.998 0 00-2.828 0l-3.536 3.535a2 2 0 000 2.828l3.536 3.536a2 2 0 002.828 0l3.536-3.536z" fill="#fff"/><path fill-rule="evenodd" clip-rule="evenodd" d="M658.071 372.122l3.536 3.535a1 1 0 010 1.414l-3.536 3.536a1 1 0 01-1.414 0l-3.536-3.536a1 1 0 010-1.414l3.536-3.535a.999.999 0 011.414 0zm4.243 2.828a2 2 0 010 2.828l-3.536 3.536a2 2 0 01-2.828 0l-3.536-3.536a2 2 0 010-2.828l3.536-3.535a1.998 1.998 0 012.828 0l3.536 3.535z" fill="#427E66"/><path d="M662.667 377.425a1.5 1.5 0 10-2.121-2.121l-4.243 4.242a1.502 1.502 0 000 2.122 1.502 1.502 0 002.122 0l4.242-4.243z" fill="#fff"/><path fill-rule="evenodd" clip-rule="evenodd" d="M657.011 380.253l4.242-4.242a.499.499 0 01.707 0 .499.499 0 010 .707l-4.242 4.242a.499.499 0 01-.707 0 .499.499 0 010-.707zm5.656-4.949a1.5 1.5 0 010 2.121l-4.242 4.243a1.502 1.502 0 01-2.122 0 1.502 1.502 0 010-2.122l4.243-4.242a1.5 1.5 0 012.121 0z" fill="#427E66"/><path d="M636.414 358.95a2 2 0 000 2.828l3.536 3.536a2 2 0 002.828 0l3.536-3.536a2 2 0 000-2.828l-3.536-3.535a1.998 1.998 0 00-2.828 0l-3.536 3.535z" fill="#fff"/><path fill-rule="evenodd" clip-rule="evenodd" d="M640.657 364.607l-3.536-3.536a1 1 0 010-1.414l3.536-3.535a.999.999 0 011.414 0l3.536 3.535a1 1 0 010 1.414l-3.536 3.536a1 1 0 01-1.414 0zm-4.243-2.829a2 2 0 010-2.828l3.536-3.535a1.998 1.998 0 012.828 0l3.536 3.535a2 2 0 010 2.828l-3.536 3.536a2 2 0 01-2.828 0l-3.536-3.536z" fill="#427E66"/><path d="M636.061 359.304a1.5 1.5 0 102.121 2.121l4.243-4.243a1.501 1.501 0 00-2.122-2.121l-4.242 4.243z" fill="#fff"/><path fill-rule="evenodd" clip-rule="evenodd" d="M641.718 356.475l-4.243 4.243a.5.5 0 01-.707-.707l4.242-4.243a.5.5 0 01.708.707zm-5.657 4.95a1.5 1.5 0 010-2.121l4.242-4.243a1.5 1.5 0 012.122 2.121l-4.243 4.243a1.5 1.5 0 01-2.121 0z" fill="#427E66"/><path d="M655 402.5a5.5 5.5 0 11-11 0 5.5 5.5 0 1111 0z" fill="#fff"/><path fill-rule="evenodd" clip-rule="evenodd" d="M649.5 407a4.5 4.5 0 100-9 4.5 4.5 0 000 9zm0 1a5.5 5.5 0 100-11 5.5 5.5 0 100 11z" fill="#427E66"/><path d="M636.414 411.778a2 2 0 010-2.828l3.536-3.535a1.998 1.998 0 012.828 0l3.536 3.535a2 2 0 010 2.828l-3.536 3.536a2 2 0 01-2.828 0l-3.536-3.536z" fill="#fff"/><path fill-rule="evenodd" clip-rule="evenodd" d="M640.657 406.122l-3.536 3.535a1 1 0 000 1.414l3.536 3.536a1 1 0 001.414 0l3.536-3.536a1 1 0 000-1.414l-3.536-3.535a.999.999 0 00-1.414 0zm-4.243 2.828a2 2 0 000 2.828l3.536 3.536a2 2 0 002.828 0l3.536-3.536a2 2 0 000-2.828l-3.536-3.535a1.998 1.998 0 00-2.828 0l-3.536 3.535z" fill="#427E66"/><path d="M636.061 411.425a1.5 1.5 0 112.121-2.121l4.243 4.242a1.502 1.502 0 010 2.122 1.502 1.502 0 01-2.122 0l-4.242-4.243z" fill="#fff"/><path fill-rule="evenodd" clip-rule="evenodd" d="M641.718 414.253l-4.243-4.242a.5.5 0 00-.707.707l4.242 4.242a.5.5 0 10.708-.707zm-5.657-4.949a1.5 1.5 0 000 2.121l4.242 4.243a1.502 1.502 0 002.122 0 1.502 1.502 0 000-2.122l-4.243-4.242a1.5 1.5 0 00-2.121 0z" fill="#427E66"/><path d="M662.314 392.95a2 2 0 010 2.828l-3.536 3.536a2 2 0 01-2.828 0l-3.536-3.536a2 2 0 010-2.828l3.536-3.535a1.998 1.998 0 012.828 0l3.536 3.535z" fill="#fff"/><path fill-rule="evenodd" clip-rule="evenodd" d="M658.071 398.607l3.536-3.536a1 1 0 000-1.414l-3.536-3.535a.999.999 0 00-1.414 0l-3.536 3.535a1 1 0 000 1.414l3.536 3.536a1 1 0 001.414 0zm4.243-2.829a2 2 0 000-2.828l-3.536-3.535a1.998 1.998 0 00-2.828 0l-3.536 3.535a2 2 0 000 2.828l3.536 3.536a2 2 0 002.828 0l3.536-3.536z" fill="#427E66"/><path d="M662.667 393.304a1.5 1.5 0 11-2.121 2.121l-4.243-4.243a1.501 1.501 0 012.122-2.121l4.242 4.243z" fill="#fff"/><path fill-rule="evenodd" clip-rule="evenodd" d="M657.011 390.475l4.242 4.243a.5.5 0 00.707-.707l-4.242-4.243a.5.5 0 00-.707.707zm5.656 4.95a1.5 1.5 0 000-2.121l-4.242-4.243a1.5 1.5 0 00-2.122 2.121l4.243 4.243a1.5 1.5 0 002.121 0z" fill="#427E66"/><path d="M662.314 411.778a2 2 0 000-2.828l-3.536-3.535a1.998 1.998 0 00-2.828 0l-3.536 3.535a2 2 0 000 2.828l3.536 3.536a2 2 0 002.828 0l3.536-3.536z" fill="#fff"/><path fill-rule="evenodd" clip-rule="evenodd" d="M658.071 406.122l3.536 3.535a1 1 0 010 1.414l-3.536 3.536a1 1 0 01-1.414 0l-3.536-3.536a1 1 0 010-1.414l3.536-3.535a.999.999 0 011.414 0zm4.243 2.828a2 2 0 010 2.828l-3.536 3.536a2 2 0 01-2.828 0l-3.536-3.536a2 2 0 010-2.828l3.536-3.535a1.998 1.998 0 012.828 0l3.536 3.535z" fill="#427E66"/><path d="M662.667 411.425a1.5 1.5 0 10-2.121-2.121l-4.243 4.242a1.502 1.502 0 000 2.122 1.502 1.502 0 002.122 0l4.242-4.243z" fill="#fff"/><path fill-rule="evenodd" clip-rule="evenodd" d="M657.011 414.253l4.242-4.242a.499.499 0 01.707 0 .499.499 0 010 .707l-4.242 4.242a.499.499 0 01-.707 0 .499.499 0 010-.707zm5.656-4.949a1.5 1.5 0 010 2.121l-4.242 4.243a1.502 1.502 0 01-2.122 0 1.502 1.502 0 010-2.122l4.243-4.242a1.5 1.5 0 012.121 0z" fill="#427E66"/><path d="M636.414 392.95a2 2 0 000 2.828l3.536 3.536a2 2 0 002.828 0l3.536-3.536a2 2 0 000-2.828l-3.536-3.535a1.998 1.998 0 00-2.828 0l-3.536 3.535z" fill="#fff"/><path fill-rule="evenodd" clip-rule="evenodd" d="M640.657 398.607l-3.536-3.536a1 1 0 010-1.414l3.536-3.535a.999.999 0 011.414 0l3.536 3.535a1 1 0 010 1.414l-3.536 3.536a1 1 0 01-1.414 0zm-4.243-2.829a2 2 0 010-2.828l3.536-3.535a1.998 1.998 0 012.828 0l3.536 3.535a2 2 0 010 2.828l-3.536 3.536a2 2 0 01-2.828 0l-3.536-3.536z" fill="#427E66"/><path d="M636.061 393.304a1.5 1.5 0 102.121 2.121l4.243-4.243a1.501 1.501 0 00-2.122-2.121l-4.242 4.243z" fill="#fff"/><path fill-rule="evenodd" clip-rule="evenodd" d="M641.718 390.475l-4.243 4.243a.5.5 0 01-.707-.707l4.242-4.243a.5.5 0 01.708.707zm-5.657 4.95a1.5 1.5 0 010-2.121l4.242-4.243a1.5 1.5 0 012.122 2.121l-4.243 4.243a1.5 1.5 0 01-2.121 0z" fill="#427E66"/><path d="M202 393v18h-15v-18h15z" fill="#fff"/><path fill-rule="evenodd" clip-rule="evenodd" d="M201 410v-16h-13v16h13zm1-17h-15v18h15v-18zm-6 8v2h-6v-2h6zm3 2v-2h-2v2h2z" fill="#427E66"/><path d="M818 258h-98.5m105-85.5V210h15m9 0h5" stroke="#427E66" stroke-width="6"/><path d="M469 50.5a5.5 5.5 0 11-11 0 5.5 5.5 0 0111 0z" fill="#fff"/><path fill-rule="evenodd" clip-rule="evenodd" d="M463.5 55a4.5 4.5 0 100-9 4.5 4.5 0 000 9zm0 1a5.5 5.5 0 100-11 5.5 5.5 0 000 11z" fill="#427E66"/><path d="M573 50.5a5.5 5.5 0 11-11 0 5.5 5.5 0 0111 0z" fill="#fff"/><path fill-rule="evenodd" clip-rule="evenodd" d="M567.5 55a4.5 4.5 0 100-9 4.5 4.5 0 000 9zm0 1a5.5 5.5 0 100-11 5.5 5.5 0 000 11z" fill="#427E66"/><path d="M469 178.5a5.5 5.5 0 11-11 0 5.5 5.5 0 1111 0z" fill="#fff"/><path fill-rule="evenodd" clip-rule="evenodd" d="M463.5 183a4.5 4.5 0 100-9 4.5 4.5 0 000 9zm0 1a5.5 5.5 0 100-11 5.5 5.5 0 100 11z" fill="#427E66"/><path d="M573 178.5a5.5 5.5 0 11-11 0 5.5 5.5 0 1111 0z" fill="#fff"/><path fill-rule="evenodd" clip-rule="evenodd" d="M567.5 183a4.5 4.5 0 100-9 4.5 4.5 0 000 9zm0 1a5.5 5.5 0 100-11 5.5 5.5 0 100 11z" fill="#427E66"/><path d="M854 350.5a5.5 5.5 0 11-11 0 5.5 5.5 0 1111 0z" fill="#fff"/><path fill-rule="evenodd" clip-rule="evenodd" d="M848.5 355a4.5 4.5 0 100-9 4.5 4.5 0 000 9zm0 1a5.5 5.5 0 100-11 5.5 5.5 0 100 11z" fill="#427E66"/><path d="M639 314.728L651.728 302l12.728 12.728-12.728 12.728L639 314.728z" fill="#fff"/><path fill-rule="evenodd" clip-rule="evenodd" d="M640.414 314.728l11.314-11.314 11.314 11.314-11.314 11.314-11.314-11.314zm11.314 12.728L639 314.728 651.728 302l12.728 12.728-12.728 12.728zm-6.636-12.728l6.636-6.636 6.636 6.636-6.636 6.636-6.636-6.636zm6.636 8.05l-8.05-8.05 8.05-8.05 8.05 8.05-8.05 8.05z" fill="#427E66"/><path d="M591 314.728L603.728 302l12.728 12.728-12.728 12.728L591 314.728z" fill="#fff"/><path fill-rule="evenodd" clip-rule="evenodd" d="M592.414 314.728l11.314-11.314 11.314 11.314-11.314 11.314-11.314-11.314zm11.314 12.728L591 314.728 603.728 302l12.728 12.728-12.728 12.728zm-6.636-12.728l6.636-6.636 6.636 6.636-6.636 6.636-6.636-6.636zm6.636 8.05l-8.05-8.05 8.05-8.05 8.05 8.05-8.05 8.05z" fill="#427E66"/><path d="M299 276c10.493 0 19-8.059 19-18m-18.5.5h-2v18h2z" stroke="#427E66"/><path fill="#427E66" d="M151 182h1v71h-1zm583.188 208l-3-4.006h-1.074V390h-1.057v-8.728h1.057v3.785h.46l3.494-3.785h1.262l-3.529 3.836 3.648 4.892h-1.261zm4.416.153c-.414 0-.791-.078-1.129-.234a1.94 1.94 0 01-.805-.686c-.199-.301-.298-.665-.298-1.091 0-.375.073-.679.221-.912a1.56 1.56 0 01.592-.554c.248-.134.52-.233.819-.298.301-.069.603-.123.907-.162.398-.051.72-.09.968-.115.25-.029.431-.076.545-.141.117-.065.175-.179.175-.341v-.034c0-.42-.115-.747-.345-.98-.228-.233-.573-.35-1.036-.35-.48 0-.856.106-1.129.316-.273.21-.465.434-.575.673l-.955-.341c.17-.398.398-.707.682-.929a2.56 2.56 0 01.937-.469c.341-.09.676-.136 1.006-.136.21 0 .452.026.724.077.276.048.542.149.797.302.259.154.473.385.644.695.17.31.255.724.255 1.244V390h-1.005v-.887h-.051a1.794 1.794 0 01-.341.456c-.159.162-.371.3-.635.414-.264.113-.587.17-.968.17zm.154-.903c.398 0 .733-.078 1.006-.235a1.597 1.597 0 00.835-1.385v-.92c-.043.051-.137.098-.281.141a4.937 4.937 0 01-.495.106 20.68 20.68 0 01-.963.128 3.815 3.815 0 00-.733.166 1.261 1.261 0 00-.545.337c-.137.148-.205.349-.205.605 0 .349.129.614.388.793.261.176.592.264.993.264zm7.341.886c-.613 0-1.142-.145-1.585-.435a2.828 2.828 0 01-1.023-1.197c-.238-.509-.358-1.089-.358-1.743 0-.665.122-1.251.367-1.76.247-.511.591-.91 1.031-1.197.443-.29.96-.435 1.551-.435.46 0 .875.085 1.244.256.37.17.672.409.908.716.236.306.382.664.439 1.074h-1.006a1.553 1.553 0 00-.511-.793c-.261-.233-.614-.35-1.057-.35a1.77 1.77 0 00-1.031.307 1.996 1.996 0 00-.686.857c-.162.366-.243.797-.243 1.291 0 .506.079.946.239 1.321.161.375.389.666.681.874.296.207.642.311 1.04.311.262 0 .499-.046.712-.137a1.465 1.465 0 00.856-1.005h1.006a2.329 2.329 0 01-1.304 1.777c-.364.179-.787.268-1.27.268zm6.703 0c-.613 0-1.142-.145-1.585-.435a2.828 2.828 0 01-1.023-1.197c-.238-.509-.358-1.089-.358-1.743 0-.665.123-1.251.367-1.76.247-.511.591-.91 1.031-1.197.443-.29.96-.435 1.551-.435.46 0 .875.085 1.245.256.369.17.671.409.907.716.236.306.382.664.439 1.074h-1.006a1.553 1.553 0 00-.511-.793c-.261-.233-.614-.35-1.057-.35a1.77 1.77 0 00-1.031.307 1.996 1.996 0 00-.686.857c-.162.366-.243.797-.243 1.291 0 .506.08.946.239 1.321.162.375.389.666.681.874a1.77 1.77 0 001.04.311c.262 0 .499-.046.712-.137a1.465 1.465 0 00.856-1.005h1.006a2.329 2.329 0 01-1.304 1.777c-.363.179-.787.268-1.27.268zm5.97.017c-.414 0-.791-.078-1.129-.234a1.94 1.94 0 01-.805-.686c-.199-.301-.299-.665-.299-1.091 0-.375.074-.679.222-.912a1.56 1.56 0 01.592-.554c.248-.134.52-.233.819-.298.301-.069.603-.123.907-.162.398-.051.72-.09.968-.115.25-.029.431-.076.545-.141.117-.065.175-.179.175-.341v-.034c0-.42-.115-.747-.345-.98-.228-.233-.573-.35-1.036-.35-.48 0-.856.106-1.129.316-.273.21-.465.434-.575.673l-.955-.341c.17-.398.398-.707.682-.929a2.56 2.56 0 01.937-.469c.341-.09.676-.136 1.006-.136.21 0 .452.026.724.077.276.048.542.149.797.302.259.154.473.385.644.695.17.31.255.724.255 1.244V390h-1.005v-.887h-.051a1.794 1.794 0 01-.341.456c-.159.162-.371.3-.635.414-.264.113-.587.17-.968.17zm.154-.903c.398 0 .733-.078 1.006-.235.275-.156.482-.358.622-.605.142-.247.213-.507.213-.78v-.92c-.043.051-.137.098-.281.141a4.937 4.937 0 01-.495.106 20.68 20.68 0 01-.963.128 3.815 3.815 0 00-.733.166 1.261 1.261 0 00-.545.337c-.137.148-.205.349-.205.605 0 .349.129.614.388.793.261.176.592.264.993.264z"/><path d="M723 395h10v15h-10v-15z" fill="#fff"/><path fill-rule="evenodd" clip-rule="evenodd" d="M732 396h-8v13h8v-13zm-9-1v15h10v-15h-10z" fill="#427E66"/><path d="M732 395h12v15h-12v-15z" fill="#fff"/><path fill-rule="evenodd" clip-rule="evenodd" d="M743 396h-10v13h10v-13zm-11-1v15h12v-15h-12z" fill="#427E66"/><path d="M743 395h14v15h-14v-15z" fill="#fff"/><path fill-rule="evenodd" clip-rule="evenodd" d="M756 396h-12v13h12v-13zm-13-1v15h14v-15h-14z" fill="#427E66"/><path d="M724 398h20v1h-20v-1z" fill="#427E66"/><path d="M761 414l-4-4-.5-.5v-14h5.5l11 11v7.5h-12z" fill="#fff"/><path fill-rule="evenodd" clip-rule="evenodd" d="M756 395h6.207l11.293 11.293v8.207h-12.707L756 409.707V395zm1 1v13.293l4.207 4.207H772.5v-6.793L761.793 396H757z" fill="#427E66"/><path fill="#fff" stroke="#427E66" d="M224.5 304.5h15v-14h-15zm-15 0h15v-14h-15z"/><path d="M260.5 286.5h-15.33l-5.198 4.004-.472.364V304.5h6.663l14.337-11.043V286.5z" fill="#fff" stroke="#427E66"/><path fill="#427E66" d="M209 301h31v1h-31z"/><path fill="#fff" stroke="#427E66" d="M187.5 304.5h22v-14h-22z"/><path fill="#fff" d="M152 182h120v71H152z"/><path stroke="#427E66" d="M162.5 187.5h100v23h-100z"/><mask id="path-200-outside-4_10809_2501" maskUnits="userSpaceOnUse" x="164" y="187" width="56" height="3" fill="#000"><path fill="#fff" d="M164 187h56v3h-56z"/><path d="M165 188h54v1h-54v-1z"/></mask><path d="M165 188h54v1h-54v-1z" fill="#fff"/><path d="M165 188v-1h-1v1h1zm54 0h1v-1h-1v1zm0 1v1h1v-1h-1zm-54 0h-1v1h1v-1zm0 0h54v-2h-54v2zm53-1v1h2v-1h-2zm1 0h-54v2h54v-2zm-53 1v-1h-2v1h2z" fill="#427E66" mask="url(#path-200-outside-4_10809_2501)"/><path fill="#427E66" d="M172 190h1v20h-1zm10 0h1v20h-1zm10 0h1v20h-1zm10 0h1v20h-1zm10 0h1v20h-1zm10-2h1v22h-1zm10 0h1v22h-1zm10 0h1v22h-1zm10 0h1v22h-1z"/><path stroke="#427E66" d="M260.5 247.5h-100v-23h100z"/><mask id="path-212-outside-5_10809_2501" maskUnits="userSpaceOnUse" x="203" y="245" width="56" height="3" fill="#000"><path fill="#fff" d="M203 245h56v3h-56z"/><path d="M258 247h-54v-1h54v1z"/></mask><path d="M258 247h-54v-1h54v1z" fill="#fff"/><path d="M258 247v1h1v-1h-1zm-54 0h-1v1h1v-1zm0-1v-1h-1v1h1zm54 0h1v-1h-1v1zm0 0h-54v2h54v-2zm-53 1v-1h-2v1h2zm-1 0h54v-2h-54v2zm53-1v1h2v-1h-2z" fill="#427E66" mask="url(#path-212-outside-5_10809_2501)"/><path fill="#427E66" d="M251 245h-1v-20h1zm-10 0h-1v-20h1zm-10 0h-1v-20h1zm-10 0h-1v-20h1zm-10 0h-1v-20h1zm-10 2h-1v-22h1zm-10 0h-1v-22h1zm-10 0h-1v-22h1zm-10 0h-1v-22h1z"/><mask id="path-223-outside-6_10809_2501" maskUnits="userSpaceOnUse" x="154" y="209" width="116" height="16" fill="#000"><path fill="#fff" d="M154 209h116v16H154z"/><path fill-rule="evenodd" clip-rule="evenodd" d="M160 210a5 5 0 00-5 5v4a5 5 0 005 5h104a5 5 0 005-5v-4a5 5 0 00-5-5H160zm0 1a4 4 0 00-4 4v4a4 4 0 004 4h104a4 4 0 004-4v-4a4 4 0 00-4-4H160z"/></mask><path fill-rule="evenodd" clip-rule="evenodd" d="M160 210a5 5 0 00-5 5v4a5 5 0 005 5h104a5 5 0 005-5v-4a5 5 0 00-5-5H160zm0 1a4 4 0 00-4 4v4a4 4 0 004 4h104a4 4 0 004-4v-4a4 4 0 00-4-4H160z" fill="#fff"/><path d="M156 215a4 4 0 014-4v-2a6 6 0 00-6 6h2zm0 4v-4h-2v4h2zm4 4a4 4 0 01-4-4h-2a6 6 0 006 6v-2zm104 0H160v2h104v-2zm4-4a4 4 0 01-4 4v2a6 6 0 006-6h-2zm0-4v4h2v-4h-2zm-4-4a4 4 0 014 4h2a6 6 0 00-6-6v2zm-104 0h104v-2H160v2zm-3 4a3 3 0 013-3v-2a5 5 0 00-5 5h2zm0 4v-4h-2v4h2zm3 3a3 3 0 01-3-3h-2a5 5 0 005 5v-2zm104 0H160v2h104v-2zm3-3a3 3 0 01-3 3v2a5 5 0 005-5h-2zm0-4v4h2v-4h-2zm-3-3a3 3 0 013 3h2a5 5 0 00-5-5v2zm-104 0h104v-2H160v2z" fill="#427E66" mask="url(#path-223-outside-6_10809_2501)"/></svg>