<svg width="378" height="278" viewBox="0 0 378 278" fill="none" xmlns="http://www.w3.org/2000/svg"><path fill-rule="evenodd" clip-rule="evenodd" d="M250.631.434c-10.667 3.018-37.981 15.492-62.402 41.333-12.189 12.897-20.187 23.018-25.235 30.438-2.524 3.71-4.313 6.75-5.521 9.126-1.201 2.364-1.844 4.108-2.044 5.219l-.012.067c-29.521 2.036-91.022 6.84-109.175 10.369-18.349 3.567-30.83 7.048-34.796 8.35l-.51.168.11.526.47 2.241c-2.704.235-6.141 1.241-8.46 3.643-1.291 1.339-2.223 3.1-2.478 5.36-.255 2.251.163 4.961 1.505 8.208 2.188 5.296 6.185 16.634 11.072 30.498v.001l.001.002a5080.708 5080.708 0 007.855 22.168c8.299 23.204 17.562 48.121 24.667 62.814 11.336 23.438 36.176 80.886 47.183 106.69l.227.533.54-.209c12.468-4.807 41.767-17.463 59.115-29.616 10.775-7.549 23.239-14.765 33.871-20.191 5.316-2.713 10.167-4.975 14.115-6.606 3.971-1.642 6.964-2.617 8.595-2.801 1.017-.116 1.986-.249 2.877-.372.608-.083 1.178-.162 1.702-.226 1.33-.163 2.429-.245 3.367-.151.689.068 1.277.23 1.795.518l6.61 14.598.291.644.345-.231.032.077.608-.402c24.163-16.021 60.618-40.293 91.452-61.045 15.417-10.375 29.43-19.872 39.799-27.016 5.184-3.572 9.46-6.558 12.546-8.773a155.228 155.228 0 003.708-2.727c.894-.684 1.527-1.204 1.786-1.502 1.858-2.145 1.813-4.538 1.044-6.579-.759-2.013-2.233-3.736-3.358-4.716l-.327-.284-.372.22-5.054 2.99c-11.626-16.388-36.446-55.056-47.335-85.312-11.069-30.756-14.736-73.73-15.182-91.378l-.022-.873-.807.334-12.111 5.005c-.183-2.006-.33-3.832-.444-5.454l-.073-1.048-.865.595-21.581 14.852c-.228-4.66-.235-8.556-.104-11.474l.061-1.347-1.041.857-19.634 16.146c-.379-4.383-.615-8.266-.714-11.56-.152-5.055.022-8.668.475-10.586 1.517-6.414 2.355-10.278 2.585-11.415l.195-.964-.947.268zm-15.61 295.991c23.683-15.724 55.403-36.866 82.712-55.245 15.416-10.375 29.424-19.869 39.788-27.009 5.182-3.571 9.451-6.552 12.527-8.76a156.29 156.29 0 003.678-2.704c.927-.71 1.448-1.151 1.609-1.336 1.495-1.725 1.487-3.621.828-5.369-.602-1.597-1.738-3.025-2.705-3.945l-4.584 2.711.242.34-.53.341-138.488 89.062 4.923 11.914zm-5.949-11.254l-.274-.664-2.673-6.47-.199-.479-.027-.009-7.143-2.203.216-.701-.153.05-.145.048-.132.279-.092-.205a219.02 219.02 0 00-3.704 1.269l5.261 11.62c.107.072.211.149.315.232.851.68 1.533 1.681 2.105 3.065l.01.024.01.025.01.025.011.025.01.025.01.025.011.025.01.025.01.025.011.025.01.025.011.025.01.025.01.025.011.026.01.025.01.025.011.025.01.025.011.026.01.025.011.025.01.025.011.026.01.025.01.025.011.026.01.025.011.026.01.025.011.025.01.026.011.025.01.026.011.025.011.026.01.025.011.026.01.025.011.026.01.026.011.025.011.026.01.025.011.026.01.026.011.025.01.026.011.026.011.025.01.026.011.026.011.026.01.025.011.026.011.026.01.026.011.025.011.026.01.026.011.026.011.026.01.026.011.025.011.026.01.026.011.026.011.026.01.026.011.026.011.026.011.026.01.026.011.025.011.026.01.026.011.026.011.026.011.026.01.026.011.026.011.026.011.026.01.026.011.026.011.026.011.026.01.027.011.026.011.026.011.026.01.026.011.026.011.026.011.026.011.026.01.026.011.026.011.026.011.026.011.027.01.026.011.026.011.026.011.026.01.026.011.026.011.026.011.026.011.027.01.026.011.026.011.026.011.026.011.026.01.026.011.027.011.026.011.026.011.026.01.026.011.026.011.026.011.026.011.027.01.026.011.026.011.026.011.026.011.026.01.026.011.026.011.027.011.026.011.026.01.026.011.026.011.026.011.026.011.026.01.026.011.026.011.027.011.026.01.026.011.026.011.026.011.026.01.026.011.026.011.026.011.026.011.026.01.026.011.026.011.026.011.026.01.026.011.026.011.026.01.026.011.026.011.026.011.026.01.026.011.026.011.026.011.026.01.026.011.026.011.025.01.026.011.026.011.026.01.026.011.026.011.026.01.025.011.026.011.026.01.026.011.026.011.025.01.026.011.026.011.026.01.025.011.026.01.026.011.025.011.026.01.026.011.025.01.026.011.026.011.025.01.026.011.025.01.026.011.025.01.026.011.025.011.026.01.025.011.026.01.025.011.026.01.025.011.026.01.025.011.025.01.026.011.025.01.025.01.026.011.025.01.025.011.025.01.026.011.025.01.025.01.025.011.025.01.026.011.025.01.025.01.025.011.025.01.025.01.025.011.025.01.025.01.025.011.025.01.025.01.025.01.024.011.025.01.025.01.025.011.025.01.025.01.024.01.025.01.025.011.024.01.025.01.025.01.024.01.025.01.024.011.025.01.024.01.025.01.024.01.025.01.024.01.025.01.024.01.024.01.025.01.024.01.024.01.024.01.025.01.024.01.024.01.024.01.024.01.024.01.024.01.024.01.024.01.024.01.024.01.024.01.024.009.024.01.024.01.023.01.024.01.024.009.024.01.023.01.024.01.023.01.024.009.024.01.023.01.024.009.023.01.023.01.024.009.023.01.023.01.024.009.023.01.023.009.023.01.024.01.023.009.023.01.023.009.023.01.023.009.023.01.023.009.023.01.023.009.022.009.023.01.023.009.023.01.022.009.023.009.023.01.022.009.023.009.022.01.023.009.022.009.023.009.022.009.022.01.023.009.022.009.022.009.022.009.022.01.022.009.022.009.023.009.022.009.021.009.022.009.022.009.022.009.022.009.022.009.021.009.022.009.022.009.021.009.022.009.021.008.022.009.021.009.021.009.022.009.021.009.021.008.022.009.021.009.021.008.021.009.021.009.021.008.021.009.021.009.021.008.021.009.02.009.021.008.021.009.02.008.021.009.021.008.02.009.021.008.02.008.02.009.021.008.02.009.02.008.02.008.02.009.021.008.02.008.02.008.02.009.019.008.02.008.02.008.02.008.02.008.019.008.02.009.019.008.02.008.02.008.019.008.019.008.02.008.019.008.019.008.019.007.019.008.02.008.019.008.019.008.018.008.019.007.019.008.019.008.019.008.018.007.019.008.018.008.019.007.018.008.019.007.018.008.018.008.019.007.018.008.018.007.018.007.018.008.018.007.018.008.018.007.018.007.017.008.018.007.018.007.017.007.018.008.017.007.018.007.017.007.017.007.018.007.017.007.017.008.017.007.017.007.017.007.017.007.017.006.017.007.016.007.017.007.017.007.016.007.017.007.016.006.016.007.017.007.016.006.016.007.016.007.016.006.016.007.016.007.016.006.016.007.016.004.011 7.096-4.743-4.885-11.82zm-10.708 1.815l-4.754-10.497c-9.605 3.426-25.554 9.666-41.324 17.498-19.721 9.794-55.518 31.857-70.963 41.672l-.622.396-.261-.69c-3.706-9.798-12.805-34.467-19.548-54.758-3.357-10.105-15.955-39.353-30.36-71.85-14.396-32.479-30.577-68.16-41.084-91.103l-.275-.601.625-.216c.851-.294 1.957-.667 3.286-1.104l-1.319-6.279c-2.553.196-5.758 1.131-7.845 3.293-1.116 1.157-1.925 2.675-2.15 4.662-.226 1.996.134 4.499 1.422 7.614 2.2 5.326 6.218 16.722 11.115 30.614v.001a5078.37 5078.37 0 007.834 22.109c8.304 23.216 17.545 48.071 24.618 62.695 11.272 23.309 35.863 80.162 46.978 106.209 12.739-4.951 41.341-17.378 58.317-29.271 10.83-7.587 23.344-14.831 34.015-20.277 5.336-2.723 10.217-5 14.201-6.646 3.961-1.637 7.099-2.679 8.919-2.885a107.91 107.91 0 002.805-.362h.005c.608-.084 1.189-.164 1.758-.234 1.341-.164 2.553-.262 3.632-.155.336.034.661.087.975.165zm11.269-3.602l137.775-88.604c-11.551-16.236-36.684-55.298-47.697-85.898-10.955-30.44-14.686-72.68-15.229-90.882l-11.648 4.814c2.066 21.816 8.054 62.855 19.806 94.866 13.115 35.724 28.765 66.286 34.941 77.086l.276.482-.46.312-120.359 81.547.196.472 2.399 5.805zM14.231 115.358c6.833-2.223 18.405-5.782 31.248-9.142 14.987-3.921 70.6-12.899 103.029-17.91-31.344 2.244-85.3 6.604-102.037 9.858-17.58 3.418-29.738 6.752-34.14 8.148l1.9 9.046zm31.552-7.981c16.103-4.213 79.553-14.33 110.177-19.001 10.414 31.234 32.043 97.033 39.28 122.473 7.343 25.813 18.129 52.589 22.718 62.867-8.338 2.772-27.396 9.855-46.206 19.197-19.524 9.696-54.689 31.34-70.45 41.338-3.855-10.218-12.689-34.213-19.27-54.022-3.382-10.175-16.01-39.49-30.402-71.958-14.274-32.202-30.3-67.55-40.815-90.514 5.546-1.892 19.31-6.284 34.968-10.38zm173.704 166.939l-.246-.764c4.192-8.79 11.223-22.604 18.824-35.836 7.699-13.403 15.941-26.137 22.39-32.482 13.037-12.83 27.858-28.392 33.64-34.57l.365-.39-.345-.408c-8.793-10.413-28.193-39.607-35.307-72.89-4.459-20.861-7.431-40.011-9.052-54.942-.232-2.139-.436-4.19-.613-6.148l.133.162 19.128-15.73c-.431 15.325 2.547 52.058 17.969 87.422 15.474 35.483 29.466 56.046 34.982 62.45-8.776 7.778-22.435 20.329-35.476 33.224-13.251 13.103-25.908 26.602-32.134 35.813-12.122 17.933-23.455 31.973-27.866 37.06l-6.392-1.971zm126.777-79.438L229.248 274.16c5.428-6.548 15.176-19.001 25.491-34.261 6.151-9.1 18.726-22.522 31.984-35.632 13.246-13.097 27.133-25.842 35.874-33.575l.451-.399-.401-.45c-5.097-5.707-19.34-26.275-35.174-62.583-12.256-28.102-16.607-57.086-17.644-75.345l21.324-14.675c1.471 19.666 7.439 65.658 20.36 100.854 12.951 35.275 28.367 65.528 34.751 76.784zM189.101 42.591c23.56-24.93 49.813-37.31 60.9-40.72-.376 1.758-1.154 5.253-2.371 10.397-.494 2.09-.658 5.846-.507 10.898.153 5.074.628 11.511 1.44 18.998 1.626 14.973 4.604 34.164 9.071 55.062 7.076 33.105 26.192 62.153 35.222 73.005-6.014 6.416-20.486 21.595-33.243 34.147-6.581 6.476-14.897 19.349-22.588 32.74-7.37 12.829-14.203 26.2-18.446 35.038-4.807-10.938-15.103-36.743-22.185-61.636-7.354-25.852-29.536-93.278-39.756-123.904.2-.954.78-2.525 1.905-4.742 1.18-2.321 2.941-5.316 5.443-8.994 5.004-7.355 12.96-17.427 25.115-30.289zm14.101 14.88c4.45-3.403 7.923-5.22 9.062-5.69l-.459-1.11c-1.259.521-4.822 2.398-9.332 5.846-4.501 3.441-15.408 12.941-20.288 17.25l.795.9c4.89-4.319 15.762-13.787 20.222-17.196zm31.213 11.122c-6.546 3.394-22.273 12.303-32.832 20.788-10.546 8.475-21.13 21.441-25.1 26.863l-.968-.709c3.997-5.459 14.652-18.52 25.316-27.09 10.652-8.559 26.462-17.511 33.032-20.918l.552 1.066zm-27.094 34.974c10.446-8.625 21.15-14.486 27.662-17.897l-.557-1.063c-6.534 3.422-17.325 9.33-27.869 18.034-10.555 8.715-21.022 22.093-24.939 27.692l.983.688c3.89-5.562 14.286-18.839 24.72-27.454zm33.77-3.109c-6.524 3.384-17.252 9.19-27.769 17.649-10.506 8.449-21.046 21.379-24.999 26.787l-.969-.708c3.981-5.445 14.593-18.47 25.216-27.014 10.612-8.535 21.424-14.385 27.969-17.779l.552 1.065zm-21.439 32.931c10.376-8.791 21.054-14.707 27.554-18.145l-.561-1.061c-6.523 3.451-17.292 9.415-27.768 18.29-10.487 8.885-20.81 22.615-24.663 28.369l.997.668c3.827-5.715 14.078-19.341 24.441-28.121zm36.088 18.366c-7.969 3.293-11.487 5.756-22.184 14.294-10.651 8.501-21.357 21.48-25.376 26.907l-.965-.714c4.047-5.464 14.825-18.537 25.592-27.131 10.72-8.556 14.345-11.106 22.475-14.466l.458 1.11zm-32.416-1.175c9.43-9.643 19.385-16.675 25.457-20.805l-.675-.992c-6.091 4.143-16.125 11.228-25.64 20.958-9.525 9.74-18.504 23.932-21.806 29.812l1.046.588c3.279-5.84 12.199-19.929 21.618-29.561zm40.787 16.292c-6.072 4.13-16.027 11.162-25.457 20.805-9.419 9.632-18.338 23.722-21.618 29.561l-1.046-.588c3.302-5.879 12.281-20.071 21.806-29.812 9.515-9.73 19.549-16.815 25.64-20.958l.675.992zM49.433 145.027l82.055-18.76-.267-1.169-82.055 18.759.267 1.17zm95.586 9.881l-78.547 30.808-.439-1.117 78.548-30.808.438 1.117zm-68.983 53.957l78.402-31.178-.444-1.115-78.401 31.178.443 1.115zm50.246 2.878c-13.921 5.753-31.49 15.892-38.537 20.245l-.63-1.021c7.064-4.364 24.698-14.543 38.709-20.333 14.012-5.79 32.527-10.548 40.033-12.205l.259 1.172c-7.478 1.65-25.915 6.391-39.834 12.142zm-71.19-42.851c9.222-4.109 31.567-13.58 47.21-18.615 15.647-5.036 28.805-7.734 33.407-8.451l-.184-1.185c-4.668.727-17.888 3.439-33.591 8.494-15.707 5.055-38.1 14.549-47.33 18.661l.489 1.096zm82.929 60.584c-14.574 6.814-34.896 19.078-43.239 24.362l-.642-1.014c8.352-5.289 28.726-17.587 43.373-24.435 14.642-6.846 27.308-10.898 31.835-12.073l.302 1.162c-4.453 1.156-17.05 5.182-31.629 11.998zm-33.749 47.326c8.343-5.283 28.664-17.547 43.238-24.362 14.579-6.816 27.176-10.842 31.629-11.998l-.302-1.161c-4.526 1.175-17.193 5.226-31.835 12.072-14.646 6.848-35.021 19.146-43.373 24.436l.643 1.013zm47.359-.431c-13.072 5.931-31.175 16.888-38.597 21.629l-.646-1.011c7.431-4.748 25.593-15.743 38.748-21.711 13.149-5.966 24.614-9.307 28.729-10.237l.264 1.17c-4.032.911-15.42 4.227-28.498 10.16z" fill="#fff"/></svg>