<svg width="196" height="88" viewBox="0 0 196 88" fill="none" xmlns="http://www.w3.org/2000/svg"><path fill-rule="evenodd" clip-rule="evenodd" d="M98.006 20.541v.161c0 .107.002.248.006.418.076 3.737.446 21.923-22.511 21.923-21.078 0-21.605-17.798-21.605-21.521C53.896 17.797 55.622 0 75.501 0c22.58 0 22.516 17.54 22.505 20.541zm-1.65.161c0-7-5.85-13.18-20.855-13.18-13.88 0-19.953 7.297-19.953 14 0 6.702 3.75 14 19.953 14 16.202 0 20.855-7.82 20.855-14.82zM49.76 9.58v26.24h3.781c.196 0 .355.158.355.355v6.513a.355.355 0 01-.355.355H9.681a.355.355 0 01-.354-.355v-6.513c0-.197.159-.355.355-.355h5.368a.344.344 0 00.34-.266c.202-.876.584-2.76 1.085-5.225v-.001a970.29 970.29 0 012.679-12.855C21.404 7.123 31.38.01 41.284.01c3.525 0 8.476 1.23 8.476 9.57zM17.868 35.82h29.491V12.892c0-3.276-1.8-4.393-4.95-4.393-16.129 0-20.538 7.126-21.783 12.41-.685 2.906-1.888 8.66-2.633 12.223l-.473 2.258a.355.355 0 00.348.428zm23.736 51.474h5.695c.3 0 .447-.39.236-.603-1.668-1.683-4.097-5.204-4.097-9.644v-9.571c0-.177.143-.318.32-.318H76.61a.32.32 0 01.32.32v9.57c0 5.138-2.564 8.01-4.301 9.694a.32.32 0 00.222.552h5.69a.32.32 0 00.32-.32V45.741a.32.32 0 00-.32-.32h-5.642c-.293 0-.44.37-.237.58 1.688 1.755 4.268 5.346 4.268 9.373v3.865c0 .093-.04.06-.103.01-.057-.047-.133-.11-.217-.11H43.758a.32.32 0 01-.32-.319v-3.446c0-2.6.948-6.596 4.11-9.338.235-.203.098-.615-.212-.616-.481 0-.99-.002-1.5-.004h-.002c-1.608-.005-3.255-.01-4.237.001a.317.317 0 00-.313.319v41.238c0 .177.143.32.32.32zM0 45.74v41.234c0 .176.143.32.32.32h5.876c.315 0 .45-.422.204-.62-1.723-1.4-4.209-4.314-4.209-10.402V67.45c0-.177.138-.318.314-.318h25.083c2.432 0 4.92.626 2.432 5.197-2.018 3.707-2.46 4.577-3.13 5.895-.155.307-.324.638-.527 1.035-1.077 2.1-3.453 8.035 4.492 8.035h8.194a.32.32 0 00.319-.346c-.1-1.241-.325-2.66-3.463-3.598-4.196-1.253-7.704-2.574-4.771-8.44l.8-1.604v-.003c.956-1.916 1.922-3.855 2.82-5.581 1.047-2.011 3.509-7.925-4.066-7.925h-6.411c-.367 0-.448-.526-.1-.643 2.69-.903 6.52-2.395 9.018-4.517 4.152-3.53 5.003-6.892 5.08-8.897a.308.308 0 00-.311-.318h-11.59c-.305 0-.435.388-.201.584 1.074.9 2.492 2.39 2.492 4.465 0 2.396-2.933 8.662-13.256 8.662H7.241c-3.156 0-5.09-.7-5.09-5.013 0-3.802 2.016-6.636 3.541-8.032.235-.215.084-.666-.234-.666H.32a.32.32 0 00-.32.32zm86.639-.32h-4.724a.348.348 0 00-.356.348V86.95c0 .196.164.343.36.342 10.588-.07 14.549-3.298 19.542-18.89 3.919-12.238 11.185-15.225 14.621-14.962a.33.33 0 01.305.335v25.411c0 3.248-1.884 5.988-3.28 7.43-.233.24-.067.677.267.677h4.738a.348.348 0 00.355-.347v-41.18a.343.343 0 00-.355-.342c-6.342.105-12.642 3.144-17.245 19.854-3.212 11.659-9.755 13.974-16.799 14.047a.349.349 0 01-.355-.349V55.611c0-4.542 1.711-7.831 3.212-9.447.236-.253.06-.742-.286-.742zm72.809 0h4.724c.346 0 .522.49.287.743-1.502 1.616-3.213 4.905-3.213 9.447v23.366c0 .197.16.351.356.35 7.044-.074 13.587-2.389 16.798-14.048 4.603-16.71 10.904-19.749 17.245-19.854a.343.343 0 01.355.342v41.18a.348.348 0 01-.355.347h-4.738c-.333 0-.499-.438-.267-.678 1.396-1.44 3.281-4.181 3.281-7.429V53.785a.331.331 0 00-.306-.335c-3.436-.264-10.701 2.715-14.621 14.953-4.993 15.592-8.954 18.82-19.542 18.89a.347.347 0 01-.359-.342V45.769c0-.196.159-.347.355-.347zm-38.634.356v41.162c0 .196.159.355.355.355h4.719c.33 0 .495-.425.269-.666-1.474-1.577-3.243-4.569-3.243-9.521V53.113c0-.197.154-.35.35-.35h25.456c3.503 0 6.063 1.248 7.363 2.206.256.19.663.01.663-.308v-8.884a.355.355 0 00-.355-.355h-35.222a.355.355 0 00-.355.355zm-22.378-2.734h15.061c.196 0 .357-.16.325-.353-.22-1.33-1.672-3.698-6.271-4.785-5.041-1.192-5.851-5.461-5.626-7.447l2.7-17.533c.101-1.762 1.486-5.287 6.227-5.287 5.607 0 7.424 3.525 8.024 5.287l5.262 14.427-5.175 13.438a1.657 1.657 0 001.546 2.253h9.551a1.657 1.657 0 001.551-2.241l-5.061-13.44 5.392-13.868c.8-1.911 2.516-5.856 7.566-5.856 5.049 0 6.076 3.525 6.301 5.287l2.626 17.533c.79 5.256-3.029 6.574-6.576 7.799-.235.081-.469.162-.701.244-3.391 1.194-4.132 3.18-4.085 4.256.007.168.155.286.323.286h14.677a.356.356 0 00.352-.407l-5.116-34.253-.037-.156C146.587 5.4 145.29.041 139.508.041c-5.177 0-7.189 5.56-8.064 8.34l-6.088 15.808-5.952-15.807c-.129-.338-.252-.67-.373-.995-1.579-4.242-2.735-7.346-8.179-7.346-6.227 0-7.427 6.802-7.952 10.202l-4.815 32.392a.355.355 0 00.35.407zm97.14-32.483v-.034a.483.483 0 00-.404-.16 8.754 8.754 0 01-.177.012c-.177.01-.355.02-.523.062-.788.195-1.579.192-2.369.053l-.094-.017c-.539-.095-1.075-.19-1.623-.141a3.1 3.1 0 00-.77.149c-.574.208-1.067.559-1.533.95-.136.116-.296.204-.454.293l-.109.06c-.028.017-.067.016-.113.014a.835.835 0 00-.075-.001l.013-.036c.021-.058.035-.096.05-.133a5.71 5.71 0 00.419-2.18c-.009-1.083-.359-2.063-.957-2.96-.14-.21-.283-.417-.426-.625-.136-.198-.273-.396-.406-.596a8.439 8.439 0 01-.204-.323 7.455 7.455 0 00-.238-.371c-.145-.212-.179-.217-.383-.051a3.667 3.667 0 00-1.327 2.233c-.175.935-.195 1.88-.134 2.83.036.586.215 1.108.574 1.582.382.487.64 1.06.751 1.669.124.707.006 1.338-.533 1.85a.892.892 0 00-.077.107c.109-.006.218-.006.327 0 .396.045.754-.008 1.009-.36a.63.63 0 01.128-.108c.756-.582 1.582-.994 2.559-1.025.797-.026 1.517.142 2.029.822.02.026.042.05.063.075a.741.741 0 01.086.108c.06.097.133.122.24.086.163-.055.327-.107.491-.16.315-.102.63-.204.941-.316.233-.08.455-.187.664-.318.835-.549 1.478-1.278 1.957-2.156.073-.135.165-.26.257-.385.034-.046.069-.093.102-.14.09-.12.18-.239.269-.36zm-4.756 7.201c.063-.348.125-.696.156-1.046.099-1.13-.508-1.937-1.481-2.382-.685-.313-1.386-.227-2.053.074-.348.157-.684.34-1.02.523-.146.08-.292.16-.44.237-.65.342-1.306.646-2.048.767-.87.141-2.121-.427-2.511-1.27a11.262 11.262 0 00-.548-1.006 22.212 22.212 0 01-.243-.417c.364-.334.409-.382.52-.66.2-.5.242-1.025.227-1.553a.964.964 0 00-.176-.48c-.392-.578-.961-.892-1.635-1.026-.457-.093-.865-.01-1.245.292-.188.15-.413.255-.634.36l-.158.075a.316.316 0 01-.246-.01c-1.414-.754-2.938-1.047-4.521-1.036a16.82 16.82 0 00-2.042.16 9.24 9.24 0 00-3.613 1.236c-1.828 1.1-3.003 2.722-3.739 4.689-.604 1.616-.862 3.298-.918 5.015-.037 1.133-.016 2.266.149 3.388.153 1.03.341 2.052.565 3.067.382 1.733.945 3.408 1.753 4.993.731 1.43 1.641 2.725 2.905 3.744a7.603 7.603 0 002.657 1.401c1.051.308 2.121.384 3.21.28a7.058 7.058 0 003.876-1.583c1.119-.913 1.923-2.072 2.582-3.34.766-1.473 1.315-3.03 1.743-4.628.261-.981.498-1.97.735-2.958l.244-1.016c.269-1.109.261-2.231.144-3.357-.023-.232-.048-.463-.073-.704l-.032-.304.057.011.091.02c.799.239 1.613.387 2.45.35.75-.032 1.462-.217 2.097-.632.174-.114.339-.242.503-.37a8.65 8.65 0 01.196-.152c.498-.38 1.029-.684 1.683-.554.174.035.34.113.508.191.077.037.154.073.233.106-.006.015.009-.01.013-.035.025-.153.052-.307.079-.46zm-24.114-.422a1.29 1.29 0 01-1.072-1.261 3.067 3.067 0 01.551-1.807c.193-.285.486-.511.766-.728l.05-.038c1.022-.79 2.203-1.199 3.465-1.41a11.85 11.85 0 012.733-.122c.517.033 1.032.115 1.547.196.221.035.442.07.663.101.036.01.07.026.103.045-.165.678-.563.957-1.129.857-.896-.157-1.875.49-2.075 1.334-.074.312-.014.529.153.64.088-.07.173-.141.258-.211a8.82 8.82 0 01.586-.458c.232-.16.504-.274.792-.188.163.052.313.139.439.255.398.361.834.644 1.372.734.671.11 1.198-.13 1.384-.823.104-.387.275-.743.568-1.032.08-.08.127-.08.225-.02.538.325.775.865 1.011 1.402l.021.048c.166.37.249.77.244 1.175-.011.696-.445 1.226-1.138 1.297-.392.04-.789.033-1.185.026l-.242-.004a21.335 21.335 0 01-.664-.022c-.362-.015-.723-.03-1.082-.017-.49.02-.971.157-1.24.62a1.94 1.94 0 00-.231.726c-.151 1.28-.229 2.569-.171 3.858.018.388.072.774.127 1.16.03.207.059.414.083.621.053.465.042.923-.369 1.243-.541.421-1.58.341-1.83-.47-.092-.295-.061-.594-.019-.897l.046-.327c.062-.43.124-.859.136-1.288.024-.794.002-1.592-.03-2.387a19.649 19.649 0 00-.146-1.605c-.101-.81-.601-1.157-1.297-1.216-.447-.04-.897-.021-1.35-.004-.114.005-.229.01-.344.013-.135.004-.271.012-.406.02-.434.023-.868.048-1.303-.036zm6.65 9.132c-.166-.035-.221-.178-.099-.293a1.2 1.2 0 01.813-.34c.154-.005.3.144.318.293.017.15-.104.206-.213.24a5.491 5.491 0 01-.425.105l-.171.04-.007-.025a1.794 1.794 0 01-.216-.02zm-2.236-.702c.284.042.548.17.759.364v.002c.049.045.09.147.075.201-.016.054-.108.1-.176.12a.963.963 0 01-.203.029 3.711 3.711 0 00-.12.01 6.13 6.13 0 00-.124-.02 3.629 3.629 0 01-.363-.07c-.126-.034-.276-.076-.243-.262.045-.249.204-.402.395-.374zm10.001-6.426c.134.657.267 1.314.433 1.962l.028.11c.132.512.262 1.017.244 1.557-.035.756-.244 1.47-.57 2.144-.289.612-.61 1.209-.961 1.788-.444.72-.723 1.5-.972 2.298-.104.334-.205.669-.306 1.003a59.2 59.2 0 01-.637 2.027c-.198.6-.448 1.183-.747 1.74-.571 1.033-1.459 1.732-2.546 2.173a6.843 6.843 0 01-3.329.465c-1.654-.174-2.967-.978-3.996-2.266-.566-.709-.954-1.516-1.265-2.359-.228-.62-.447-1.242-.666-1.866-.218-.623-.437-1.246-.665-1.865a20.115 20.115 0 00-.488-1.173 37.23 37.23 0 01-.217-.497c-.422-.984-.692-2-.635-3.08.037-.61.162-1.212.371-1.786.197-.553.244-1.115.213-1.701-.024-.44-.009-.881.005-1.324l.015-.555a.4.4 0 01.026-.09.544.544 0 01.089.05c.239.215.531.296.839.292.321-.005.642-.016.963-.027.435-.015.871-.03 1.306-.029.571 0 1.142.045 1.71.09.88.068 1.408.565 1.684 1.385.277.82.306 1.645.148 2.485-.07.374-.147.746-.224 1.119l-.101.491c-.049.239-.148.439-.375.568-.369.211-.451.583-.486.964-.03.32.032.642.179.929.103.203.256.341.498.38.931.15 1.876.182 2.815.097.089-.008.177-.019.266-.03.145-.016.29-.033.435-.04.358-.018.583-.204.702-.529.185-.506.194-1.01-.075-1.491a.809.809 0 00-.281-.278.733.733 0 01-.359-.505l-.107-.53c-.1-.492-.2-.984-.275-1.48-.155-1.03.009-2.008.572-2.902.188-.3.495-.43.814-.527.558-.17 1.135-.21 1.713-.202.527.006 1.054.023 1.582.04l.789.024c.582.016 1.144-.019 1.467-.633l.038.017.048.207c.038.162.076.325.111.488.062.29.121.581.18.872zm-14.53-12.625c-.035.252-.19.403-.427.463-.528.134-.944-.066-1.282-.464-.561-.657-.487-1.39.208-1.91a2.08 2.08 0 01.635-.331c1.032-.302 1.972-.085 2.804.583.321.26.485.628.552 1.032.149.889.005 1.718-.554 2.447-.315.403-.7.746-1.136 1.014-.435.276-.884.53-1.333.781-.787.44-1.427 1.038-1.966 1.755-.73.979-1.232 2.079-1.687 3.2a16.08 16.08 0 00-.111.278c-.073.183-.145.367-.227.546-.031.07-.115.152-.184.16-.054.007-.157-.08-.176-.144l-.017-.06c-.076-.257-.154-.518-.185-.783-.107-.907-.087-1.813.124-2.705.234-.99.78-1.797 1.549-2.44.405-.34.829-.654 1.253-.967.22-.163.44-.325.657-.491.561-.43 1.121-.865 1.541-1.442a1.77 1.77 0 00.301-.644c.074-.343-.17-.68-.563-.818l.01.031c.026.08.045.139.066.196l.017.045c.082.215.164.432.131.668zm22.37 12.621a1.85 1.85 0 01.444-.189c.185-.055.281-.01.321.18.047.216.094.45.057.66-.051.291-.12.58-.189.867-.057.24-.115.479-.162.72-.063.325-.134.641-.269.947-.19.435-.081.868.063 1.293.127.377.129.748-.036 1.113-.229.508-.65.786-1.167.93-.708.198-1.41.107-2.106-.075-.404-.106-.795-.24-1.123-.513-.441-.368-.66-.861-.75-1.407-.069-.453-.114-.91-.135-1.368a49.29 49.29 0 01-.052-1.337 98.918 98.918 0 00-.017-.543v-.132c.12.024.238.05.353.076.244.053.48.105.719.141 1.057.157 2.04-.064 2.938-.637.171-.108.339-.22.507-.332.2-.134.4-.267.604-.394zm-25.829 10.636c.073.118.146.235.214.356.408.731.65 1.52.775 2.346.128.843.119 1.684-.108 2.513-.235.858-.679 1.58-1.437 2.08-.062.041-.127.076-.172.102.045-.15.094-.3.143-.45.108-.33.216-.661.291-1 .235-1.063.05-2.066-.509-3.003-.197-.329-.496-.468-.85-.488-.237-.013-.476-.01-.715-.007-.153.002-.306.004-.46.002a6.19 6.19 0 01-.769-.04c-.462-.064-.76-.331-.88-.786-.157-.592-.166-1.174.138-1.728.157-.285.383-.508.641-.703l.356-.273.057-.044c.457-.352.633-.804.507-1.376a23.396 23.396 0 01-.181-.95l-.054-.302a.67.67 0 01-.012-.2c.028-.225.217-.309.397-.174.371.28.649.648.91 1.027.534.775.992 1.6 1.365 2.463.096.221.224.428.353.635zm-1.99-18.551l-.217.277c-.664-.357-1.153-.848-1.291-1.628-.188-1.035-.263-2.075-.143-3.124.057-.52.309-.966.583-1.397.099-.155.202-.307.306-.458.163-.237.325-.474.466-.723.251-.44.486-.891.721-1.341.107-.204.213-.408.321-.611.039-.08.084-.158.135-.232.163-.225.348-.222.483.023.087.163.156.333.208.51.3.973.598 1.944.887 2.921.29.977.11 1.901-.33 2.796-.433.883-1.045 1.64-1.661 2.397-.158.193-.311.39-.468.59zm8.222-7.16c-.017.02-.037.04-.059.064-.348-.598-.94-.779-1.549-.964l-.151-.047c.293-.657.666-1.25 1.164-1.762.876-.9 1.947-1.38 3.19-1.529.838-.1 1.6.124 2.343.453 1.021.453 1.896 1.103 2.588 1.986.115.147.22.301.33.462.051.075.103.152.158.23-.678.222-1.261.54-1.611 1.193l-.116-.127c-.081-.088-.161-.177-.246-.26-.745-.729-1.642-1.15-2.665-1.322-.467-.079-.897.067-1.322.212l-.02.007a4.376 4.376 0 00-2.034 1.404zm15.494 32.851a1.28 1.28 0 00.758-.17c.232-.133.449-.035.447.232a2.251 2.251 0 01-.126.718c-.258.708-.679 1.31-1.314 1.74a1.642 1.642 0 01-1.032.295c-1.009-.079-2.016-.425-2.828-1.214-.262-.254-.513-.52-.764-.785a27.277 27.277 0 00-.711-.732c-.176-.173-.398-.305-.615-.43a.495.495 0 00-.5.007c-.121.069-.205.01-.218-.084a.92.92 0 01.033-.435c.207-.516.589-.89 1.038-1.205.191-.126.393-.235.602-.327.413-.192.828-.16 1.202.085.402.263.79.548 1.177.833l.176.13c.153.112.303.23.453.347.252.196.504.393.77.567.433.284.941.38 1.452.428zm-23.172-17.421c.21.042.273.135.244.347-.014.1-.038.198-.071.293a3.355 3.355 0 00-.117 1.8c.053.262.078.53.103.797.011.123.022.247.037.37l.059.492c.047.38.095.76.126 1.141.015.198-.001.397-.017.597l-.017.24a.44.44 0 01-.037.128c-.104.284-.344.355-.565.149a2.101 2.101 0 01-.226-.265 2.496 2.496 0 00-.127-.161l-.113-.136c-.12-.144-.24-.289-.377-.413a.961.961 0 00-.877-.23c-.331.072-.594-.079-.859-.231l-.067-.038c-.686-.389-.973-1.021-1.077-1.764-.019-.135-.03-.271-.041-.407l-.017-.194a3.49 3.49 0 01.225-1.234c.245-.613.367-1.253.477-1.9a4.09 4.09 0 01.215-.715l.013-.036c.054-.147.116-.148.208-.017.107.151.206.307.306.462l.082.127c.188.29.459.492.746.668.1.063.244.08.369.085.19.006.38.006.571.006.141 0 .282-.001.422.002.135 0 .27.012.402.037zm-1.14-1.482a45.75 45.75 0 01-1.783-1.062c-.617-.393-.921-1.035-1.183-1.697-.361-.908-.497-1.856-.508-2.888.028-.653.066-1.368.265-2.063.036-.123.081-.243.135-.36.142-.303.349-.368.642-.195.316.19.554.459.733.773.07.12.128.249.186.377.067.147.134.294.218.43.15.24.314.47.478.701.096.135.192.27.285.406.375.553.715 1.123.853 1.792.085.408.042.812-.028 1.216l-.043.244c-.046.25-.093.5-.102.75-.022.6.19 1.13.562 1.598.036.045.074.089.113.132.043.049.086.097.126.15.016.02.02.05.023.08.002.014.003.027.006.04-.011.002-.023.006-.035.01-.025.008-.051.016-.073.01a.86.86 0 01-.238-.08l-.632-.364zM175.217 5.71a3.306 3.306 0 00-1.228.523 1.887 1.887 0 00-.32.295c-.113.125-.175.281-.096.448.084.18.239.306.437.288a2.24 2.24 0 00.593-.155c.264-.101.314-.093.359.186.047.28.086.561.126.848l.054.375a35.2 35.2 0 01-5.453 0c.014-.092.026-.183.038-.274l.032-.235.028-.208c.022-.175.045-.35.079-.521.049-.255.107-.27.343-.18.179.077.366.132.558.165.21.026.382-.087.48-.275.097-.188.025-.373-.116-.486a5.343 5.343 0 00-.812-.553c-.182-.099-.389-.154-.593-.209l-.105-.029c-.115-.031-.144-.069-.111-.185.131-.458.433-.788.818-1.032 1.206-.766 2.464-.833 3.758-.224.402.19.752.448 1.01.813.083.117.142.254.199.389l.025.06c.039.09.013.15-.103.176zm5.537-.913c-.267-.449-.67-.736-1.157-.897l-.002-.002c-.174-.057-.185-.13-.153-.288.105-.531.184-1.066.126-1.615a3.098 3.098 0 01.095-1.215.264.264 0 01.033-.095l.049-.058c.054-.067.109-.136.179-.163.044-.018.153.086.211.154.06.07.112.149.164.226a2.367 2.367 0 00.887.838c.663.359 1.162.868 1.445 1.578.082.203.175.402.268.6l.113.241c.193.424.289.886.281 1.353-.001.132-.001.265 0 .399.002.647.003 1.295-.187 1.92a5.18 5.18 0 01-.346.798c-.055.11-.11.221-.162.332-.04.088-.085.175-.13.26l-.065.127c-.582-.279-1.885-1.345-2.206-1.808l.076-.08c.053-.055.107-.111.16-.169.645-.707.775-1.673.321-2.436zm4.951 25.422c.054.015.108.03.142.065l-.002-.001c.294.293.468.684.49 1.097a8.21 8.21 0 01-.071 1.32c-.089.785-.227 1.562-.471 2.316a2.555 2.555 0 01-.104.26c-.027.062-.055.124-.079.188-.125.33-.385.442-.712.46-.39.027-.777-.07-1.109-.277-.895-.559-1.616-1.299-2.11-2.233-.317-.6-.155-1.193.122-1.785.534.3 1.122.491 1.73.564.494.06.985.038 1.436-.219.393-.224.601-.563.618-1.011.003-.1-.004-.199-.011-.298-.005-.08-.011-.16-.011-.24.001-.053.021-.105.04-.158a2.11 2.11 0 00.026-.072c.024.01.05.017.076.024zM175.652 6.843c-.013-.471.025-.932.265-1.35.297-.516.766-.799 1.319-.96.689-.198 1.374-.268 2.052.041.28.12.525.307.716.545.347.446.344.991-.012 1.496-.23.325-.522.584-.938.617a1.4 1.4 0 01-.583-.09c-.236-.088-.34-.353-.285-.636.037-.147.082-.291.135-.433l.084-.258c-.36.084-.765.505-.711.769.039.193.132.407.27.542.419.408.865.79 1.314 1.17.13.112.272.21.407.302.066.045.13.09.191.134-.1 0-.203-.002-.306-.004a8.645 8.645 0 00-.719.008c-.47.033-.895.196-1.239.535a.143.143 0 01-.135.022c-.107-.082-.215-.162-.323-.243-.305-.227-.611-.454-.889-.71-.426-.394-.597-.919-.613-1.497zm-15.416 26.306l-.006-.026c.588.116 1.093.33 1.477.771.317.355.482.82.461 1.295-.013.544-.029 1.085-.193 1.61-.209.672-.625 1.136-1.302 1.385-.839.31-1.663.254-2.415-.172-.625-.352-1.072-.91-1.224-1.654a1.327 1.327 0 01.079-.835c.145-.317.342-.339.549-.06.141.188.315.32.545.361a2.1 2.1 0 001.851-.523c.219-.198.258-.478.296-.751l.014-.098c.067-.433-.028-.851-.132-1.303zm23.022-5.644a5.805 5.805 0 00.383-1.7c1.129.954 2.405 1.106 3.809.752l-.042.057c-.015.02-.027.038-.041.054-.383.422-.835.76-1.288 1.099l-.137.102a4.57 4.57 0 00-.583.526.883.883 0 00-.231.63c.005.438-.066.862-.295 1.242-.346.574-.898.804-1.532.871a3.728 3.728 0 01-.718.002c-.258-.023-.386-.191-.399-.456-.02-.392.115-.75.252-1.103.125-.325.255-.648.385-.972.148-.367.295-.734.437-1.104zm-1.754-13.898a.669.669 0 00-.04-.086c-.05-.087-.043-.155.015-.244.609-.964.703-1.996.388-3.073l.007-.013.02-.04c.074.05.15.097.226.146.167.105.334.212.488.335a5.858 5.858 0 011.404 1.57c.18.29.325.601.433.925.181.576-.055 1.05-.459 1.454-.239.24-.54.378-.844.505-.209.086-.413.049-.602-.09-.467-.343-.76-.814-1.006-1.323-.011-.021-.02-.044-.03-.066zm-10.037 28.597c.244-.452.289-.93.233-1.431-.138-1.208-1.327-1.42-2.068-1.01-.436.24-.618.764-.493 1.323.079.356.279.613.646.695.402.09.741-.026.991-.363a.356.356 0 00.035-.095l.06.045c.004.351-.024.698-.248.993a.517.517 0 01-.524.195c-.239-.039-.419-.177-.576-.35a5.304 5.304 0 01-.138-.16 8.448 8.448 0 00-.097-.117l-.051.014v.196c-.002.195-.003.39.006.586.002.042.075.1.126.117.157.056.318.102.482.135a1.524 1.524 0 001.616-.773zm-.925-2.1c.275.268.324.615.327.974h-.002c0 .035-.062.091-.102.103a2.97 2.97 0 01-.329.06c-.455-.01-.775-.299-.789-.728-.008-.224.108-.432.286-.512a.56.56 0 01.609.104zm6.503 2.477c.57-.539.68-1.643.379-2.289h-.003a1.297 1.297 0 00-.307-.412c-.372-.329-.821-.358-1.282-.258-.778.169-1.15 1.192-.674 1.833.351.471 1.096.468 1.458-.006.025-.036.056-.07.114-.14.012.359-.029.655-.164.931a.537.537 0 01-.628.303 1.283 1.283 0 01-.389-.186c-.112-.077-.216-.165-.318-.25l-.131-.11v.142c-.001.18-.001.388.005.595 0 .031.052.073.09.09.54.259 1.324.25 1.85-.243zm-.645-2.491c.208.177.29.42.328.68.059.411.008.463-.422.461-.465-.002-.773-.3-.776-.743-.001-.213.081-.39.274-.482a.522.522 0 01.596.084zm-2.764-.314c.122-.003.18.042.18.165a929.94 929.94 0 00-.001 2.893c0 .114-.055.16-.165.16l-.046-.002a6.3 6.3 0 00-.458.001c-.148.008-.193-.056-.193-.199.003-.327.003-.654.002-.98 0-.386-.001-.77.004-1.156a.517.517 0 00-.166-.416 5.031 5.031 0 01-.268-.289l-.114-.129a.388.388 0 01.013-.028l.008-.02h.7l.168.001c.112.002.224.003.336 0zm-5.814.002c.135.001.135.106.135.206v.72c0 .628 0 1.256-.003 1.885 0 .21.016.312-.026.36-.043.048-.144.044-.378.044-.262-.001-.374.009-.42-.041-.046-.05-.027-.161-.029-.405-.006-.642-.006-1.286 0-1.929a.44.44 0 00-.138-.343 9.986 9.986 0 01-.286-.313 13.31 13.31 0 00-.125-.139l.03-.045h.413c.276-.002.552-.003.827 0zm10.83 1.964c.207-.011.414-.011.621 0 .033 0 .089.064.091.098.008.099.007.199.006.31l-.001.139a1.239 1.239 0 01-.049-.08c-.03-.051-.055-.096-.093-.125a.306.306 0 00-.207-.062c-.036.006-.081.1-.085.157a4.198 4.198 0 00-.005.538c.01.161-.047.23-.209.21a1.786 1.786 0 00-.188 0v-.25c-.001-.275-.002-.546.006-.816a.167.167 0 01.113-.12zm2.011-21.186a1.658 1.658 0 00-.126-.239c-.468-.61-1.086-1.01-1.843-1.087-.712-.07-1.433-.054-2.149-.035-.33.01-.665.092-.985.186a1.087 1.087 0 00-.683.585c-.016.032-.01.074-.003.116a.535.535 0 01.006.068.979.979 0 00.189-.011.244.244 0 00.074-.04.325.325 0 01.057-.033l.349-.124.158-.055c.013.064.01.088-.004.102-.415.387-.576.903-.736 1.416l-.049.157c-.074.231.055.397.299.421.083.005.167 0 .25-.013.044-.005.089-.014.134-.023.048-.01.097-.02.146-.025.241-.026.408.113.571.25l.076.061c.808.648 1.706.71 2.649.392.49-.166.864-.496 1.05-.998.037-.1.081-.227.051-.32a3.485 3.485 0 00-.506-.955 8.07 8.07 0 01-.121-.173.661.661 0 01.13.024c.194.083.387.17.581.257.024.011.049.024.073.037.103.054.209.11.362.06zm-2.223-.438c.134.06.267.122.391.2h.001c.331.214.602.51.788.857.082.146.028.26-.061.367-.25.309-.589.484-.969.564a3.13 3.13 0 01-2.151-.29c-.277-.144-.548-.242-.865-.184-.144.026-.245-.086-.179-.191l.089-.145c.272-.443.544-.887 1.062-1.103.063-.026.128-.048.193-.07l.094-.034a1.72 1.72 0 00-.204.874c.018.362.139.68.485.841.376.175.765.22 1.133-.034.327-.228.464-.801.282-1.22-.035-.08-.079-.156-.123-.235a2.774 2.774 0 01-.147-.282c.06.03.121.057.181.085zm-9.422 1.907c.05-.036.099-.073.149-.108h.001c.17-.122.338-.18.546-.128.136.031.276.04.415.027.225-.021.333-.194.262-.41l-.044-.132c-.159-.489-.318-.978-.703-1.353-.003-.004-.002-.01-.001-.021l.001-.024a.451.451 0 01.129.015c.066.029.131.06.196.09.086.04.172.082.26.117.038.015.082.015.125.016.02 0 .04 0 .059.002l.004-.06c.004-.044.009-.09-.007-.126a.756.756 0 00-.14-.206 1.247 1.247 0 00-.718-.402 8.128 8.128 0 00-2.877-.05 2.455 2.455 0 00-1.594.983c-.048.076-.09.156-.126.238l.045.053.967-.43.032.053a.99.99 0 00-.071.105 7.458 7.458 0 01-.111.173c-.092.145-.185.289-.266.44-.1.184-.162.39-.055.593l.014.025c.087.164.176.332.297.469.624.705 1.833.785 2.591.447.22-.1.421-.248.62-.396zm-.172-.345a1.18 1.18 0 00-.074.032h.002c-.765.33-1.548.412-2.319.018-.16-.084-.294-.224-.423-.359l-.053-.054a.27.27 0 01-.041-.227c.133-.39.672-.904 1.095-1.054-.025.05-.051.1-.077.147-.054.1-.105.195-.139.296-.247.732.278 1.349 1.041 1.231.77-.118 1.117-.881.705-1.55a6.2 6.2 0 00-.077-.121l-.001-.001.026-.048.159.059c.127.045.255.09.361.165a3.076 3.076 0 01.846.957.287.287 0 01.03.212c-.02.049-.118.097-.175.09-.325-.038-.601.082-.886.207zm4.167 8.389c.56-.09 1.067-.02 1.55.269h.004c.471.281.541.944.103 1.219-.135.086-.327.114-.494.118-.427.01-.854.008-1.281.007l-.486-.001h-1.717a2.252 2.252 0 01-.301-.026c-.292-.04-.483-.218-.554-.51-.069-.277.024-.52.259-.693.538-.398 1.126-.49 1.784-.373.376.06.759.056 1.133-.01zm-.03-1.719c.308-.265.65-.22.981-.096h.004c.726.272 1.274.775 1.716 1.4.088.124.012.2-.073.266-.163.124-.354.107-.53.052a1.79 1.79 0 01-.349-.167l-.085-.047a4.697 4.697 0 01-.314-.197 1.145 1.145 0 00-1.084-.14c-.24.084-.499.162-.749.162-.302 0-.601-.048-.887-.145-.454-.157-.853-.1-1.238.169-.153.104-.311.2-.473.288-.215.119-.443.16-.674.045-.172-.085-.198-.174-.085-.327.498-.674 1.099-1.206 1.935-1.419a.534.534 0 01.098-.02c.038-.002.075-.001.112 0h.05c.205-.027.363.055.511.18a.864.864 0 001.134-.004zm-1.294 4.01c.502-.075 1.004-.085 1.498.06h.004c.371.108.664.374.737.682-1.076-.337-2.148-.385-3.219-.018l-.042-.029c.029-.038.057-.078.085-.118.057-.082.115-.164.184-.233.207-.204.473-.302.753-.344z" fill="#427E66"/></svg>