<svg width="1138" height="563" viewBox="0 0 1138 563" fill="none" xmlns="http://www.w3.org/2000/svg"><path fill-rule="evenodd" clip-rule="evenodd" d="M453.449 4.03c-10.056 3.99-19.93 6.863-37.5 10.908-18.606 4.283-33.982 10.54-46.129 18.775-6.59 4.467-11.871 9.269-11.871 10.795 0 .303-1.768 4.237-3.93 8.742-5.039 10.502-6.511 18.222-5.788 30.344.657 11.014 3.044 16.825 10.335 25.159l4.399 5.029-4.758 3.631c-2.617 1.997-7.338 5.427-10.491 7.622-7.739 5.388-10.583 10.44-11.551 20.516-.977 10.173.172 28.718 2.109 34.031l1.509 4.141-5.167 3.568c-2.842 1.963-8.278 6.71-12.081 10.55l-6.915 6.981-2.997-1.55c-1.649-.852-5.552-1.782-8.673-2.065-6.523-.591-10.476.881-16.723 6.228-2.163 1.852-6.689 4.982-10.057 6.956-3.367 1.973-10.872 7.197-16.676 11.608-15.041 11.431-22.926 15.112-68.176 31.829-18.604 6.872-26.369 10.565-26.369 12.541 0 1.684 5.6 6.572 7.53 6.572 4.414 0 6.501 2.375 8.978 10.216 2.572 8.14 3.08 11.265 1.692 10.408-.44-.272-.8.987-.8 2.798 0 2.726-1.023 4.257-5.95 8.899-5.496 5.178-6.316 5.609-10.745 5.643-3.763.028-5.339.579-7.317 2.557-4.029 4.029-2.92 6.31 5.826 11.979 4.242 2.75 7.73 5.287 7.75 5.639.02.351-1.521.931-3.424 1.288-6.612 1.24-35.282 16.942-44.29 24.256-7.154 5.809-6.315 6.317 10.439 6.317h14.688l-2.154 2.007c-2.346 2.185-2.002 4.938.634 5.084.904.05-.832.875-3.857 1.834-12.036 3.812-13.416 5.442-10.505 12.409l1.495 3.578 7.12.294 7.12.294 1.518 3.816c1.286 3.231 1.314 4.2.182 6.315-1.113 2.079-1.114 2.637-.007 3.321 1.081.668 1.107 1.736.139 5.685-.656 2.675-1.95 6.263-2.877 7.975l-1.685 3.111-13.999-4.361c-7.699-2.399-15.349-4.355-17-4.346-3.2.018-4.919.926-20.485 10.825-16.368 10.409-23.819 13.604-42.016 18.015-22.809 5.53-41.982 9.144-48.507 9.144-5.821 0-7.345 1.349-2.743 2.428 8.604 2.017 29.25 8.161 29.25 8.705 0 .352-2.137.949-4.75 1.326-7.032 1.016-14.927 3.447-16.209 4.991-1.144 1.379 5.976 4.215 25.423 10.125 3.829 1.164 6.529 2.337 6 2.607-.53.269-.289.309.536.088 2.299-.618 22.992 5.934 22.297 7.059-.333.539-.114.676.487.304 1.427-.881 13.302 2.419 12.628 3.509-.284.46.07.613.786.342 1.82-.689 11.015 2.952 10.073 3.989-.424.466-.229.537.433.157 1.435-.824 6.296.246 6.296 1.385 0 .439-1.013.606-2.25.371-2.077-.394-2.097-.357-.25.48 1.163.527 2.397.536 2.95.02 1.375-1.283 2.793-1.089 1.955.269-.444.717-.275.882.447.437 1.355-.838 21.241 5.449 20.586 6.508-.242.392.53.46 1.717.149 1.607-.42 1.951-.229 1.347.748-.509.823-.419 1.07.241.662 1.593-.985 7.325.423 6.586 1.617-.361.585-.153.733.48.342.616-.38 3.948.043 7.405.941 3.457.898 8.406 1.97 10.998 2.382 4.32.686 4.932.518 7.361-2.017 1.621-1.692 3.418-2.618 4.628-2.385 1.614.31 1.759.118.792-1.047-.962-1.16.182-2.921 6.106-9.398 4.01-4.384 7.723-7.704 8.251-7.378.527.326.675.134.328-.428-.347-.561.259-1.826 1.346-2.809 1.087-.984 1.976-1.439 1.976-1.012 0 .428.604.277 1.342-.336.738-.612 1.638-.893 2-.622.362.27.437.195.167-.167-.271-.362.01-1.262.622-2 .613-.738.779-1.342.369-1.342-.41 0-.189-.67.491-1.489.68-.819 1.704-1.199 2.277-.845.572.353.757.184.411-.376-.827-1.339 11.979-13.62 13.331-12.784.572.353.916.047.765-.682-.151-.728.321-1.2 1.049-1.049.729.151 1.071-.136.761-.637-.744-1.205 1.865-3.333 2.917-2.379.45.407.543.257.206-.336-.336-.592 2.249-3.911 5.745-7.377l6.357-6.3 5.345.654c11.873 1.452 54.862 3.124 78.845 3.066 27.903-.067 36.214-1.179 44.832-5.996 5.249-2.933 5.862-3.043 4.04-.72-1.242 1.584-1.207 1.62.367.387.956-.75 1.524-1.712 1.261-2.137-.566-.916 1.95-3.216 2.7-2.467.283.283 1.142-.283 1.907-1.259 1.293-1.647 1.254-1.667-.544-.274-1.792 1.388-1.878 1.35-1.148-.5.434-1.1 1.262-3.307 1.839-4.903.974-2.696 1.143-2.775 2.365-1.103.724.99 1.037 2.254.694 2.808-.342.554-.151.716.424.361 1.101-.681 8.263 6.592 8.263 8.391 0 1.995 7.196 4.041 17.327 4.926 29.902 2.614 144.499 1.898 159.769-.998 5.439-1.032 5.333-.953 20.125-14.955 7.505-7.104 7.746-7.242 8.61-4.918 1.792 4.824 3.358 12.957 2.783 14.455-.325.847-.196 1.296.286.998.908-.562 2.549 7.498 3.651 17.938.669 6.336 3.71 14.642 6.081 16.61.785.651 1.185 2.111.9 3.281-.283 1.16-.262 1.566.046.903.365-.788 2.416.307 5.919 3.16 2.948 2.401 6.298 4.664 7.446 5.028 1.154.366 1.787 1.146 1.417 1.745-.368.595-.219.804.33.465.55-.34 3.432.318 6.405 1.463 6.221 2.394 20.821 4.828 29.029 4.838 3.094.004 7.551-.673 9.906-1.504 2.355-.831 4.464-1.328 4.686-1.106.519.519 2.566 13.284 2.69 16.772.052 1.459.366 2.486.698 2.281.332-.205 1.144.813 1.805 2.264.994 2.181.968 2.478-.151 1.718-.744-.505-.563-.186.402.708.965.894 1.437 1.979 1.047 2.41-.389.432-.175.48.475.108 1.395-.8 4.516 3.227 3.622 4.673-.343.555-.107.679.536.282.631-.39 2.613.406 4.404 1.771 4.757 3.624 16.929 7.314 27.429 8.316 5.046.481 8.957.524 8.691.094-.265-.429-.005-.78.577-.78.617 0 1.059 2.296 1.059 5.5s.442 5.5 1.059 5.5c.582 0 .82.387.527.861-.67 1.085 4.691.075 14.672-2.764 4.266-1.213 8.273-1.887 8.904-1.497.67.414.875.27.495-.346-.804-1.302 8.727-3.753 10.45-2.688.728.45.941.321.54-.328-.652-1.055 10.54-3.952 23.853-6.174 10.097-1.685 34.736-3.933 61-5.565 13.75-.854 30.406-1.999 37.014-2.544 11.336-.935 12.946-.823 28.5 1.99 9.067 1.639 25.344 4.795 36.17 7.012 22.102 4.527 45.843 11.727 43.661 13.241-.941.653-.698.752.811.33 1.192-.334 6.553.704 12 2.321 22.785 6.769 61.405 12.005 65.365 8.861 3.21-2.548 8.97-10.519 12.98-17.964 2.3-4.265 4.58-7.504 5.08-7.198.49.306.64-.119.32-.944s.13-2.761 1-4.302c.87-1.541 3.99-7.977 6.94-14.302 2.95-6.325 6.89-13.976 8.76-17.001 6.26-10.128 15.06-22.015 15.92-21.488.46.287 1.17-.005 1.56-.649.48-.774.29-.902-.56-.377-.86.532-1.11.336-.78-.596.28-.764 1.05-1.265 1.71-1.114.66.151.91-.187.56-.75-.34-.564-.15-1.025.43-1.025s.95-.38.81-.844c-.33-1.11 9.22-14.156 10.37-14.156.48 0 .77-.357.63-.793-.14-.435 3.8-6.074 8.75-12.529 12.31-16.059 12.5-16.409 10-18.302-1.47-1.112-3.34-1.349-7.06-.896-4.84.589-5.24.447-9.63-3.412-8.5-7.488-11.06-17.302-6.31-24.283 2.82-4.149 3.14-5.785 1.12-5.785-2.07 0-8.86 2.976-11.06 4.85-4.55 3.871 2.59-4.702 12.3-14.772 5.52-5.732 9.78-10.857 9.45-11.388-.82-1.316-17.11-.102-18.93 1.411-3.75 3.11-1.53-.444 5.19-8.325 9.97-11.681 9.89-12.167-1.82-11.318-14 1.015-20.87 2.421-25 5.122-2.06 1.347-3.75 2.198-3.75 1.891 0-.94 7.88-11.365 18.19-24.062 5.39-6.649 9.81-12.902 9.81-13.893 0-1.64-.71-1.744-7.83-1.151-18.01 1.502-51.88 8.705-73.51 15.633-24.66 7.899-51.212 21.109-70.801 35.219-3.652 2.631-6.965 4.783-7.364 4.783-.398 0-3.261-2.186-6.36-4.859-5.886-5.074-16.453-11.45-24.136-14.562-26.707-10.818-61.421-18.579-83.099-18.579h-11.901l-.005-5.25c-.005-6.117-5.384-50.328-10.493-86.25-1.955-13.75-3.981-29.673-4.502-35.384-1.403-15.397-3.896-17.705-14-12.958-3.724 1.75-6.74 2.163-17.5 2.394-7.183.155-18.057 1.169-24.301 2.268-10.618 1.867-11.534 1.888-15.151.344l-3.849-1.644-.378-6.687c-.587-10.377-5.065-13.265-14.475-9.333-1.975.825-3.818 1.5-4.097 1.5-.279 0-.197-3.154.183-7.008.923-9.364.025-9.625-12.076-3.497l-9.447 4.784-10.761-.51c-5.918-.281-11.635-.987-12.704-1.569-1.069-.582-5.207-2.072-9.194-3.312l-7.25-2.253v-3.817c0-3.501-.228-3.817-2.75-3.806-5.078.022-13.679 2.903-23.5 7.872l-9.75 4.933v-3.949c0-5.033 2.905-9.031 9.479-13.043 2.761-1.685 5.175-3.201 5.362-3.369.188-.168.044-1.244-.321-2.392-.692-2.182-5.989-5.511-7.39-4.644-1.101.68-4.753-4.413-7.693-10.728-1.88-4.038-2.42-6.87-2.427-12.742-.006-4.692.46-8.02 1.232-8.792.988-.988.982-1.402-.034-2.03-1.706-1.054-.546-4.046 2.697-6.958 1.748-1.57 2.024-2.151.845-1.782-2.273.713-2.202-.126.369-4.388 6.587-10.917 12.204-17.134 18.228-20.175 10.716-5.41 13.653-7.623 13.653-10.288 0-1.341-.587-2.797-1.304-3.237-.718-.44-1.28-2.375-1.25-4.3.049-3.18-.183-3.476-2.541-3.236-1.427.144-5.29 1.319-8.583 2.61l-5.989 2.347-2.666-4.216c-4.42-6.986-3.51-19.208 2.87-38.547 1.998-6.056 3.099-7.902 5.584-9.371 3.165-1.87 8.493-11.785 7.337-13.655-.879-1.422-4.856-1.125-13.291.993-15.478 3.886-22.91 4.554-48.804 4.387-24.947-.16-40.459-1.157-91.29-5.864-14.535-1.347-26.91-2.421-27.5-2.388-.59.033-5.573 1.846-11.073 4.029zm55.5 3.92c36.835 4.377 49.965 5.25 79 5.262 19.038.006 28.687-.402 34.268-1.45 4.273-.801 7.423-1.132 7-.734-.422.398-5.718 3.95-11.768 7.895-12.756 8.315-33.678 18.854-44.563 22.446-16.342 5.393-13.25 5.459-123.937-2.62-9.625-.703-30.395-1.284-46.155-1.293-15.76-.008-28.135-.366-27.5-.795.635-.43 6.39-3.42 12.789-6.645 10.402-5.245 16.876-7.721 26.366-10.086 1.65-.411 13.575-3.712 26.5-7.335 12.925-3.624 25.3-7.024 27.5-7.555 4.773-1.154 8.593-.88 40.5 2.91zm126.983 5.37c-1.916 1.858-7.42 5.495-12.233 8.08-9.631 5.177-12.085 5.614-3.127.559 3.092-1.746 8.357-5.163 11.7-7.596 7.275-5.294 8.361-5.603 3.66-1.043zm-7.955 12.37c-2.057 4.31-5.028 16.757-5.028 21.068 0 2.564-.428 2.99-3.499 3.489-3.929.638-16.501 6.543-16.501 7.75 0 .77 14.986-3.468 18.109-5.123 1.379-.731 1.699.104 2.234 5.84.403 4.317 1.33 7.646 2.611 9.379l1.986 2.686-15.22 8.49c-16.203 9.04-52.369 26.357-53.235 25.49-.798-.798-5.313-20.287-4.868-21.008.276-.445 1.096-.81 1.823-.81 1.969 0 29.907-13.986 29.251-14.642-.905-.905-15.608 4.33-23.99 8.54-6.804 3.419-7.701 3.652-7.701 2.003 0-2.294 6.492-5.72 17-8.973 4.125-1.276 7.95-2.74 8.5-3.252 1.838-1.712-10.311.269-16.751 2.73-10.643 4.07-10.33 3.975-9.249 2.813 1.672-1.797 20.401-8.398 21.646-7.63.654.406.896.287.551-.27-.336-.544 1.057-1.827 3.096-2.851 3.548-1.782 3.6-1.88 1.207-2.268-3.315-.538-12.093 1.456-19.418 4.41-3.255 1.313-6.042 2.263-6.193 2.113-.15-.151.326-2.738 1.058-5.75.733-3.01 1.382-5.157 1.442-4.771.061.386 2.213.07 4.782-.703 2.569-.773 5.044-1.175 5.5-.893.456.28.829-.017.829-.664 0-.683.838-.956 2.001-.652 1.101.288 1.788.178 1.527-.245-.529-.856 12.261-6.624 14.211-6.408.682.075 1.032-.2.778-.61-.632-1.023 7.51-4.128 8.775-3.346.56.345.764.219.455-.282-.759-1.228 21.016-12.664 22.439-11.784.632.39.847.248.492-.327-.448-.725 8.913-6.915 10.981-7.261.088-.015-.646 1.66-1.631 3.723zm-21.356 4.7c-1.006.762-10.602 5.81-21.325 11.219L565.8 51.44l-23.757.335c-21.432.303-25.464.083-41.176-2.244-19.271-2.854-37.333-4.212-67.418-5.068-11-.314-27.521-1.073-36.713-1.687-18.575-1.241-22.305-.732-29.216 3.983-2.161 1.475-5.874 5.523-8.25 8.995-2.377 3.473-4.321 6.032-4.321 5.687 0-2.063 6.117-12.541 9.507-16.286l4.007-4.426 23.493.128c30.151.163 69.332 2.315 130.993 7.194 14.575 1.153 28.917 1.852 31.871 1.552 8.153-.825 23.928-6.412 39.043-13.828 14.355-7.043 15.684-7.604 12.758-5.386zm-216.26 15.8c-.488.866-.367.943.394.248.736-.671 6.986-.601 18.897.21 9.788.668 28.986 1.662 42.662 2.209 25.551 1.023 27.134 1.156 44.107 3.7 9.023 1.354 54.144 3.593 55.654 2.763.345-.19.027 1.336-.706 3.389-.733 2.052-1.352 5.195-1.376 6.982-.024 1.787-.422 3.25-.883 3.25-.462 0-1.343 1.103-1.957 2.452-.899 1.973-.853 2.35.233 1.934 1.028-.395 1.554 1.462 2.206 7.798l.857 8.316-13.5.26c-7.425.144-14.175.512-15 .818-3.516 1.305 2.037 2.26 15.006 2.585l13.494.337 1.659 6.5c.986 3.86 1.295 6.881.762 7.438-1.388 1.451-39.922 1.966-53.921.722-19.245-1.711-64.779-2.38-79-1.161-22.828 1.958-36.247 2.312-40.78 1.075-2.354-.642-4.086-1.484-3.848-1.871.238-.387-.873-.797-2.469-.913-3.607-.26-3.793 1.421-.303 2.748 5.28 2.007 27.908 3.198 48.4 2.547 30.796-.978 58.116-.814 92.237.555 28.49 1.143 31.141 1.106 36.259-.507 6.627-2.089 9.298-1.16 4.4 1.53-3.265 1.793-6.704 1.841-88.896 1.252-56.972-.409-86.964-.272-89.889.411-4.28.999-4.49.929-8.5-2.819-2.261-2.114-5.316-4.788-6.79-5.942-3.606-2.825-6.821-8.213-6.821-11.433 0-3.4 1.59-3.402 2.443-.004 1.109 4.42 7.297 13.186 10.464 14.824 1.647.851 4.022 1.548 5.279 1.548 2.161 0 2.123-.116-.7-2.126-4.127-2.939-16.398-18.792-12.847-16.597 1.576.974 35.379-1.44 34.736-2.48-.298-.481-8.704-.82-18.68-.75-17.512.12-18.171.053-19.074-1.97-.514-1.153-.658-2.373-.32-2.712.339-.338 10.197-1.246 21.907-2.017 30.555-2.012 31.419-3.305 2.041-3.055-17.179.147-24.251-.116-24.25-.9.001-.72 4.442-1.302 12.751-1.67 18.793-.833 48.551-3.915 47.041-4.873-2.011-1.276-19.489-.984-39.701.663-10.125.826-18.535 1.375-18.689 1.22-.62-.618 4.631-12.186 6.199-13.656 1.171-1.098 1.44-1.15.886-.172-.52.918-.411 1.166.316.717.611-.377.88-1.286.599-2.02-.778-2.026 8.287-9.44 13.508-11.048 6.004-1.85 14.484-2.041 13.503-.304zm-9.971 1.219c-1.067.808-1.491 1.468-.941 1.468.55 0 1.874-.66 2.941-1.468 1.068-.807 1.491-1.468.941-1.468-.55 0-1.873.66-2.941 1.468zm-7.699 4.617c-.967.563-2.274.704-2.904.315-.76-.47-.871-.263-.328.615.591.957.365 1.15-.814.699-.898-.345-1.874-.236-2.169.242-.295.478.482.757 1.728.62 2.337-.256 6.745-2.29 6.745-3.111 0-.628-.218-.568-2.258.62zm202.071-.402c.721.289 1.584.253 1.916-.08.332-.331-.258-.567-1.312-.524-1.165.048-1.402.285-.604.604zm-30.48 12.773c0 .8.383 1.22.85.93.467-.288.591-.943.274-1.455-.808-1.308-1.124-1.161-1.124.525zm100.1 3.44c-1.057.979-19.349 9.132-20.309 9.053-.343-.028 4.101-2.457 9.876-5.397 9.459-4.816 13.047-6.073 10.433-3.655zm-100.869 6.397c.376.986.935 1.54 1.243 1.233.308-.307.001-1.114-.683-1.793-.988-.98-1.102-.865-.56.56zm19.436-.293c-.825.533-1.05.969-.5.969s1.675-.436 2.5-.97c.825-.532 1.05-.968.5-.968s-1.675.436-2.5.969zm83 1.499c0 .616-26.125 13.315-35 17.012-16.637 6.93-33.373 13.45-33.697 13.126-.435-.436 24.946-13.597 36.697-19.028 7.268-3.36 28.964-11.38 31.25-11.552.413-.032.75.167.75.442zM353.331 87.493c.341.89.173 1.29-.393.94-.544-.335-.989-1.033-.989-1.551 0-1.438.717-1.121 1.382.61zm269.135 6.698c-2.001 2.338-5.074 7.264-6.828 10.949-1.877 3.942-4.012 6.977-5.189 7.374-10.07 3.401-51.325 22.272-48.923 22.379 2.395.107 38.107-13.743 46.761-18.135l3.838-1.948-.72 2.316c-.396 1.273-1.145 2.476-1.664 2.674-6.52 2.477-38.784 20.27-38.789 21.391-.006 1.448 1.975.676 20.842-8.126l19.026-8.877-.023 3.627c-.012 1.994.479 6.687 1.092 10.427 1.121 6.839.873 8.699-1.158 8.699-2.233 0-24.266 15.476-22.514 15.813 2.519.485 11.997-4.113 19.469-9.445l6.482-4.626 2.296 2.879c2.185 2.741 2.425 5.078.391 3.821-.525-.325-.832-.166-.681.352.559 1.92-11.121 10.246-24.225 17.269-7.425 3.979-14.062 7.243-14.75 7.252-.687.01-1.052.217-.809.459.413.414-9.109 7.226-10.101 7.226-.252 0-.199-.419.117-.931a1.096 1.096 0 00-.353-1.505c-.511-.315-.807.216-.66 1.181.297 1.936-4.241 5.499-5.786 4.544-.532-.329-.676-.128-.321.447.789 1.277-3.998 4.591-5.39 3.731-.548-.339-.873-.03-.722.685.151.715-.678 1.447-1.843 1.627-1.746.268-2.069-.125-1.838-2.232.179-1.632-.111-2.315-.801-1.888-.695.429-.847.053-.424-1.047.362-.944.263-1.471-.221-1.173-.823.509-2.948-3.157-4.92-8.487-.735-1.987-.407-2.572 2.23-3.984 6.711-3.594 32.167-18.263 33.366-19.228.701-.564 1.068-1.232.815-1.484-.613-.614-30.506 15.14-35.625 18.775-2.318 1.646-2.546 1.658-2.664.135-.07-.917-.606-3.466-1.19-5.666-1.748-6.582-1.041-22.194.949-20.964.441.273 1.128-.03 1.526-.674.452-.731.291-.903-.43-.457-2.771 1.712.595-11.349 6.095-23.655 2.437-5.451 3.453-6.75 5.277-6.75 1.242 0 2.529-.704 2.859-1.563.33-.86 1.053-1.284 1.607-.941.554.342 1.007.221 1.007-.269 0-1.091 7.003-3.343 8.165-2.625.459.284.835.13.835-.342 0-.472 1.688-1.462 3.75-2.2a622.953 622.953 0 005.164-1.871c.828-.31 1.143-.091.761.527-.359.581.287 1.302 1.435 1.603 1.148.3 1.825.283 1.504-.038-.32-.321.198-1.215 1.152-1.987 1.556-1.26 1.503-1.292-.516-.314-1.366.662-2.25.71-2.25.123 0-.533 1.013-1.271 2.25-1.64 5.035-1.504 28.775-10.531 36.25-13.784 4.4-1.915 8.148-3.526 8.328-3.581.18-.054-1.31 1.814-3.311 4.152zm-27.6-2.862c-1.808 1.68-34.917 17.384-34.917 16.56 0-.584 3.263-2.491 7.25-4.237s11.525-5.288 16.75-7.872c8.305-4.107 12.297-5.735 10.917-4.451zm-230.314 6.445c-.283.459.12.834.897.834s1.18-.375.897-.834c-.283-.458-.687-.833-.897-.833-.21 0-.614.375-.897.833zm242.904 2.156c-.35.566.051.734.941.393 1.732-.665 2.049-1.382.611-1.382-.518 0-1.216.445-1.552.989zm-239.507 17.01c-.589 1.1-1.617 1.993-2.285 1.985-.833-.011-.781-.29.163-.889.758-.48 1.069-1.373.691-1.984-.394-.638-.008-1.112.907-1.112 1.284 0 1.386.389.524 2zm147.68 2.5c29.426 0 33.026.17 31.828 1.5-.743.825-2.554 3.525-4.025 6-1.471 2.475-2.383 3.614-2.026 2.53.357-1.083.301-1.622-.123-1.197-.425.425-.843 2.211-.93 3.97-.225 4.573-2.093 8.697-3.938 8.697-.871 0-1.37-.346-1.109-.768.528-.855-1.889-.749-21.144.924-7.308.635-13.494 1.49-13.748 1.901-.704 1.138 21.732 2.281 29.593 1.506 6.013-.593 6.942-.467 6.942.935 0 .891-.337 1.414-.75 1.161-.413-.252-.9 2.984-1.084 7.191-.183 4.208-.408 7.717-.5 7.8-.091.082-7.591.671-16.666 1.309-16.124 1.132-28.793 2.554-32.199 3.614-.934.291-1.47 1.127-1.19 1.857.382.993 1.436 1.113 4.199.474 2.03-.468 13.131-1.285 24.67-1.815 15.992-.735 21.159-.681 21.734.224 1.112 1.748.958 7.912-.179 7.208-1.241-.766-20.205 1.113-30.395 3.013-4.324.807-8.036 1.466-8.25 1.466-.215 0-.39.45-.39 1 0 1.169 27.678 1.256 35.696.113l5.196-.741 1.588 4.855c.873 2.67 1.278 5.356.899 5.968-.378.613-.269.855.243.538.513-.316 1.648.672 2.522 2.196l1.591 2.771-14.118.689c-7.764.38-16.367 1.123-19.117 1.653-20.03 3.86-90.09 1.133-118.244-4.602-17.839-3.634-33.917-10.254-39.693-16.344l-2.937-3.096 27.937-.099c27.043-.096 27.793-.151 23.437-1.727-3.693-1.335-8.938-1.631-29.239-1.651-20.209-.019-24.837-.278-25.274-1.416-.294-.766-.283-1.645.025-1.952 1.172-1.173 14.684-2.054 32.238-2.104 10.038-.028 18.25-.435 18.25-.904 0-1.965-38.757-2.978-47.698-1.247-4.62.894-5.302.272-5.302-4.841 0-2.775.005-2.777 10.036-3.918 5.52-.627 17.22-1.141 26-1.141 13.432 0 15.964-.235 15.964-1.481 0-1.67-1.919-2.218-10.404-2.97-6.738-.598-33.464 1.08-38.346 2.407-2.464.669-3.25.566-3.25-.43 0-2.589 1.727-2.757 41-3.991 8.525-.268 16.85-.874 18.5-1.348 2.973-.854 2.978-.869.613-1.635-3.026-.981-56.081-.313-55.458.698.255.413-.464.75-1.596.75-2.437 0-2.541-.91-.628-5.49 1.718-4.111 10.196-12.858 11.614-11.982.552.341.881.025.73-.704-.166-.801.456-1.199 1.575-1.007 1.039.178 1.58-.122 1.233-.683-.34-.55 1.237-2.106 3.505-3.459 3.719-2.217 5.311-2.474 16.233-2.615 6.66-.086 12.35-.419 12.644-.739.294-.32 20.335-.186 44.535.298 24.2.485 58.931.881 77.18.881zm43.653 10c0 .72.6 1.079 1.334.798.733-.282 1.333-.641 1.333-.798 0-.157-.6-.516-1.333-.798-.734-.281-1.334.078-1.334.798zm-202.843.516c-.346.559-1.117.715-1.714.346-.663-.41-.796-.203-.341.532.521.845 1.116.893 1.996.163.689-.572 1.621-.706 2.071-.298.45.407.495.179.099-.509-.872-1.516-1.29-1.562-2.111-.234zm.063 2.899a1.116 1.116 0 00.362 1.532c.521.322 1.21.159 1.532-.362a1.116 1.116 0 00-.362-1.532 1.116 1.116 0 00-1.532.362zm189.947.085c.34.55.816 1 1.059 1s.441-.45.441-1-.477-1-1.059-1-.781.45-.441 1zm-28 22.63c-1.1.196-10.272 1.004-20.382 1.795-17.276 1.353-21.861 2.387-19.568 4.415.522.463 10.41.294 21.973-.373 27.582-1.593 33.477-2.48 33.477-5.034 0-1.116-1.494-1.403-6.75-1.297-3.712.075-7.65.297-8.75.494zm100 7.548c-36.427 23.418-64.172 39.55-65.587 38.135-1.046-1.046 6.864-5.942 45.587-28.215 26.541-15.266 34.315-19.122 20-9.92zm-18.887 4.005c.289.467.944.591 1.456.274 1.308-.808 1.161-1.124-.525-1.124-.801 0-1.22.383-.931.85zM349.82 180.069c8.606 7.594 23.739 13.736 43.856 17.799 10.176 2.055 34.324 4.959 43.48 5.229 2.911.086-2.132.504-11.207.929-14.637.686-18.589.496-35-1.682-10.175-1.35-20.075-2.954-22-3.565-13.578-4.31-24.013-13.928-26.406-24.338-.379-1.65-.904-3.9-1.166-5-.263-1.1.488-.078 1.669 2.272 1.18 2.349 4.228 6.109 6.774 8.356zm299.129-6.78c0 1.809-.976 2.768-4.25 4.178-2.337 1.006-8.075 3.597-12.75 5.759-4.675 2.161-9.469 3.994-10.654 4.072-1.185.079-1.978.428-1.764.776.215.348-1.965 1.64-4.846 2.872-11.326 4.844-65.718 32.142-73.736 37.006-9.783 5.936-15 10.557-15 13.288 0 1.048 1.212 4.063 2.694 6.698 2.15 3.825 3.916 5.415 8.75 7.877 8.314 4.235 14.759 4.791 26.556 2.292 20.57-4.358 43.159-14.713 79.358-36.377 15.772-9.439 42.763-27.023 58.004-37.787l8.861-6.258-.361 6.875-.362 6.875-5.814 3.773c-3.198 2.074-6.305 3.469-6.904 3.098-.613-.378-.808-.216-.445.371.355.575-.459 1.769-1.81 2.655-2.693 1.764-3.93 2.071-3.13.776.283-.459-.133-.834-.925-.834-1.035 0-1.15.35-.408 1.245 1.32 1.589-.24 2.638-2.724 1.831-1.284-.417-1.454-.32-.564.322 1.572 1.133-14.303 12.68-15.995 11.634-.632-.391-.805-.213-.411.424.803 1.3-7.442 6.42-9.49 5.894-.759-.196-.987-.148-.507.105.48.254-1.228 1.768-3.796 3.367-2.568 1.598-5.168 2.598-5.778 2.221-.633-.392-.828-.232-.455.372.813 1.315-6.099 5.521-7.575 4.609-.605-.374-.791-.202-.425.391.813 1.315-6.099 5.521-7.575 4.609-.595-.368-.792-.203-.44.366.827 1.338-7.047 6.569-8.519 5.66-.639-.395-.842-.244-.473.353.757 1.226-3.971 4.609-5.296 3.789-.497-.307-1.228-.031-1.626.613-.491.794-.272.909.68.356 2.222-1.288.789-.007-4.354 3.895-2.617 1.986-5.02 3.611-5.339 3.611-.32 0-1.426 1.012-2.458 2.25-3.342 4.006-2.628 15.298 2.11 33.334 2.229 8.488 3.732 15.992 3.339 16.675-.392.682-.327.889.145.459 1.024-.932 15.637 52.004 15.053 54.533-.223.964.004 1.5.502 1.191.499-.308.907-.376.907-.151 0 .224 3.777 15.438 8.394 33.809 4.617 18.37 9.101 38.125 9.965 43.9 2.088 13.955 3.896 36.778 3.027 38.185-.424.686-.245.846.459.41.754-.466 1.155.146 1.155 1.764 0 1.363.228 3.077.508 3.809.316.831-1.434 2.42-4.65 4.224-5.036 2.823-5.408 2.878-15.758 2.298-5.83-.327-13.3-1.298-16.6-2.157-7.267-1.892-17.09-6.775-16.762-8.332.131-.621-.341-.907-1.048-.636-1.762.677-6.102-4.09-5.14-5.645.476-.771.345-.973-.353-.542-2.116 1.308-4.384-5.65-8.232-25.257-4.204-21.423-8.123-37.364-13.549-55.121-4.187-13.7-13.262-40.868-14.374-43.033-1.866-3.631-2.13-7.649-.586-8.93 2.276-1.89 1.878-3.159-.783-2.491-2.238.562-2.561-.173-8.458-19.231-3.373-10.898-7.562-24.99-9.31-31.315-1.748-6.325-3.534-12.4-3.968-13.5-.434-1.1-3.445-10.325-6.691-20.5-5.348-16.76-5.731-18.53-4.074-18.82 1.005-.175 1.828-.88 1.828-1.566s6.862-5.164 15.25-9.951c22.271-12.711 80.563-41.887 82.017-41.051.718.413.88.329.388-.202-.49-.528 4.958-3.73 13-7.638 7.615-3.701 13.957-6.739 14.095-6.75.138-.012.25 1.035.25 2.326zm-35.018 3.902l-.018 5.25-9.732 5.678c-14.337 8.366-34.405 17.969-36.15 17.3-.837-.321-1.196-.259-.799.138.991.991-7.221 5.54-8.536 4.728-.619-.383-.761-.175-.342.501.662 1.072-.723 1.549-4.144 1.425-.682-.024-1.022.308-.756.738.656 1.062-2.421 2.162-3.75 1.341-.627-.388-.771-.184-.35.496.95 1.539-.646 1.475-2.407-.095-1.182-1.054-1.206-.99-.151.411 1.4 1.86-.029 3.462-2.002 2.244-.646-.4-.885-.279-.542.276.336.544-.924 1.721-2.8 2.616-2.323 1.108-3.293 1.24-3.041.415.204-.667.647-2.468.984-4.003.337-1.535 1.044-2.524 1.572-2.198.534.33.695-.095.364-.959-.564-1.468 1.308-2.004 6.357-1.822.682.024.945-.431.586-1.013-.418-.676 0-.806 1.162-.36 1.203.461 2.458.006 3.724-1.353 1.049-1.126 2.444-1.741 3.099-1.366.654.376.863.321.463-.121-.916-1.014 20.984-13.785 22.273-12.989.523.324 1.951-.113 3.175-.97 1.223-.857 1.764-1.558 1.202-1.558-.563 0-1.556.533-2.206 1.183-.651.651-1.428.939-1.728.64-.715-.715 18.642-12.364 20.25-12.186.682.075 1.007-.239.722-.7-.686-1.109 3.299-3.203 4.584-2.409.553.341.881.025.73-.704-.152-.732.502-1.263 1.464-1.187.989.078 1.458-.319 1.086-.92-.393-.636-.054-.827.852-.479.827.317 2.139.126 2.914-.425 1.074-.764.934-.86-.591-.405-1.97.588-1.971.575-.059-.906 1.068-.826 2.08-1.502 2.25-1.502.17 0 .301 2.363.291 5.25zm-259.412-.363c-.301.487.235 1.5 1.191 2.25 1.536 1.204 1.594 1.177.498-.229-.683-.876-.946-1.888-.584-2.25.362-.362.385-.658.051-.658-.335 0-.855.399-1.156.887zm248.755 2.771c.362.362.099 1.374-.584 2.25-1.096 1.406-1.038 1.433.498.229 1.564-1.227 1.586-3.137.035-3.137-.334 0-.311.296.051.658zm30.675.449c0 .609-.661.853-1.468.544-.807-.31-1.676-.227-1.931.185-.869 1.407 3.263 1.033 4.455-.403.846-1.02.865-1.433.066-1.433-.617 0-1.122.498-1.122 1.107zm12.366 3.875c-8.222 4.163-21.956 13.761-21.024 14.693.297.298 8.4-3.558 18.005-8.567 17.047-8.89 19.965-10.03 21.078-8.23.761 1.231-7.248 6.349-8.615 5.505-.633-.392-.842-.244-.481.34.735 1.189-18.995 13.602-20.319 12.783-.48-.296-1.197-.012-1.595.632-.452.731-.291.903.43.457.635-.392 1.155-.5 1.155-.24s-2.362 1.933-5.25 3.716c-2.888 1.783-4.672 3.44-3.965 3.681 1.45.494 24.569-12.397 36.225-20.199 6.942-4.646 7.92-5.025 10.381-4.019l2.718 1.111-5.805 3.822c-6.262 4.125-22.202 15.328-23.754 16.696-.595.524-.575.837.054.837 1.767 0 21.18-11.888 26.632-16.309 4.841-3.925 5.647-4.237 10.033-3.877l4.77.39-11.407 7.79c-6.274 4.285-15.171 10.574-19.77 13.976-19.96 14.768-90.267 46.164-103.006 46-2.089-.027-2.157-.147-.598-1.055.967-.563 2.317-.702 3-.309.683.393.907.345.497-.107-.989-1.091 2.655-3.416 22.016-14.049 8.949-4.915 15.805-9.091 15.237-9.281-2.709-.903-45.008 21.186-45.008 23.503 0 1.131-.62 1.395-2.25.958-1.237-.331-2.925-.616-3.75-.633-1.726-.035 14.858-9.235 16.75-9.292.688-.021 1.25-.383 1.25-.804 0-.823 4.01-2.427 5.25-2.099.413.109.75-.248.75-.792 0-.545 4.388-3.222 9.75-5.949 9.669-4.918 10.165-7.097.691-3.036-2.598 1.114-4.919 1.83-5.158 1.591-.238-.238.5-.73 1.642-1.092 1.756-.558 3.019-2.524 1.62-2.524-1.27 0-22.944 8.136-28.909 10.852-3.775 1.719-7.375 2.833-8 2.476-.625-.357-.805-.283-.402.163.803.886-2.036 3.426-3.886 3.477-.634.018-1.638-1.362-2.233-3.067-1.279-3.67.163-7.392 2.514-6.49.811.311 1.225.161.919-.334-.714-1.155 6.007-5.268 23.997-14.685 8.117-4.249 14.92-7.223 15.585-6.812.667.412.915.301.57-.256-.765-1.239 43.08-22.578 44.538-21.677.683.422.774.182.252-.662-.599-.97-.358-1.149.898-.666.944.362 1.482.28 1.197-.182-.677-1.095 20.361-10.713 22.723-10.388.995.136 1.531-.201 1.191-.75-.377-.611 1.201-.999 4.058-.999h4.675l-7.866 3.982zm-299.697 11.013c-1.013 1.304-.94 1.326.546.162 1.461-1.145 2.126-1.059 4.5.584 3.444 2.383 9.566 4.769 14.567 5.676 2.78.504 3.707 1.13 3.5 2.362-.155.922.168 1.702.718 1.734.55.032 1.9.558 3 1.17 5.206 2.893 39.054 4.738 52.378 2.854 3.9-.551 5.186-.45 4.681.368-.384.62-1.229.823-1.878.451-.65-.372-.876-.337-.503.078.372.415-2.045 3.975-5.371 7.91-3.327 3.936-7.007 8.649-8.178 10.474l-2.129 3.318-7-.608c-3.85-.334-15.325-1.813-25.5-3.287-15.922-2.307-21.845-2.684-42.5-2.711-22.778-.028-24.247.084-28.853 2.209-4.292 1.981-4.777 2.039-4.201.5 2.403-6.416 8.765-14.448 21.78-27.497l14.726-14.765 3.443 3.757c2.783 3.037 3.219 4.045 2.274 5.261zm243.311-6.471c-.696.838-1.071 1.718-.835 1.955.237.236.98-.449 1.651-1.524 1.452-2.325.968-2.58-.816-.431zm41.563-.593c-.317.512-.193 1.167.274 1.456.467.289.85-.13.85-.931 0-1.686-.316-1.833-1.124-.525zm96.957 2.069c.34.55-.323 1-1.473 1-1.15 0-3.652.652-5.559 1.449-4.593 1.919-4.426 1.105.282-1.381 4.26-2.249 5.863-2.503 6.75-1.068zm.778 9.045c-.319 1.221-1.613 1.634-5.103 1.63-2.571-.003-6.25.801-8.175 1.787-4.78 2.448-3.012.783 3.753-3.535 4.618-2.947 5.98-3.393 7.776-2.545 1.302.614 2.005 1.684 1.749 2.663zm-115.665-1.862c.289.467.944.591 1.456.274 1.308-.808 1.161-1.124-.525-1.124-.801 0-1.22.383-.931.85zm-42.106 1.806c-.35.566.051.734.941.393 1.732-.665 2.049-1.382.611-1.382-.518 0-1.216.445-1.552.989zm-26.215 3.261c1.48.688 2.569 1.626 2.421 2.086-.719 2.223-27.778 2.53-70.213.796l-20-.817 21.5-.2c12.225-.113 25.167-.786 30-1.558 11.153-1.783 32.722-1.965 36.292-.307zm186.266 7.25c-.169.55-.814.887-1.433.75-.619-.137-1.125.248-1.125.857s-.698.839-1.552.511c-1.014-.389-1.304-.193-.836.563.483.781.157.944-1 .5-1.156-.443-1.482-.28-1 .5.483.781.157.944-1 .5-.944-.362-1.492-.296-1.218.147.744 1.205-5.204 4.399-6.646 3.569-.686-.395-.897-.332-.469.138.98 1.077-10.288 7.558-11.723 6.744-.581-.33-.721-.23-.312.221.972 1.073-2.939 3.806-4.271 2.984-.562-.348-.899-.216-.748.293.383 1.292-9.107 8.414-10.261 7.701-.518-.32-.673.116-.346.97.328.854.805 1.552 1.059 1.552.51 0 22.444-11.765 31.573-16.935 8.992-5.092 6.765-3.019-4.556 4.24-10.135 6.499-15.168 10.695-12.829 10.695 2.907 0 25.466-16.655 24.555-18.129-.288-.466.248-.552 1.192-.19 1.115.428 1.478.273 1.036-.442-.374-.605-.154-1.426.49-1.824.731-.452.903-.291.457.43-.851 1.378.603 1.547 1.955.228 2.84-2.773 29.258-10.013 32.443-8.892.498.176-5.985 4.532-14.408 9.682-8.423 5.149-17.927 11.316-21.119 13.704-3.193 2.388-6.291 4.065-6.885 3.727-.595-.338-.737-.236-.317.226.42.463-.48 2.179-2 3.815-1.905 2.05-2.22 2.78-1.014 2.351 1.642-.585 46.521-27.913 55.25-33.644 3.037-1.995 4.805-2.496 7.344-2.084 3.264.529 2.92.838-14.5 13.007-9.814 6.856-22.569 16.019-28.344 20.363-22.765 17.123-46.691 31.76-64.127 39.229-7.105 3.044-23.747 7.902-24.498 7.151-.13-.129 6.986-5.854 15.813-12.722 8.827-6.867 17.233-13.533 18.68-14.812 6.897-6.094-9.208 4.209-24.346 15.576-11.922 8.952-17.078 12.25-19.15 12.25-2.832 0-2.83-.004 1.146-2.697 3.277-2.219 22.812-17.596 25.832-20.333.468-.424-.281-.703-1.665-.62-1.384.082-2.331.336-2.104.563.505.506-5.545 4.259-7.276 4.513-.686.1-1.598.568-2.026 1.039-.428.47-.104.538.721.149s.396.102-.953 1.09c-1.35.988-4.68 3.693-7.401 6.012-2.721 2.319-5.399 3.937-5.951 3.596-.552-.342-.714-.152-.361.42.831 1.344-1.914 3.646-3.315 2.78-.588-.363-.945-.065-.794.664.387 1.863-5.446 1.271-9.88-1.003l-3.507-1.8 4.311-2.853c2.372-1.569 4.863-2.853 5.537-2.853.675 0 .992-.379.707-.841-.286-.462.177-1.107 1.028-1.434.851-.326 3.466-2.348 5.812-4.493 2.347-2.144 4.604-3.899 5.017-3.899.412 0 .75-.456.75-1.013 0-.597-1.453-.407-3.537.464-4.787 2-3.615.508 3.103-3.951 3.064-2.034 5.349-3.918 5.08-4.188-.494-.494-18.106 8.056-20.352 9.881-.664.538-1.789.643-2.5.233-.712-.411-.972-.39-.578.047.394.436-1.064 2.083-3.241 3.66-4.391 3.181-6.746 3.861-3.239.935 1.96-1.635 2.031-1.943.582-2.499-.909-.349-2.14-.143-2.735.457-.781.788-.526.892.917.373 1.764-.634 1.705-.387-.5 2.102-1.375 1.552-1.825 2.438-1 1.968 1.306-.743 1.318-.628.088.886-1.11 1.368-1.587 1.463-2.234.442-1.879-2.961-.281-9.797 1.965-8.409.574.355 1.368.118 1.766-.526.483-.781.288-.901-.585-.362-.892.551-1.068.42-.553-.414.415-.672 1.408-.972 2.206-.666.798.307 1.206.161.908-.322-.299-.484.607-1.634 2.015-2.556 2.104-1.378 2.857-1.451 4.241-.407 1.416 1.067 1.487 1.049.447-.119-1.013-1.137-.484-1.884 2.934-4.147 2.293-1.518 4.537-2.533 4.986-2.256.449.278.816.08.816-.439s1.155-1.701 2.567-2.626c2.151-1.409 2.84-1.468 4.25-.365 1.491 1.167 1.535 1.127.384-.344-1.468-1.879-.039-3.44 2.049-2.238.688.396.915.35.506-.101-1.03-1.137 2.979-3.782 4.4-2.903.665.411.883.275.515-.32-.827-1.338 7.047-6.569 8.519-5.66.732.453.836.234.3-.632-.591-.957-.365-1.151.814-.699.898.345 1.941.127 2.318-.484.416-.673.232-.83-.467-.397-.635.392-1.155.504-1.155.249 0-1.114 11.195-6.651 12.197-6.032.62.383.834.237.484-.329-.591-.957 13.13-8.91 37.218-21.572l10.4-5.466 4.284 3.122c2.356 1.718 4.145 3.573 3.975 4.123zm72.328 9.25c1.246 9.212 4.039 33.85 6.207 54.75 3.973 38.288 6.033 53.277 8.402 61.151 1.479 4.913 1.704 4.736-7.495 5.901-6.669.845-10 2.019-10 3.526 0 .62-6.856 7.719-15.236 15.775-31.245 30.038-52.205 54.443-65.809 76.627-2.862 4.666-5.556 8.267-5.986 8.001-.43-.266-.529.487-.218 1.674.321 1.23.158 1.907-.379 1.575-.519-.321-.996.171-1.06 1.093-.063.923-1.285 4.735-2.714 8.472-2.493 6.521-3.515 16.02-1.835 17.059.42.259 2.825-2.077 5.345-5.191 2.519-3.115 5.085-5.556 5.7-5.425.616.131.898-.341.626-1.049-.72-1.877 7.144-5.738 13.051-6.406l5.015-.568-5.89 4.615c-3.239 2.539-6.389 4.331-7 3.982-.61-.348-.776-.264-.369.186.942 1.039-1.167 3.666-2.354 2.932-.488-.301-.887.154-.887 1.011 0 1.474-1.257 2.047-3.5 1.594-.55-.111-.672.126-.271.527.4.401-1.988 3.632-5.307 7.181-4.648 4.968-5.965 7.041-5.729 9.015.414 3.453 3.312 3.721 7.305.676 4.439-3.386 4.866-3.038 1.264 1.031-1.687 1.905-3.518 3.186-4.069 2.845-.569-.352-.691-.116-.283.545.396.64-.209 2.346-1.345 3.79-4.342 5.519-2.1 7.326 4.575 3.688l4.86-2.65-3.384 3.409c-3.827 3.853-4.883 4.15-7.366 2.066-.962-.807-1.75-.996-1.75-.42 0 1.066 2.885 2.71 4.25 2.421.413-.088.75.291.75.841s-.42 1-.933 1c-.513 0-1.236.956-1.607 2.125-.809 2.55 1.084 4.028 4.168 3.253 3.613-.906 6.372 3.071 6.372 9.186 0 8.942-.741 10.866-4.66 12.092-2.571.805-3.587.797-3.832-.03-.49-1.655-5.293-29.868-5.384-31.626-.042-.825-1.678-9.6-3.633-19.5-3.778-19.123-6.011-31.233-7.559-41-1.434-9.055-1.962-10.877-2.865-9.895-1.29 1.403 2.519 31.383 7.078 55.702 1.114 5.944 1.767 11.479 1.452 12.302-.316.822-.225 1.279.201 1.016 1.108-.685 5.441 21.533 4.662 23.903-.47 1.427-.382 1.6.316.623.715-1 1.14-.413 1.643 2.267.373 1.989.362 4.128-.025 4.754-.432.698-.258.862.451.423.635-.392 1.155-.174 1.155.484 0 2.564-25.027-1.593-33.5-5.564-5.422-2.541-8.423-5.332-10.769-10.015-2.427-4.846-5.404-21.247-8.712-48-4.18-33.808-6.569-45.204-19.423-92.642-9.525-35.154-23.603-91.058-26.09-103.6-.899-4.533-1.346-8.708-.993-9.279 1.041-1.685 18.758-13.274 54.987-35.969 41.603-26.062 39.209-24.591 38-23.355-2.38 2.432-23.401 16.856-39.937 27.404-32.126 20.491-44.508 28.589-47.249 30.9-2.091 1.764-2.669 9.453-.959 12.761 3.562 6.888 12.646 12.525 23.126 14.35 13.418 2.337 28.385-1.183 49.019-11.526 16.997-8.519 28.97-16.125 60.679-38.544 32.68-23.105 53.002-36.919 54.382-36.965.621-.02 2.001 6.913 3.325 16.715zm-91.886-14.285c0 .255-1.013.955-2.25 1.555-2.161 1.047-2.173 1.029-.309-.465 2.04-1.634 2.559-1.855 2.559-1.09zm-409.493 2.524c-.347.561.042.737.9.408.831-.318 3.125-.047 5.097.604 2.934.969 3.373 1.443 2.41 2.603-1.01 1.217-1.341 1.194-2.331-.16-1.014-1.387-1.154-1.336-1.154.415 0 1.097.353 1.776.785 1.509 1.593-.985.709.943-2.059 4.488-7.233 9.263-10.819 17.853-8.678 20.782 1.223 1.672 1.545 1.613 5.509-1.01 3.916-2.592 11.041-5.628 13.207-5.628.517 0-.605 1.913-2.494 4.25-4.899 6.062-6.145 8.704-4.758 10.091.836.836 2.372.427 5.944-1.581 4.624-2.599 9.008-3.475 20.761-4.146l5.146-.294-1.896 4.423c-2.552 5.954-2.358 12.519.584 19.674 1.338 3.254 2.157 6.361 1.822 6.904-.336.543-.152.704.41.357.561-.347 1.868.363 2.904 1.578 1.166 1.367 1.28 1.745.301.993-1.269-.975-1.584-.941-1.584.17 0 .922.812 1.241 2.414.95 1.683-.305 2.191-.077 1.679.751-.461.746-.308.925.412.48.63-.389 1.843-.318 2.695.159 1.36.761 1.3 1.183-.492 3.462-1.122 1.427-2.049 2.973-2.059 3.437-.038 1.727-5.757 9.236-6.515 8.553-.433-.391-.482-.178-.109.473s.018 2.901-.789 5c-4.087 10.629-5.048 24.841-2.148 31.781 2.041 4.884 1.996 5.572-.163 2.508-.958-1.36-1.622-2.844-1.475-3.297.146-.454-.082-.61-.508-.349-.426.262-2.575-1.099-4.775-3.025s-3.368-3.162-2.595-2.747c.907.487 1.161.361.717-.357-.377-.611-1.42-.829-2.318-.484-1.179.452-1.405.258-.814-.699.523-.844.431-1.084-.253-.662-1.411.872-10.487-3.747-9.499-4.835.419-.461.277-.563-.316-.225-.593.337-5.956-1.103-11.917-3.201-6.259-2.203-10.24-4.08-9.422-4.444.779-.346.487-.404-.651-.129-1.137.275-21.387-4.516-45-10.646-23.612-6.13-44.044-11.381-45.404-11.669-2.278-.481-2.318-.58-.5-1.256 2.392-.89 2.157-.981-9.528-3.712-8.696-2.033-15.681-4.877-19.842-8.081-2.338-1.799-2.318-1.809 10.5-5.534 46.089-13.394 42.65-11.62 112.842-58.189 2.35-1.56 5.891-1.873 5.007-.443zm404.493.396c0 .212-1.237 1.138-2.75 2.059l-2.75 1.675 2.361-2.06c2.304-2.009 3.139-2.455 3.139-1.674zm-264.156 5.365c-5.7 6-11.481 14.313-14.108 20.285-1.34 3.044-3.888 6.756-5.662 8.25-2.899 2.438-4.01 2.715-10.901 2.711-8.093-.004-18.38-1.447-39.519-5.542-20.811-4.032-29.799-4.65-42.768-2.939-6.192.817-11.644 1.485-12.115 1.485-.471 0 .4-1.575 1.936-3.5l2.793-3.5h13.289c15.236 0 26.67 1.097 47.211 4.529 7.975 1.333 18.365 2.72 23.088 3.082l8.589.659 3.513-5.617c1.932-3.089 3.877-5.287 4.322-4.885.445.403.48.161.078-.536-2.437-4.23 13.461-18.092 20.863-18.192l2.953-.04-3.562 3.75zm69.906-2.088c13.888.362 25.25.79 25.25.951 0 .161-.489 1.365-1.086 2.676-.996 2.187-1.713 2.394-8.757 2.527-4.22.079-10.041.593-12.935 1.142-6.95 1.318-16.485 4.112-15.929 4.668.243.243 7.013-.249 15.046-1.092 20.003-2.101 20.614-2.079 19.894.716-.701 2.721-3.251 4.864-5.035 4.233-.716-.253-1.072-.088-.791.367.282.455-1.259 2.138-3.424 3.739s-3.946 3.216-3.959 3.59c-.013.373-.758 1.413-1.656 2.31-1.707 1.707-1.742 1.497 4.565 27.011l.741 3-48.587.063c-46.02.06-49.132.179-58.911 2.25-8.246 1.747-13.578 2.18-26.5 2.152-24.973-.054-37.352-3.098-41.707-10.255l-1.953-3.21 12.536-1.127c6.895-.62 12.794-1.386 13.11-1.702 1.91-1.91-19.598-3.103-24.412-1.354-2.046.744-2.249.517-2.244-2.5.003-1.824.487-5.051 1.075-7.169l1.069-3.853 4.675.657c11.1 1.56 23.072 3.906 22.733 4.454-.202.327 1.053.625 2.787.662 1.735.038 9.455 1.048 17.155 2.245 16.415 2.552 21.789 2.702 27.284.763 2.219-.783 4.338-1.12 4.709-.75.37.371.525.224.344-.326-.182-.55.984-2.645 2.591-4.655 1.607-2.011 3.667-6.061 4.578-9 .969-3.127 2.172-5.231 2.9-5.07.683.151 1.003-.113.71-.588-.293-.474.829-2.398 2.494-4.274 1.665-1.877 2.699-2.738 2.298-1.913-.428.881-.353 1.156.182.667.5-.459.91-1.155.91-1.548s2.249-3.347 4.997-6.564l4.997-5.849 16.503.648c9.077.357 27.865.945 41.753 1.308zm166.25-.662c-.901.582-1.025.975-.309.985.655.008 1.469-.435 1.809-.985.767-1.242.421-1.242-1.5 0zm-239 .393c0 .216.698.661 1.552.989.89.341 1.291.173.941-.393-.587-.951-2.493-1.406-2.493-.596zm234.733 1.731c.679.684 1.486.991 1.793.683.308-.308-.247-.867-1.233-1.243-1.425-.542-1.54-.428-.56.56zm26.267-.659c0 .255-1.013.955-2.25 1.555-2.161 1.047-2.173 1.029-.309-.465 2.04-1.634 2.559-1.855 2.559-1.09zm-266.376 1.821c-1.659 1.213-1.651 1.285.142 1.285 1.045 0 1.901-.578 1.901-1.285s-.064-1.286-.143-1.286c-.078 0-.933.579-1.9 1.286zm129.376 7.107c0 .216.698.661 1.552.989.89.341 1.291.173.941-.393-.587-.951-2.493-1.406-2.493-.596zm-8.457 4.538c-.317.512-.049 1.256.595 1.654.785.485.901.287.352-.6-.599-.97-.358-1.149.898-.666 1.019.391 1.468.257 1.105-.33-.77-1.246-2.199-1.274-2.95-.058zm-114.979 1.776c-.542 1.425-.428 1.54.56.56.684-.679.991-1.486.683-1.793-.308-.308-.867.247-1.243 1.233zm108.946 2.308c.615.996.343 1.144-1.096.596-1.535-.585-1.667-.48-.664.53.9.907 1.554.955 2.337.172.783-.783.74-1.302-.154-1.855-.858-.529-.989-.357-.423.557zm-29.01 1.985c.34.55.816 1 1.059 1s.441-.45.441-1-.477-1-1.059-1-.781.45-.441 1zm-169.231 2.693c.973.254 2.323.237 3-.037.677-.274-.119-.481-1.769-.461-1.65.02-2.204.244-1.231.498zm187.464 1.431c.679.684 1.486.991 1.793.683.308-.308-.247-.867-1.233-1.243-1.425-.542-1.54-.428-.56.56zm19.767 4.876c-.34.55-1.154.993-1.809.985-.716-.01-.592-.403.309-.985 1.921-1.242 2.267-1.242 1.5 0zm68.313 1.683c.721.289 1.584.253 1.916-.079.332-.332-.258-.568-1.312-.525-1.165.048-1.402.285-.604.604zM345.681 262.01c1.214 1.962 3.903 4.775 5.976 6.25 2.083 1.482 3.071 2.681 2.21 2.681-2.426 0-10.026-7.013-11.548-10.657-1.476-3.533-1.801-12.288-.606-16.343.51-1.731.894.114 1.249 6 .385 6.383 1.062 9.389 2.719 12.069zm86.14-18.319c-1.243 1.586-1.208 1.621.378.378 1.666-1.307 2.195-2.128 1.372-2.128-.207 0-.995.788-1.75 1.75zm118.128.334c-6.474 4.17-13 7.613-13 6.857 0-.502 3.038-2.472 6.75-4.378 6.536-3.355 9.33-4.463 6.25-2.479zm-57.25 2.516c-2.612.803-4.75 1.897-4.75 2.43 0 .573 4.946.97 12.083.97 9.22 0 11.986-.296 11.671-1.25-1.219-3.696-10.545-4.751-19.004-2.15zm-145.522 3.313c.426 1.581 3.486 2.359 4.273 1.086.28-.453-.281-.702-1.246-.553-.965.149-2.127-.228-2.581-.838-.547-.734-.698-.631-.446.305zm292.279 2.076c-.35.566.051.734.941.393 1.732-.665 2.049-1.382.611-1.382-.518 0-1.216.445-1.552.989zm-220.007 2.011c-.782 1.266.542 1.266 2.5 0 1.293-.835 1.266-.971-.191-.985-.93-.008-1.969.435-2.309.985zm216.772 3.605c.391.391.152 1.427-.531 2.303-1.118 1.435-1.043 1.447.759.125 1.1-.807 2.132-1.539 2.293-1.626.161-.088-.5-.464-1.469-.836-.97-.372-1.443-.357-1.052.034zm-10.349 5.645c-.539 1.764-.633 3.793-.152 3.313.729-.73 1.239-3.563.641-3.563-.227 0-.446.113-.489.25zm-262.923 3.75c-.901.582-1.025.975-.309.985.655.008 1.469-.435 1.809-.985.767-1.242.421-1.242-1.5 0zm74 3.676c-1.375.222-6.381 1.286-11.124 2.364-4.743 1.078-10.368 1.9-12.5 1.826l-3.876-.133 4.5-.643c2.475-.353 5.16-1.054 5.966-1.558 2.21-1.382 7.887-2.304 14.034-2.281 3.025.012 4.375.203 3 .425zm61.75.066c-3.712.192-9.788.192-13.5 0-3.712-.193-.675-.35 6.75-.35s10.462.157 6.75.35zm125.389 4.291c-1.298 1.082-2.873 1.965-3.5 1.962-.626-.003.211-.87 1.861-1.927 3.897-2.496 4.612-2.512 1.639-.035zm14.861-1.092c0 .518.445 1.216.989 1.552.566.35.734-.051.393-.941-.665-1.732-1.382-2.049-1.382-.611zm-231.271.663c-.332.332-1.195.368-1.916.079-.798-.319-.561-.556.604-.604 1.054-.043 1.644.193 1.312.525zm81.771.389c8.719.514 4.438.599-13 .261-14.3-.277-26.187-.673-26.417-.879-.683-.615 25.426-.205 39.417.618zm-123.596 1.828c.818 1.528.429 2.018-2.414 3.046-4.736 1.713-11.906 10.075-16.08 18.753-4.186 8.702-6.005 10.444-4.988 4.775 1.705-9.502 10.725-23.037 16.594-24.9 1.091-.346 1.984-1.098 1.984-1.669 0-.572-.698-.772-1.552-.444-.89.341-1.291.173-.941-.393 1.064-1.722 6.348-1.128 7.397.832zm265.603-.832c-.35.566.051.734.941.393 1.732-.665 2.049-1.382.611-1.382-.518 0-1.216.445-1.552.989zm-109.215.75c-3.415.195-9.265.196-13 .003-3.736-.192-.942-.352 6.208-.353 7.15-.002 10.206.156 6.792.35zm-140.853 3.162c.306.495 2.02.752 3.809.572 12.596-1.271 90.145-1.58 111.752-.445 13.475.708 25.204 1.313 26.064 1.344 1.246.045.889 1.353-1.75 6.415-1.823 3.497-3.314 7.045-3.314 7.885 0 .839-.765 3.139-1.701 5.11-1.247 2.629-1.381 3.691-.5 3.984.661.221 1.201.813 1.201 1.317s-3.418.917-7.596.917c-6.896 0-18.404 2.317-18.404 3.706 0 .31 5.625.347 12.5.082l12.5-.481.002 9.096.003 9.097-8.175-.332c-7.061-.286-13.041.525-18.83 2.553-3.77 1.321 5.092 2.097 14.375 1.26 5.569-.503 10.859-.929 11.756-.947 1.114-.023 1.998 1.42 2.785 4.546.634 2.519 2.193 5.62 3.464 6.891l2.311 2.311-26.096.708c-39.95 1.085-93.122-1.215-116.183-5.026-17.024-2.813-32.36-8.121-30.793-10.657.408-.66.238-.837-.414-.434-.608.376-1.541-.132-2.074-1.128-.901-1.684.193-1.934 15.7-3.585 20.192-2.151 22.831-2.625 21.011-3.779-2.096-1.328-17.693-.999-24.342.514-3.3.751-7.903 1.649-10.229 1.994-3.931.584-4.274.448-4.872-1.935-.853-3.4.205-9.586 1.816-10.608.999-.634.951-.847-.215-.955-2.706-.253 9.287-1.748 19.776-2.465 5.652-.386 10.517-1.09 10.809-1.564.293-.474-4.642-.862-10.967-.862s-11.736-.382-12.024-.849c-.289-.466 6.997-1.421 16.191-2.121 9.193-.701 18.29-1.602 20.215-2.003l3.5-.73-3.681-.747c-2.025-.411-11.761-.59-21.637-.398l-17.955.348 2.136-3.765c2.957-5.21 10.292-13.067 11.501-12.319.549.339 1.323.09 1.721-.554.495-.801.28-.903-.68-.325-1.197.721-1.201.596-.033-.845 1.047-1.29 2.994-1.692 8.191-1.692 3.751 0 7.069.405 7.376.901zm8.138 1.974c-.297.481.624.875 2.048.875 1.829 0 2.191-.252 1.232-.86-1.74-1.102-2.606-1.106-3.28-.015zm7.988.02c-.305.493.096 1.145.89 1.449.963.37 1.258.072.887-.895-.645-1.68-1.011-1.794-1.777-.554zm6.435.605c.685.825 1.672 1.5 2.194 1.5s.274-.675-.551-1.5c-.825-.825-1.812-1.5-2.194-1.5-.382 0-.134.675.551 1.5zm-59.457.431c-.317.512-.193 1.167.274 1.456.467.289.85-.13.85-.931 0-1.686-.316-1.833-1.124-.525zm187.093 8.32c-.247.964-.041 1.5.457 1.191.499-.308.899-.196.89.249-.009.445-2.441 1.746-5.404 2.892-3.879 1.499-5.245 1.709-4.876.75.281-.733.939-1.333 1.463-1.333.524 0 .693-.42.376-.932-.317-.513.603-3.551 2.045-6.75l2.621-5.818 1.439 4c.791 2.2 1.237 4.788.989 5.751zm-337.386-6.793c2.063.348 3.75 1.089 3.75 1.646 0 .558.394.771.875.473 1.351-.835 11.341 2.864 10.429 3.862-.446.489-.268.574.4.191 1.39-.798 6.48.264 5.885 1.227-.219.354.797.674 2.256.713 1.46.038 9.63 2.117 18.155 4.619 8.525 2.503 21.575 6.208 29 8.235 49.549 13.524 65.748 21.161 71.916 33.903 2.327 4.806 2.777 13.637 1.018 19.971-.91 3.277-1.355 3.706-3.244 3.127-3.163-.97-14.776-8.005-14.187-8.594.273-.274-.087-.498-.8-.498-.714 0-4.145-1.668-7.625-3.708-7.762-4.549-10.368-4.303-3.193.301 8.867 5.69 18.615 13.191 18.615 14.324 0 .596.675 1.268 1.5 1.493 1.333.364 1.333.291 0-.652-2.513-1.777-.247-1.212 2.961.739 2.567 1.561 2.827 2.078 1.772 3.521-1.125 1.538-2.627 1.003-16.551-5.891-8.423-4.17-15.787-7.425-16.365-7.232-.578.192 5.639 3.873 13.816 8.18 8.177 4.306 15.255 8.187 15.73 8.623 1.155 1.064-.221 3.175-1.539 2.36-.669-.413-.556-.952.319-1.519.962-.622.709-.787-.867-.567-1.224.17-2.574.694-3 1.163-.427.469-.264.56.361.203.625-.357 1.699.03 2.388.859 1.661 2.002-.366 4.249-7.176 7.956-4.719 2.568-5.73 2.741-13.273 2.27-5.925-.369-9.48-1.177-12.957-2.944l-4.791-2.435 4.702-6.938c2.586-3.817 5.043-7.31 5.46-7.763.417-.454 4.405 1.009 8.862 3.25 4.566 2.295 9.532 4.072 11.376 4.069l3.272-.006-2.651-1.744c-1.457-.96-4.157-2.938-6-4.396-7.348-5.817-37.924-19.9-43.055-19.832-.712.01 2.756 2.415 7.706 5.345 6.589 3.9 8.984 5.853 8.941 7.292-.032 1.081-2.22 5.186-4.861 9.123l-4.802 7.157-3.139-1.363c-1.726-.75-19.789-9.561-40.139-19.581-39.249-19.326-55.648-27.21-61.75-29.686-3.553-1.441-5.043-3.304-2.643-3.304.609 0 .864-.634.567-1.408-.349-.908.355-1.634 1.981-2.041 3.369-.846 9.965-7.058 13.017-12.259l2.468-4.207 5.18 2.068c11.522 4.599 29.879 10.981 30.32 10.54 1.627-1.627-21.085-12.709-30.752-15.005-2.688-.639-4.888-1.723-4.888-2.41 0-1.336-.279-1.43 20.75 7.03 6.188 2.489 11.25 4.192 11.25 3.783 0-2.906-10.621-8.662-23.25-12.599-4.812-1.5-8.77-3.012-8.794-3.36-.024-.348-.415-2.556-.87-4.908-.714-3.692-.605-4.217.793-3.838.892.242 3.309.724 5.371 1.072zm333.314 3.249c-.542 1.425-.428 1.54.56.56.684-.679.991-1.486.683-1.793-.308-.308-.867.247-1.243 1.233zm140.896 1.543c.382 1.238.819 3.375.971 4.75.599 5.387 3.771 22.465 6.623 35.65a4356.572 4356.572 0 016.01 28.35c7.327 35.259 14.608 65.391 15.904 65.823 1.094.364 1.221-1.13.671-7.937-.848-10.512-3.591-24.023-11.957-58.886-3.629-15.125-7.061-30.425-7.625-34-2.887-18.291-7.949-36-10.29-36-.576 0-.706.954-.307 2.25zm-128.025 30.72c-.297.808-.219 1.147.174.754.568-.568 6.332 15.108 6.379 17.348.038 1.805-9.005 6.281-13.488 6.677l-5 .44-3.141-5.344c-1.727-2.94-3.414-6.545-3.748-8.011-.539-2.368-.092-2.953 4.001-5.241 2.534-1.416 5.078-2.285 5.652-1.93.575.356.753.174.396-.404-.357-.577.024-1.307.846-1.623.822-.315 1.494-1.262 1.494-2.105 0-2.479-4.292-1.805-9.1 1.429l-4.4 2.96-.297-7.117c-.163-3.913-.073-7.699.2-8.412.274-.713 2.433-2.211 4.797-3.329 4.805-2.273 9.369-5.826 8.543-6.652-.297-.298-3.286.845-6.642 2.539-4.705 2.375-6.101 2.738-6.101 1.586 0-1.813 7.617-5.89 9.189-4.918.733.453.837.234.301-.632-.593-.96-.363-1.15.834-.691.909.349 1.604.313 1.546-.08-.624-4.183 1.014-.573 4.212 9.286 2.142 6.6 3.65 12.661 3.353 13.47zm-238.435-11.97c-.901.582-1.025.975-.309.985.655.008 1.469-.435 1.809-.985.767-1.242.421-1.242-1.5 0zm40.418 5.907c-1.331 10.031 7.814 22.542 18.999 25.992 11.093 3.422 43.145 7.777 60.583 8.231l6.5.169-8.5 1.015c-11.702 1.398-42.225-.339-46.7-2.657-1.761-.911-5.266-1.657-7.79-1.657-8.235 0-19.129-7.612-22.649-15.825-2.07-4.827-2.698-20.175-.827-20.175.661 0 .8 1.774.384 4.907zm-54.418.093c-.901.582-1.025.975-.309.985.655.008 1.469-.435 1.809-.985.767-1.242.421-1.242-1.5 0zm-119.736 4.704c-1.23.237-3.48.243-5 .014-1.52-.23-.514-.424 2.236-.432 2.75-.007 3.994.181 2.764.418zm503.236.296c-.34.55-.141 1 .441 1s1.059-.45 1.059-1-.198-1-.441-1-.719.45-1.059 1zm-339.5 2.941c0 .518.445 1.216.989 1.552.566.35.734-.051.393-.941-.665-1.732-1.382-2.049-1.382-.611zm-167.948 3.096c3.95 2.813 15.489 8.004 34.853 15.68 9.022 3.576 24.547 10.806 34.5 16.065 20.683 10.93 35.405 18.014 40.858 19.662 3.466 1.047 3.654 1.288 2.372 3.041-1.284 1.756-1.577 1.783-3.764.353-2.395-1.567-46.803-22.683-61.116-29.062-4.26-1.898-7.41-3.822-7-4.274.41-.453.212-.517-.44-.144-1.368.785-10.443-3.342-9.764-4.44.248-.402-.519-.478-1.706-.167-1.607.42-1.951.229-1.347-.748.528-.853.421-1.071-.306-.622-1.166.721-11.444-3.988-12.025-5.509-.184-.479-1.057-.872-1.942-.872-1.937 0-14.359-7.252-16.179-9.445-1.797-2.165-.396-1.94 3.006.482zm156.281 1.303c0 .677.825 1.231 1.834 1.231 1.008 0 1.833-.112 1.833-.25s-.825-.692-1.833-1.232c-1.317-.704-1.834-.634-1.834.251zm770.088 12.24c-18.25 24.455-29.66 46.073-38.74 73.42-3.01 9.075-7.74 22.575-10.5 30-8.08 21.727-12.07 33.688-14.72 44.152-3.35 13.239-4.21 15.021-6.52 13.576-1-.62-1.55-1.558-1.22-2.083.32-.525.12-.665-.45-.311-.57.353-3.99-1.334-7.59-3.75-13.77-9.233-24.329-11.578-55.181-12.257-19.183-.422-24.245-.228-30.5 1.168-4.125.92-8.043 1.711-8.707 1.756-.664.045-1.455.729-1.758 1.519-.311.81-1.226 1.179-2.095.845-.85-.326-1.28-.165-.957.358.763 1.234-6.735 5.054-10.443 5.321-1.577.113-2.708.366-2.514.563.326.328-11.721 6.793-12.269 6.583-.134-.051.779-3.121 2.027-6.822 1.249-3.702 2.62-6.381 3.046-5.955.427.427.502.062.167-.81-.75-1.954 5.555-16.387 6.494-14.867.372.601.687-.163.7-1.697.028-3.129 9.061-22.56 10.169-21.875.391.241.724-.315.739-1.237.015-.923 6.99-12.252 15.501-25.177 8.51-12.925 17.7-27.031 20.422-31.346 3.028-4.801 6.119-8.444 7.963-9.386 1.658-.847 12.699-7.313 24.536-14.368 36.52-21.767 70.3-33.859 107-38.297 6.31-.764 12.22-1.437 13.13-1.496 1.09-.07-1.59 4.252-7.73 12.473zm-738.421-10.678c0 1.038 1.902 2.541 2.466 1.948.183-.192-.297-.93-1.067-1.639-.769-.71-1.399-.849-1.399-.309zm2 3.491c0 .216.675.652 1.5.969.825.316 1.5.139 1.5-.393 0-.533-.675-.969-1.5-.969s-1.5.177-1.5.393zm7 0c0 .216.698.661 1.552.989.89.341 1.291.173.941-.393-.587-.951-2.493-1.406-2.493-.596zm-30.131 1.949c.612.738.78 1.71.372 2.16-.407.45-.157.481.558.069 1-.577 1.029-1.073.127-2.16-.644-.776-1.396-1.411-1.671-1.411-.275 0 .001.604.614 1.342zm343.631-.342c-.34.55-.141 1 .441 1s1.059-.45 1.059-1-.198-1-.441-1-.719.45-1.059 1zm-332.693 3.526c-.308.308-.867-.247-1.243-1.233-.542-1.425-.428-1.54.56-.56.684.679.991 1.486.683 1.793zm-159.619 3.069c3.98 2.017 4.808 2.818 3.717 3.595-1.094.777-1.002.868.412.41 2.44-.79 30.005 13.53 28.357 14.732-.754.55-.549.656.573.295 2.116-.681 11.091 3.67 10.015 4.855-.419.461-.257.551.36.198.836-.477 26.391 11.136 28.176 12.804.163.153-.842 2.694-2.235 5.647-1.393 2.953-3.922 9.081-5.62 13.618l-3.088 8.25-8.427-7.176c-4.636-3.947-8.428-7.377-8.428-7.622 0-.245.788.172 1.75.927 1.584 1.242 1.62 1.207.387-.367-.75-.956-1.75-1.5-2.222-1.208-1.119.691-6.044-2.535-5.417-3.549.264-.428-.303-1.391-1.259-2.141-1.574-1.233-1.609-1.197-.367.387.755.962 1.113 1.75.795 1.75-1.219 0-7.558-4.784-7.124-5.376.251-.343.179-.421-.161-.173-.339.248-4.502-1.488-9.25-3.858-17.848-8.91-33.286-12.695-54.432-13.347-14.262-.44-15.596-.631-13.702-1.957 4.7-3.292 39.595-23.161 40.785-23.222.706-.037 3.588 1.101 6.405 2.528zm360.145-1.139c0 .801.383 1.22.85.931.467-.289.591-.944.274-1.456-.808-1.308-1.124-1.161-1.124.525zm-364.6.668c.679.684 1.486.991 1.793.683.308-.308-.247-.867-1.233-1.243-1.425-.542-1.54-.428-.56.56zm170.033 14.197c-.211 6.985-.611 9.014-1.923 9.748-1.029.575-1.459 1.685-1.133 2.929.772 2.952 2.001 2.444 3.392-1.403.677-1.872 1.718-3.296 2.314-3.164.596.133.747.052.334-.178-1.558-.871-.212-13.253 1.44-13.253.51 0 .71.354.442.786-.267.432.269.843 1.191.914.923.071 3.618.626 5.991 1.234 2.373.608 4.737.844 5.253.525 1.242-.768 10.033.57 9.493 1.444-.231.373 1.236.532 3.26.352 2.876-.256 1.746.445-5.166 3.208-4.866 1.945-9.323 3.242-9.905 2.882-.67-.414-.758-.168-.239.67.599.97.358 1.149-.898.666-1.156-.443-1.482-.28-1 .5.483.781.157.944-1 .5-.944-.362-1.482-.28-1.196.183.286.462-1.603 2.258-4.198 3.989-4.533 3.025-13.119 10.19-10.394 8.674 1.098-.611 1.098-.371 0 1.408l-1.324 2.143-.327-2.094c-.179-1.152.271-2.857 1-3.789 1.165-1.487 1.132-1.543-.265-.454-.876.683-1.813 1.021-2.083.75-.271-.27-.492.112-.492.849 0 5.512-10.832 19.286-14.427 18.346-1.05-.275-1.665-.105-1.366.378.916 1.483-4.294 2.208-12.355 1.719-5.531-.336-9.921-1.369-15.663-3.685-9.28-3.745-8.735-3.378-7.969-5.376.528-1.374 1.016-1.319 4.024.456 1.883 1.111 3.423 2.353 3.423 2.76 0 3.374 19.748 4.268 26.5 1.201 2.2-1 4.45-1.95 5-2.113.55-.162 1.593-1.142 2.318-2.177.726-1.035 1.749-1.616 2.275-1.291.526.325.836.22.688-.234-.39-1.196 4.26-8.417 5.09-7.904.385.238.749-.321.808-1.243.059-.923 1.359-5.052 2.89-9.177 3.052-8.223 3.702-18.868 1.496-24.5l-1.174-3 3.07 3.5c2.989 3.407 3.064 3.734 2.805 12.321zm326.234-14.321c0 .55.477 1 1.059 1s.781-.45.441-1-.816-1-1.059-1-.441.45-.441 1zm-138.436 3.707c-.542 1.425-.428 1.54.56.56.684-.679.991-1.486.683-1.793-.308-.308-.867.247-1.243 1.233zm13.428.543c-.012 1.751-7.784 5.871-8.283 4.391-.496-1.471 5.066-4.898 6.506-4.008.656.405.809.214.38-.478-.392-.635-.236-1.155.346-1.155s1.055.563 1.051 1.25zm313.014 1.237c27.587 3.285 52.81 11.905 71.261 24.356 7.066 4.768 14.932 13.511 12.889 14.326-.456.182-3.996 4.7-7.867 10.04-3.871 5.339-7.392 9.389-7.824 9-.432-.39-.459-.142-.06.551.745 1.294-2.711 6.601-3.672 5.64-.293-.293-.872.016-1.287.688-.483.78-.338.963.399.507 1.858-1.148 1.329.842-.845 3.175-1.1 1.18-2 2.629-2 3.22 0 .59-.672 1.331-1.494 1.646-.822.316-1.256.96-.964 1.432.292.473-.385 1.775-1.506 2.896-1.12 1.12-1.939 2.148-1.82 2.286.713.823-6.556 11.658-7.45 11.106-.631-.39-.785-.197-.374.469.852 1.378-1.155 5.44-2.329 4.714-.461-.285-.775.265-.7 1.222.075.956-.409 1.632-1.077 1.501-.749-.147-.971.395-.58 1.414.422 1.101.247 1.413-.525.936-.78-.482-.943-.156-.5 1 .483 1.256.304 1.497-.666.898-.819-.507-1.083-.43-.693.202.915 1.481-5.259 12.445-6.557 11.643-.612-.379-.786-.197-.403.422.833 1.348-2.383 8.328-3.515 7.628-.453-.28-.528.263-.166 1.207.483 1.256.304 1.497-.666.898-.841-.52-1.084-.431-.666.245.864 1.399-.306 4.39-1.442 3.687-.486-.3-.588.226-.226 1.17.483 1.256.304 1.497-.666.898-.857-.531-1.084-.431-.644.281.374.605-.014 2.587-.86 4.404-.847 1.818-1.285 2.419-.973 1.335.312-1.083.206-1.608-.235-1.166-.442.441-.888 2.003-.991 3.469-.104 1.467-1.18 6.352-2.392 10.855l-2.202 8.188-4.609-3.542c-2.535-1.948-4.485-3.979-4.334-4.513.151-.533-.19-.683-.757-.332-.567.351-2.397-.335-4.066-1.523-2.574-1.833-2.846-2.412-1.792-3.814 1.048-1.392 1.023-1.455-.158-.402-1.761 1.57-3.357 1.634-2.407.095.426-.689.276-.884-.372-.483-1.285.794-8.447-3.805-7.461-4.791.373-.372-.171-.351-1.207.046-1.411.542-1.678.391-1.065-.602.523-.846.431-1.084-.256-.66-1.397.864-15.471-6.761-14.485-7.848.413-.455.238-.534-.389-.176-1.581.903-15.461-5.359-14.68-6.623.362-.586.133-.71-.54-.294-.644.397-5.8-1.066-11.46-3.252-19.822-7.656-47.575-13.162-66.348-13.162-10.517 0-18.733 1.634-25.451 5.061l-4.057 2.07.685-2.158c2.585-8.145 14.852-28.078 25.522-41.473 14.87-18.665 49.821-55.044 59.632-62.065 3.389-2.427 6.341-4.948 6.56-5.604.219-.656 1.946-1.752 3.837-2.436 4.948-1.788 36.626-1.731 51.946.092zm-526.006 2.454c0 1.682.173 3.059.383 3.059.849 0 1.288-5.085.483-5.583-.476-.294-.866.842-.866 2.524zm-18.642.829c.366.593-.127 1.285-1.096 1.538-1.575.411-1.583.472-.071.576 2.12.145 3.235-1.503 1.671-2.469-.702-.434-.904-.292-.504.355zm14.277.037c-.453.719-.561 2.352-.24 3.63.914 3.641 6.622 4.273 6.59.73-.009-.983-.317-1.243-.75-.634-1.449 2.038-3.718.951-4.246-2.033-.367-2.073-.786-2.596-1.354-1.693zm219.624 2.769c.352 1.838.185 2.268-.583 1.5-.592-.592-1.998-1.09-3.126-1.108-2.017-.031-2.019-.055-.109-1.5 2.68-2.027 3.251-1.861 3.818 1.108zm-225.259-.405c0 .644-.686 1.93-1.525 2.857-1.372 1.516-1.347 1.825.25 3.079 1.594 1.251 1.642 1.223.476-.268-.873-1.118-.955-1.873-.25-2.309.577-.356 1.049-.246 1.049.244 0 .491.735.893 1.632.893 1.379 0 1.412-.169.214-1.084-.78-.595-1.257-1.871-1.059-2.833.198-.962.102-1.75-.214-1.75-.315 0-.573.527-.573 1.171zm20.158.829c0 1.375.227 1.938.504 1.25.278-.687.278-1.812 0-2.5-.277-.687-.504-.125-.504 1.25zm189.842-1c0 .617-4.12.925-10.75.804l-10.75-.195 10.5-.609c5.775-.335 10.612-.697 10.75-.804.138-.108.25.254.25.804zm140.5 0c-.34.55-.168 1 .382 1s1.278-.45 1.618-1c.34-.55.168-1-.382-1s-1.278.45-1.618 1zm-195.689 3.747c-7.53.17-20.13.17-28 .001-7.871-.169-1.711-.308 13.689-.308 15.4-.001 21.84.138 14.311.307zm-81.811 1.362c-14.834 1.968-18.464 3.109-31.929 10.04-7.451 3.835-14.343 7.692-15.314 8.571-.971.878-2.712 4.193-3.869 7.366-1.383 3.795-2.548 5.598-3.405 5.269-.932-.358-1.067-1.318-.475-3.384 2.325-8.107 7.598-12.537 26.406-22.183l13.086-6.712 11 .085c10.688.083 10.816.11 4.5.948zm146.5-.109c1.345.578-.455.85-5.5.83-5.204-.02-6.735-.274-5-.83 3.318-1.063 8.027-1.063 10.5 0zm-218.5 1.393c0 .216.698.661 1.552.989.89.341 1.291.173.941-.393-.587-.951-2.493-1.406-2.493-.596zm780.381 5.837c-6.21 6.769-13.03 16.017-18.05 24.466-4.25 7.135-24.94 48.668-39.51 79.28-3.26 6.861-6.4 12.762-6.96 13.111-.57.35-.99.924-.95 1.275.28 2.058-.04 2.674-1.07 2.043-.74-.46-.88-.273-.38.527 1.12 1.817-2.53 9.517-3.72 7.855-.67-.925-.77-.796-.37.46.31.961-1 5.126-2.9 9.254-1.91 4.129-3.47 7.676-3.47 7.881 0 .206-.76 2.116-1.69 4.246-.92 2.13-1.6 4.214-1.49 4.633.1.418-.6.347-1.57-.159-10.84-5.686-38.375-13.556-58.751-16.792-21.238-3.374-60.098-2.122-72.906 2.348-2.148.75-4.087 1.182-4.309.961-.76-.76 11.478-7.62 17.846-10.002 9.344-3.497 23.951-6.536 35.622-7.413 8.576-.644 10.521-.519 11.891.763.901.843 1.323.971.938.283-.397-.708-.133-1.301.609-1.367 2.912-.261 14.502.223 17.309.722 5.658 1.007 21.5 6.56 21.5 7.536 0 .538.451.698 1.003.357 1.008-.623 14.298 6.089 23.388 11.808l4.88 3.077 1.86-2.302c1.03-1.267 1.93-3.378 1.99-4.692.17-3.233.11-3.008 2.82-10.594 1.32-3.689 2.84-6.43 3.38-6.095.56.344.67.097.26-.566-.4-.646 1.07-6.453 3.26-12.904 2.19-6.452 8.11-24.449 13.14-39.995 5.93-18.295 9.54-28.029 10.24-27.596.65.401.8.203.37-.493-.94-1.519.28-5.343 1.47-4.609.5.312.67-.069.37-.845-.29-.777 1.31-5.638 3.57-10.802 2.26-5.165 4.82-11.114 5.69-13.221 1.19-2.875 1.83-3.499 2.54-2.5.7.976.8.843.36-.5-1.87-5.771 13.98-13.026 30.41-13.923 2.47-.135 4.68-.143 4.89-.016.22.126-1.36 2.151-3.51 4.5zm-774.568-3.547c.721.289 1.584.253 1.916-.079.332-.332-.258-.568-1.312-.525-1.165.048-1.402.285-.604.604zm172.187.343c11.825.586 22.4 1.235 23.5 1.443 1.1.208 3.039.412 4.309.454 1.296.043 2.033.523 1.681 1.093-.346.559-1.117.715-1.714.346-.647-.401-.797-.206-.371.483 1.096 1.774-.438 3.673-1.624 2.012-.729-1.02-.824-.906-.382.456.323.998-.085 3.113-.906 4.7-.821 1.588-1.963 5.081-2.538 7.763l-1.046 4.876-16.955 2.384c-16.28 2.289-21.668 3.968-12.704 3.96 3.596-.003 15.493-1.585 26-3.456 2.204-.393 2.75-.114 2.75 1.403 0 4.679-.76 5.057-10.16 5.057-4.92 0-12.184.723-16.143 1.607-8.793 1.963-11.465 3.908-4.197 3.054 2.75-.323 10.448-.889 17.108-1.257l12.107-.671.708 7.384c.389 4.06.951 8.396 1.25 9.633.52 2.152.266 2.252-5.815 2.286-6.388.036-26.253 3.025-27.342 4.115-1.347 1.347 8.017 1.758 19.579.859 6.823-.531 12.91-.975 13.527-.987.617-.013 1.395 1.681 1.728 3.763.333 2.083 1.725 5.998 3.093 8.701 1.369 2.703 2.391 4.983 2.273 5.066-2.317 1.619-18.539 2.652-54.216 3.45-27.329.611-47.666 1.539-55.803 2.545-7.534.931-15.148 1.314-18.5.929-14.254-1.636-21.431-3.289-20.54-4.731.383-.62.174-.759-.508-.338-1.421.878-8.24-1.452-7.544-2.578.274-.444-.105-.576-.842-.292-1.455.558-9.289-4.251-12.244-7.517-1.805-1.995-1.779-2.021 1.994-2.021 4.964 0 16.739-1.997 17.851-3.027 1.374-1.273-9.973-2.3-17.959-1.624-7.169.606-7.328.568-9.315-2.223l-2.021-2.838 7.616-.644c4.189-.354 11.261-.689 15.716-.744 4.454-.055 9.224-.441 10.599-.859l2.5-.76-3-1.275c-1.65-.701-7.275-1.558-12.5-1.904l-9.5-.628 12.943-.763c12.431-.733 14.518-1.083 13.362-2.239-.29-.29-9.703-.75-20.916-1.021l-20.389-.493-.258-6.229c-.142-3.426.083-6.746.5-7.377.705-1.068 29.732-4.352 38.463-4.352 2.022 0 4-.523 4.395-1.162.713-1.154-17.191-.74-35.1.811-4.768.413-6.681.28-6-.417.556-.57 11.215-1.524 24-2.149 25.291-1.237 32.5-1.934 32.5-3.14 0-1.58-10.727-2.07-22.5-1.027-6.6.585-16.443 1.068-21.872 1.074-8.631.009-9.717-.177-8.637-1.479.68-.819 1.604-1.262 2.053-.984.45.278 1.143-.021 1.541-.665.495-.801.28-.903-.68-.325-1.2.723-1.199.593.005-.891.776-.955 2.008-1.508 2.738-1.227.731.28 1.221-.037 1.09-.705-.131-.668.545-1.152 1.501-1.077.989.078 1.458-.319 1.086-.92-.411-.665-.017-.813 1.063-.398.98.376 1.464.251 1.13-.291-.805-1.302 9.56-7.168 11.733-6.64.964.234 1.52.05 1.236-.409-.894-1.446 9.662-3.583 24.013-4.861 13.798-1.229 77.396-1.287 101.5-.092zm54.426 18.317c2.764 8.823 4.405 15.717 4.047 17-.406 1.449-.307 1.73.301.857.626-.898 1.583.982 3.098 6.088l2.193 7.387-4.863 4.913c-5.712 5.769-22.669 19.643-23.871 19.531-1.284-.12-8.223-12.068-9.323-16.051-.961-3.481-.867-3.651 4.756-8.699 3.155-2.832 6.143-4.904 6.641-4.605.497.3.571.006.163-.653-.407-.659-.187-1.865.488-2.679 1.589-1.915.606-2.927-1.194-1.23-.757.714-3.906 3.424-6.999 6.023l-5.623 4.725-.62-3.1c-.341-1.705-.62-5.657-.62-8.783v-5.683l5.734-4.209c3.154-2.315 6.327-3.982 7.052-3.704.725.279 1.041.058.703-.49-.339-.547.088-1.265.948-1.595 1.584-.608 2.191-2.388.813-2.384-.413.001-3.788 1.999-7.5 4.439-5.78 3.799-6.75 4.161-6.75 2.518 0-2.236 9.455-8.105 11.68-7.251.771.295 1.271.145 1.111-.335-.16-.48.159-1.073.709-1.317.55-.244 1.872-1.257 2.939-2.25 1.856-1.73 3.094-2.211 4.885-1.9.454.079.51-.366.125-.988-.484-.783.033-.925 1.676-.46 1.306.37 1.876.306 1.267-.142-.61-.449-.991-1.58-.846-2.514.2-1.3-.127-1.489-1.392-.804-.91.492-3.946 1.99-6.746 3.328-2.801 1.338-7.036 3.841-9.41 5.561-2.375 1.72-4.472 2.973-4.66 2.784-.978-.978 5.594-16.831 6.695-16.15.408.251.679-.325.604-1.282-.114-1.448.984-1.823 6.565-2.239 3.686-.275 7.28-1.078 7.986-1.785 1.045-1.047 1.404-.862 1.935 1 .359 1.257 2.745 8.964 5.303 17.128zm-214.862-16.636c-.542 1.425-.428 1.54.56.56.684-.679.991-1.486.683-1.793-.308-.308-.867.247-1.243 1.233zm-52.029 5.685c-9.23 11.265-13.742 29.319-11.5 46.02.977 7.279 2.973 16.502 4.611 21.306.334.98-.687-.152-2.269-2.517-2-2.989-3.412-4.16-4.631-3.842-1.959.509-2.107.068-3.709-11.051-2.466-17.108-.202-26.54 10.769-44.868 5.713-9.542 6.954-11.046 8.47-10.261 1.611.834 1.448 1.321-1.741 5.213zm60.465-4.999c0 .216.698.661 1.552.989.89.341 1.291.173.941-.393-.587-.951-2.493-1.406-2.493-.596zm186 1c0 .216.698.661 1.552.989.89.341 1.291.173.941-.393-.587-.951-2.493-1.406-2.493-.596zm-367.854 7.018c9.451 1.534 15.413 3.814 22.212 8.491 2.433 1.674 7.88 4.708 12.104 6.741 5.128 2.468 11.992 7.297 20.652 14.527 7.134 5.956 13.428 10.83 13.987 10.83.56 0 .805.343.546.763-.26.419 1.018.788 2.84.819 2.529.043 3.177-.295 2.742-1.427-.399-1.041-.174-1.239.756-.665.884.547 1.085.433.605-.344-1.011-1.636.326-5.316 1.637-4.506.612.378.796.207.424-.395-.932-1.509.348-4.364 1.608-3.585.603.373.754.17.355-.476-.88-1.423 3.317-11.344 4.492-10.619.479.297.635-.077.346-.83-.289-.753.403-3.364 1.538-5.802 1.135-2.438 1.846-3.66 1.581-2.715-.266.945.016 2.027.627 2.404.648.401.831.234.44-.398-.785-1.27.938-2.604 2.286-1.771.508.314-.565 2.785-2.386 5.491-4.136 6.145-7.547 15.129-11.601 30.556-1.735 6.6-3.269 12.126-3.409 12.28-.388.427-14.723-11.38-27.025-22.258-18.554-16.407-34.626-26.099-54.884-33.097-5.826-2.012-10.347-4.056-10.047-4.542.794-1.284 7.687-1.077 17.574.528zm368.361.578c-.363.587.086.721 1.105.33 1.256-.483 1.497-.304.898.666-.549.887-.433 1.085.352.6.644-.398.912-1.142.595-1.654-.751-1.216-2.18-1.188-2.95.058zm-356.964 3.942c-.317.512-.193 1.167.274 1.456.467.289.85-.13.85-.931 0-1.686-.316-1.833-1.124-.525zm371.964.058c-.35.566.051.734.941.393 1.732-.665 2.049-1.382.611-1.382-.518 0-1.216.445-1.552.989zm-234.824 2.395c-.328.854-.196 1.799.292 2.1 1.275.789 2.036-.849 1.098-2.366-.621-1.004-.925-.946-1.39.266zm795.048-.571c.85.542-.78 2.764-5.33 7.234-11.32 11.137-27.55 32.452-33.28 43.703-1.19 2.337-2.38 4.25-2.64 4.25-.26 0 2.09-5.146 5.22-11.436 3.13-6.291 6.05-11.217 6.49-10.949.43.269.55-.132.26-.891-.62-1.612 8.05-19.355 12.37-25.316 2.35-3.243 4.07-4.419 8.32-5.669 6.37-1.876 6.99-1.943 8.59-.926zm-948.533 2.788c7.949 2.491 22.3 9.235 21.453 10.081-.708.708-47.478-.957-48.736-1.735-.664-.41-.93-1.466-.592-2.346.467-1.217 2.025-1.601 6.495-1.601 9.251 0 21.182-1.209 21.182-2.147 0-.469-4.162-.872-9.25-.895l-9.25-.042 3.5-1.916c4.571-2.502 5.398-2.47 15.198.601zm169.902.694c-1.265 2.107-1.243 2.128.479.479.991-.95 1.587-1.942 1.324-2.205-.263-.263-1.074.514-1.803 1.726zm-21.287.388c.721.289 1.584.253 1.916-.079.332-.332-.258-.568-1.312-.525-1.165.048-1.402.285-.604.604zm5.79 1.15c-.283.459.12.834.897.834s1.18-.375.897-.834c-.283-.458-.687-.833-.897-.833-.21 0-.614.375-.897.833zm-45.958 3.55c.079.064-.958 4.842-2.306 10.617-2.939 12.594-2.673 21.485 1.075 35.881l2.443 9.381-14.679-.656c-40.755-1.821-114.171-6.265-114.858-6.953-.145-.145 1.248-2.508 3.095-5.25 1.847-2.743 3.53-5.869 3.74-6.945.357-1.83 1.278-1.958 14.114-1.958 7.553 0 13.732-.316 13.732-.703-.002-1.488-7.918-2.79-17.501-2.877-7.949-.073-9.385-.291-7-1.063 1.65-.534 7.387-.956 12.75-.939 5.363.018 9.75-.145 9.75-.361 0-3.071-1.503-3.557-11-3.557-8.155 0-9.891-.274-10.417-1.643-.346-.904-.385-1.889-.085-2.189.3-.3 7.093.032 15.096.738 8.002.706 14.785 1.048 15.072.761.288-.287-1.432-1.793-3.822-3.345-4.107-2.668-4.951-2.822-15.452-2.813l-11.108.008-1.015-3.803-1.015-3.802 19.811.37c19.642.367 24.022 1.151 22.269 3.986-.353.572-.199.767.343.432 1.095-.677 21.937 15.844 21.629 17.145-.107.452.379.822 1.08.822 2.022 0 19.655 15.457 18.945 16.607-.352.569-.159.738.43.374.588-.364 2.345.399 3.904 1.695 2.95 2.452 6.132 3.115 5.955 1.24-.227-2.418 2.641-11.54 3.468-11.029.489.303.644-.088.345-.868-.969-2.524 3.531-17.598 8.749-29.309l5.087-11.417 3.616.653c1.988.359 3.68.705 3.76.77zm-97.645.617c-.901.582-1.025.975-.309.985.655.008 1.469-.435 1.809-.985.767-1.242.421-1.242-1.5 0zm94.031.5c0 .55.436 1.675.969 2.5.533.825.969 1.05.969.5s-.436-1.675-.969-2.5c-.533-.825-.969-1.05-.969-.5zm-88.218 2.183c.721.289 1.584.253 1.916-.079.332-.332-.258-.568-1.312-.525-1.165.048-1.402.285-.604.604zm143.79 1.15c-.283.459.14.834.941.834.801 0 1.456-.375 1.456-.834 0-.458-.423-.833-.941-.833s-1.173.375-1.456.833zm18.901 8.176l.003 9.007-1.234-4.758c-1.574-6.067-1.582-8.791-.032-11.272a146.634 146.634 0 011.25-1.985c.005 0 .011 4.054.013 9.008zm-43.004-.241c10.769 3.67 14.894 3.772 25.5.627 2.349-.697 2.41-.626 1 1.182-1.393 1.785-1.373 1.823.279.526 1.562-1.226 2.078-1.117 4.219.896 1.342 1.26 2.16 2.746 1.817 3.301-.368.595-.12.697.605.25 1.275-.788 6.08 2.988 6.08 4.779 0 1.005-27.152.288-36-.951-3.125-.438-4.194-.31-3.5.418.55.577 9.325 2.094 19.5 3.371l18.5 2.322-12.058.717c-15.665.931-20.436 2.571-8.442 2.902 4.675.129 9.175.334 10 .457.825.122 4.93.27 9.122.329l7.622.106.627 3.921c.705 4.409-.053 7.394-1.63 6.419-.638-.394-.75-.164-.286.587.983 1.591-4.396 7.31-6.219 6.61-.737-.283-1.112-.145-.833.306 1.373 2.222-17.052 5.867-33.06 6.539l-11.157.469-4.037-12.175c-3.613-10.898-4.64-15.514-5.558-24.979-.286-2.954 1.125-13.428 2.001-14.845.282-.458 2.627.226 5.211 1.519 2.583 1.294 7.397 3.272 10.697 4.397zm36.514-2.018c.007.962.303 2.875.657 4.25.642 2.498.641 2.499-1.538.574-1.199-1.06-1.832-2.185-1.407-2.5.426-.316.893-1.249 1.038-2.074.193-1.094-.125-1.002-1.176.341-1.111 1.419-1.859 1.605-3.265.815-1.682-.947-1.63-1.103.677-2.028 3.712-1.487 4.998-1.327 5.014.622zm-147.091-.5c-.909 2.971-.614 3.655 1.167 2.702 2.35-1.258 2.52-2.123.246-1.251-1.119.43-1.427.256-.941-.531.398-.644.471-1.17.164-1.17-.307 0-.593.112-.636.25zm103.379 3.071c-.342.553-.102.674.543.274.635-.392 1.155-.236 1.155.346s.375 1.059.833 1.059c.459 0 .834-.6.834-1.333 0-1.548-2.466-1.801-3.365-.346zm-94.969 4.135c0 .801.383 1.22.85.931.467-.289.591-.944.274-1.456-.808-1.308-1.124-1.161-1.124.525zm906.668 5.418c0 9.592 4.59 19.08 11.15 23.074l2.68 1.624-7.79 8.964c-10.57 12.18-26.18 33.146-33.97 45.65-3.54 5.673-12.95 21.789-20.91 35.814-7.96 14.025-14.8 25.876-15.2 26.335-1.63 1.864-12.78-6.207-11.48-8.309.37-.591.08-.952-.64-.801-1.27.266-7.64-11.262-7.77-14.067-.1-1.995 3.65-6.414 4.41-5.192 1.06 1.726 2.5 1.167 3.69-1.435.61-1.357 1.5-2.234 1.96-1.948.47.287.55-.251.19-1.195-.45-1.157-.28-1.483.5-1 .71.444.96.206.64-.626-.28-.737 2.42-7.692 6-15.455 8.6-18.629 10.84-22.807 12.22-22.807.63 0 1.53-.41 1.99-.91.48-.529.3-.609-.42-.191-1.81 1.04-1.55-.188.88-4.119 1.65-2.663 2.36-3.15 3.1-2.119.71.99.8.864.37-.483-.77-2.353 1.29-6.464 2.37-4.729.55.894.92.782 1.38-.417.4-1.06.23-1.392-.49-.945-1.61.991-1.05-.147 5.56-11.411 3.25-5.549 6.28-9.86 6.73-9.58.46.279.53-.264.17-1.208-.49-1.256-.31-1.497.66-.898.85.525 1.09.431.66-.262-.61-.992.4-2.902 7.21-13.551 1.29-2.021 2.82-3.38 3.4-3.021.62.381.76.176.35-.493-1.51-2.448 10.11-16.075 12.47-14.618.76.466.98.352.58-.293-.58-.951 4.76-5.194 6.6-5.235.41-.009.75 2.626.75 5.857zm-768.268.25c.679.684 1.486.991 1.793.683.308-.308-.247-.867-1.233-1.243-1.425-.542-1.54-.428-.56.56zm20.267 2.271c0 .217-1.8.567-4 .776-2.2.21-4 .032-4-.395 0-.427 1.8-.776 4-.776s4 .178 4 .395zm203-.017c0 .207.788.995 1.75 1.75 1.586 1.243 1.621 1.208.378-.378-1.307-1.666-2.128-2.195-2.128-1.372zm-2.541 1.689c-.363.586-.445 1.281-.183 1.543s.743-.218 1.069-1.067c.676-1.762.1-2.072-.886-.476zm-214.959 1.933c.34.55-.309 1-1.441 1-1.132 0-2.059-.45-2.059-1s.648-1 1.441-1 1.719.45 2.059 1zm222.395 6.496c-2.344 2.418-4.698 4.126-5.232 3.795-.535-.33-.688-.141-.341.421.834 1.349-2.889 4.673-4.275 3.817-.594-.367-.816-1.093-.494-1.614.322-.521 1.074-.646 1.671-.277.651.402.797.205.366-.493-.437-.706.483-1.848 2.339-2.904 1.682-.958 3.061-2.073 3.065-2.48.011-1.375 3.357-4.662 4.209-4.135.466.287.782.152.703-.302-.078-.453-.076-1.499.006-2.324.118-1.186.368-1.124 1.196.3.861 1.48.289 2.581-3.213 6.196zm-9.895-1.996c-.718.865-.815 1.5-.229 1.5.558 0 1.274-.675 1.591-1.5.316-.825.419-1.5.229-1.5-.19 0-.906.675-1.591 1.5zm143.459-.433c-.363.586-.389 1.336-.059 1.666.33.33.6.049.6-.625s.52-.905 1.155-.513c.715.443.883.275.44-.44-.884-1.431-1.296-1.448-2.136-.088zm-556.856 8.668c2.215-.423 2.215-.417-.325 3.421-2.425 3.665-2.793 3.844-7.911 3.844-2.952 0-5.387.337-5.411.75-.024.413-.406 2.622-.849 4.911-.679 3.507-.568 4.069.708 3.58 1.103-.424 1.281-.197.657.839-.735 1.219-.613 1.223.864.025 1.935-1.571 3.194-1.512 44.397 2.067l25.234 2.193-6.234 6.514c-10.6 11.078-21.901 21.574-29.733 27.616-7.825 6.036-18.07 11.512-21.5 11.492-2.13-.013-119.694-38.787-118-38.918 5.666-.438 21.734-3.656 28.5-5.708 18.155-5.505 30.234-11.033 54.093-24.757l9.211-5.298 12.04 3.927c6.622 2.16 13.039 3.736 14.259 3.502zm79.397-6.357c0 .207.788.995 1.75 1.75 1.586 1.243 1.621 1.208.378-.378-1.307-1.666-2.128-2.195-2.128-1.372zm328.75.284c.688.278 1.813.278 2.5 0 .688-.277.125-.504-1.25-.504s-1.937.227-1.25.504zm12.619 8.588c-4.447 4.538-8.825 9.363-9.728 10.723-1.408 2.121-1.641 2.203-1.641.576 0-1.74 17.073-19.549 18.741-19.549.393 0-2.924 3.712-7.372 8.25zm-211.369 1.087c0 4.279-1.745 7.745-5.469 10.863-3.26 2.73-14.552 6.539-23.632 7.973-13.04 2.06-48.031 1.635-79.899-.971-76.943-6.291-103.838-8.208-107.25-7.645-3.334.55-3.75.387-3.75-1.469 0-1.148.164-2.088.364-2.088.199 0 2.656.435 5.459.966 16.074 3.049 80.646 7.087 117.898 7.374 17.143.132 20.986.422 21.962 1.66.941 1.194 1.439 1.247 2.438.262.957-.944 5.797-1.087 20.34-.599 15.857.531 20.35.357 26.562-1.029 13.223-2.949 22.977-10.394 22.977-17.537 0-1.889.413-2.96 1-2.597.55.34 1 2.516 1 4.837zm11-2.959c0 .207.788.995 1.75 1.75 1.586 1.243 1.621 1.208.378-.378-1.307-1.666-2.128-2.195-2.128-1.372zm192.242 2.104c.051.512-1.504 2.223-3.455 3.803-2.538 2.054-4.364 2.761-6.417 2.486l-2.87-.385 2.5-1.128c1.375-.62 3.85-2.265 5.5-3.655 2.99-2.518 4.567-2.891 4.742-1.121zm-323.856.788c-.389.677-.338.896.112.489.45-.408 1.433-.231 2.184.392.752.624 1.56.94 1.797.704.236-.237-.429-.967-1.478-1.622-1.486-.928-2.065-.92-2.615.037zm901.445 1.652c-.18.507-4.93 6.47-10.54 13.25-23.06 27.84-39.4 52.134-56.41 83.828-3.09 5.775-6.17 10.376-6.83 10.225-.66-.151-.92.186-.57.748.83 1.332-1.91 5.243-2.98 4.271-.45-.409-.51-.199-.13.467.77 1.329-5.03 9.935-6.43 9.551-.48-.131-.64.359-.36 1.09.61 1.584-2.08 4.077-3.47 3.218-.53-.332-1.26-.144-1.6.416-.42.685-1.31.657-2.69-.083-1.61-.861-1.89-.827-1.28.157 2.35 3.805-29.57-2.426-62.041-12.111-25.648-7.649-30.764-8.885-59.471-14.37-15.691-2.997-29.429-5.685-30.529-5.973-1.1-.289 4.3-.295 12-.015 23.965.872 43.65 4.895 57 11.651 16.741 8.472 82.021 21.489 87.321 17.412 1.44-1.113 11.89-18.462 25.67-42.654 16.87-29.614 34.24-53.462 53.69-73.724 3.28-3.423 5.68-6.686 5.33-7.25-.37-.602.46-1.026 2.01-1.026 1.46 0 2.5.415 2.31.922zm-584.831 1.578c-.718.865-.815 1.5-.229 1.5.558 0 1.274-.675 1.591-1.5.316-.825.419-1.5.229-1.5-.19 0-.906.675-1.591 1.5zm21.079.083c.048 1.165.285 1.402.604.605.289-.722.253-1.585-.079-1.917-.332-.332-.568.258-.525 1.312zm-5.536 4.348c-.317.512-.193 1.167.274 1.456.467.289.85-.13.85-.931 0-1.686-.316-1.833-1.124-.525zM271.949 438c0 .582.45.781 1 .441s1-.816 1-1.059-.45-.441-1-.441-1 .477-1 1.059zm15.573 4.059c.397.642-.617.904-2.72.703-2.858-.274-3.401-.745-3.681-3.195l-.329-2.874 3.048 2.171c1.677 1.193 3.333 2.631 3.682 3.195zm92.344.487c.229.217-.509.395-1.64.395-1.13 0-3.118-.898-4.416-1.995l-2.361-1.994 4 1.6c2.2.879 4.188 1.777 4.417 1.994zm168.894-.855c-.306 1.596-2.754 1.81-27.815 2.433-15.114.376-36.934 1.118-48.488 1.649-11.554.531-26.183.666-32.508.299l-11.5-.666 15.5-.855c23.725-1.309 89.584-4.32 97.823-4.474 6.476-.12 7.285.067 6.988 1.614zm-396.998 2.933c.721.289 1.584.253 1.916-.079.332-.332-.258-.568-1.312-.525-1.165.048-1.402.285-.604.604zm45.059 5.067c-1.243 1.586-1.208 1.621.378.378 1.666-1.307 2.195-2.128 1.372-2.128-.207 0-.995.788-1.75 1.75zm9.626 3.5c-3.246 2.888-6.294 5.126-6.774 4.975-.48-.151-.618.137-.307.641.311.503-2.392 3.439-6.006 6.524-3.614 3.086-6.197 5.625-5.741 5.643.457.019-.229.916-1.524 1.995-1.295 1.079-2.827 1.669-3.405 1.312-.643-.397-.75-.163-.275.605.502.813-1.267 3.317-5.032 7.122-4.878 4.929-6.057 5.673-7.371 4.651-1.327-1.034-1.383-.986-.372.313.993 1.277-.422 3.229-8.5 11.73l-9.691 10.197-13-3.367c-7.15-1.852-29.2-8.196-49-14.096-19.8-5.901-44.109-13.041-54.02-15.867l-18.02-5.138 9.345-2.305c7.813-1.928 9.619-2.091 11.02-.996 1.502 1.175 1.533 1.13.303-.439-1.785-2.275-.52-2.291 6.489-.082 2.911.918 5.019 2.113 4.683 2.655-.344.558-.097.67.569.258 1.641-1.014 16.238 3.437 15.45 4.711-.349.566-.136.713.481.332 1.48-.915 6.334.351 5.641 1.471-.3.485.119.627.93.316.812-.311 16.778 4.425 35.481 10.526 26.291 8.576 35.021 11.032 38.484 10.828 2.464-.146 4.322-.427 4.129-.624-.193-.198 3.561-2.933 8.342-6.079 4.781-3.145 9.311-6.471 10.065-7.39 1.542-1.878 3.638-2.307 2.533-.517-.446.721-.274.882.457.43.644-.398.949-1.082.678-1.52-.605-.979 2.872-4.261 4.085-3.857.481.161.944-.088 1.027-.551.338-1.865 5.859-6.675 7.112-6.194.737.283 1.113.147.836-.302-.702-1.134 14.899-16.329 15.82-15.408.411.411.603.297.428-.253s.772-2.462 2.105-4.25c1.797-2.411 3.201-3.25 5.435-3.25 2.981 0 2.953.052-2.89 5.25zm-.173-3.592c.362.362.099 1.374-.584 2.25-1.098 1.409-1.039 1.434.509.22 2.005-1.573 2.295-3.128.583-3.128-.641 0-.87.296-.508.658zm692.411 2.598l-1.765 3.244 2.015-2.361c1.714-2.009 2.63-4.155 1.764-4.133-.138.004-1.044 1.466-2.014 3.25zm-121.304 7.288c12.004 2.431 33.362 8.911 38.984 11.828 1.404.729 2.223 1.69 1.819 2.137-.404.446-.206.509.44.139 1.578-.904 6.427 1.378 5.639 2.653-.343.554-.137.708.457.341 1.321-.817 6.357 1.341 5.681 2.435-.266.432.042 1.11.686 1.508.731.452.903.291.457-.43-.999-1.617.042-1.439 3.03.519 1.405.921 3.977 2.456 5.715 3.412s3.036 2.261 2.885 2.901c-.151.639.206.864.794.501 1.324-.818 5.7 1.836 8.841 5.362 1.298 1.458 1.993 1.982 1.545 1.165-.447-.817 1.641.271 4.641 2.417 8.729 6.246 9.047 6.838 2.449 4.554-12.184-4.216-41.355-12.956-52.995-15.877-22.909-5.751-47.529-8.735-63-7.635-13.13.933-24.378 2.494-28.699 3.983l-3.787 1.304 4.056-4.845c5.302-6.332 9.834-10.093 11.169-9.268.589.363.789.207.446-.348-.784-1.268 3.472-5.353 5.957-5.718 1.022-.15 1.858-.818 1.858-1.484 0-.667 1.125-2.115 2.5-3.218 2.281-1.831 3.517-1.959 14.103-1.46 6.382.301 17.33 1.707 24.329 3.124zm-587.508 7.206l-2.424 2.75 2.75-2.424c1.512-1.334 2.75-2.571 2.75-2.75 0-.785-.81-.146-3.076 2.424zm540.155-.059c-.136 2.048 1.633 2.365 3.058.548 1.216-1.551 1.185-1.6-.29-.447-1.35 1.055-1.747 1.055-2.171 0-.356-.887-.543-.918-.597-.101zm-17.746 7.96c0 .984.337 1.038 1.334.211.733-.609 1.333-1.202 1.333-1.318 0-.116-.6-.211-1.333-.211a1.33 1.33 0 00-1.334 1.318zm-4.79 2.28c-.317.512-.193 1.167.274 1.456.467.289.85-.13.85-.931 0-1.686-.316-1.833-1.124-.525zm135.457.462c0 .216.698.661 1.552.989.89.341 1.291.173.941-.393-.587-.951-2.493-1.406-2.493-.596zm-660 5.952c0 .19-.964 1.202-2.142 2.25-2.134 1.898-2.136 1.897-.759-.345 1.175-1.912 2.901-3.046 2.901-1.905zm604.5 2.541c17.412 3.258 29.453 6.382 28.781 7.468-.366.592.105.712 1.178.3 1.701-.653 18.075 3.145 17.225 3.995-.223.224-8.231-.969-17.795-2.651-45.118-7.933-48.723-8.394-65.889-8.433-15.889-.036-16.841.078-25.723 3.084l-9.224 3.122 3.547-4.327c2.488-3.037 4.494-4.463 6.723-4.782 1.747-.249 13.752-.313 26.677-.143 18.484.244 25.848.749 34.5 2.367zm-26.75-1.224c.688.278 1.813.278 2.5 0 .688-.277.125-.504-1.25-.504s-1.937.227-1.25.504zm77.333-.379c.23.156 1.317.943 2.417 1.75 1.85 1.357 1.897 1.336.628-.283-.755-.962-1.843-1.75-2.417-1.75-.574 0-.857.127-.628.283zm-134.083 5.61c0 .491.739 1.176 1.641 1.523 1.373.527 1.435.38.378-.893-1.44-1.735-2.019-1.916-2.019-.63zm61.216 2.645c13.319 1.815 50.218 7.944 81.784 13.583 12.375 2.211 23.973 3.79 25.772 3.509 1.8-.282 3.051-.153 2.781.285-.271.438.635.581 2.012.317 2.384-.455 2.446-.351 1.296 2.173-.664 1.459-1.478 2.215-1.807 1.682-.33-.533-.599.777-.599 2.911s-.335 4.216-.744 4.625c-.409.409-21.549 1.082-46.978 1.496-56.367.917-72.284 2.685-97.346 10.813-4.888 1.585-9.002 2.772-9.142 2.637-.139-.135.245-1.677.855-3.427.611-1.751.948-6.738.751-11.084-.285-6.286-.824-8.53-2.635-10.979-2.164-2.928-1.839-4.302.471-1.992.783.783 1.302.74 1.855-.154.494-.801.357-.988-.387-.528-.635.392-1.155.294-1.155-.217 0-.952 34.102-6.747 46.25-7.859 3.712-.34 6.75-1.003 6.75-1.474 0-.47-3.274-.855-7.276-.855-13.598 0-35.944 3.346-51.224 7.671-1.658.47-1.504.04.903-2.517 1.597-1.695 3.397-2.802 4-2.458.603.344.773.266.377-.173-.397-.438.15-2.021 1.215-3.516 1.48-2.078 3.299-2.984 7.721-3.844 3.181-.618 6.684-1.306 7.784-1.528 4.597-.927 16.157-.536 26.716.903zm44.597.145c.721.289 1.584.253 1.916-.079.332-.332-.258-.568-1.312-.525-1.165.048-1.402.285-.604.604zm-635.08 1.441c.679.684 1.486.991 1.793.683.308-.308-.247-.867-1.233-1.243-1.425-.542-1.54-.428-.56.56zm-17.861 3.626c-1.243 1.586-1.208 1.621.378.378 1.666-1.307 2.195-2.128 1.372-2.128-.207 0-.995.788-1.75 1.75zm12.108.774c-.696.838-1.071 1.718-.835 1.955.237.236.98-.449 1.651-1.524 1.452-2.325.968-2.58-.816-.431zm669.749.08c-.332.332-1.195.368-1.916.079-.798-.319-.561-.556.604-.604 1.054-.043 1.644.193 1.312.525zm37.271-.211c0 .216.698.661 1.552.989.89.341 1.291.173.941-.393-.587-.951-2.493-1.406-2.493-.596zm95.162 6.107c4.214.719 17.209 4.582 28.878 8.584 16.351 5.609 20.731 7.458 19.091 8.064-2.62.967-36.308-9.053-35.398-10.526.347-.561-.135-.682-1.156-.29-.964.37-4.865-.273-8.67-1.429-3.805-1.156-11.978-3.181-18.162-4.501l-11.245-2.399 9.5.595c5.225.327 12.948 1.183 17.162 1.902zm-808.29 1.25c-1.214 1.548-1.189 1.607.22.509.876-.683 1.96-.908 2.41-.5.45.407.495.179.099-.509-.929-1.616-1.093-1.586-2.729.5zm874.749.789c-.96 2.514-.68 3.163.5 1.136.58-1.004.85-2.036.59-2.293-.25-.258-.74.263-1.09 1.157zm-82.621 1.97c6.325.869 14.875 2.259 19 3.088 9.863 1.983 32.301 9.016 38.001 11.907 4.19 2.131 4.63 2.736 6.35 8.815 2.21 7.794 3.55 9.852 9 13.882 3.62 2.673 3.81 2.98 1.45 2.424-1.48-.35-10.03-1.771-19-3.158-22.648-3.504-41.156-8.499-59.058-15.939-13.883-5.77-44.202-10.406-60.977-9.324l-7.266.468.331-6.234.331-6.235 5.669-1.046c8.088-1.492 52.007-.595 66.169 1.352zm43 6.491c.825.533 1.95.969 2.501.969.55 0 .32-.436-.501-.969-.825-.533-1.95-.969-2.5-.969s-.325.436.5.969zm27.561 9.293c.38.986.94 1.541 1.25 1.233.3-.307 0-1.114-.69-1.793-.99-.98-1.1-.865-.56.56zm-248.561 6.711c-17.976 1.922-32.388 4.916-52.5 10.905-10.955 3.262-13.131 3.642-13.834 2.42-1.149-1.999-.241-3.906 2.811-5.906 2.926-1.917 4.463-1.261 2.523 1.077-2.107 2.539-.478 2.768 4.282.599 9.789-4.459 28.707-8.152 51.218-9.999 18.39-1.508 22.202-.882 5.5.904zm-20.187 8.679c.721.289 1.584.253 1.916-.079.332-.332-.258-.568-1.312-.525-1.165.048-1.402.285-.604.604z" fill="#E3ECE8"/></svg>