<svg width="704" height="408" viewBox="0 0 704 408" fill="none" xmlns="http://www.w3.org/2000/svg"><path d="M-119.975 556.302c35.648-52.086 166.026-170.834 402.355-229.139 295.411-72.882 458.118.016 533.694 25.009 72.398 23.942 75.377-21.079 41.551-26.718-49.79-8.3-369.234-35.322-513.197-131.244-175.13-116.687 2.625-327.319 282.59-271.15" stroke="#689885"/><path d="M415.832 191.35c-24.999 3.887-77.853 3.435-89.274-29.472-14.277-41.133 50.1-69.617 144.33-87.844C565.119 55.806 656.303 4.345 654.227-43.974" stroke="#689885"/><path d="M749.473-37.895c24.461 18.402 60.883 70.342 10.883 130.884-62.5 75.678-186.497 114.812-199.887 97.131-13.39-17.682 107.26-75.832 94.818-124.255-12.442-48.422-117.24-21.966-141.223 23.58-21.985 41.751 46.266 162.101 177.698 191.787 214.904 48.539 209.055-117.979 103.909-153.235" stroke="#689885"/></svg>