<svg width="44" height="44" viewBox="0 0 44 44" fill="none" xmlns="http://www.w3.org/2000/svg"><path fill-rule="evenodd" clip-rule="evenodd" d="M22 12.139a9.557 9.557 0 00-3.679 7.54 9.556 9.556 0 003.68 7.54 9.556 9.556 0 003.678-7.54 9.556 9.556 0 00-3.678-7.54zm5.953-2.055c-1.972 0-3.805.59-5.332 1.603.078.064.157.127.233.192a10.32 10.32 0 013.57 7.8c0 2.99-1.301 5.833-3.57 7.8-.075.066-.155.129-.233.192a9.61 9.61 0 005.332 1.604c5.319 0 9.63-4.296 9.63-9.596s-4.311-9.595-9.63-9.595zm-6.806 17.395c.075.066.155.129.233.192a9.61 9.61 0 01-5.332 1.604c-5.32 0-9.631-4.296-9.631-9.596s4.312-9.595 9.631-9.595c1.972 0 3.805.59 5.332 1.603-.078.064-.157.127-.233.192a10.32 10.32 0 00-3.57 7.8 10.32 10.32 0 003.57 7.8zm16.135-1.853v-.373h-.097l-.113.256-.112-.256h-.098v.373h.07v-.282l.105.243h.071l.105-.243v.282h.07zm-.618 0v-.31h.125v-.062h-.319v.063h.126v.309h.068zm.301 8.284v.063h.058a.06.06 0 00.032-.008c.008-.005.011-.013.011-.024a.027.027 0 00-.011-.023.062.062 0 00-.032-.008h-.058zm.058-.044a.11.11 0 01.07.02.067.067 0 01.025.055c0 .02-.007.035-.02.048a.096.096 0 01-.055.024l.077.088h-.06l-.072-.088h-.023v.088h-.05v-.235h.108zm-.014.316a.193.193 0 00.18-.12.192.192 0 00.016-.078.193.193 0 00-.058-.14.193.193 0 00-.138-.056.2.2 0 00-.142.057.2.2 0 00-.057.14.197.197 0 00.199.197zm0-.45a.257.257 0 01.258.252.243.243 0 01-.076.179.267.267 0 01-.182.075.259.259 0 01-.26-.254.242.242 0 01.075-.179.252.252 0 01.185-.074zm-23.858-.906c0-.447.295-.815.776-.815.46 0 .77.352.77.815 0 .464-.31.816-.77.816-.481 0-.776-.368-.776-.816zm2.07 0v-1.274h-.556v.31c-.176-.23-.444-.373-.807-.373-.717 0-1.28.56-1.28 1.337 0 .779.563 1.338 1.28 1.338.363 0 .631-.144.807-.373v.31h.557v-1.275zm18.79 0c0-.447.294-.815.775-.815.46 0 .77.352.77.815 0 .464-.31.816-.77.816-.481 0-.775-.368-.775-.816zm2.07 0V30.53h-.556v1.333c-.177-.23-.444-.373-.808-.373-.717 0-1.279.56-1.279 1.337 0 .779.562 1.338 1.279 1.338.364 0 .631-.144.808-.373v.31h.556v-1.275zm-13.958-.842c.359 0 .589.224.647.618h-1.326c.059-.367.283-.618.679-.618zm.011-.495c-.75 0-1.274.543-1.274 1.337 0 .81.546 1.338 1.311 1.338.385 0 .739-.096 1.049-.357l-.273-.41a1.22 1.22 0 01-.744.266c-.358 0-.684-.165-.765-.623h1.9c.005-.07.01-.139.01-.214-.005-.794-.497-1.337-1.214-1.337zm6.714 1.337c0-.447.294-.815.776-.815.46 0 .77.352.77.815 0 .464-.31.816-.77.816-.482 0-.776-.368-.776-.816zm2.07 0v-1.274h-.556v.31c-.176-.23-.444-.373-.808-.373-.717 0-1.279.56-1.279 1.337 0 .779.562 1.338 1.279 1.338.364 0 .632-.144.808-.373v.31h.556v-1.275zm-5.21 0c0 .774.54 1.338 1.364 1.338.385 0 .642-.085.92-.303l-.267-.448a1.129 1.129 0 01-.67.229c-.443-.005-.77-.325-.77-.816 0-.49.327-.81.77-.815.242 0 .46.08.67.23l.267-.449c-.278-.218-.535-.303-.92-.303-.824 0-1.365.565-1.365 1.337zm7.168-1.337a.754.754 0 00-.673.373v-.31h-.552v2.549h.557v-1.429c0-.421.181-.656.545-.656a.91.91 0 01.348.064l.171-.522a1.193 1.193 0 00-.396-.07zm-14.905.266c-.267-.176-.636-.266-1.043-.266-.647 0-1.064.309-1.064.815 0 .416.31.672.882.752l.263.037c.304.042.449.122.449.266 0 .198-.203.31-.583.31-.385 0-.664-.123-.85-.267l-.263.432c.305.223.69.33 1.107.33.739 0 1.167-.346 1.167-.83 0-.449-.337-.683-.894-.764l-.262-.037c-.24-.032-.433-.08-.433-.25 0-.187.182-.299.487-.299.326 0 .642.123.797.219l.24-.448zm7.175-.266c-.32 0-.53.149-.674.373v-.31h-.551v2.549h.556v-1.429c0-.421.182-.656.546-.656a.91.91 0 01.348.064l.17-.522a1.191 1.191 0 00-.395-.07zm-4.745.063h-.91v-.772h-.561v.772h-.52v.507h.52v1.162c0 .592.23.943.887.943.24 0 .52-.074.696-.197l-.16-.474a1.028 1.028 0 01-.493.144c-.278 0-.369-.17-.369-.427v-1.15h.91v-.506zm-8.315 2.549v-1.6c0-.602-.384-1.007-1.005-1.012-.326-.006-.663.095-.899.453-.176-.283-.455-.453-.845-.453-.273 0-.54.08-.75.378v-.315h-.555v2.549h.561v-1.413c0-.443.246-.677.626-.677.37 0 .557.24.557.671v1.419h.561v-1.413c0-.443.257-.677.626-.677.38 0 .562.24.562.671v1.419h.561z" fill="#fff"/></svg>