<svg width="44" height="44" viewBox="0 0 44 44" fill="none" xmlns="http://www.w3.org/2000/svg"><path fill-rule="evenodd" clip-rule="evenodd" d="M14.838 29.105l2.15-13.284h3.443l-2.152 13.284h-3.44zm19.392-1.973l-.718 1.973h-3.585l5.131-12.294s.31-.99 1.589-.99h2.766l2.754 13.284h-3.16l-.403-1.973h-4.373zM20.911 25.6c1.41 1.137 5.679 1.46 5.679-.342 0-1.803-4.76-1.845-4.76-5.277 0-3.647 4.055-4.398 5.763-4.398 1.578 0 3.094.58 3.094.58l-.49 2.852c-1.474-.815-4.825-1.007-4.825.494 0 1.502 4.802 1.823 4.802 5.277 0 3.325-3.543 4.547-5.89 4.547-2.348 0-3.885-.75-3.885-.75l.512-2.983zM7.118 17.018l1.157 5.974.389 1.968 3.28-9.137h3.704l-5.475 13.284H6.589L3.602 17.58c-.067-.04-.135-.087-.202-.125a12.872 12.872 0 00-.823-.443c-.093-.047-.19-.096-.28-.139a13.947 13.947 0 00-.57-.25c-.069-.029-.137-.058-.203-.084a13.805 13.805 0 00-.513-.191l-.204-.067a7.95 7.95 0 00-.287-.092 6.048 6.048 0 00-.349-.099l-.083-.023-.088-.02.063-.226h5.423c1.493 0 1.632 1.197 1.632 1.197zm29.912 2.417l-1.809 4.97h2.825l-1.016-4.97z" fill="#fff"/></svg>