<svg width="44" height="44" viewBox="0 0 44 44" fill="none" xmlns="http://www.w3.org/2000/svg"><path d="M28.128 15.676h1.64v11.586h-3.681v-6.767c0-.167-.234-.219-.308-.068l-3.028 6.126a1.29 1.29 0 01-1.16.709h-3.807V15.676h3.566c.064 0 .117.05.117.112v6.628c0 .29.404.377.53.114l2.921-6.13a1.29 1.29 0 011.169-.724h2.04zm-14.621 0h2.397v11.586h-3.597V20.58c0-.181-.256-.22-.309-.046L9.91 27.261H6.912l-2.09-6.729c-.052-.172-.308-.134-.308.047v6.682H.917V15.676H5.17c.558 0 1.05.366 1.206.9l1.774 6.049c.076.259.446.259.52 0l1.775-6.049c.157-.534.649-.9 1.206-.9h1.856zm21.212 5.414h8.075a4.06 4.06 0 01-3.766 2.473H34.72v3.699h-3.683V21.09h3.683z" fill="#fff"/><path d="M30.434 15.676c0 2.615 3.41 4.734 6.103 4.734h6.415c.056-.26.083-.525.083-.79 0-2.179-1.819-3.944-4.062-3.944h-8.54z" fill="#BDD2CA"/></svg>