<svg version="1.1" id="Слой_1" xmlns="http://www.w3.org/2000/svg" xmlns:xlink="http://www.w3.org/1999/xlink" x="0" y="0" viewBox="0 0 196 41.5" xml:space="preserve"><defs><path id="SVGID_1_" d="M.3 0H196v41.5H.3z"/></defs><clipPath id="SVGID_2_"><use xlink:href="#SVGID_1_" overflow="visible"/></clipPath><path d="M98-24.9v.6c.1 3.7.4 21.9-22.5 21.9-21.1 0-21.6-17.8-21.6-21.5 0-3.7 1.7-21.5 21.6-21.5C98.1-45.4 98-27.9 98-24.9zm-1.6.2c0-7-5.9-13.2-20.9-13.2-13.9 0-20 7.3-20 14s3.8 14 20 14 20.9-7.8 20.9-14.8zM49.8-35.8v26.2h3.8c.2 0 .4.2.4.4v6.5c0 .2-.2.4-.4.4H9.7c-.2 0-.4-.2-.4-.4v-6.5c0-.2.2-.4.4-.4h5.4c.2 0 .3-.1.3-.3.2-.9.6-2.8 1.1-5.2.7-3.5 1.7-8.2 2.7-12.9 2.3-10.4 12.2-17.5 22.1-17.5 3.5.1 8.5 1.3 8.5 9.7zM17.9-9.6h29.5v-22.9c0-3.3-1.8-4.4-5-4.4-16.1 0-20.5 7.1-21.8 12.4-.7 2.9-1.9 8.7-2.6 12.2-.2.9-.4 1.7-.5 2.3 0 .2.1.4.4.4zm23.7 51.5h5.7c.3 0 .4-.4.2-.6-1.7-1.7-4.1-5.2-4.1-9.6v-9.6c0-.2.1-.3.3-.3h32.9c.2 0 .3.1.3.3v9.6c0 5.1-2.6 8-4.3 9.7-.2.2-.1.6.2.6h5.7c.2 0 .3-.1.3-.3V.3c0-.2-.1-.3-.3-.3h-5.6c-.3 0-.4.4-.2.6C74.4 2.4 77 5.9 77 10v3.9c0 .1 0 .1-.1 0-.1 0-.1-.1-.2-.1H43.8c-.2 0-.3-.1-.3-.3V10c0-2.6.9-6.6 4.1-9.3.2-.3 0-.7-.3-.7h-5.7c-.2 0-.3.1-.3.3v41.2c0 .2.1.4.3.4zM0 .3v41.2c0 .2.1.3.3.3h5.9c.3 0 .4-.4.2-.6-1.7-1.4-4.2-4.3-4.2-10.4V22c0-.2.1-.3.3-.3h25.1c2.4 0 4.9.6 2.4 5.2-2 3.7-2.5 4.6-3.1 5.9-.2.3-.3.6-.5 1-1.1 2.1-3.5 8 4.5 8H39c.2 0 .3-.2.3-.3-.1-1.2-.3-2.7-3.5-3.6-4.2-1.3-7.7-2.6-4.8-8.4.3-.5.5-1.1.8-1.6 1-1.9 1.9-3.9 2.8-5.6 1-2 3.5-7.9-4.1-7.9h-6.4c-.4 0-.4-.5-.1-.6 2.7-.9 6.5-2.4 9-4.5 4.2-3.5 5-6.9 5.1-8.9.2-.3 0-.4-.1-.4H26.4c-.3 0-.4.4-.2.6 1 .9 2.5 2.4 2.5 4.4 0 2.4-2.9 8.7-13.3 8.7H7.2c-3.2 0-5.1-.7-5.1-5 0-3.8 2-6.6 3.5-8 .3-.2.2-.7-.1-.7H.3C.1 0 0 .1 0 .3zM86.6 0h-4.7c-.2 0-.4.2-.4.3v41.2c0 .2.2.3.4.3 10.6-.1 14.5-3.3 19.5-18.9 3.9-12.2 11.2-15.2 14.6-15 .2 0 .3.2.3.3v25.4c0 3.2-1.9 6-3.3 7.4-.2.2-.1.7.3.7h4.7c.2 0 .4-.2.4-.3V.3c0-.2-.2-.3-.4-.3-6.3.1-12.6 3.1-17.2 19.9-3.2 11.7-9.8 14-16.8 14-.2 0-.4-.2-.4-.3V10.2c0-4.5 1.7-7.8 3.2-9.4.4-.3.2-.8-.2-.8zm72.8 0h4.7c.3 0 .5.5.3.7-1.5 1.6-3.2 4.9-3.2 9.4v23.4c0 .2.2.4.4.3 7-.1 13.6-2.4 16.8-14C183 3.1 189.3.1 195.6 0c.2 0 .4.1.4.3v41.2c0 .2-.2.3-.4.3h-4.7c-.3 0-.5-.4-.3-.7 1.4-1.4 3.3-4.2 3.3-7.4V8.4c0-.2-.1-.3-.3-.3-3.4-.3-10.7 2.7-14.6 15-5 15.6-9 18.8-19.5 18.9-.2 0-.4-.1-.4-.3V.3c0-.1.2-.3.3-.3zm-38.6.4v41.2c0 .2.2.4.4.4h4.7c.3 0 .5-.4.3-.7-1.5-1.6-3.2-4.6-3.2-9.5v-24c0-.2.2-.4.3-.4h25.5c3.5 0 6.1 1.2 7.4 2.2.3.2.7 0 .7-.3V.4c0-.2-.2-.4-.4-.4h-35.2c-.3 0-.5.2-.5.4zM98.4-2.4h15.1c.2 0 .4-.2.3-.4-.2-1.3-1.7-3.7-6.3-4.8-5-1.2-5.9-5.5-5.6-7.4l2.7-17.5c.1-1.8 1.5-5.3 6.2-5.3 5.6 0 7.4 3.5 8 5.3l5.3 14.4L119-4.6c-.4 1.1.4 2.3 1.5 2.3h9.6c1.2 0 2-1.2 1.6-2.2l-5.1-13.4 5.4-13.9c.8-1.9 2.5-5.9 7.6-5.9 5 0 6.1 3.5 6.3 5.3l2.6 17.5c.8 5.3-3 6.6-6.6 7.8-.2.1-.5.2-.7.2-3.4 1.2-4.1 3.2-4.1 4.3 0 .2.2.3.3.3h14.7c.2 0 .4-.2.4-.4L147.3-37v-.2c-.7-2.8-2-8.2-7.8-8.2-5.2 0-7.2 5.6-8.1 8.3l-6.1 15.8-6-15.8c-.1-.3-.3-.7-.4-1-1.6-4.2-2.7-7.3-8.2-7.3-6.2 0-7.4 6.8-8 10.2L98.1-2.8c0 .2.1.4.3.4zm97.2-32.5l-.2-.2h-.4c-.2 0-.4 0-.5.1-.8.2-1.6.2-2.4.1h-.1c-.5-.1-1.1-.2-1.6-.1-.3 0-.5.1-.8.1-.6.2-1.1.6-1.5 1-.1.1-.3.2-.5.3 0 0-.1 0-.1.1h-.2c0-.1 0-.1.1-.1.3-.7.4-1.4.4-2.2 0-1.1-.4-2.1-1-3-.1-.2-.3-.4-.4-.6-.1-.2-.3-.4-.4-.6-.1-.1-.1-.2-.2-.3-.1-.1-.2-.3-.2-.4-.1-.2-.2-.2-.4-.1-.7.6-1.2 1.4-1.3 2.2-.2.9-.2 1.9-.1 2.8 0 .6.2 1.1.6 1.6.4.5.6 1.1.8 1.7.1.7 0 1.3-.5 1.9l-.1.1h.3c.4 0 .8 0 1-.4l.1-.1c.8-.6 1.6-1 2.6-1 .8 0 1.5.1 2 .8 0 0 0 .1.1.1l.1.1c.1.1.1.1.2.1.2-.1.3-.1.5-.2l.9-.3c.2-.1.5-.2.7-.3.8-.5 1.5-1.3 2-2.2.1-.1.2-.3.3-.4l.1-.1c-.1-.2 0-.3.1-.5zm-4.8 7.2c.1-.3.1-.7.2-1 .1-1.1-.5-1.9-1.5-2.4-.7-.3-1.4-.2-2.1.1-.3.2-.7.3-1 .5-.1.1-.3.2-.4.2-.6.3-1.3.6-2 .8-.9.1-2.1-.4-2.5-1.3-.2-.3-.4-.7-.5-1-.1-.1-.2-.3-.2-.4.4-.3.4-.4.5-.7.2-.5.2-1 .2-1.6 0-.2-.1-.3-.2-.5-.4-.6-1-.9-1.6-1-.5-.1-.9 0-1.2.3-.2.1-.4.3-.6.4-.1 0-.1 0-.2.1h-.2c-1.4-.8-2.9-1-4.5-1-.7 0-1.4.1-2 .2-1.3.2-2.5.6-3.6 1.2-1.8 1.1-3 2.7-3.7 4.7-.6 1.6-.9 3.3-.9 5 0 1.1 0 2.3.1 3.4.2 1 .3 2.1.6 3.1.4 1.7.9 3.4 1.8 5 .7 1.4 1.6 2.7 2.9 3.7.8.6 1.7 1.1 2.7 1.4 1.1.3 2.1.4 3.2.3 1.5-.1 2.7-.7 3.9-1.6 1.1-.9 1.9-2.1 2.6-3.3.8-1.5 1.3-3 1.7-4.6.3-1 .5-2 .7-3 .1-.3.2-.7.2-1 .3-1.1.3-2.2.1-3.4 0-.2 0-.5-.1-.7v-.3h.2c.8.2 1.6.4 2.4.4.8 0 1.5-.2 2.1-.6.2-.1.3-.2.5-.4l.2-.2c.5-.4 1-.7 1.7-.6.2 0 .3.1.5.2.1 0 .2.1.2.1-.2-.2-.2-.3-.2-.5zm-24.1-.4c-.6-.1-1.1-.6-1.1-1.3 0-.6.2-1.3.6-1.8.2-.3.5-.5.8-.7h.1c1-.8 2.2-1.2 3.5-1.4.9-.1 1.8-.2 2.7-.1.5 0 1 .1 1.5.2.2 0 .4.1.7.1h.1c-.2.7-.6 1-1.1.9-.9-.2-1.9.5-2.1 1.3-.1.3 0 .5.2.6.1-.1.2-.1.3-.2.2-.2.4-.3.6-.5.2-.2.5-.3.8-.2.2.1.3.1.4.3.4.4.8.6 1.4.7.7.1 1.2-.1 1.4-.8.1-.4.3-.7.6-1 .1-.1.1-.1.2 0 .5.3.8.9 1 1.4.2.4.2.8.2 1.2 0 .7-.4 1.2-1.1 1.3h-3.2c-.5 0-1 .2-1.2.6-.1.2-.2.5-.2.7-.2 1.3-.2 2.6-.2 3.9 0 .4.1.8.1 1.2 0 .2.1.4.1.6.1.5 0 .9-.4 1.2-.5.4-1.6.3-1.8-.5-.1-.3-.1-.6 0-.9v-.3c.1-.4.1-.9.1-1.3v-2.4c0-.5-.1-1.1-.1-1.6-.1-.8-.6-1.2-1.3-1.2h-2c-.7.1-1.2.1-1.6 0zm6.7 9.1c-.2 0-.2-.2-.1-.3.2-.2.5-.3.8-.3.2 0 .3.1.3.3 0 .1-.1.2-.2.2s-.3.1-.4.1h-.2c-.1.1-.2.1-.2 0zm-2.3-.7c.3 0 .5.2.8.4 0 0 .1.1.1.2s-.1.1-.2.1h-.4c-.1 0-.2 0-.4-.1-.1 0-.3-.1-.2-.3 0-.1.1-.3.3-.3zm10-6.4c.1.7.3 1.3.4 2v.1c.1.5.3 1 .2 1.6 0 .8-.2 1.5-.6 2.1-.3.6-.6 1.2-1 1.8-.4.7-.7 1.5-1 2.3-.1.3-.2.7-.3 1-.2.7-.4 1.4-.6 2-.2.6-.4 1.2-.7 1.7-.6 1-1.5 1.7-2.5 2.2-1.1.4-2.2.6-3.3.5-1.7-.2-3-1-4-2.3-.6-.7-1-1.5-1.3-2.4-.2-.6-.4-1.2-.7-1.9-.2-.6-.4-1.2-.7-1.9-.1-.4-.3-.8-.5-1.2-.1-.2-.1-.3-.2-.5-.4-1-.7-2-.6-3.1 0-.6.2-1.2.4-1.8.2-.6.2-1.1.2-1.7v-2s.1 0 .1.1c.2.2.5.3.8.3h2.3c.6 0 1.1 0 1.7.1.9.1 1.4.6 1.7 1.4.3.8.3 1.6.1 2.5-.1.4-.1.7-.2 1.1 0 .2-.1.3-.1.5s-.1.4-.4.6c-.4.2-.5.6-.5 1 0 .3 0 .6.2.9.1.2.3.3.5.4.9.1 1.9.2 2.8.1h.7c.4 0 .6-.2.7-.5.2-.5.2-1-.1-1.5l-.3-.3c-.1-.1-.2-.1-.2-.2-.1-.1-.1-.2-.1-.3 0-.2-.1-.4-.1-.5l-.3-1.5c-.2-1 0-2 .6-2.9.2-.3.5-.4.8-.5.6-.2 1.1-.2 1.7-.2h2.4c.6 0 1.1 0 1.5-.6v.2c0 .2.1.3.1.5.3.2.4.5.4.8zm-14.5-12.6c0 .3-.2.4-.4.5-.5.1-.9-.1-1.3-.5-.6-.7-.5-1.4.2-1.9.2-.1.4-.3.6-.3 1-.3 2-.1 2.8.6.3.3.5.6.6 1 .1.9 0 1.7-.6 2.4-.3.4-.7.7-1.1 1-.4.3-.9.5-1.3.8-.8.4-1.4 1-2 1.8-.7 1-1.2 2.1-1.7 3.2 0 .1-.1.2-.1.3-.1.2-.1.4-.2.5 0 .1-.1.2-.2.2s-.2-.1-.2-.1v-.1c-.1-.3-.2-.5-.2-.8-.1-.9-.1-1.8.1-2.7.2-1 .8-1.8 1.5-2.4.4-.3.8-.7 1.3-1 .2-.2.4-.3.7-.5.6-.4 1.1-.9 1.5-1.4l.3-.6c.1-.3-.2-.7-.6-.8 0 .1 0 .1.1.2s.2.4.2.6zM189-26.1c.1-.1.3-.1.4-.2.2-.1.3 0 .3.2s.1.4.1.7c-.1.3-.1.6-.2.9-.1.2-.1.5-.2.7-.1.3-.1.6-.3.9-.2.4-.1.9.1 1.3.1.4.1.7 0 1.1-.2.5-.7.8-1.2.9-.7.2-1.4.1-2.1-.1-.4-.1-.8-.2-1.1-.5-.4-.4-.7-.9-.8-1.4-.1-.5-.1-.9-.1-1.4 0-.4 0-.9-.1-1.3v-.6c.1 0 .2.1.4.1.2.1.5.1.7.1 1.1.2 2-.1 2.9-.6.2-.1.3-.2.5-.3.3-.2.5-.4.7-.5zm-25.9 10.7c.1.1.1.2.2.4.4.7.7 1.5.8 2.3.1.8.1 1.7-.1 2.5-.2.9-.7 1.6-1.4 2.1-.1 0-.1.1-.2.1 0-.2.1-.3.1-.4.1-.3.2-.7.3-1 .2-1.1.1-2.1-.5-3-.2-.3-.5-.5-.8-.5h-2c-.5-.1-.8-.3-.9-.8-.2-.6-.2-1.2.1-1.7.2-.3.4-.5.6-.7.1-.1.2-.2.4-.3h.1c.5-.4.6-.8.5-1.4-.1-.3-.1-.6-.2-.9 0-.1 0-.2-.1-.3v-.2c0-.2.2-.3.4-.2.4.3.6.6.9 1 .5.8 1 1.6 1.4 2.5.2 0 .3.2.4.5zm-2-18.6c-.1.1-.1.2-.2.3-.7-.4-1.2-.8-1.3-1.6-.2-1-.3-2.1-.1-3.1.1-.5.3-1 .6-1.4.1-.2.2-.3.3-.5.2-.2.3-.5.5-.7.3-.4.5-.9.7-1.3l.3-.6c0-.1.1-.2.1-.2.2-.2.3-.2.5 0 .1.2.2.3.2.5.3 1 .6 1.9.9 2.9.3 1 .1 1.9-.3 2.8-.4.9-1 1.6-1.7 2.4l-.5.5zm8.3-7.2c-.1.1-.1.1 0 0-.4-.5-1-.7-1.6-.9h-.2c.3-.7.7-1.3 1.2-1.8.9-.9 1.9-1.4 3.2-1.5.8-.1 1.6.1 2.3.5 1 .5 1.9 1.1 2.6 2 .1.1.2.3.3.5.1.1.1.2.2.2-.7.2-1.3.5-1.6 1.2l-.1-.1c-.1-.1-.2-.2-.2-.3-.7-.7-1.6-1.2-2.7-1.3-.5-.1-.9.1-1.3.2-.9.2-1.6.7-2.1 1.3zm15.5 32.9c.3 0 .5 0 .8-.2.2-.1.4 0 .4.2s0 .5-.1.7c-.3.7-.7 1.3-1.3 1.7-.3.2-.6.3-1 .3-1-.1-2-.4-2.8-1.2l-.8-.8-.7-.7c-.2-.2-.4-.3-.6-.4-.1 0-.2-.1-.3-.1-.1 0-.2 0-.2.1-.1.1-.2 0-.2-.1v-.4c.2-.5.6-.9 1-1.2l.6-.3c.4-.2.8-.2 1.2.1.4.3.8.5 1.2.8.1 0 .1.1.2.1.2.1.3.2.5.3.3.2.5.4.8.6.2.3.7.4 1.3.5zm-23.2-17.4c.2 0 .3.1.2.3 0 .1 0 .2-.1.3-.2.6-.2 1.2-.1 1.8.1.3.1.5.1.8v.4c0 .2 0 .3.1.5 0 .4.1.8.1 1.1v.9c-.1.3-.3.4-.6.1-.1-.1-.2-.2-.2-.3 0-.1-.1-.1-.1-.2l-.1-.1c-.1-.1-.2-.3-.4-.4-.1-.1-.3-.2-.4-.2h-.5c-.3.1-.6-.1-.9-.2h-.1c-.7-.4-1-1-1.1-1.8v-.6c0-.4.1-.8.2-1.2.2-.6.4-1.3.5-1.9 0-.2.1-.5.2-.7.1-.1.1-.1.2 0 .1.2.2.3.3.5l.1.1c.2.3.5.5.7.7.1.1.2.1.4.1h1c.2-.1.4-.1.5 0zm-1.2-1.5c-.6-.3-1.2-.7-1.8-1.1-.6-.4-.9-1-1.2-1.7-.4-.9-.5-1.9-.5-2.9 0-.7.1-1.4.3-2.1 0-.1.1-.2.1-.4.1-.3.3-.4.6-.2s.6.5.7.8c.1.1.1.2.2.4.1.1.1.3.2.4.1.2.3.5.5.7.1.1.2.3.3.4.4.6.7 1.1.9 1.8.1.4 0 .8 0 1.2v.2c0 .2-.1.5-.1.8 0 .6.2 1.1.6 1.6l.1.1.1.1v.1h-.1c-.1 0-.2 0-.2-.1-.2.1-.4 0-.7-.1zm14.7-12.5c-.4.1-.9.3-1.2.5l-.3.3c-.1.1-.2.3-.1.4.1.2.2.3.4.3s.4-.1.6-.2c.3-.1.3-.1.4.2 0 .3.1.6.1.8 0 .1 0 .2.1.4-1.8.1-3.6.1-5.5 0v-.7c0-.2 0-.3.1-.5 0-.3.1-.3.3-.2.2.1.4.1.6.2.2 0 .4-.1.5-.3.1-.2 0-.4-.1-.5-.3-.2-.5-.4-.8-.6-.2-.1-.4-.2-.6-.2h-.1c-.1 0-.1-.1-.1-.2.1-.5.4-.8.8-1 1.2-.8 2.5-.8 3.8-.2.4.2.8.4 1 .8.1.1.1.3.2.4v.1c.1.1 0 .2-.1.2zm5.6-.9c-.3-.4-.7-.7-1.2-.9-.2-.1-.2-.1-.2-.3.1-.5.2-1.1.1-1.6 0-.4 0-.8.1-1.2v-.2l.2-.2s.2.1.2.2l.2.2.1.1c.2.3.5.5.8.7.7.4 1.2.9 1.4 1.6l.3.6c0 .1.1.2.1.2.2.4.3.9.3 1.4v.4c0 .6 0 1.3-.2 1.9-.1.3-.2.5-.3.8-.1.1-.1.2-.2.3 0 .1-.1.2-.1.3 0 0 0 .1-.1.1-.6-.3-1.9-1.3-2.2-1.8 0 0 0-.1.1-.1l.2-.2c.7-.6.8-1.6.4-2.3zm4.9 25.4c.1 0 .1 0 .1.1.3.3.5.7.5 1.1 0 .4 0 .9-.1 1.3-.1.8-.2 1.6-.5 2.3 0 .1-.1.2-.1.3 0 .1-.1.1-.1.2-.1.3-.4.4-.7.5-.4 0-.8-.1-1.1-.3-.9-.6-1.6-1.3-2.1-2.2-.3-.6-.2-1.2.1-1.8.5.3 1.1.5 1.7.6.5.1 1 0 1.4-.2.4-.2.6-.6.6-1v-.7c.2-.2.2-.2.3-.2zm-10-23.4c0-.5 0-.9.3-1.3.3-.5.8-.8 1.3-1 .7-.2 1.4-.3 2.1 0 .3.1.5.3.7.5.3.4.3 1 0 1.5-.2.3-.5.6-.9.6-.2 0-.4 0-.6-.1-.2-.1-.3-.4-.3-.6 0-.1.1-.3.1-.4 0-.1.1-.2.1-.3-.4.1-.8.5-.7.8 0 .2.1.4.3.5.4.4.9.8 1.3 1.2.1.1.3.2.4.3.1 0 .1.1.2.1h-1c-.5 0-.9.2-1.2.5h-.2c-.1-.1-.2-.2-.3-.2-.3-.2-.6-.5-.9-.7-.6-.3-.7-.8-.7-1.4zm-15.5 26.3c.6.1 1.1.3 1.5.7.3.4.5.8.5 1.3s0 1.1-.2 1.6c-.2.7-.6 1.1-1.3 1.4-.8.3-1.7.3-2.4-.2-.6-.4-1.1-.9-1.2-1.7-.1-.3 0-.6.1-.8.1-.3.3-.3.5-.1.1.2.3.3.5.4.7.1 1.3-.1 1.9-.5.2-.2.3-.5.3-.8v-.1c0-.3-.1-.7-.2-1.2zm23.1-5.6c.2-.5.3-1.1.4-1.7 1.1 1 2.4 1.1 3.8.8v.2c-.4.4-.8.8-1.3 1.1l-.1.1c-.2.2-.4.3-.6.5-.2.2-.2.4-.2.6 0 .4-.1.9-.3 1.2-.3.6-.9.8-1.5.9h-.7c-.3 0-.4-.2-.4-.5 0-.4.1-.7.3-1.1.1-.3.3-.6.4-1-.1-.4 0-.7.2-1.1zm-1.8-13.9s0-.1 0 0c-.1-.2-.1-.2 0-.3.6-1 .7-2 .4-3.1.1 0 .2.1.2.1.2.1.3.2.5.3.6.4 1 1 1.4 1.6.2.3.3.6.4.9.2.6-.1 1.1-.5 1.5-.2.2-.5.4-.8.5-.2.1-.4 0-.6-.1-.4-.4-.7-.8-1-1.4zm-10 28.6c.2-.5.3-.9.2-1.4-.1-1.2-1.3-1.4-2.1-1-.4.2-.6.8-.5 1.3.1.4.3.6.6.7.4.1.7 0 1-.4v-.1h.1c0 .4 0 .7-.2 1-.1.2-.3.2-.5.2s-.4-.2-.6-.4c0-.1-.1-.1-.1-.2l-.1-.1h-.1v.8l.1.1c.2.1.3.1.5.1.3.1.6 0 .9-.1.4 0 .6-.2.8-.5zm-1-2.1c.3.3.3.6.3 1l-.1.1c-.1 0-.2 0-.3.1-.5 0-.8-.3-.8-.7 0-.2.1-.4.3-.5.1 0 .2-.1.3 0 .2-.1.3-.1.3 0zm6.5 2.5c.6-.5.7-1.6.4-2.3-.1-.2-.2-.3-.3-.4-.4-.3-.8-.4-1.3-.3-.8.2-1.1 1.2-.7 1.8.4.5 1.1.5 1.5 0l.1-.1c0 .4 0 .7-.2.9-.1.2-.4.4-.6.3-.1 0-.3-.1-.4-.2l-.3-.3-.1-.1v.7l.1.1c.5.4 1.3.4 1.8-.1zm-.6-2.5c.2.2.3.4.3.7.1.4 0 .5-.4.5-.5 0-.8-.3-.8-.7 0-.2.1-.4.3-.5.2-.2.4-.2.6 0zm-2.8-.3c.1 0 .2 0 .2.2v2.9c0 .1-.1.2-.2.2h-.5c-.1 0-.2-.1-.2-.2v-2.4c0-.1-.1-.1-.1-.2l-.3-.3-.1-.1h.9c.1-.1.2-.1.3-.1zm-5.8 0c.1 0 .1.1.1.2v3h-.8v-2.5c0-.1-.1-.1-.1-.2l-.3-.3-.1-.1h.4c.3-.1.5-.1.8-.1zm10.9 1.9h.6l.1.1v.3c0-.1-.1-.1-.1-.1-.1 0-.1-.1-.2-.1 0 0-.1.1-.1.2v.5c0 .2 0 .2-.2.2h-.2v-1.1c-.1.1 0 .1.1 0-.1 0-.1 0 0 0zm2-21.2c0-.1-.1-.2-.1-.2-.5-.6-1.1-1-1.8-1.1-.7-.1-1.4-.1-2.1 0-.3 0-.7.1-1 .2-.1 0-.3.1-.4.2s-.2.2-.3.4v.2h.4c.1 0 .2-.1.3-.1.1 0 .1 0 .2-.1v.1c-.4.4-.6.9-.7 1.4v.2c-.1.2.1.4.3.4h.4c.2 0 .4.1.6.2 0 0 .1 0 .1.1.8.6 1.7.7 2.6.4.5-.2.9-.5 1.1-1 0-.1.1-.2.1-.3l-.3-.6c-.1-.1-.1-.2-.2-.3 0-.1-.1-.1-.1-.2h.1l.6.3h.1c-.2-.2-.1-.1.1-.2zm-2.3-.4c.1.1.3.1.4.2.3.2.6.5.8.9.1.1 0 .3-.1.4-.2.3-.6.5-1 .6-.7.2-1.5.1-2.2-.3-.3-.1-.5-.2-.9-.2-.1 0-.2-.1-.2-.2l.1-.1c.3-.4.5-.9 1.1-1.1.1 0 .1 0 .2-.1h.1c-.1.3-.2.6-.2.9 0 .4.1.7.5.8.4.2.8.2 1.1 0 .3-.2.5-.8.3-1.2 0-.1-.1-.2-.1-.2-.1-.1-.1-.2-.1-.3.1-.2.2-.1.2-.1zm-9.4 1.9l.1-.1c.2-.1.3-.2.5-.1h.4c.2 0 .3-.2.3-.4v-.1c-.2-.5-.3-1-.7-1.4h.1c.1 0 .1.1.2.1s.2.1.3.1h.2v-.2c0-.1-.1-.1-.1-.2-.2-.2-.4-.4-.7-.4-.9-.2-1.9-.2-2.9 0-.6.1-1.2.5-1.6 1 0 .1-.1.2-.1.2v.1l1-.4v.2c0 .1-.1.1-.1.2-.1.1-.2.3-.3.4-.1.2-.2.4-.1.6.1.2.2.3.3.5.6.7 1.8.8 2.6.4.2-.2.4-.3.6-.5zm-.2-.3c-.8.4-1.6.4-2.4 0-.2-.1-.3-.2-.4-.4l-.1-.1v-.2c.1-.4.7-.9 1.1-1.1 0 .1-.1.1-.1.1-.1.1-.1.2-.1.3-.2.7.3 1.3 1 1.2.8-.1 1.1-.9.7-1.5l-.1-.1c.1 0 .1 0 .2.1.1 0 .3.1.4.2.2.1.4.3.5.5.1.1.2.3.3.5v.2s-.1.1-.2.1c-.2-.1-.5 0-.8.2zm4.2 8.3c.6-.1 1.1 0 1.6.3s.5.9.1 1.2c-.1.1-.3.1-.5.1h-3.8c-.3 0-.5-.2-.6-.5-.1-.3 0-.5.3-.7.5-.4 1.1-.5 1.8-.4.4.1.7.1 1.1 0zm0-1.7c.3-.3.6-.2 1-.1.7.3 1.3.8 1.7 1.4.1.1 0 .2-.1.3-.2.1-.4.1-.5.1-.1 0-.2-.1-.3-.2h-.1c-.1-.1-.2-.1-.3-.2-.3-.2-.7-.3-1.1-.1-.2.1-.5.2-.7.2-.3 0-.6 0-.9-.1-.5-.2-.9-.1-1.2.2-.2.1-.3.2-.5.3-.2.1-.4.2-.7 0-.2-.1-.2-.2-.1-.3.5-.7 1.1-1.2 1.9-1.4h.3c.2 0 .4.1.5.2.2.1.4.2.6.2.1-.3.3-.3.5-.5zm-1.3 4c.5-.1 1-.1 1.5.1.4.1.7.4.7.7-1.1-.3-2.1-.4-3.2 0l.1-.1c.1-.1.1-.2.2-.2.1-.3.4-.4.7-.5z" clip-path="url(#SVGID_2_)" fill-rule="evenodd" clip-rule="evenodd" fill="#fff"/></svg>